<?xml version="1.0" encoding="iso-8859-1"?>
<!-- Generator: Adobe Illustrator 24.0.3, SVG Export Plug-In . SVG Version: 6.00 Build 0)  -->
<svg version="1.1" id="&#x5716;&#x5C64;_1" xmlns="http://www.w3.org/2000/svg" xmlns:xlink="http://www.w3.org/1999/xlink" x="0px"
	 y="0px" viewBox="0 0 250 250" enable-background="new 0 0 250 250" xml:space="preserve">
<g>
	<polygon fill="#757E85" points="124.3584,125.0115 4.2517,185.0645 124.3584,245.1183 244.4652,185.0645 	"/>
	<polygon fill="#242A38" points="124.3584,245.1183 124.3584,250 4.2517,189.9462 4.2517,185.0645 	"/>
	<polygon fill="#5F6970" points="124.3584,245.1183 124.3584,250 244.4652,189.9462 244.4652,185.0645 	"/>
	<polygon fill="#757E85" points="124.3577,122.3107 9.0248,179.9767 124.3577,237.6436 239.6905,179.9767 	"/>
	<polygon fill="#242A38" points="124.3577,237.6436 124.3577,242.7545 9.0498,185.0826 9.0498,179.9716 	"/>
	<polygon fill="#5F6970" points="124.3577,237.6436 124.3577,242.7545 239.7245,185.0638 239.7245,179.9529 	"/>
	<polygon fill="#757E85" points="124.3584,119.6621 14.6441,174.5188 124.3584,229.3764 234.0727,174.5188 	"/>
	<polygon fill="#5F6970" points="114.7699,224.0198 25.4404,179.2636 133.9454,125.0115 223.2749,169.7668 	"/>
	<polygon fill="#242A38" points="119.6721,141.8518 56.3944,110.1482 133.2554,71.718 196.533,103.421 	"/>
	<polygon fill="#242A38" points="124.3584,229.3764 124.3584,234.7584 14.6981,179.8976 14.6981,174.5157 	"/>
	<polygon fill="#5F6970" points="124.3584,229.3764 124.3584,234.7584 234.0727,179.9012 234.0727,174.5192 	"/>
	<polygon fill="#242A38" points="56.3944,110.1482 56.3944,167.8994 119.6721,199.603 119.6721,141.8518 	"/>
	<polygon fill="#171C26" points="72.7584,138.294 72.7584,176.0067 103.3081,191.3128 103.3081,153.6001 	"/>
	<polygon fill="#242A38" points="196.533,103.421 196.533,161.1722 119.6721,199.603 119.6721,141.8518 	"/>
	<g>
		<path fill="#434C4F" d="M207.8357,174.031c-0.8974,0.1467-1.8531,0.2281-2.8475,0.2281c-1.6014,0-3.1068-0.2059-4.4194-0.5675
			v2.6644c1.3126,0.3616,2.818,0.5675,4.4194,0.5675c0.9946,0,1.9505-0.0815,2.848-0.2282v-2.6627L207.8357,174.031z"/>
		<path fill="#3D4547" d="M196.4375,171.3536l-0.0027,0.002v2.6587c0.8024,1.0002,2.2708,1.8287,4.134,2.3418v-2.6644
			C198.7079,173.1792,197.2406,172.3523,196.4375,171.3536z"/>
		<path fill="#3D4547" d="M196.4375,171.3536c-0.4332-0.5387-0.6771-1.1264-0.6771-1.7435v2.6646
			c0,0.6157,0.243,1.202,0.6744,1.7397v-2.6587L196.4375,171.3536z"/>
		<path fill="#4C565B" d="M214.2161,169.6101c0,0.6772-0.294,1.3188-0.8107,1.8991l0.0036,0.0028v2.6579
			c0.5146-0.5793,0.8071-1.2195,0.8071-1.8953V169.6101z"/>
		<path fill="#475054" d="M213.4053,171.5092c-1.0602,1.1906-3.0809,2.1152-5.5696,2.5219l0.0005,0.0016v2.6627
			c2.4912-0.4071,4.5137-1.3332,5.5727-2.5254v-2.6579L213.4053,171.5092z"/>
		<path fill="#3D4547" d="M197.5044,169.5647c-0.097-0.2449-0.1514-0.4977-0.1514-0.757c0-2.1245,3.4183-3.8467,7.6352-3.8467
			c-5.0964,0-9.2279,2.0814-9.2279,4.649h1.6728C197.4551,169.5943,197.482,169.5804,197.5044,169.5647z"/>
		<path fill="#4C565B" d="M212.6234,168.8078c0,0.2593-0.0543,0.512-0.1514,0.757c0.0224,0.0157,0.0493,0.0296,0.0712,0.0454h1.6728
			c0-2.5676-4.1315-4.649-9.2279-4.649C209.205,164.961,212.6234,166.6832,212.6234,168.8078z"/>
		<path fill="#4C565B" d="M212.472,169.5647c-0.1124,0.2837-0.2953,0.5531-0.5242,0.8105l1.4576,1.1339
			c0.5167-0.5803,0.8107-1.2218,0.8107-1.8991h-1.6728C212.5213,169.5943,212.4944,169.5804,212.472,169.5647z"/>
		<path fill="#475054" d="M204.9882,172.6544c-1.329,0-2.5596-0.1864-3.6479-0.4872l-0.7715,1.5239v0.0005
			c1.3126,0.3616,2.818,0.5675,4.4194,0.5675c0.9944,0,1.9501-0.0814,2.8475-0.2281l-0.4966-1.5818
			C206.5942,172.5714,205.814,172.6544,204.9882,172.6544z"/>
		<path fill="#434C4F" d="M201.3402,172.1672c-1.5362-0.4245-2.7602-1.0947-3.4229-1.9201l-1.4799,1.1064
			c0.8031,0.9987,2.2704,1.8256,4.1313,2.3381v-0.0005L201.3402,172.1672z"/>
		<path fill="#4C565B" d="M207.3391,172.4492l0.4966,1.5818c2.4888-0.4066,4.5095-1.3313,5.5696-2.5219l-1.4576-1.1339
			C211.0722,171.3599,209.3957,172.112,207.3391,172.4492z"/>
		<path fill="#3D4547" d="M197.9173,170.2472c-0.1757-0.2189-0.3191-0.4458-0.4129-0.6824
			c-0.0224,0.0157-0.0493,0.0296-0.0712,0.0454h-1.6728c0,0.6171,0.2439,1.2048,0.6771,1.7435L197.9173,170.2472z"/>
		<path fill="#636C72" d="M197.353,168.8078c0,0.2593,0.0544,0.512,0.1514,0.757c0.8369-0.5856,1.9335-1.0701,3.2091-1.4079
			l4.2747-3.1958C200.7713,164.961,197.353,166.6832,197.353,168.8078z"/>
		<path fill="#636C72" d="M203.6104,167.6829l1.3778-2.7219l-4.2747,3.1958C201.6026,167.9214,202.5795,167.7612,203.6104,167.6829z
			"/>
		<path fill="#636C72" d="M204.9882,167.6256c0.2862,0,0.5654,0.0135,0.8448,0.0264l-0.8448-2.6909l-1.3778,2.7219
			C204.0609,167.6488,204.5185,167.6256,204.9882,167.6256z"/>
		<path fill="#636C72" d="M212.472,169.5647c0.0971-0.2449,0.1514-0.4977,0.1514-0.757c0-2.1245-3.4184-3.8467-7.6352-3.8467
			l4.0376,3.1411C210.4002,168.4414,211.5847,168.944,212.472,169.5647z"/>
		<path fill="#636C72" d="M209.0258,168.1021l-4.0376-3.1411l0.8448,2.6909C206.9709,167.7044,208.0458,167.8602,209.0258,168.1021z
			"/>
		<path fill="#636C72" d="M197.5044,169.5647c0.0938,0.2366,0.2372,0.4636,0.4129,0.6824l2.7961-2.0903
			C199.4379,168.4947,198.3413,168.9791,197.5044,169.5647z"/>
		<path fill="#636C72" d="M211.9478,170.3753l-2.922-2.2731c-0.98-0.2419-2.0549-0.3977-3.1928-0.4502l1.5061,4.7973
			C209.3957,172.112,211.0722,171.3599,211.9478,170.3753z"/>
		<path fill="#636C72" d="M212.472,169.5647c-0.8873-0.6208-2.0718-1.1233-3.4462-1.4626l2.922,2.2731
			C212.1767,170.1178,212.3596,169.8484,212.472,169.5647z"/>
		<path fill="#636C72" d="M204.9882,172.6544c0.8258,0,1.606-0.0829,2.3509-0.2052l-1.5061-4.7973
			c-0.2794-0.0129-0.5586-0.0264-0.8448-0.0264c-0.4697,0-0.9272,0.0232-1.3778,0.0574l-2.2701,4.4843
			C202.4286,172.468,203.6592,172.6544,204.9882,172.6544z"/>
		<path fill="#636C72" d="M201.3402,172.1672l2.2701-4.4843c-1.0309,0.0782-2.0078,0.2384-2.8969,0.4739l-2.7961,2.0903
			C198.5801,171.0725,199.804,171.7427,201.3402,172.1672z"/>
		<g>
			<path fill="#596266" d="M198.5621,106.313l-0.5774,61.3943c0,1.2502,1.2988,2.3422,3.2454,2.9689v-66.9791
				C199.62,104.2854,198.5621,105.2342,198.5621,106.313z"/>
			<path fill="#626B70" d="M204.9881,103.0755c-1.4079,0-2.6992,0.2347-3.758,0.6216v66.9791
				c1.0875,0.3502,2.3716,0.5595,3.758,0.5595h0.0001L204.9881,103.0755L204.9881,103.0755z"/>
			<path fill="#757E85" d="M211.9916,167.7073l-0.5774-61.3943c0-1.0787-1.0579-2.0275-2.6679-2.6158v66.979
				C210.6928,170.0495,211.9916,168.9576,211.9916,167.7073z"/>
			<path fill="#6D767C" d="M204.9882,103.0755v68.1602c1.3864,0,2.6705-0.2094,3.7581-0.5595v-66.979
				C207.6875,103.3103,206.3962,103.0755,204.9882,103.0755z"/>
		</g>
		<path fill="#566066" d="M212.217,104.1533c-0.9952-1.5415-3.8369-2.6634-7.2288-2.6634c-3.3919,0-6.2337,1.1219-7.2288,2.6634
			h-0.4064v1.1832c0,2.1244,3.4183,3.8466,7.6352,3.8466c4.2168,0,7.6352-1.7222,7.6352-3.8466v-1.1832H212.217z"/>
		<ellipse fill="#636C72" cx="204.9881" cy="104.1533" rx="7.6352" ry="3.8466"/>
		<path fill="#566066" d="M211.9493,99.4885c-1.7-0.9738-4.1847-1.5915-6.9612-1.5915c-2.7765,0-5.261,0.6177-6.9612,1.5915h-2.3157
			v3.0823c0,2.5812,4.1534,4.6736,9.2768,4.6736c5.1234,0,9.2767-2.0924,9.2767-4.6736v-3.0823H211.9493z"/>
		<ellipse fill="#636C72" cx="204.9881" cy="99.4885" rx="9.2768" ry="4.6737"/>
	</g>
	<g>
		<path fill="#434C4F" d="M185.8377,184.8751c-0.8974,0.1467-1.8531,0.2281-2.8475,0.2281c-1.6014,0-3.1068-0.206-4.4194-0.5675
			v2.6644c1.3126,0.3615,2.818,0.5675,4.4194,0.5675c0.9946,0,1.9505-0.0815,2.848-0.2282v-2.6628L185.8377,184.8751z"/>
		<path fill="#3D4547" d="M174.4395,182.1977l-0.0027,0.002v2.6588c0.8024,1.0002,2.2708,1.8287,4.134,2.3418v-2.6644
			C176.7099,184.0233,175.2426,183.1964,174.4395,182.1977z"/>
		<path fill="#3D4547" d="M174.4395,182.1977c-0.4332-0.5387-0.6771-1.1264-0.6771-1.7435v2.6646
			c0,0.6157,0.243,1.202,0.6744,1.7397v-2.6588L174.4395,182.1977z"/>
		<path fill="#4C565B" d="M192.2181,180.4542c0,0.6772-0.294,1.3188-0.8107,1.8991l0.0036,0.0028v2.658
			c0.5146-0.5793,0.8071-1.2196,0.8071-1.8953V180.4542z"/>
		<path fill="#475054" d="M191.4073,182.3533c-1.0602,1.1906-3.0809,2.1152-5.5696,2.5218l0.0005,0.0016v2.6628
			c2.4912-0.4071,4.5137-1.3332,5.5727-2.5254v-2.658L191.4073,182.3533z"/>
		<path fill="#3D4547" d="M175.5064,180.4088c-0.097-0.2449-0.1514-0.4977-0.1514-0.757c0-2.1245,3.4183-3.8467,7.6352-3.8467
			c-5.0965,0-9.2279,2.0815-9.2279,4.6491h1.6728C175.4572,180.4384,175.484,180.4245,175.5064,180.4088z"/>
		<path fill="#4C565B" d="M190.6254,179.6518c0,0.2593-0.0543,0.512-0.1514,0.757c0.0224,0.0157,0.0493,0.0296,0.0712,0.0454h1.6728
			c0-2.5676-4.1315-4.6491-9.2279-4.6491C187.207,175.8051,190.6254,177.5273,190.6254,179.6518z"/>
		<path fill="#4C565B" d="M190.474,180.4088c-0.1124,0.2837-0.2953,0.5531-0.5242,0.8105l1.4576,1.1339
			c0.5167-0.5803,0.8107-1.2218,0.8107-1.8991h-1.6728C190.5233,180.4384,190.4964,180.4245,190.474,180.4088z"/>
		<path fill="#475054" d="M182.9902,183.4985c-1.329,0-2.5596-0.1864-3.6479-0.4872l-0.7715,1.5239v0.0005
			c1.3126,0.3615,2.818,0.5675,4.4194,0.5675c0.9944,0,1.9501-0.0815,2.8475-0.2281l-0.4966-1.5818
			C184.5962,183.4155,183.816,183.4985,182.9902,183.4985z"/>
		<path fill="#434C4F" d="M179.3423,183.0113c-1.5362-0.4245-2.7602-1.0947-3.4229-1.9201l-1.4799,1.1064
			c0.8031,0.9987,2.2704,1.8256,4.1313,2.3381v-0.0005L179.3423,183.0113z"/>
		<path fill="#4C565B" d="M185.3411,183.2933l0.4966,1.5818c2.4888-0.4066,4.5095-1.3313,5.5696-2.5218l-1.4576-1.1339
			C189.0742,182.204,187.3977,182.956,185.3411,183.2933z"/>
		<path fill="#3D4547" d="M175.9193,181.0912c-0.1757-0.2188-0.3191-0.4458-0.4129-0.6824
			c-0.0224,0.0157-0.0493,0.0296-0.0713,0.0454h-1.6728c0,0.6171,0.2439,1.2048,0.6771,1.7435L175.9193,181.0912z"/>
		<path fill="#636C72" d="M175.355,179.6518c0,0.2593,0.0544,0.512,0.1514,0.757c0.8369-0.5856,1.9335-1.0701,3.2091-1.4079
			l4.2747-3.1958C178.7733,175.8051,175.355,177.5273,175.355,179.6518z"/>
		<path fill="#636C72" d="M181.6124,178.527l1.3778-2.7219l-4.2747,3.1958C179.6046,178.7655,180.5815,178.6053,181.6124,178.527z"
			/>
		<path fill="#636C72" d="M182.9902,178.4697c0.2862,0,0.5654,0.0135,0.8448,0.0264l-0.8448-2.6909l-1.3778,2.7219
			C182.063,178.4928,182.5205,178.4697,182.9902,178.4697z"/>
		<path fill="#636C72" d="M190.474,180.4088c0.0971-0.2449,0.1514-0.4977,0.1514-0.757c0-2.1245-3.4184-3.8467-7.6352-3.8467
			l4.0376,3.1411C188.4022,179.2855,189.5867,179.788,190.474,180.4088z"/>
		<path fill="#636C72" d="M187.0278,178.9462l-4.0376-3.1411l0.8448,2.6909C184.9729,178.5485,186.0478,178.7043,187.0278,178.9462z
			"/>
		<path fill="#636C72" d="M175.5064,180.4088c0.0938,0.2366,0.2372,0.4636,0.4129,0.6824l2.7961-2.0903
			C177.4399,179.3388,176.3433,179.8232,175.5064,180.4088z"/>
		<path fill="#636C72" d="M189.9498,181.2193l-2.922-2.2731c-0.98-0.2419-2.0549-0.3977-3.1928-0.4502l1.5061,4.7973
			C187.3977,182.956,189.0742,182.204,189.9498,181.2193z"/>
		<path fill="#636C72" d="M190.474,180.4088c-0.8873-0.6208-2.0718-1.1233-3.4462-1.4626l2.922,2.2731
			C190.1787,180.9619,190.3616,180.6925,190.474,180.4088z"/>
		<path fill="#636C72" d="M182.9902,183.4985c0.8258,0,1.606-0.0829,2.3509-0.2052l-1.5061-4.7973
			c-0.2794-0.0129-0.5586-0.0264-0.8448-0.0264c-0.4697,0-0.9272,0.0232-1.3778,0.0574l-2.2701,4.4843
			C180.4306,183.3121,181.6612,183.4985,182.9902,183.4985z"/>
		<path fill="#636C72" d="M179.3423,183.0113l2.2701-4.4843c-1.0309,0.0782-2.0078,0.2384-2.8969,0.4739l-2.7961,2.0903
			C176.5821,181.9166,177.806,182.5868,179.3423,183.0113z"/>
		<g>
			<path fill="#596266" d="M176.5641,117.1571l-0.5774,61.3943c0,1.2502,1.2988,2.3422,3.2454,2.9689v-66.9791
				C177.6221,115.1295,176.5641,116.0783,176.5641,117.1571z"/>
			<path fill="#626B70" d="M182.9901,113.9196c-1.4079,0-2.6992,0.2347-3.758,0.6216v66.9791
				c1.0875,0.3501,2.3716,0.5595,3.758,0.5595h0.0001L182.9901,113.9196L182.9901,113.9196z"/>
			<path fill="#757E85" d="M189.9936,178.5514l-0.5774-61.3943c0-1.0787-1.0579-2.0275-2.6679-2.6158v66.979
				C188.6948,180.8936,189.9936,179.8016,189.9936,178.5514z"/>
			<path fill="#6D767C" d="M182.9902,113.9196v68.1602c1.3864,0,2.6705-0.2094,3.7581-0.5595v-66.979
				C185.6895,114.1544,184.3982,113.9196,182.9902,113.9196z"/>
		</g>
		<path fill="#566066" d="M190.219,114.9974c-0.9952-1.5415-3.8369-2.6634-7.2288-2.6634c-3.3919,0-6.2337,1.1219-7.2288,2.6634
			h-0.4064v1.1832c0,2.1244,3.4183,3.8466,7.6352,3.8466c4.2168,0,7.6352-1.7222,7.6352-3.8466v-1.1832H190.219z"/>
		<ellipse fill="#636C72" cx="182.9902" cy="114.9974" rx="7.6352" ry="3.8466"/>
		<path fill="#566066" d="M189.9514,110.3326c-1.7-0.9738-4.1847-1.5915-6.9612-1.5915c-2.7765,0-5.261,0.6177-6.9612,1.5915
			h-2.3157v3.0823c0,2.5812,4.1534,4.6736,9.2768,4.6736c5.1234,0,9.2767-2.0924,9.2767-4.6736v-3.0823H189.9514z"/>
		<ellipse fill="#636C72" cx="182.9902" cy="110.3326" rx="9.2768" ry="4.6737"/>
	</g>
	<g>
		<path fill="#434C4F" d="M163.8397,195.7192c-0.8974,0.1467-1.8531,0.2281-2.8475,0.2281c-1.6014,0-3.1068-0.2059-4.4194-0.5675
			v2.6644c1.3126,0.3616,2.818,0.5675,4.4194,0.5675c0.9946,0,1.9504-0.0815,2.848-0.2282v-2.6627L163.8397,195.7192z"/>
		<path fill="#3D4547" d="M152.4415,193.0417l-0.0027,0.002v2.6588c0.8024,1.0002,2.2708,1.8287,4.134,2.3418v-2.6644
			C154.7119,194.8674,153.2446,194.0405,152.4415,193.0417z"/>
		<path fill="#3D4547" d="M152.4415,193.0417c-0.4332-0.5387-0.6771-1.1264-0.6771-1.7435v2.6646
			c0,0.6157,0.243,1.202,0.6744,1.7397v-2.6588L152.4415,193.0417z"/>
		<path fill="#4C565B" d="M170.2201,191.2982c0,0.6772-0.294,1.3188-0.8107,1.8991l0.0036,0.0028v2.6579
			c0.5146-0.5793,0.8071-1.2195,0.8071-1.8953V191.2982z"/>
		<path fill="#475054" d="M169.4094,193.1973c-1.0602,1.1906-3.0809,2.1152-5.5696,2.5219l0.0005,0.0016v2.6627
			c2.4912-0.4071,4.5137-1.3332,5.5727-2.5254v-2.6579L169.4094,193.1973z"/>
		<path fill="#3D4547" d="M153.5084,191.2529c-0.097-0.2449-0.1514-0.4977-0.1514-0.757c0-2.1245,3.4183-3.8467,7.6352-3.8467
			c-5.0965,0-9.2279,2.0814-9.2279,4.649h1.6728C153.4592,191.2825,153.4861,191.2686,153.5084,191.2529z"/>
		<path fill="#4C565B" d="M168.6274,190.4959c0,0.2593-0.0543,0.512-0.1514,0.757c0.0224,0.0157,0.0493,0.0296,0.0712,0.0454h1.6728
			c0-2.5676-4.1315-4.649-9.2279-4.649C165.209,186.6492,168.6274,188.3714,168.6274,190.4959z"/>
		<path fill="#4C565B" d="M168.476,191.2529c-0.1124,0.2837-0.2953,0.5531-0.5242,0.8105l1.4576,1.1339
			c0.5167-0.5803,0.8107-1.2218,0.8107-1.8991h-1.6728C168.5253,191.2825,168.4984,191.2686,168.476,191.2529z"/>
		<path fill="#475054" d="M160.9922,194.3425c-1.329,0-2.5596-0.1864-3.6479-0.4872l-0.7715,1.5239v0.0005
			c1.3126,0.3616,2.818,0.5675,4.4194,0.5675c0.9944,0,1.9501-0.0814,2.8475-0.2281l-0.4967-1.5818
			C162.5982,194.2596,161.8181,194.3425,160.9922,194.3425z"/>
		<path fill="#434C4F" d="M157.3443,193.8554c-1.5362-0.4245-2.7602-1.0947-3.4229-1.9201l-1.4799,1.1064
			c0.8031,0.9987,2.2704,1.8256,4.1313,2.3381v-0.0005L157.3443,193.8554z"/>
		<path fill="#4C565B" d="M163.3431,194.1374l0.4967,1.5818c2.4888-0.4066,4.5095-1.3313,5.5696-2.5219l-1.4576-1.1339
			C167.0762,193.048,165.3997,193.8001,163.3431,194.1374z"/>
		<path fill="#3D4547" d="M153.9214,191.9353c-0.1757-0.2189-0.3191-0.4458-0.4129-0.6824
			c-0.0224,0.0157-0.0493,0.0296-0.0713,0.0454h-1.6728c0,0.6171,0.2439,1.2048,0.6771,1.7435L153.9214,191.9353z"/>
		<path fill="#636C72" d="M153.357,190.4959c0,0.2593,0.0544,0.512,0.1514,0.757c0.8369-0.5856,1.9335-1.0701,3.2091-1.4079
			l4.2747-3.1958C156.7754,186.6492,153.357,188.3714,153.357,190.4959z"/>
		<path fill="#636C72" d="M159.6144,189.3711l1.3778-2.7219l-4.2747,3.1958C157.6066,189.6095,158.5835,189.4493,159.6144,189.3711z
			"/>
		<path fill="#636C72" d="M160.9922,189.3137c0.2862,0,0.5654,0.0135,0.8448,0.0264l-0.8448-2.6909l-1.3778,2.7219
			C160.065,189.3369,160.5226,189.3137,160.9922,189.3137z"/>
		<path fill="#636C72" d="M168.476,191.2529c0.0971-0.2449,0.1514-0.4977,0.1514-0.757c0-2.1245-3.4184-3.8467-7.6352-3.8467
			l4.0376,3.1411C166.4043,190.1296,167.5887,190.6321,168.476,191.2529z"/>
		<path fill="#636C72" d="M165.0298,189.7903l-4.0376-3.1411l0.8448,2.6909C162.9749,189.3926,164.0498,189.5484,165.0298,189.7903z
			"/>
		<path fill="#636C72" d="M153.5084,191.2529c0.0938,0.2366,0.2372,0.4636,0.4129,0.6824l2.7961-2.0903
			C155.4419,190.1828,154.3454,190.6673,153.5084,191.2529z"/>
		<path fill="#636C72" d="M167.9518,192.0634l-2.922-2.2731c-0.98-0.2419-2.0549-0.3977-3.1928-0.4502l1.506,4.7973
			C165.3997,193.8001,167.0762,193.048,167.9518,192.0634z"/>
		<path fill="#636C72" d="M168.476,191.2529c-0.8873-0.6208-2.0718-1.1233-3.4462-1.4626l2.922,2.2731
			C168.1807,191.806,168.3636,191.5366,168.476,191.2529z"/>
		<path fill="#636C72" d="M160.9922,194.3425c0.8258,0,1.606-0.0829,2.3509-0.2052l-1.506-4.7973
			c-0.2794-0.0129-0.5586-0.0264-0.8448-0.0264c-0.4697,0-0.9272,0.0232-1.3778,0.0574l-2.2701,4.4843
			C158.4326,194.1562,159.6633,194.3425,160.9922,194.3425z"/>
		<path fill="#636C72" d="M157.3443,193.8554l2.2701-4.4843c-1.0309,0.0782-2.0078,0.2384-2.8969,0.4739l-2.7961,2.0903
			C154.5841,192.7606,155.808,193.4309,157.3443,193.8554z"/>
		<g>
			<path fill="#596266" d="M154.5661,128.0011l-0.5774,61.3943c0,1.2502,1.2988,2.3422,3.2454,2.9689v-66.9791
				C155.6241,125.9736,154.5661,126.9224,154.5661,128.0011z"/>
			<path fill="#626B70" d="M160.9921,124.7637c-1.4079,0-2.6992,0.2347-3.758,0.6216v66.9791
				c1.0875,0.3502,2.3716,0.5595,3.758,0.5595h0.0001L160.9921,124.7637L160.9921,124.7637z"/>
			<path fill="#757E85" d="M167.9957,189.3955l-0.5774-61.3943c0-1.0787-1.0579-2.0275-2.6679-2.6158v66.979
				C166.6969,191.7377,167.9957,190.6457,167.9957,189.3955z"/>
			<path fill="#6D767C" d="M160.9922,124.7637v68.1602c1.3864,0,2.6705-0.2094,3.7581-0.5595v-66.979
				C163.6915,124.9984,162.4002,124.7637,160.9922,124.7637z"/>
		</g>
		<path fill="#566066" d="M168.221,125.8414c-0.9952-1.5415-3.8369-2.6634-7.2288-2.6634c-3.3919,0-6.2337,1.1219-7.2288,2.6634
			h-0.4064v1.1832c0,2.1244,3.4183,3.8466,7.6352,3.8466c4.2168,0,7.6352-1.7222,7.6352-3.8466v-1.1832H168.221z"/>
		<ellipse fill="#636C72" cx="160.9922" cy="125.8415" rx="7.6352" ry="3.8466"/>
		<path fill="#566066" d="M167.9534,121.1767c-1.7-0.9738-4.1847-1.5915-6.9612-1.5915c-2.7765,0-5.261,0.6177-6.9612,1.5915
			h-2.3157v3.0823c0,2.5812,4.1534,4.6737,9.2768,4.6737c5.1234,0,9.2767-2.0925,9.2767-4.6737v-3.0823H167.9534z"/>
		<ellipse fill="#636C72" cx="160.9922" cy="121.1767" rx="9.2768" ry="4.6737"/>
	</g>
	<g>
		<path fill="#434C4F" d="M141.8418,206.5632c-0.8974,0.1467-1.8531,0.2281-2.8475,0.2281c-1.6014,0-3.1068-0.206-4.4194-0.5675
			v2.6644c1.3126,0.3615,2.818,0.5675,4.4194,0.5675c0.9946,0,1.9504-0.0815,2.848-0.2282v-2.6628L141.8418,206.5632z"/>
		<path fill="#3D4547" d="M130.4435,203.8858l-0.0027,0.002v2.6588c0.8024,1.0002,2.2708,1.8287,4.134,2.3418v-2.6644
			C132.7139,205.7114,131.2466,204.8845,130.4435,203.8858z"/>
		<path fill="#3D4547" d="M130.4435,203.8858c-0.4332-0.5387-0.6771-1.1264-0.6771-1.7435v2.6645
			c0,0.6157,0.243,1.202,0.6744,1.7397v-2.6588L130.4435,203.8858z"/>
		<path fill="#4C565B" d="M148.2221,202.1423c0,0.6772-0.294,1.3188-0.8107,1.8991l0.0036,0.0028v2.658
			c0.5146-0.5793,0.8071-1.2196,0.8071-1.8953V202.1423z"/>
		<path fill="#475054" d="M147.4114,204.0414c-1.0602,1.1906-3.0809,2.1152-5.5696,2.5218l0.0005,0.0016v2.6628
			c2.4912-0.4071,4.5137-1.3332,5.5727-2.5254v-2.658L147.4114,204.0414z"/>
		<path fill="#3D4547" d="M131.5105,202.097c-0.097-0.2449-0.1514-0.4977-0.1514-0.757c0-2.1245,3.4183-3.8467,7.6352-3.8467
			c-5.0965,0-9.2279,2.0815-9.2279,4.6491h1.6728C131.4612,202.1265,131.4881,202.1127,131.5105,202.097z"/>
		<path fill="#4C565B" d="M146.6294,201.34c0,0.2593-0.0543,0.512-0.1514,0.757c0.0224,0.0157,0.0493,0.0296,0.0712,0.0454h1.6728
			c0-2.5676-4.1315-4.6491-9.2279-4.6491C143.211,197.4933,146.6294,199.2155,146.6294,201.34z"/>
		<path fill="#4C565B" d="M146.478,202.097c-0.1124,0.2837-0.2953,0.5531-0.5242,0.8105l1.4576,1.1339
			c0.5167-0.5803,0.8107-1.2218,0.8107-1.8991h-1.6728C146.5273,202.1265,146.5004,202.1127,146.478,202.097z"/>
		<path fill="#475054" d="M138.9942,205.1866c-1.329,0-2.5596-0.1864-3.6479-0.4872l-0.7715,1.5239v0.0005
			c1.3126,0.3615,2.818,0.5675,4.4194,0.5675c0.9944,0,1.9501-0.0815,2.8475-0.2281l-0.4967-1.5818
			C140.6002,205.1037,139.8201,205.1866,138.9942,205.1866z"/>
		<path fill="#434C4F" d="M135.3463,204.6994c-1.5362-0.4245-2.7602-1.0947-3.4229-1.9201l-1.4799,1.1064
			c0.8031,0.9987,2.2704,1.8256,4.1313,2.3381v-0.0005L135.3463,204.6994z"/>
		<path fill="#4C565B" d="M141.3451,204.9815l0.4967,1.5818c2.4888-0.4066,4.5095-1.3313,5.5696-2.5218l-1.4576-1.1339
			C145.0782,203.8921,143.4018,204.6442,141.3451,204.9815z"/>
		<path fill="#3D4547" d="M131.9234,202.7794c-0.1757-0.2188-0.3191-0.4458-0.4129-0.6824
			c-0.0224,0.0157-0.0493,0.0296-0.0713,0.0454h-1.6728c0,0.6171,0.2439,1.2048,0.6771,1.7435L131.9234,202.7794z"/>
		<path fill="#636C72" d="M131.3591,201.34c0,0.2593,0.0544,0.512,0.1514,0.757c0.8369-0.5856,1.9335-1.0701,3.2091-1.4079
			l4.2747-3.1958C134.7774,197.4933,131.3591,199.2155,131.3591,201.34z"/>
		<path fill="#636C72" d="M137.6164,200.2152l1.3778-2.7219l-4.2747,3.1958C135.6086,200.4536,136.5855,200.2934,137.6164,200.2152z
			"/>
		<path fill="#636C72" d="M138.9942,200.1578c0.2862,0,0.5654,0.0135,0.8448,0.0264l-0.8448-2.6909l-1.3778,2.7219
			C138.067,200.181,138.5246,200.1578,138.9942,200.1578z"/>
		<path fill="#636C72" d="M146.478,202.097c0.0971-0.2449,0.1514-0.4977,0.1514-0.757c0-2.1245-3.4184-3.8467-7.6352-3.8467
			l4.0376,3.1411C144.4063,200.9736,145.5907,201.4762,146.478,202.097z"/>
		<path fill="#636C72" d="M143.0318,200.6344l-4.0376-3.1411l0.8448,2.6909C140.977,200.2367,142.0518,200.3925,143.0318,200.6344z"
			/>
		<path fill="#636C72" d="M131.5105,202.097c0.0938,0.2366,0.2372,0.4636,0.4129,0.6824l2.7962-2.0903
			C133.4439,201.0269,132.3474,201.5114,131.5105,202.097z"/>
		<path fill="#636C72" d="M145.9538,202.9075l-2.922-2.2731c-0.98-0.2419-2.0549-0.3977-3.1928-0.4502l1.506,4.7973
			C143.4018,204.6442,145.0782,203.8921,145.9538,202.9075z"/>
		<path fill="#636C72" d="M146.478,202.097c-0.8873-0.6208-2.0718-1.1233-3.4462-1.4626l2.922,2.2731
			C146.1827,202.6501,146.3656,202.3807,146.478,202.097z"/>
		<path fill="#636C72" d="M138.9942,205.1866c0.8258,0,1.606-0.0829,2.3509-0.2052l-1.506-4.7973
			c-0.2794-0.0129-0.5586-0.0264-0.8448-0.0264c-0.4697,0-0.9272,0.0232-1.3778,0.0574l-2.2701,4.4843
			C136.4346,205.0002,137.6653,205.1866,138.9942,205.1866z"/>
		<path fill="#636C72" d="M135.3463,204.6994l2.2701-4.4843c-1.0309,0.0782-2.0078,0.2384-2.8969,0.4739l-2.7962,2.0903
			C132.5861,203.6047,133.81,204.2749,135.3463,204.6994z"/>
		<g>
			<path fill="#596266" d="M132.5681,138.8452l-0.5774,61.3943c0,1.2502,1.2988,2.3422,3.2455,2.9689v-66.9792
				C133.6261,136.8176,132.5681,137.7665,132.5681,138.8452z"/>
			<path fill="#626B70" d="M138.9941,135.6078c-1.4079,0-2.6992,0.2347-3.758,0.6216v66.9792
				c1.0875,0.3501,2.3716,0.5595,3.758,0.5595h0.0001L138.9941,135.6078L138.9941,135.6078z"/>
			<path fill="#757E85" d="M145.9977,200.2396l-0.5774-61.3943c0-1.0787-1.0579-2.0275-2.6679-2.6158v66.979
				C144.6989,202.5817,145.9977,201.4898,145.9977,200.2396z"/>
			<path fill="#6D767C" d="M138.9942,135.6078v68.1602c1.3864,0,2.6705-0.2094,3.7581-0.5595v-66.979
				C141.6936,135.8425,140.4023,135.6078,138.9942,135.6078z"/>
		</g>
		<path fill="#566066" d="M146.223,136.6855c-0.9952-1.5415-3.8369-2.6635-7.2288-2.6635c-3.3919,0-6.2337,1.1219-7.2288,2.6635
			h-0.4064v1.1832c0,2.1244,3.4183,3.8466,7.6352,3.8466c4.2168,0,7.6352-1.7222,7.6352-3.8466v-1.1832H146.223z"/>
		<ellipse fill="#636C72" cx="138.9942" cy="136.6855" rx="7.6352" ry="3.8466"/>
		<path fill="#566066" d="M145.9554,132.0208c-1.7-0.9738-4.1847-1.5915-6.9612-1.5915c-2.7765,0-5.261,0.6177-6.9612,1.5915
			h-2.3157v3.0822c0,2.5812,4.1534,4.6736,9.2768,4.6736s9.2767-2.0924,9.2767-4.6736v-3.0822H145.9554z"/>
		<ellipse fill="#636C72" cx="138.9942" cy="132.0208" rx="9.2768" ry="4.6737"/>
	</g>
	<g>
		<path fill="#434C4F" d="M119.8438,217.4073c-0.8974,0.1467-1.8531,0.2281-2.8475,0.2281c-1.6014,0-3.1068-0.2059-4.4194-0.5675
			v2.6644c1.3126,0.3616,2.818,0.5675,4.4194,0.5675c0.9946,0,1.9504-0.0815,2.848-0.2282v-2.6627L119.8438,217.4073z"/>
		<path fill="#3D4547" d="M108.4455,214.7299l-0.0027,0.002v2.6588c0.8024,1.0002,2.2708,1.8287,4.134,2.3418v-2.6644
			C110.7159,216.5555,109.2486,215.7286,108.4455,214.7299z"/>
		<path fill="#3D4547" d="M108.4455,214.7299c-0.4332-0.5387-0.6771-1.1264-0.6771-1.7435v2.6646
			c0,0.6157,0.243,1.202,0.6744,1.7397v-2.6588L108.4455,214.7299z"/>
		<path fill="#4C565B" d="M126.2241,212.9864c0,0.6772-0.294,1.3188-0.8107,1.8991l0.0036,0.0028v2.6579
			c0.5146-0.5793,0.8071-1.2195,0.8071-1.8953V212.9864z"/>
		<path fill="#475054" d="M125.4134,214.8855c-1.0602,1.1906-3.0808,2.1152-5.5696,2.5219l0.0005,0.0016v2.6627
			c2.4912-0.4071,4.5137-1.3332,5.5727-2.5254v-2.6579L125.4134,214.8855z"/>
		<path fill="#3D4547" d="M109.5125,212.941c-0.097-0.2449-0.1514-0.4977-0.1514-0.757c0-2.1245,3.4183-3.8467,7.6352-3.8467
			c-5.0964,0-9.2279,2.0814-9.2279,4.649h1.6728C109.4632,212.9706,109.4901,212.9567,109.5125,212.941z"/>
		<path fill="#4C565B" d="M124.6314,212.1841c0,0.2593-0.0543,0.512-0.1514,0.757c0.0224,0.0157,0.0493,0.0296,0.0713,0.0454h1.6728
			c0-2.5676-4.1315-4.649-9.2279-4.649C121.213,208.3374,124.6314,210.0596,124.6314,212.1841z"/>
		<path fill="#4C565B" d="M124.48,212.941c-0.1124,0.2837-0.2953,0.5531-0.5242,0.8105l1.4576,1.1339
			c0.5167-0.5803,0.8107-1.2218,0.8107-1.8991h-1.6728C124.5293,212.9706,124.5024,212.9567,124.48,212.941z"/>
		<path fill="#475054" d="M116.9962,216.0307c-1.329,0-2.5596-0.1864-3.648-0.4872l-0.7715,1.5239v0.0005
			c1.3126,0.3616,2.818,0.5675,4.4194,0.5675c0.9944,0,1.9501-0.0814,2.8475-0.2281l-0.4967-1.5818
			C118.6022,215.9478,117.8221,216.0307,116.9962,216.0307z"/>
		<path fill="#434C4F" d="M113.3483,215.5435c-1.5362-0.4245-2.7602-1.0947-3.4229-1.9201l-1.4799,1.1064
			c0.8031,0.9987,2.2704,1.8256,4.1313,2.3381v-0.0005L113.3483,215.5435z"/>
		<path fill="#4C565B" d="M119.3471,215.8255l0.4967,1.5818c2.4888-0.4066,4.5095-1.3313,5.5696-2.5219l-1.4576-1.1339
			C123.0802,214.7362,121.4038,215.4883,119.3471,215.8255z"/>
		<path fill="#3D4547" d="M109.9254,213.6235c-0.1757-0.2189-0.3191-0.4458-0.4129-0.6824
			c-0.0224,0.0157-0.0493,0.0296-0.0713,0.0454h-1.6728c0,0.6171,0.2439,1.2048,0.6771,1.7435L109.9254,213.6235z"/>
		<path fill="#636C72" d="M109.3611,212.1841c0,0.2593,0.0544,0.512,0.1514,0.757c0.8369-0.5856,1.9334-1.0701,3.2091-1.4079
			l4.2747-3.1958C112.7794,208.3374,109.3611,210.0596,109.3611,212.1841z"/>
		<path fill="#636C72" d="M115.6184,211.0592l1.3778-2.7219l-4.2747,3.1958C113.6106,211.2977,114.5875,211.1375,115.6184,211.0592z
			"/>
		<path fill="#636C72" d="M116.9962,211.0019c0.2862,0,0.5654,0.0135,0.8448,0.0264l-0.8448-2.6909l-1.3778,2.7219
			C116.069,211.0251,116.5266,211.0019,116.9962,211.0019z"/>
		<path fill="#636C72" d="M124.48,212.941c0.0971-0.2449,0.1514-0.4977,0.1514-0.757c0-2.1245-3.4184-3.8467-7.6352-3.8467
			l4.0376,3.1411C122.4083,211.8177,123.5928,212.3203,124.48,212.941z"/>
		<path fill="#636C72" d="M121.0338,211.4785l-4.0376-3.1411l0.8448,2.6909C118.979,211.0807,120.0538,211.2365,121.0338,211.4785z"
			/>
		<path fill="#636C72" d="M109.5125,212.941c0.0938,0.2366,0.2372,0.4636,0.4129,0.6824l2.7962-2.0903
			C111.4459,211.871,110.3494,212.3555,109.5125,212.941z"/>
		<path fill="#636C72" d="M123.9558,213.7516l-2.922-2.2731c-0.98-0.2419-2.0549-0.3977-3.1928-0.4502l1.5061,4.7973
			C121.4038,215.4883,123.0802,214.7362,123.9558,213.7516z"/>
		<path fill="#636C72" d="M124.48,212.941c-0.8873-0.6208-2.0718-1.1233-3.4462-1.4626l2.922,2.2731
			C124.1847,213.4942,124.3676,213.2247,124.48,212.941z"/>
		<path fill="#636C72" d="M116.9962,216.0307c0.8258,0,1.606-0.0829,2.3509-0.2052l-1.5061-4.7973
			c-0.2794-0.0129-0.5586-0.0264-0.8448-0.0264c-0.4697,0-0.9273,0.0232-1.3778,0.0574l-2.2701,4.4843
			C114.4366,215.8443,115.6673,216.0307,116.9962,216.0307z"/>
		<path fill="#636C72" d="M113.3483,215.5435l2.2701-4.4843c-1.0309,0.0782-2.0078,0.2384-2.8969,0.4739l-2.7962,2.0903
			C110.5881,214.4488,111.8121,215.119,113.3483,215.5435z"/>
		<g>
			<path fill="#596266" d="M110.5701,149.6893l-0.5774,61.3943c0,1.2502,1.2988,2.3422,3.2454,2.9689v-66.9791
				C111.6281,147.6617,110.5701,148.6105,110.5701,149.6893z"/>
			<path fill="#626B70" d="M116.9961,146.4519c-1.4079,0-2.6992,0.2347-3.758,0.6216v66.9791
				c1.0875,0.3502,2.3717,0.5595,3.758,0.5595h0.0001L116.9961,146.4519L116.9961,146.4519z"/>
			<path fill="#757E85" d="M123.9997,211.0836l-0.5774-61.3943c0-1.0786-1.0579-2.0275-2.6679-2.6158v66.979
				C122.7009,213.4258,123.9997,212.3339,123.9997,211.0836z"/>
			<path fill="#6D767C" d="M116.9962,146.4519v68.1602c1.3864,0,2.6705-0.2094,3.7581-0.5595v-66.979
				C119.6956,146.6866,118.4043,146.4519,116.9962,146.4519z"/>
		</g>
		<path fill="#566066" d="M124.225,147.5296c-0.9952-1.5415-3.8369-2.6634-7.2288-2.6634c-3.3919,0-6.2337,1.1219-7.2288,2.6634
			h-0.4064v1.1832c0,2.1244,3.4183,3.8466,7.6352,3.8466c4.2168,0,7.6352-1.7222,7.6352-3.8466v-1.1832H124.225z"/>
		<ellipse fill="#636C72" cx="116.9962" cy="147.5296" rx="7.6352" ry="3.8466"/>
		<path fill="#566066" d="M123.9574,142.8648c-1.7-0.9738-4.1847-1.5915-6.9612-1.5915c-2.7765,0-5.261,0.6177-6.9612,1.5915
			h-2.3157v3.0823c0,2.5812,4.1534,4.6736,9.2768,4.6736c5.1234,0,9.2767-2.0925,9.2767-4.6736v-3.0823H123.9574z"/>
		<ellipse fill="#636C72" cx="116.9962" cy="142.8649" rx="9.2768" ry="4.6737"/>
	</g>
	<g>
		<path fill="#434C4F" d="M96.3658,205.8447c-0.8974,0.1467-1.8531,0.2281-2.8475,0.2281c-1.6014,0-3.1068-0.2059-4.4194-0.5675
			v2.6644c1.3126,0.3615,2.818,0.5675,4.4194,0.5675c0.9946,0,1.9504-0.0816,2.848-0.2283v-2.6627L96.3658,205.8447z"/>
		<path fill="#3D4547" d="M84.9676,203.1673l-0.0027,0.002v2.6587c0.8024,1.0002,2.2708,1.8287,4.134,2.3418v-2.6644
			C87.238,204.9929,85.7707,204.166,84.9676,203.1673z"/>
		<path fill="#3D4547" d="M84.9676,203.1673c-0.4332-0.5387-0.6771-1.1264-0.6771-1.7435v2.6645c0,0.6157,0.243,1.202,0.6744,1.7397
			v-2.6587L84.9676,203.1673z"/>
		<path fill="#4C565B" d="M102.7462,201.4238c0,0.6772-0.294,1.3188-0.8107,1.8991l0.0036,0.0028v2.6579
			c0.5146-0.5793,0.8071-1.2195,0.8071-1.8953V201.4238z"/>
		<path fill="#475054" d="M101.9354,203.3229c-1.0602,1.1906-3.0809,2.1152-5.5696,2.5218l0.0005,0.0016v2.6627
			c2.4912-0.4071,4.5137-1.3332,5.5727-2.5254v-2.6579L101.9354,203.3229z"/>
		<path fill="#3D4547" d="M86.0345,201.3784c-0.097-0.2449-0.1514-0.4977-0.1514-0.757c0-2.1245,3.4183-3.8467,7.6352-3.8467
			c-5.0965,0-9.2279,2.0815-9.2279,4.6491h1.6728C85.9852,201.408,86.0121,201.3941,86.0345,201.3784z"/>
		<path fill="#4C565B" d="M101.1535,200.6215c0,0.2593-0.0543,0.5121-0.1514,0.757c0.0224,0.0157,0.0493,0.0296,0.0713,0.0454
			h1.6728c0-2.5676-4.1315-4.6491-9.2279-4.6491C97.7351,196.7747,101.1535,198.4969,101.1535,200.6215z"/>
		<path fill="#4C565B" d="M101.0021,201.3784c-0.1124,0.2837-0.2953,0.5531-0.5242,0.8105l1.4576,1.1339
			c0.5167-0.5803,0.8107-1.2219,0.8107-1.8991h-1.6728C101.0513,201.408,101.0245,201.3941,101.0021,201.3784z"/>
		<path fill="#475054" d="M93.5183,204.4681c-1.329,0-2.5596-0.1864-3.648-0.4872l-0.7715,1.5239v0.0005
			c1.3126,0.3615,2.818,0.5675,4.4194,0.5675c0.9944,0,1.9501-0.0814,2.8475-0.2281l-0.4967-1.5818
			C95.1243,204.3851,94.3441,204.4681,93.5183,204.4681z"/>
		<path fill="#434C4F" d="M89.8703,203.9809c-1.5362-0.4245-2.7602-1.0947-3.4229-1.9201l-1.4799,1.1064
			c0.8031,0.9987,2.2704,1.8256,4.1313,2.3381v-0.0005L89.8703,203.9809z"/>
		<path fill="#4C565B" d="M95.8692,204.2629l0.4967,1.5818c2.4888-0.4066,4.5095-1.3313,5.5696-2.5218l-1.4576-1.1339
			C99.6023,203.1736,97.9258,203.9257,95.8692,204.2629z"/>
		<path fill="#3D4547" d="M86.4474,202.0609c-0.1757-0.2189-0.3191-0.4458-0.4129-0.6824
			c-0.0224,0.0157-0.0493,0.0296-0.0713,0.0454h-1.6728c0,0.6171,0.2439,1.2048,0.6771,1.7435L86.4474,202.0609z"/>
		<path fill="#636C72" d="M85.8831,200.6215c0,0.2593,0.0544,0.5121,0.1514,0.757c0.8369-0.5856,1.9335-1.0701,3.2091-1.4079
			l4.2747-3.1958C89.3014,196.7747,85.8831,198.4969,85.8831,200.6215z"/>
		<path fill="#636C72" d="M92.1405,199.4966l1.3778-2.7219l-4.2747,3.1958C90.1327,199.7351,91.1096,199.5749,92.1405,199.4966z"/>
		<path fill="#636C72" d="M93.5183,199.4393c0.2862,0,0.5654,0.0135,0.8448,0.0264l-0.8448-2.6909l-1.3778,2.7219
			C92.591,199.4625,93.0486,199.4393,93.5183,199.4393z"/>
		<path fill="#636C72" d="M101.0021,201.3784c0.0971-0.2449,0.1514-0.4977,0.1514-0.757c0-2.1245-3.4184-3.8467-7.6352-3.8467
			l4.0376,3.1411C98.9303,200.2551,100.1148,200.7577,101.0021,201.3784z"/>
		<path fill="#636C72" d="M97.5559,199.9159l-4.0376-3.1411l0.8448,2.6909C95.501,199.5181,96.5759,199.6739,97.5559,199.9159z"/>
		<path fill="#636C72" d="M86.0345,201.3784c0.0938,0.2366,0.2372,0.4636,0.4129,0.6824l2.7962-2.0903
			C87.968,200.3084,86.8714,200.7928,86.0345,201.3784z"/>
		<path fill="#636C72" d="M100.4778,202.189l-2.922-2.2731c-0.98-0.2419-2.0549-0.3977-3.1928-0.4502l1.5061,4.7973
			C97.9258,203.9257,99.6023,203.1736,100.4778,202.189z"/>
		<path fill="#636C72" d="M101.0021,201.3784c-0.8873-0.6208-2.0718-1.1233-3.4462-1.4626l2.922,2.2731
			C100.7068,201.9315,100.8897,201.6621,101.0021,201.3784z"/>
		<path fill="#636C72" d="M93.5183,204.4681c0.8258,0,1.606-0.0829,2.3509-0.2052l-1.5061-4.7973
			c-0.2794-0.0129-0.5586-0.0264-0.8448-0.0264c-0.4697,0-0.9273,0.0232-1.3778,0.0574l-2.2701,4.4843
			C90.9587,204.2817,92.1893,204.4681,93.5183,204.4681z"/>
		<path fill="#636C72" d="M89.8703,203.9809l2.2701-4.4843c-1.0309,0.0782-2.0078,0.2384-2.8969,0.4739l-2.7962,2.0903
			C87.1102,202.8862,88.3341,203.5564,89.8703,203.9809z"/>
		<g>
			<path fill="#596266" d="M87.0922,138.1267l-0.5774,61.3943c0,1.2502,1.2988,2.3422,3.2454,2.9689v-66.9791
				C88.1501,136.0991,87.0922,137.0479,87.0922,138.1267z"/>
			<path fill="#626B70" d="M93.5182,134.8893c-1.4079,0-2.6992,0.2347-3.758,0.6216V202.49
				c1.0875,0.3502,2.3716,0.5595,3.758,0.5595h0.0001L93.5182,134.8893L93.5182,134.8893z"/>
			<path fill="#757E85" d="M100.5217,199.521l-0.5774-61.3943c0-1.0786-1.0579-2.0275-2.6679-2.6158v66.979
				C99.2229,201.8632,100.5217,200.7713,100.5217,199.521z"/>
			<path fill="#6D767C" d="M93.5183,134.8893v68.1602c1.3864,0,2.6705-0.2094,3.7581-0.5595v-66.979
				C96.2176,135.124,94.9263,134.8893,93.5183,134.8893z"/>
		</g>
		<path fill="#566066" d="M100.7471,135.967c-0.9952-1.5415-3.8369-2.6634-7.2288-2.6634c-3.3919,0-6.2337,1.1219-7.2288,2.6634
			h-0.4064v1.1832c0,2.1244,3.4183,3.8466,7.6352,3.8466c4.2168,0,7.6352-1.7222,7.6352-3.8466v-1.1832H100.7471z"/>
		<ellipse fill="#636C72" cx="93.5182" cy="135.967" rx="7.6352" ry="3.8466"/>
		<path fill="#566066" d="M100.4794,131.3022c-1.7-0.9738-4.1847-1.5915-6.9612-1.5915s-5.261,0.6177-6.9612,1.5915h-2.3157v3.0823
			c0,2.5812,4.1534,4.6736,9.2768,4.6736s9.2767-2.0925,9.2767-4.6736v-3.0823H100.4794z"/>
		<ellipse fill="#636C72" cx="93.5182" cy="131.3023" rx="9.2768" ry="4.6737"/>
	</g>
	<g>
		<path fill="#434C4F" d="M72.8879,194.2821c-0.8974,0.1467-1.8531,0.2281-2.8475,0.2281c-1.6014,0-3.1068-0.206-4.4194-0.5675
			v2.6644c1.3126,0.3615,2.818,0.5675,4.4194,0.5675c0.9946,0,1.9504-0.0815,2.848-0.2282v-2.6628L72.8879,194.2821z"/>
		<path fill="#3D4547" d="M61.4896,191.6047l-0.0027,0.002v2.6588c0.8024,1.0002,2.2708,1.8287,4.134,2.3418v-2.6644
			C63.76,193.4303,62.2927,192.6034,61.4896,191.6047z"/>
		<path fill="#3D4547" d="M61.4896,191.6047c-0.4332-0.5387-0.6771-1.1264-0.6771-1.7435v2.6645c0,0.6157,0.243,1.202,0.6744,1.7397
			v-2.6588L61.4896,191.6047z"/>
		<path fill="#4C565B" d="M79.2682,189.8612c0,0.6772-0.294,1.3188-0.8107,1.8991l0.0036,0.0028v2.6579
			c0.5146-0.5793,0.8071-1.2195,0.8071-1.8953V189.8612z"/>
		<path fill="#475054" d="M78.4575,191.7603c-1.0602,1.1906-3.0808,2.1152-5.5696,2.5218l0.0005,0.0016v2.6628
			c2.4912-0.4071,4.5136-1.3332,5.5727-2.5255v-2.6579L78.4575,191.7603z"/>
		<path fill="#3D4547" d="M62.5566,189.8158c-0.097-0.2449-0.1514-0.4977-0.1514-0.757c0-2.1245,3.4183-3.8467,7.6352-3.8467
			c-5.0965,0-9.2279,2.0815-9.2279,4.6491h1.6728C62.5073,189.8454,62.5342,189.8315,62.5566,189.8158z"/>
		<path fill="#4C565B" d="M77.6755,189.0589c0,0.2593-0.0543,0.512-0.1514,0.757c0.0224,0.0157,0.0493,0.0296,0.0713,0.0454h1.6728
			c0-2.5676-4.1315-4.6491-9.2279-4.6491C74.2571,185.2121,77.6755,186.9343,77.6755,189.0589z"/>
		<path fill="#4C565B" d="M77.5241,189.8158c-0.1124,0.2837-0.2953,0.5531-0.5242,0.8105l1.4576,1.1339
			c0.5167-0.5803,0.8107-1.2218,0.8107-1.8991h-1.6728C77.5734,189.8454,77.5465,189.8315,77.5241,189.8158z"/>
		<path fill="#475054" d="M70.0403,192.9055c-1.329,0-2.5596-0.1864-3.648-0.4872l-0.7715,1.5239v0.0005
			c1.3126,0.3615,2.818,0.5675,4.4194,0.5675c0.9944,0,1.9501-0.0815,2.8475-0.2281l-0.4967-1.5818
			C71.6463,192.8225,70.8662,192.9055,70.0403,192.9055z"/>
		<path fill="#434C4F" d="M66.3924,192.4183c-1.5362-0.4245-2.7602-1.0947-3.4229-1.9201l-1.4799,1.1064
			c0.8031,0.9987,2.2704,1.8256,4.1313,2.3381v-0.0005L66.3924,192.4183z"/>
		<path fill="#4C565B" d="M72.3912,192.7003l0.4967,1.5818c2.4888-0.4066,4.5095-1.3313,5.5696-2.5218l-1.4576-1.1339
			C76.1243,191.611,74.4479,192.3631,72.3912,192.7003z"/>
		<path fill="#3D4547" d="M62.9695,190.4983c-0.1757-0.2189-0.3191-0.4458-0.4129-0.6824
			c-0.0224,0.0157-0.0493,0.0296-0.0713,0.0454h-1.6728c0,0.6171,0.2439,1.2048,0.6771,1.7435L62.9695,190.4983z"/>
		<path fill="#636C72" d="M62.4052,189.0589c0,0.2593,0.0544,0.512,0.1514,0.757c0.8369-0.5856,1.9335-1.0701,3.2091-1.4079
			l4.2747-3.1958C65.8235,185.2121,62.4052,186.9343,62.4052,189.0589z"/>
		<path fill="#636C72" d="M68.6625,187.9341l1.3778-2.7219l-4.2747,3.1958C66.6547,188.1725,67.6316,188.0123,68.6625,187.9341z"/>
		<path fill="#636C72" d="M70.0403,187.8767c0.2862,0,0.5654,0.0135,0.8448,0.0264l-0.8448-2.6909l-1.3778,2.7219
			C69.1131,187.8999,69.5707,187.8767,70.0403,187.8767z"/>
		<path fill="#636C72" d="M77.5241,189.8158c0.0971-0.2449,0.1514-0.4977,0.1514-0.757c0-2.1245-3.4184-3.8467-7.6352-3.8467
			l4.0376,3.1411C75.4524,188.6925,76.6368,189.1951,77.5241,189.8158z"/>
		<path fill="#636C72" d="M74.0779,188.3533l-4.0376-3.1411l0.8448,2.6909C72.0231,187.9555,73.0979,188.1113,74.0779,188.3533z"/>
		<path fill="#636C72" d="M62.5566,189.8158c0.0938,0.2366,0.2372,0.4636,0.4129,0.6824l2.7962-2.0903
			C64.49,188.7458,63.3935,189.2302,62.5566,189.8158z"/>
		<path fill="#636C72" d="M76.9999,190.6264l-2.922-2.2731c-0.98-0.2419-2.0549-0.3977-3.1928-0.4502l1.5061,4.7973
			C74.4479,192.3631,76.1243,191.611,76.9999,190.6264z"/>
		<path fill="#636C72" d="M77.5241,189.8158c-0.8873-0.6208-2.0718-1.1233-3.4462-1.4626l2.922,2.2731
			C77.2288,190.3689,77.4117,190.0995,77.5241,189.8158z"/>
		<path fill="#636C72" d="M70.0403,192.9055c0.8258,0,1.606-0.0829,2.3509-0.2052l-1.5061-4.7973
			c-0.2794-0.0129-0.5586-0.0264-0.8448-0.0264c-0.4697,0-0.9273,0.0232-1.3778,0.0574l-2.2701,4.4843
			C67.4807,192.7191,68.7114,192.9055,70.0403,192.9055z"/>
		<path fill="#636C72" d="M66.3924,192.4183l2.2701-4.4843c-1.0309,0.0782-2.0078,0.2384-2.8969,0.4739l-2.7962,2.0903
			C63.6322,191.3236,64.8561,191.9938,66.3924,192.4183z"/>
		<g>
			<path fill="#596266" d="M63.6142,126.5641l-0.5774,61.3943c0,1.2502,1.2988,2.3422,3.2454,2.9689v-66.9791
				C64.6722,124.5365,63.6142,125.4853,63.6142,126.5641z"/>
			<path fill="#626B70" d="M70.0402,123.3266c-1.4079,0-2.6992,0.2347-3.758,0.6216v66.9791
				c1.0875,0.3502,2.3717,0.5595,3.758,0.5595h0.0001L70.0402,123.3266L70.0402,123.3266z"/>
			<path fill="#757E85" d="M77.0438,187.9584l-0.5774-61.3943c0-1.0787-1.0579-2.0275-2.6679-2.6158v66.979
				C75.745,190.3006,77.0438,189.2087,77.0438,187.9584z"/>
			<path fill="#6D767C" d="M70.0403,123.3266v68.1602c1.3864,0,2.6705-0.2094,3.7581-0.5595v-66.979
				C72.7397,123.5614,71.4484,123.3266,70.0403,123.3266z"/>
		</g>
		<path fill="#566066" d="M77.2691,124.4044c-0.9952-1.5415-3.8369-2.6634-7.2288-2.6634c-3.3919,0-6.2337,1.1219-7.2288,2.6634
			h-0.4064v1.1832c0,2.1244,3.4183,3.8466,7.6352,3.8466c4.2168,0,7.6352-1.7222,7.6352-3.8466v-1.1832H77.2691z"/>
		<ellipse fill="#636C72" cx="70.0403" cy="124.4044" rx="7.6352" ry="3.8466"/>
		<path fill="#566066" d="M77.0015,119.7396c-1.7-0.9738-4.1847-1.5915-6.9612-1.5915s-5.261,0.6177-6.9611,1.5915h-2.3157v3.0823
			c0,2.5812,4.1534,4.6736,9.2768,4.6736c5.1234,0,9.2767-2.0924,9.2767-4.6736v-3.0823H77.0015z"/>
		<ellipse fill="#636C72" cx="70.0403" cy="119.7397" rx="9.2768" ry="4.6737"/>
	</g>
	<g>
		<path fill="#434C4F" d="M49.4099,182.7195c-0.8974,0.1467-1.8531,0.2281-2.8475,0.2281c-1.6014,0-3.1068-0.206-4.4194-0.5675
			v2.6644c1.3126,0.3615,2.818,0.5675,4.4194,0.5675c0.9946,0,1.9504-0.0815,2.848-0.2282v-2.6628L49.4099,182.7195z"/>
		<path fill="#3D4547" d="M38.0116,180.0421l-0.0027,0.002v2.6588c0.8024,1.0002,2.2708,1.8287,4.134,2.3418v-2.6644
			C40.2821,181.8677,38.8148,181.0408,38.0116,180.0421z"/>
		<path fill="#3D4547" d="M38.0116,180.0421c-0.4332-0.5387-0.6771-1.1264-0.6771-1.7435v2.6645c0,0.6157,0.243,1.202,0.6744,1.7397
			v-2.6588L38.0116,180.0421z"/>
		<path fill="#4C565B" d="M55.7903,178.2986c0,0.6772-0.294,1.3188-0.8107,1.8991l0.0036,0.0028v2.658
			c0.5146-0.5793,0.8071-1.2196,0.8071-1.8953V178.2986z"/>
		<path fill="#475054" d="M54.9795,180.1977c-1.0602,1.1906-3.0809,2.1152-5.5696,2.5218l0.0005,0.0016v2.6628
			c2.4912-0.4071,4.5137-1.3332,5.5727-2.5254v-2.658L54.9795,180.1977z"/>
		<path fill="#3D4547" d="M39.0786,178.2532c-0.097-0.2449-0.1514-0.4977-0.1514-0.757c0-2.1245,3.4183-3.8467,7.6352-3.8467
			c-5.0965,0-9.2279,2.0815-9.2279,4.6491h1.6728C39.0293,178.2828,39.0562,178.2689,39.0786,178.2532z"/>
		<path fill="#4C565B" d="M54.1976,177.4963c0,0.2593-0.0543,0.512-0.1514,0.757c0.0224,0.0157,0.0493,0.0296,0.0712,0.0454h1.6728
			c0-2.5676-4.1315-4.6491-9.2279-4.6491C50.7791,173.6495,54.1976,175.3717,54.1976,177.4963z"/>
		<path fill="#4C565B" d="M54.0462,178.2532c-0.1124,0.2837-0.2953,0.5531-0.5242,0.8105l1.4576,1.1339
			c0.5167-0.5803,0.8107-1.2218,0.8107-1.8991h-1.6728C54.0954,178.2828,54.0686,178.2689,54.0462,178.2532z"/>
		<path fill="#475054" d="M46.5624,181.3429c-1.329,0-2.5596-0.1864-3.648-0.4872l-0.7715,1.5239v0.0005
			c1.3126,0.3615,2.818,0.5675,4.4194,0.5675c0.9944,0,1.9501-0.0815,2.8475-0.2281l-0.4967-1.5818
			C48.1684,181.2599,47.3882,181.3429,46.5624,181.3429z"/>
		<path fill="#434C4F" d="M42.9144,180.8557c-1.5362-0.4245-2.7602-1.0947-3.4229-1.9201l-1.4799,1.1064
			c0.8031,0.9987,2.2704,1.8256,4.1313,2.3381v-0.0005L42.9144,180.8557z"/>
		<path fill="#4C565B" d="M48.9132,181.1377l0.4967,1.5818c2.4888-0.4066,4.5095-1.3313,5.5696-2.5218l-1.4576-1.1339
			C52.6463,180.0484,50.9699,180.8005,48.9132,181.1377z"/>
		<path fill="#3D4547" d="M39.4915,178.9357c-0.1757-0.2188-0.3191-0.4458-0.4129-0.6824
			c-0.0224,0.0157-0.0493,0.0296-0.0713,0.0454h-1.6728c0,0.6171,0.2439,1.2048,0.6771,1.7435L39.4915,178.9357z"/>
		<path fill="#636C72" d="M38.9272,177.4963c0,0.2593,0.0544,0.512,0.1514,0.757c0.8369-0.5856,1.9335-1.0701,3.2091-1.4079
			l4.2747-3.1958C42.3455,173.6495,38.9272,175.3717,38.9272,177.4963z"/>
		<path fill="#636C72" d="M45.1845,176.3714l1.3778-2.7219l-4.2747,3.1958C43.1767,176.6099,44.1537,176.4497,45.1845,176.3714z"/>
		<path fill="#636C72" d="M46.5624,176.3141c0.2862,0,0.5654,0.0135,0.8448,0.0264l-0.8448-2.6909l-1.3778,2.7219
			C45.6351,176.3373,46.0927,176.3141,46.5624,176.3141z"/>
		<path fill="#636C72" d="M54.0462,178.2532c0.0971-0.2449,0.1514-0.4977,0.1514-0.757c0-2.1245-3.4184-3.8467-7.6352-3.8467
			l4.0376,3.1411C51.9744,177.1299,53.1589,177.6325,54.0462,178.2532z"/>
		<path fill="#636C72" d="M50.6,176.7906l-4.0376-3.1411l0.8448,2.6909C48.5451,176.3929,49.62,176.5487,50.6,176.7906z"/>
		<path fill="#636C72" d="M39.0786,178.2532c0.0938,0.2366,0.2372,0.4636,0.4129,0.6824l2.7962-2.0903
			C41.0121,177.1832,39.9155,177.6676,39.0786,178.2532z"/>
		<path fill="#636C72" d="M53.5219,179.0638l-2.922-2.2731c-0.98-0.2419-2.0549-0.3977-3.1928-0.4502l1.5061,4.7973
			C50.9699,180.8005,52.6463,180.0484,53.5219,179.0638z"/>
		<path fill="#636C72" d="M54.0462,178.2532c-0.8873-0.6208-2.0718-1.1233-3.4462-1.4626l2.922,2.2731
			C53.7509,178.8064,53.9338,178.5369,54.0462,178.2532z"/>
		<path fill="#636C72" d="M46.5624,181.3429c0.8258,0,1.606-0.0829,2.3509-0.2052l-1.5061-4.7973
			c-0.2794-0.0129-0.5586-0.0264-0.8448-0.0264c-0.4697,0-0.9273,0.0232-1.3778,0.0574l-2.2701,4.4843
			C44.0028,181.1565,45.2334,181.3429,46.5624,181.3429z"/>
		<path fill="#636C72" d="M42.9144,180.8557l2.2701-4.4843c-1.0309,0.0782-2.0078,0.2384-2.8969,0.4739l-2.7962,2.0903
			C40.1542,179.761,41.3782,180.4312,42.9144,180.8557z"/>
		<g>
			<path fill="#596266" d="M40.1363,115.0015l-0.5774,61.3943c0,1.2502,1.2988,2.3422,3.2454,2.9689v-66.9791
				C41.1942,112.9739,40.1363,113.9227,40.1363,115.0015z"/>
			<path fill="#626B70" d="M46.5623,111.764c-1.4079,0-2.6992,0.2347-3.758,0.6216v66.9791
				c1.0875,0.3501,2.3716,0.5595,3.758,0.5595h0.0001V111.764H46.5623z"/>
			<path fill="#757E85" d="M53.5658,176.3958l-0.5774-61.3943c0-1.0787-1.0579-2.0275-2.6679-2.6158v66.979
				C52.267,178.738,53.5658,177.6461,53.5658,176.3958z"/>
			<path fill="#6D767C" d="M46.5624,111.764v68.1602c1.3864,0,2.6705-0.2094,3.7581-0.5595v-66.979
				C49.2617,111.9988,47.9704,111.764,46.5624,111.764z"/>
		</g>
		<path fill="#566066" d="M53.7911,112.8418c-0.9952-1.5415-3.8369-2.6634-7.2288-2.6634c-3.3919,0-6.2337,1.1219-7.2288,2.6634
			h-0.4064v1.1832c0,2.1244,3.4183,3.8466,7.6352,3.8466c4.2168,0,7.6352-1.7222,7.6352-3.8466v-1.1832H53.7911z"/>
		<ellipse fill="#636C72" cx="46.5623" cy="112.8418" rx="7.6352" ry="3.8466"/>
		<path fill="#566066" d="M53.5235,108.177c-1.7-0.9738-4.1847-1.5915-6.9612-1.5915s-5.261,0.6177-6.9612,1.5915h-2.3157v3.0823
			c0,2.5812,4.1534,4.6736,9.2768,4.6736s9.2767-2.0924,9.2767-4.6736v-3.0823H53.5235z"/>
		<ellipse fill="#636C72" cx="46.5623" cy="108.177" rx="9.2768" ry="4.6737"/>
	</g>
	<polygon fill="#242A38" points="117.2406,149.6893 31.309,106.6355 135.6868,54.447 221.6185,97.5 	"/>
	<polygon fill="#242A38" points="117.2406,139.7766 31.309,96.7229 135.6868,44.5344 221.6185,87.5873 	"/>
	<polygon fill="#515A60" points="31.309,96.6212 117.2406,139.675 117.2406,149.6893 31.309,106.6355 	"/>
	<polygon fill="#757E85" points="221.6185,87.4927 221.6185,97.5 117.2406,149.6893 117.2406,139.682 	"/>
	<polygon fill="#515A60" points="31.309,85.9901 117.2406,129.0438 117.2406,139.0581 31.309,96.0044 	"/>
	<polygon fill="#515A60" points="31.309,85.9901 32.9567,86.8122 32.9567,96.8265 31.309,96.0044 	"/>
	<polygon fill="#757E85" points="221.6185,76.8615 221.6185,86.8688 117.2406,139.0581 117.2406,129.0508 	"/>
	<g>
		<g>
			<polygon fill="#515A60" points="30.8703,86.1743 32.518,86.9964 32.518,97.0107 30.8703,96.1886 			"/>
			<polygon fill="#757E85" points="32.518,86.9964 32.9567,86.8122 32.9567,96.8265 32.518,97.0107 			"/>
		</g>
		<g>
			<polygon fill="#515A60" points="33.8014,87.6203 35.4491,88.4425 35.4491,98.4568 33.8014,97.6346 			"/>
			<polygon fill="#757E85" points="35.4491,88.4425 35.8878,88.2582 35.8878,98.2725 35.4491,98.4568 			"/>
		</g>
		<g>
			<polygon fill="#515A60" points="36.7325,89.0663 38.3802,89.8885 38.3802,99.9028 36.7325,99.0806 			"/>
			<polygon fill="#757E85" points="38.3802,89.8885 38.8189,89.7042 38.8189,99.7185 38.3802,99.9028 			"/>
		</g>
	</g>
	<g>
		<g>
			<polygon fill="#515A60" points="44.8805,93.2105 46.5282,94.0327 46.5282,104.047 44.8805,103.2249 			"/>
			<polygon fill="#757E85" points="46.5282,94.0327 46.9669,93.8484 46.9669,103.8627 46.5282,104.047 			"/>
		</g>
		<g>
			<polygon fill="#515A60" points="47.8116,94.6566 49.4593,95.4787 49.4593,105.493 47.8116,104.6709 			"/>
			<polygon fill="#757E85" points="49.4593,95.4787 49.898,95.2944 49.898,105.3088 49.4593,105.493 			"/>
		</g>
		<g>
			<polygon fill="#515A60" points="50.7428,96.1026 52.3904,96.9247 52.3904,106.939 50.7428,106.1169 			"/>
			<polygon fill="#757E85" points="52.3904,96.9247 52.8291,96.7405 52.8291,106.7548 52.3904,106.939 			"/>
		</g>
	</g>
	<g>
		<g>
			<polygon fill="#515A60" points="58.8907,100.2468 60.5384,101.0689 60.5384,111.0832 58.8907,110.2611 			"/>
			<polygon fill="#757E85" points="60.5384,101.0689 60.9771,100.8847 60.9771,110.899 60.5384,111.0832 			"/>
		</g>
		<g>
			<polygon fill="#515A60" points="61.8219,101.6928 63.4696,102.5149 63.4696,112.5292 61.8219,111.7071 			"/>
			<polygon fill="#757E85" points="63.4696,102.5149 63.9082,102.3307 63.9082,112.345 63.4696,112.5292 			"/>
		</g>
		<g>
			<polygon fill="#515A60" points="64.753,103.1388 66.4007,103.961 66.4007,113.9753 64.753,113.1531 			"/>
			<polygon fill="#757E85" points="66.4007,103.961 66.8394,103.7767 66.8394,113.791 66.4007,113.9753 			"/>
		</g>
	</g>
	<g>
		<g>
			<polygon fill="#515A60" points="72.901,107.283 74.5487,108.1052 74.5487,118.1195 72.901,117.2973 			"/>
			<polygon fill="#757E85" points="74.5487,108.1052 74.9873,107.9209 74.9873,117.9352 74.5487,118.1195 			"/>
		</g>
		<g>
			<polygon fill="#515A60" points="75.8321,108.7291 77.4798,109.5512 77.4798,119.5655 75.8321,118.7434 			"/>
			<polygon fill="#757E85" points="77.4798,109.5512 77.9185,109.3669 77.9185,119.3812 77.4798,119.5655 			"/>
		</g>
		<g>
			<polygon fill="#515A60" points="78.7632,110.1751 80.4109,110.9972 80.4109,121.0115 78.7632,120.1894 			"/>
			<polygon fill="#757E85" points="80.4109,110.9972 80.8496,110.813 80.8496,120.8273 80.4109,121.0115 			"/>
		</g>
	</g>
	<g>
		<g>
			<polygon fill="#515A60" points="86.9112,114.3193 88.5589,115.1414 88.5589,125.1557 86.9112,124.3336 			"/>
			<polygon fill="#757E85" points="88.5589,115.1414 88.9976,114.9572 88.9976,124.9715 88.5589,125.1557 			"/>
		</g>
		<g>
			<polygon fill="#515A60" points="89.8423,115.7653 91.49,116.5874 91.49,126.6017 89.8423,125.7796 			"/>
			<polygon fill="#757E85" points="91.49,116.5874 91.9287,116.4032 91.9287,126.4175 91.49,126.6017 			"/>
		</g>
		<g>
			<polygon fill="#515A60" points="92.7734,117.2113 94.4211,118.0335 94.4211,128.0478 92.7734,127.2256 			"/>
			<polygon fill="#757E85" points="94.4211,118.0335 94.8598,117.8492 94.8598,127.8635 94.4211,128.0478 			"/>
		</g>
	</g>
	<g>
		<g>
			<polygon fill="#515A60" points="100.9214,121.3555 102.5691,122.1777 102.5691,132.192 100.9214,131.3698 			"/>
			<polygon fill="#757E85" points="102.5691,122.1777 103.0078,121.9934 103.0078,132.0077 102.5691,132.192 			"/>
		</g>
		<g>
			<polygon fill="#515A60" points="103.8525,122.8016 105.5002,123.6237 105.5002,133.638 103.8525,132.8159 			"/>
			<polygon fill="#757E85" points="105.5002,123.6237 105.9389,123.4394 105.9389,133.4537 105.5002,133.638 			"/>
		</g>
		<g>
			<polygon fill="#515A60" points="106.7836,124.2476 108.4313,125.0697 108.4313,135.084 106.7836,134.2619 			"/>
			<polygon fill="#757E85" points="108.4313,125.0697 108.87,124.8855 108.87,134.8997 108.4313,135.084 			"/>
		</g>
	</g>
	<g>
		<g>
			<polygon fill="#757E85" points="221.6152,77.2638 219.9675,78.0859 219.9675,88.1002 221.6152,87.2781 			"/>
			<polygon fill="#515A60" points="219.9675,78.0859 219.5288,77.9017 219.5288,87.916 219.9675,88.1002 			"/>
		</g>
		<g>
			<polygon fill="#757E85" points="218.684,78.7098 217.0363,79.5319 217.0363,89.5462 218.684,88.7241 			"/>
			<polygon fill="#515A60" points="217.0363,79.5319 216.5977,79.3477 216.5977,89.362 217.0363,89.5462 			"/>
		</g>
		<g>
			<polygon fill="#757E85" points="215.7529,80.1558 214.1052,80.978 214.1052,90.9923 215.7529,90.1701 			"/>
			<polygon fill="#515A60" points="214.1052,80.978 213.6665,80.7937 213.6665,90.808 214.1052,90.9923 			"/>
		</g>
	</g>
	<g>
		<g>
			<polygon fill="#757E85" points="208.9624,83.654 207.3148,84.4761 207.3148,94.4904 208.9624,93.6683 			"/>
			<polygon fill="#515A60" points="207.3148,84.4761 206.8761,84.2919 206.8761,94.3062 207.3148,94.4904 			"/>
		</g>
		<g>
			<polygon fill="#757E85" points="206.0313,85.1 204.3836,85.9222 204.3836,95.9365 206.0313,95.1143 			"/>
			<polygon fill="#515A60" points="204.3836,85.9222 203.945,85.7379 203.945,95.7522 204.3836,95.9365 			"/>
		</g>
		<g>
			<polygon fill="#757E85" points="203.1002,86.5461 201.4525,87.3682 201.4525,97.3825 203.1002,96.5604 			"/>
			<polygon fill="#515A60" points="201.4525,87.3682 201.0138,87.1839 201.0138,97.1982 201.4525,97.3825 			"/>
		</g>
	</g>
	<g>
		<g>
			<polygon fill="#757E85" points="196.3098,90.0442 194.6621,90.8664 194.6621,100.8807 196.3098,100.0585 			"/>
			<polygon fill="#515A60" points="194.6621,90.8664 194.2234,90.6821 194.2234,100.6964 194.6621,100.8807 			"/>
		</g>
		<g>
			<polygon fill="#757E85" points="193.3786,91.4902 191.7309,92.3124 191.7309,102.3267 193.3786,101.5045 			"/>
			<polygon fill="#515A60" points="191.7309,92.3124 191.2923,92.1281 191.2923,102.1424 191.7309,102.3267 			"/>
		</g>
		<g>
			<polygon fill="#757E85" points="190.4475,92.9363 188.7998,93.7584 188.7998,103.7727 190.4475,102.9506 			"/>
			<polygon fill="#515A60" points="188.7998,93.7584 188.3611,93.5742 188.3611,103.5885 188.7998,103.7727 			"/>
		</g>
	</g>
	<g>
		<g>
			<polygon fill="#757E85" points="183.6571,96.4344 182.0094,97.2566 182.0094,107.2709 183.6571,106.4487 			"/>
			<polygon fill="#515A60" points="182.0094,97.2566 181.5707,97.0723 181.5707,107.0866 182.0094,107.2709 			"/>
		</g>
		<g>
			<polygon fill="#757E85" points="180.7259,97.8805 179.0782,98.7026 179.0782,108.7169 180.7259,107.8948 			"/>
			<polygon fill="#515A60" points="179.0782,98.7026 178.6396,98.5183 178.6396,108.5327 179.0782,108.7169 			"/>
		</g>
		<g>
			<polygon fill="#757E85" points="177.7948,99.3265 176.1471,100.1486 176.1471,110.1629 177.7948,109.3408 			"/>
			<polygon fill="#515A60" points="176.1471,100.1486 175.7084,99.9644 175.7084,109.9787 176.1471,110.1629 			"/>
		</g>
	</g>
	<g>
		<g>
			<polygon fill="#757E85" points="171.0043,102.8247 169.3567,103.6468 169.3567,113.6611 171.0043,112.839 			"/>
			<polygon fill="#515A60" points="169.3567,103.6468 168.918,103.4625 168.918,113.4768 169.3567,113.6611 			"/>
		</g>
		<g>
			<polygon fill="#757E85" points="168.0732,104.2707 166.4255,105.0928 166.4255,115.1071 168.0732,114.285 			"/>
			<polygon fill="#515A60" points="166.4255,105.0928 165.9869,104.9086 165.9869,114.9229 166.4255,115.1071 			"/>
		</g>
		<g>
			<polygon fill="#757E85" points="165.1421,105.7167 163.4944,106.5388 163.4944,116.5531 165.1421,115.731 			"/>
			<polygon fill="#515A60" points="163.4944,106.5388 163.0557,106.3546 163.0557,116.3689 163.4944,116.5531 			"/>
		</g>
	</g>
	<g>
		<g>
			<polygon fill="#757E85" points="158.3517,109.2149 156.7039,110.037 156.7039,120.0513 158.3517,119.2292 			"/>
			<polygon fill="#515A60" points="156.7039,110.037 156.2653,109.8528 156.2653,119.8671 156.7039,120.0513 			"/>
		</g>
		<g>
			<polygon fill="#757E85" points="155.4205,110.6609 153.7728,111.483 153.7728,121.4973 155.4205,120.6752 			"/>
			<polygon fill="#515A60" points="153.7728,111.483 153.3342,111.2988 153.3342,121.3131 153.7728,121.4973 			"/>
		</g>
		<g>
			<polygon fill="#757E85" points="152.4894,112.1069 150.8417,112.929 150.8417,122.9433 152.4894,122.1212 			"/>
			<polygon fill="#515A60" points="150.8417,112.929 150.403,112.7448 150.403,122.7591 150.8417,122.9433 			"/>
		</g>
	</g>
	<g>
		<g>
			<polygon fill="#757E85" points="145.6989,115.6051 144.0513,116.4272 144.0513,126.4415 145.6989,125.6194 			"/>
			<polygon fill="#515A60" points="144.0513,116.4272 143.6126,116.243 143.6126,126.2573 144.0513,126.4415 			"/>
		</g>
		<g>
			<polygon fill="#757E85" points="142.7678,117.0511 141.1201,117.8732 141.1201,127.8875 142.7678,127.0654 			"/>
			<polygon fill="#515A60" points="141.1201,117.8732 140.6815,117.689 140.6815,127.7033 141.1201,127.8875 			"/>
		</g>
		<g>
			<polygon fill="#757E85" points="139.8367,118.4971 138.189,119.3193 138.189,129.3336 139.8367,128.5114 			"/>
			<polygon fill="#515A60" points="138.189,119.3193 137.7503,119.135 137.7503,129.1493 138.189,129.3336 			"/>
		</g>
	</g>
	<g>
		<g>
			<polygon fill="#757E85" points="133.0462,121.9953 131.3986,122.8174 131.3986,132.8317 133.0462,132.0096 			"/>
			<polygon fill="#515A60" points="131.3986,122.8174 130.9599,122.6332 130.9599,132.6475 131.3986,132.8317 			"/>
		</g>
		<g>
			<polygon fill="#757E85" points="130.1151,123.4413 128.4674,124.2635 128.4674,134.2778 130.1151,133.4556 			"/>
			<polygon fill="#515A60" points="128.4674,124.2635 128.0287,124.0792 128.0287,134.0935 128.4674,134.2778 			"/>
		</g>
		<g>
			<polygon fill="#757E85" points="127.184,124.8873 125.5363,125.7095 125.5363,135.7238 127.184,134.9016 			"/>
			<polygon fill="#515A60" points="125.5363,125.7095 125.0976,125.5252 125.0976,135.5395 125.5363,135.7238 			"/>
		</g>
	</g>
	<polygon fill="#242A38" points="116.8094,131.3719 26.8601,86.3052 136.118,31.6767 226.0674,76.7426 	"/>
	<polygon fill="#6D767C" points="26.8601,82.6826 26.8601,86.3052 116.8094,131.3719 116.8094,127.7493 	"/>
	<polygon fill="#838C91" points="116.8094,127.7493 226.0674,73.1199 226.0674,76.7426 116.8094,131.3719 	"/>
	<polygon fill="#6D767C" points="26.8601,82.6826 71.644,71.718 116.8094,127.7493 	"/>
	<polygon fill="#333947" points="32.1328,84.6395 70.8912,75.1502 109.9797,123.6426 	"/>
	<polygon fill="#515A60" points="34.8912,84.7457 70.9029,75.9288 107.2213,120.9847 	"/>
	<polygon fill="#6D767C" points="136.2241,28.0532 181.008,17.0886 226.1734,73.1199 	"/>
	<polygon fill="#333947" points="71.644,71.718 181.008,17.0886 226.1734,73.1199 116.8094,127.7493 	"/>
	<polygon fill="#242A38" points="136.2241,28.0532 181.008,17.0886 71.644,71.718 26.8601,82.6826 	"/>
	<polygon fill="#838C91" points="71.644,71.718 75.1384,69.9857 120.0963,126.1206 116.8094,127.7493 	"/>
	<polygon fill="#838C91" points="177.6151,18.821 181.1095,17.0886 226.0674,73.2236 222.7805,74.8523 	"/>
	<polygon fill="#6D767C" points="75.1384,69.9857 30.2751,80.9768 26.8601,82.6826 71.644,71.718 	"/>
	<polygon fill="#6D767C" points="181.1193,17.0886 136.256,28.0797 132.841,29.7856 177.6249,18.821 	"/>
	<g>
		<g>
			<path fill="#F4EDDB" d="M78.5989,59.6193c-0.4545,1.1864,0.104,4.8824-1.2819,5.3851c-1.386,0.5027-2.0073,0.246-3.4196-0.3376
				c-1.4122-0.5835-2.0336-0.8403-3.4156-2.4868c-1.382-1.6465-0.8107-4.8756-1.2601-6.4354
				c-0.4494-1.5598-2.143-2.8571-2.143-2.8571s0.7901,0.7447,1.061,7.0701c0.1914,4.4674,2.9802,6.282,4.6031,6.9636l-0.0043,2.3458
				c0.9454,1.0042,1.5579,3.0528,2.5056,2.8308l0.0043-4.1463c1.6424,0.6114,4.2162,0.8924,4.4152-3.2322
				c0.2939-6.0921,1.0855-6.1832,1.0855-6.1832S79.0533,58.433,78.5989,59.6193z"/>
			<polygon fill="#F4EDDB" points="65.8868,53.5885 67.0787,52.8876 68.835,55.3805 67.6044,57.0959 			"/>
			<path fill="#F4EDDB" d="M77.7826,59.7747c0,0,0.7249-0.7261,1.9717-1.1165v1.0112L77.7826,59.7747z"/>
			<path fill="#F4EDDB" d="M78.6511,67.6772c0,0-1.4797,1.246-2.6267,1.318l0.942-1.6108L78.6511,67.6772z"/>
			<polygon fill="#F4EDDB" points="75.2441,72.0979 74.0521,72.7989 73.6406,70.0542 			"/>
		</g>
		<path fill="#CCC3B0" d="M77.4069,60.3202c-0.4545,1.1864,0.104,4.8824-1.2819,5.3851c-1.386,0.5027-2.0073,0.246-3.4196-0.3376
			c-1.4122-0.5835-2.0336-0.8403-3.4156-2.4867c-1.382-1.6465-0.8107-4.8756-1.2601-6.4354
			c-0.4494-1.5598-2.143-2.8571-2.143-2.8571s0.7901,0.7447,1.061,7.0701c0.1914,4.4674,2.9802,6.2821,4.6031,6.9636l-0.0296,3.8452
			l1.2007-0.2786l1.3298,1.6101l0.0047-4.1463c1.6424,0.6114,4.2162,0.8924,4.4152-3.2322
			c0.2939-6.0921,1.0855-6.1832,1.0855-6.1832S77.8614,59.1339,77.4069,60.3202z"/>
	</g>
	<g>
		<g>
			<path fill="#F4EDDB" d="M184.5408,6.7318c-0.4545,1.1864,0.104,4.8824-1.2819,5.3851c-1.386,0.5027-2.0073,0.246-3.4196-0.3376
				c-1.4122-0.5835-2.0336-0.8403-3.4156-2.4868c-1.382-1.6465-0.8107-4.8756-1.2601-6.4354C174.7142,1.2972,173.0206,0,173.0206,0
				s0.7901,0.7447,1.061,7.0701c0.1914,4.4674,2.9802,6.282,4.6031,6.9636l-0.0043,2.3458c0.9454,1.0042,1.558,3.0528,2.5056,2.8308
				l0.0043-4.1463c1.6424,0.6114,4.2162,0.8924,4.4152-3.2322c0.2939-6.0921,1.0855-6.1832,1.0855-6.1832
				S184.9952,5.5454,184.5408,6.7318z"/>
			<polygon fill="#F4EDDB" points="171.8286,0.7009 173.0206,0 174.7769,2.4929 173.5463,4.2084 			"/>
			<path fill="#F4EDDB" d="M183.7244,6.8871c0,0,0.7249-0.7261,1.9717-1.1165v1.0112L183.7244,6.8871z"/>
			<path fill="#F4EDDB" d="M184.593,14.7897c0,0-1.4797,1.246-2.6266,1.318l0.942-1.6108L184.593,14.7897z"/>
			<polygon fill="#F4EDDB" points="181.1859,19.2104 179.994,19.9113 179.5825,17.1666 			"/>
		</g>
		<path fill="#CCC3B0" d="M183.3488,7.4327c-0.4545,1.1864,0.104,4.8824-1.2819,5.3851c-1.386,0.5027-2.0073,0.246-3.4196-0.3376
			c-1.4122-0.5835-2.0336-0.8403-3.4156-2.4868c-1.382-1.6465-0.8107-4.8756-1.2601-6.4354
			c-0.4494-1.5598-2.143-2.8571-2.143-2.8571s0.7901,0.7447,1.0611,7.0701c0.1914,4.4674,2.9802,6.2821,4.6031,6.9636
			l-0.0296,3.8452l1.2007-0.2786l1.3298,1.6101l0.0047-4.1463c1.6424,0.6114,4.2162,0.8924,4.4152-3.2322
			c0.2939-6.0921,1.0855-6.1832,1.0855-6.1832S183.8033,6.2463,183.3488,7.4327z"/>
	</g>
</g>
</svg>
