<?xml version="1.0" encoding="iso-8859-1"?>
<!-- Generator: Adobe Illustrator 24.0.3, SVG Export Plug-In . SVG Version: 6.00 Build 0)  -->
<svg version="1.1" id="&#x5716;&#x5C64;_1" xmlns="http://www.w3.org/2000/svg" xmlns:xlink="http://www.w3.org/1999/xlink" x="0px"
	 y="0px" viewBox="0 0 250 250" enable-background="new 0 0 250 250" xml:space="preserve">
<g>
	<polygon opacity="0.2" fill="#777777" points="244.9722,188.7251 124.4863,128.4824 4.0002,188.7251 31.2582,202.3542 
		8.0947,213.9359 69.071,244.4242 92.2345,232.8425 124.4863,248.9684 	"/>
	<polygon fill="#A5826A" points="12.9478,171.53 13.9261,172.0183 125.1941,116.4248 125.1941,115.4073 	"/>
	<polygon fill="#876C59" points="125.1941,116.4248 125.1941,117.4141 14.9504,172.5296 13.9261,172.0183 	"/>
	<polygon fill="#C5D0D8" points="125.1941,120.9847 11.095,178.0338 125.1941,235.0838 239.2931,178.0338 	"/>
	<polygon fill="#876C59" points="125.1941,118.564 11.095,175.6131 125.1941,232.6631 239.2931,175.6131 	"/>
	<polygon fill="#A5826A" points="125.1941,115.4073 125.1941,116.4248 236.4432,171.9986 238.3766,171.9982 	"/>
	<polygon fill="#876C59" points="125.1941,116.4248 125.1941,117.4141 235.4022,172.519 236.4432,171.9986 	"/>
	<polygon fill="#5B4B40" points="125.1941,119.5307 13.0285,175.6131 125.1941,231.6963 237.3596,175.6131 	"/>
	<polygon fill="#33271F" points="125.1941,200.7801 125.1941,215.4493 33.8502,169.0059 33.8502,156.0746 	"/>
	<polygon fill="#33271F" points="125.1941,200.7801 125.1941,215.4493 216.5379,169.0059 216.5379,156.0746 	"/>
	<polygon fill="#A5826A" points="12.9478,166.5257 13.9261,167.014 125.1941,111.4205 125.1941,110.403 	"/>
	<polygon fill="#6B5241" points="11.095,175.6131 11.095,178.0338 125.1941,235.0838 125.1941,232.6631 	"/>
	<polygon fill="#937967" points="239.2931,175.6131 239.2931,178.0338 125.1941,235.0838 125.1941,232.6631 	"/>
	<g>
		<polygon fill="#C4C0BC" points="12.9478,184.8143 15.2299,185.9553 12.9478,187.0964 10.6657,185.9553 		"/>
		<g>
			<polygon fill="#6B5241" points="14.7894,141.2307 14.7894,185.9553 12.9478,186.8761 12.9478,142.1514 			"/>
			<polygon fill="#A5826A" points="12.9478,140.3099 14.7894,141.2307 12.9478,142.1514 11.1062,141.2307 			"/>
			<polygon fill="#543E2F" points="11.1062,141.2307 11.1062,185.9553 12.9478,186.8761 12.9478,142.1514 			"/>
		</g>
		<polygon fill="#ADAAA6" points="10.6657,185.9553 10.255,188.7491 12.9478,190.0955 12.9478,187.0964 		"/>
		<polygon fill="#C4C0BC" points="15.2299,185.9553 15.6406,188.7491 12.9478,190.0955 12.9478,187.0964 		"/>
	</g>
	<polygon fill="#876C59" points="125.1941,111.4205 125.1941,112.4099 14.9504,167.5253 13.9261,167.014 	"/>
	<g>
		<polygon fill="#876C59" points="13.2741,172.659 44.563,188.2706 44.563,189.2273 13.2726,173.615 		"/>
		<polygon fill="#A5826A" points="13.2734,172.65 14.2306,172.1619 44.563,187.3038 44.563,188.2706 		"/>
	</g>
	<g>
		<polygon fill="#A5826A" points="13.2037,167.5882 14.14,167.12 44.5615,182.3056 44.5615,183.2724 		"/>
		<polygon fill="#876C59" points="13.2052,167.5882 44.5615,183.2724 44.5615,184.2291 13.2037,168.5442 		"/>
	</g>
	<g>
		<line fill="#876D5B" x1="28.4492" y1="211.5556" x2="42.627" y2="204.4667"/>
		<polygon fill="#6B5241" points="46.4789,176.055 46.4789,191.3596 44.563,192.3263 44.5615,177.0137 		"/>
		<polygon fill="#6B5241" points="46.4789,195.705 46.4789,205.0527 44.563,206.0194 44.5619,194.7465 		"/>
		<polygon fill="#A5826A" points="44.5615,175.0963 46.4789,176.055 44.5615,177.0137 42.6441,176.055 		"/>
		<polygon fill="#543E2F" points="44.563,206.0194 43.9778,205.7137 43.9778,176.7219 44.5615,177.0137 		"/>
		<polygon fill="#543E2F" points="42.6441,176.055 42.6441,205.1966 44.563,206.0194 44.5615,177.0137 		"/>
		<polygon fill="#A5826A" points="43.0619,191.8215 44.3851,192.5238 30.7753,208.168 29.4521,207.4657 		"/>
		<polygon fill="#876D5B" points="30.7753,208.168 30.7753,212.7529 44.3851,205.948 44.3851,192.5238 		"/>
		<polygon fill="#A5826A" points="43.0619,187.5207 44.3851,188.224 30.7753,203.8683 29.4521,203.1649 		"/>
		<polygon fill="#876D5B" points="30.7753,203.8683 30.7753,204.8926 44.3851,189.2169 44.3851,188.224 		"/>
		<polygon fill="#A5826A" points="43.0619,182.7655 44.3851,183.4872 30.7753,199.1314 29.4521,198.4097 		"/>
		<polygon fill="#876D5B" points="30.7753,199.1314 30.7753,200.1558 44.3851,184.48 44.3851,183.4872 		"/>
		<polygon fill="#6B5241" points="31.734,197.061 31.734,212.3655 29.8181,213.3323 29.8166,198.0197 		"/>
		<polygon fill="#A5826A" points="29.8166,196.1023 31.734,197.061 29.8166,198.0197 27.8992,197.061 		"/>
		<polygon fill="#543E2F" points="27.8992,197.061 27.8992,212.382 29.8181,213.3323 29.8166,198.0197 		"/>
		<polygon fill="#876D5B" points="38.0112,191.8215 38.0112,199.884 37.412,200.5392 37.412,192.5238 		"/>
		<polygon fill="#705A4B" points="37.412,200.5392 36.0356,199.898 36.0356,198.8338 37.412,197.2484 		"/>
		<polygon fill="#705A4B" points="37.412,196.2386 36.0356,195.5974 36.0356,194.1091 37.412,192.5238 		"/>
	</g>
	<g>
		<polygon fill="#A5826A" points="39.9345,196.7863 44.2705,194.6227 83.6246,214.2998 79.8925,218.5898 79.8925,216.7776 		"/>
		<polygon fill="#6B5241" points="34.8768,207.1866 34.8768,203.2489 74.5597,223.1036 74.5597,227.0413 		"/>
		<polygon fill="#6B5241" points="39.9345,200.7213 39.9345,196.7863 79.6174,216.6409 79.6174,220.8466 		"/>
		<polygon fill="#A5826A" points="30.0977,209.5611 34.8768,207.1866 74.5597,227.0413 69.7805,229.4158 		"/>
		<polygon fill="#A5826A" points="34.8768,203.2489 39.9345,200.7213 79.6174,220.576 74.5597,223.1036 		"/>
		<polygon fill="#6B5241" points="30.0977,212.3913 30.0977,209.5611 69.7805,229.4158 69.7805,232.2405 		"/>
	</g>
	<g>
		<line fill="#876D5B" x1="70.3305" y1="232.5183" x2="84.5083" y2="225.4293"/>
		<polygon fill="#6B5241" points="88.3602,197.0177 88.3602,212.3222 86.4443,213.289 86.4428,197.9764 		"/>
		<polygon fill="#6B5241" points="88.3602,216.6677 88.3602,226.0153 86.4443,226.9821 86.4432,215.7092 		"/>
		<polygon fill="#A5826A" points="86.4428,196.059 88.3602,197.0177 86.4428,197.9764 84.5254,197.0177 		"/>
		<polygon fill="#543E2F" points="86.4443,226.9821 85.8591,226.6763 85.8591,197.6845 86.4428,197.9764 		"/>
		<polygon fill="#543E2F" points="84.5254,197.0177 84.5254,226.1593 86.4443,226.9821 86.4428,197.9764 		"/>
		<polygon fill="#A5826A" points="74.5597,224.7198 77.0472,221.8604 74.5597,223.1036 		"/>
		<polygon fill="#A5826A" points="84.9432,212.7841 86.2664,213.4864 72.6566,229.1307 71.3334,228.4283 		"/>
		<polygon fill="#876D5B" points="72.6566,229.1307 72.6566,233.7155 86.2664,226.9106 86.2664,213.4864 		"/>
		<polygon fill="#A5826A" points="84.9432,208.4834 86.2664,209.1867 72.6566,224.8309 71.3334,224.1276 		"/>
		<polygon fill="#876D5B" points="72.6566,224.8309 72.6566,225.8553 86.2664,210.1795 86.2664,209.1867 		"/>
		<polygon fill="#A5826A" points="84.9432,203.7282 86.2664,204.4498 72.6566,220.094 71.3334,219.3724 		"/>
		<polygon fill="#876D5B" points="72.6566,220.094 72.6566,221.1184 86.2664,205.4426 86.2664,204.4498 		"/>
		<polygon fill="#6B5241" points="73.6153,218.0236 73.6153,233.3282 71.6994,234.2949 71.6979,218.9823 		"/>
		<polygon fill="#A5826A" points="71.6979,217.0649 73.6153,218.0236 71.6979,218.9823 69.7805,218.0236 		"/>
		<polygon fill="#543E2F" points="69.7805,218.0236 69.7805,233.3447 71.6994,234.2949 71.6979,218.9823 		"/>
		<polygon fill="#876D5B" points="79.8925,212.7841 79.8925,220.8466 79.2933,221.5018 79.2933,213.4864 		"/>
		<polygon fill="#705A4B" points="79.2933,221.5018 77.9169,220.8607 77.9169,219.7964 79.2933,218.2111 		"/>
		<polygon fill="#705A4B" points="79.2933,217.2013 77.9169,216.5601 77.9169,215.0718 79.2933,213.4864 		"/>
	</g>
	<g>
		<polygon fill="#876C59" points="86.8053,209.4013 125.1941,228.5976 125.1941,229.5544 86.8038,210.3573 		"/>
		<polygon fill="#A5826A" points="86.8053,209.4013 87.7625,208.9131 125.1941,227.6309 125.1941,228.5976 		"/>
	</g>
	<g>
		<polygon fill="#A5826A" points="86.8053,204.3924 87.772,203.9091 125.1941,222.6189 125.1941,223.5856 		"/>
		<polygon fill="#876C59" points="86.8053,204.3924 125.1941,223.5856 125.1941,224.5424 86.8038,205.3484 		"/>
	</g>
	<g>
		<polygon fill="#A5826A" points="125.1941,222.6189 125.1941,223.5856 238.3766,166.9939 236.4432,166.9943 		"/>
		<polygon fill="#937967" points="238.3766,166.9939 238.3766,167.9507 125.1941,224.5424 125.1941,223.5856 		"/>
	</g>
	<g>
		<polygon fill="#A5826A" points="125.1941,227.6309 125.1941,228.5976 238.3766,172.0059 236.4432,172.0063 		"/>
		<polygon fill="#937967" points="238.3766,172.0059 238.3766,172.9626 125.1941,229.5544 125.1941,228.5976 		"/>
	</g>
	<polygon fill="#A5826A" points="125.1941,110.403 125.1941,111.4205 236.4432,166.9943 238.3766,166.9939 	"/>
	<polygon fill="#876C59" points="125.1941,111.4205 125.1941,112.4099 235.4022,167.5148 236.4432,166.9943 	"/>
	<g>
		<polygon fill="#C4C0BC" points="125.1941,240.6991 127.4761,241.8402 125.1941,242.9812 122.912,241.8402 		"/>
		<g>
			<polygon fill="#6B5241" points="127.0356,197.1155 127.0356,241.8402 125.1941,242.7609 125.1941,198.0363 			"/>
			<polygon fill="#A5826A" points="125.1941,196.1947 127.0356,197.1155 125.1941,198.0363 123.3525,197.1155 			"/>
			<polygon fill="#543E2F" points="123.3525,197.1155 123.3525,241.8402 125.1941,242.7609 125.1941,198.0363 			"/>
		</g>
		<polygon fill="#ADAAA6" points="122.912,241.8402 122.5012,244.634 125.1941,245.9804 125.1941,242.9812 		"/>
		<polygon fill="#C4C0BC" points="127.4761,241.8402 127.8869,244.634 125.1941,245.9804 125.1941,242.9812 		"/>
	</g>
	<g>
		<polygon fill="#C4C0BC" points="164.9576,220.7967 167.2396,221.9378 164.9576,223.0788 162.6755,221.9378 		"/>
		<g>
			<polygon fill="#6B5241" points="166.7991,177.2131 166.7991,221.9378 164.9576,222.8586 164.9576,178.1339 			"/>
			<polygon fill="#A5826A" points="164.9576,176.2923 166.7991,177.2131 164.9576,178.1339 163.116,177.2131 			"/>
			<polygon fill="#543E2F" points="163.116,177.2131 163.116,221.9378 164.9576,222.8586 164.9576,178.1339 			"/>
		</g>
		<polygon fill="#ADAAA6" points="162.6755,221.9378 162.2647,224.7316 164.9576,226.078 164.9576,223.0788 		"/>
		<polygon fill="#C4C0BC" points="167.2396,221.9378 167.6504,224.7316 164.9576,226.078 164.9576,223.0788 		"/>
	</g>
	<g>
		<polygon fill="#C4C0BC" points="203.2543,201.5403 205.5364,202.6814 203.2543,203.8224 200.9723,202.6814 		"/>
		<g>
			<polygon fill="#6B5241" points="205.0959,157.9567 205.0959,202.6814 203.2543,203.6022 203.2543,158.8775 			"/>
			<polygon fill="#A5826A" points="203.2543,157.0359 205.0959,157.9567 203.2543,158.8775 201.4128,157.9567 			"/>
			<polygon fill="#543E2F" points="201.4128,157.9567 201.4128,202.6814 203.2543,203.6022 203.2543,158.8775 			"/>
		</g>
		<polygon fill="#ADAAA6" points="200.9723,202.6814 200.5615,205.4752 203.2543,206.8216 203.2543,203.8224 		"/>
		<polygon fill="#C4C0BC" points="205.5364,202.6814 205.9472,205.4752 203.2543,206.8216 203.2543,203.8224 		"/>
	</g>
	<g>
		<polygon fill="#C4C0BC" points="237.4478,184.1415 239.7299,185.2826 237.4478,186.4236 235.1657,185.2826 		"/>
		<g>
			<polygon fill="#6B5241" points="239.2894,140.5579 239.2894,185.2826 237.4478,186.2034 237.4478,141.4787 			"/>
			<polygon fill="#A5826A" points="237.4478,139.6371 239.2894,140.5579 237.4478,141.4787 235.6062,140.5579 			"/>
			<polygon fill="#543E2F" points="235.6062,140.5579 235.6062,185.2826 237.4478,186.2034 237.4478,141.4787 			"/>
		</g>
		<polygon fill="#ADAAA6" points="235.1657,185.2826 234.755,188.0764 237.4478,189.4228 237.4478,186.4236 		"/>
		<polygon fill="#C4C0BC" points="239.7299,185.2826 240.1407,188.0764 237.4478,189.4228 237.4478,186.4236 		"/>
	</g>
	<polygon fill="#876C59" points="14.7894,177.4603 13.2726,176.7019 14.2189,176.2083 14.7894,176.4935 	"/>
	<polygon fill="#A5826A" points="127.0356,197.1155 125.1941,196.1947 123.3525,197.1155 125.1941,198.0363 	"/>
	<g>
		<polygon fill="#C4C0BC" points="107.4304,231.8199 106.9899,231.5996 106.9899,231.8199 105.1484,232.7407 103.3068,231.8199 
			103.3068,231.5996 102.8663,231.8199 105.1484,232.9609 		"/>
		<polygon fill="#6B5241" points="105.1484,230.6788 106.9899,231.5996 106.9899,225.9843 105.1484,225.0635 		"/>
		<polygon fill="#6B5241" points="105.1484,232.7407 106.9899,231.8199 106.9899,231.5996 105.1484,230.6788 		"/>
		<polygon fill="#543E2F" points="105.1484,225.0635 103.3068,224.1427 103.3068,231.5996 105.1484,230.6788 		"/>
		<polygon fill="#543E2F" points="105.1484,232.7407 105.1484,230.6788 103.3068,231.5996 103.3068,231.8199 		"/>
		<polygon fill="#ADAAA6" points="102.8663,231.8199 102.4555,234.6136 105.1484,235.9601 105.1484,232.9609 		"/>
		<polygon fill="#C4C0BC" points="105.1484,232.9609 105.1484,235.9601 107.8412,234.6136 107.4304,231.8199 		"/>
	</g>
	<g>
		<polygon fill="#C4C0BC" points="142.9577,231.8199 143.3982,231.5996 143.3982,231.8199 145.2397,232.7407 147.0813,231.8199 
			147.0813,231.5996 147.5218,231.8199 145.2397,232.9609 		"/>
		<polygon fill="#543E2F" points="145.2397,230.6788 143.3982,231.5996 143.3982,225.9843 145.2397,225.0635 		"/>
		<polygon fill="#543E2F" points="145.2397,232.7407 143.3982,231.8199 143.3982,231.5996 145.2397,230.6788 		"/>
		<polygon fill="#6B5241" points="145.2397,225.0635 147.0813,224.1427 147.0813,231.5996 145.2397,230.6788 		"/>
		<polygon fill="#6B5241" points="145.2397,232.7407 145.2397,230.6788 147.0813,231.5996 147.0813,231.8199 		"/>
		<polygon fill="#C4C0BC" points="147.5218,231.8199 147.9326,234.6136 145.2397,235.9601 145.2397,232.9609 		"/>
		<polygon fill="#ADAAA6" points="145.2397,232.9609 145.2397,235.9601 142.5469,234.6136 142.9577,231.8199 		"/>
	</g>
	<g>
		<polygon fill="#876C59" points="105.1484,222.6189 105.1484,219.5305 104.0363,218.9744 104.0363,222.0841 		"/>
		<polygon fill="#876C59" points="105.1484,218.5556 105.1484,214.4922 104.0363,213.9361 104.0363,218.0208 		"/>
		<polygon fill="#725947" points="105.1484,222.6189 105.1484,219.5305 106.1107,220.0117 106.1107,222.1499 		"/>
		<polygon fill="#725947" points="105.1484,218.5556 105.1484,214.4674 106.1107,214.9486 106.1107,218.0865 		"/>
	</g>
	<g>
		<polygon fill="#937967" points="145.2397,222.6189 145.2397,219.5305 146.3518,218.9744 146.3518,222.0841 		"/>
		<polygon fill="#937967" points="145.2397,218.5556 145.2397,214.4922 146.3518,213.9361 146.3518,218.0208 		"/>
		<polygon fill="#725947" points="145.2397,222.6189 145.2397,219.5305 144.2774,220.0117 144.2774,222.1499 		"/>
		<polygon fill="#725947" points="145.2397,218.5556 145.2397,214.4674 144.2774,214.9486 144.2774,218.0865 		"/>
	</g>
	<g>
		<polygon fill="#C4C0BC" points="182.1502,212.2202 182.5907,211.9999 182.5907,212.2202 184.4322,213.141 186.2738,212.2202 
			186.2738,211.9999 186.7143,212.2202 184.4322,213.3612 		"/>
		<polygon fill="#543E2F" points="184.4322,211.0791 182.5907,211.9999 182.5907,206.3846 184.4322,205.4638 		"/>
		<polygon fill="#543E2F" points="184.4322,213.141 182.5907,212.2202 182.5907,211.9999 184.4322,211.0791 		"/>
		<polygon fill="#6B5241" points="184.4322,205.4638 186.2738,204.543 186.2738,211.9999 184.4322,211.0791 		"/>
		<polygon fill="#6B5241" points="184.4322,213.141 184.4322,211.0791 186.2738,211.9999 186.2738,212.2202 		"/>
		<polygon fill="#C4C0BC" points="186.7143,212.2202 187.1251,215.014 184.4322,216.3605 184.4322,213.3612 		"/>
		<polygon fill="#ADAAA6" points="184.4322,213.3612 184.4322,216.3605 181.7394,215.014 182.1502,212.2202 		"/>
	</g>
	<g>
		<polygon fill="#937967" points="184.4322,203.0192 184.4322,199.9308 185.5443,199.3747 185.5443,202.4844 		"/>
		<polygon fill="#937967" points="184.4322,198.9559 184.4322,194.8926 185.5443,194.3365 185.5443,198.4211 		"/>
		<polygon fill="#725947" points="184.4322,203.0192 184.4322,199.9308 183.4699,200.412 183.4699,202.5502 		"/>
		<polygon fill="#725947" points="184.4322,198.9559 184.4322,194.8677 183.4699,195.349 183.4699,198.4868 		"/>
	</g>
	<g>
		<polygon fill="#C4C0BC" points="217.7361,194.4836 218.1765,194.2633 218.1765,194.4836 220.0181,195.4044 221.8596,194.4836 
			221.8596,194.2633 222.3001,194.4836 220.0181,195.6245 		"/>
		<polygon fill="#543E2F" points="220.0181,193.3425 218.1765,194.2633 218.1765,188.648 220.0181,187.7272 		"/>
		<polygon fill="#543E2F" points="220.0181,195.4044 218.1765,194.4836 218.1765,194.2633 220.0181,193.3425 		"/>
		<polygon fill="#6B5241" points="220.0181,187.7272 221.8596,186.8064 221.8596,194.2633 220.0181,193.3425 		"/>
		<polygon fill="#6B5241" points="220.0181,195.4044 220.0181,193.3425 221.8596,194.2633 221.8596,194.4836 		"/>
		<polygon fill="#C4C0BC" points="222.3001,194.4836 222.7109,197.2773 220.0181,198.6238 220.0181,195.6245 		"/>
		<polygon fill="#ADAAA6" points="220.0181,195.6245 220.0181,198.6238 217.3253,197.2773 217.7361,194.4836 		"/>
	</g>
	<g>
		<polygon fill="#937967" points="220.0181,185.2826 220.0181,182.1942 221.1302,181.6381 221.1302,184.7478 		"/>
		<polygon fill="#937967" points="220.0181,181.2193 220.0181,177.1559 221.1302,176.5998 221.1302,180.6844 		"/>
		<polygon fill="#725947" points="220.0181,185.2826 220.0181,182.1942 219.0558,182.6754 219.0558,184.8135 		"/>
		<polygon fill="#725947" points="220.0181,181.2193 220.0181,177.1311 219.0558,177.6123 219.0558,180.7502 		"/>
	</g>
	<polygon fill="#918B8A" points="125.1941,202.6384 125.1941,103.0294 2,141.0408 	"/>
	<polygon fill="#7C7776" points="125.1941,178.0342 92.4694,161.6718 88.6589,166.5257 125.1941,184.6582 	"/>
	<polygon fill="#7C7776" points="91.7517,168.0607 81.6987,180.8905 79.0353,179.5588 89.1689,166.7789 	"/>
	<polygon fill="#7C7776" points="44.8151,138.7881 31.259,132.0074 22.8854,134.5967 40.8772,143.5261 	"/>
	<g>
		<defs>
			<polygon id="SVGID_1_" points="125.1941,202.6384 125.1941,103.0294 2,141.0408 			"/>
		</defs>
		<clipPath id="SVGID_2_">
			<use xlink:href="#SVGID_1_"  overflow="visible"/>
		</clipPath>
		<g opacity="0.2" clip-path="url(#SVGID_2_)">
			<g>
				<polygon fill="#D1D1D1" points="125.0724,202.882 1.8787,141.2846 2.1216,140.7968 125.3152,202.3942 				"/>
			</g>
			<g>
				<polygon fill="#D1D1D1" points="125.0724,208.2557 1.8787,146.6583 2.1216,146.1705 125.3152,207.7679 				"/>
			</g>
			<g>
				<polygon fill="#D1D1D1" points="125.0724,213.6294 1.8787,152.032 2.1216,151.5443 125.3152,213.1416 				"/>
			</g>
			<g>
				<polygon fill="#D1D1D1" points="125.0724,197.8214 1.8787,136.224 2.1216,135.7362 125.3152,197.3336 				"/>
			</g>
			<g>
				<polygon fill="#D1D1D1" points="125.0724,192.7607 1.8787,131.1634 2.1216,130.6756 125.3152,192.273 				"/>
			</g>
			<g>
				<polygon fill="#D1D1D1" points="125.0724,187.7001 1.8787,126.1028 2.1216,125.615 125.3152,187.2124 				"/>
			</g>
			<g>
				<polygon fill="#D1D1D1" points="125.0724,182.6395 1.8787,121.0422 2.1216,120.5544 125.3152,182.1518 				"/>
			</g>
			<g>
				<polygon fill="#D1D1D1" points="125.0724,177.5789 1.8787,115.9815 2.1216,115.4938 125.3152,177.0912 				"/>
			</g>
			<g>
				<polygon fill="#D1D1D1" points="125.0724,172.5183 1.8787,110.9199 2.1216,110.4321 125.3152,172.0305 				"/>
			</g>
			<g>
				<polygon fill="#D1D1D1" points="125.0724,167.4566 1.8787,105.8593 2.1216,105.3715 125.3152,166.9689 				"/>
			</g>
			<g>
				<polygon fill="#D1D1D1" points="125.0724,162.396 1.8787,100.7986 2.1216,100.3109 125.3152,161.9083 				"/>
			</g>
			<g>
				<polygon fill="#D1D1D1" points="125.0724,157.3354 1.8787,95.738 2.1216,95.2503 125.3152,156.8477 				"/>
			</g>
			<g>
				<polygon fill="#D1D1D1" points="125.0724,152.2748 1.8787,90.6774 2.1216,90.1897 125.3152,151.787 				"/>
			</g>
			<g>
				<polygon fill="#D1D1D1" points="125.0724,147.2142 1.8787,85.6168 2.1216,85.1291 125.3152,146.7264 				"/>
			</g>
			<g>
				<polygon fill="#D1D1D1" points="125.0724,142.1536 1.8787,80.5562 2.1216,80.0685 125.3152,141.6658 				"/>
			</g>
			<g>
				<polygon fill="#D1D1D1" points="125.0724,137.093 1.8787,75.4956 2.1216,75.0079 125.3152,136.6052 				"/>
			</g>
			<g>
				<polygon fill="#D1D1D1" points="125.0724,132.0324 1.8787,70.435 2.1216,69.9473 125.3152,131.5446 				"/>
			</g>
			<g>
				<polygon fill="#D1D1D1" points="125.0724,126.9718 1.8787,65.3733 2.1216,64.8856 125.3152,126.484 				"/>
			</g>
			<g>
				<polygon fill="#D1D1D1" points="125.0724,121.9101 1.8787,60.3127 2.1216,59.825 125.3152,121.4223 				"/>
			</g>
			<g>
				<polygon fill="#D1D1D1" points="125.0724,116.8495 1.8787,55.2521 2.1216,54.7644 125.3152,116.3617 				"/>
			</g>
			<g>
				<polygon fill="#D1D1D1" points="125.0724,111.7889 1.8787,50.1915 2.1216,49.7038 125.3152,111.3011 				"/>
			</g>
			<g>
				<polygon fill="#D1D1D1" points="125.0724,106.7282 1.8787,45.1309 2.1216,44.6431 125.3152,106.2405 				"/>
			</g>
			<g>
				<polygon fill="#D1D1D1" points="125.0724,101.6676 1.8787,40.0703 2.1216,39.5825 125.3152,101.1799 				"/>
			</g>
			<g>
				<polygon fill="#D1D1D1" points="125.0724,96.607 1.8787,35.0097 2.1216,34.5219 125.3152,96.1193 				"/>
			</g>
			<g>
				<polygon fill="#D1D1D1" points="125.0724,91.5464 1.8787,29.9491 2.1216,29.4613 125.3152,91.0587 				"/>
			</g>
		</g>
	</g>
	<polygon fill="#A5A1A0" points="248.3881,141.0408 125.1941,103.0294 125.1941,202.6384 	"/>
	<polygon fill="#A5A1A0" points="125.1941,103.0294 125.1941,79.4443 2,141.0408 	"/>
	<polygon fill="#BCB5B3" points="125.1941,79.4443 125.1941,103.0294 248.3881,141.0408 	"/>
	<g>
		<path fill="#918B8A" stroke="#0B5377" stroke-miterlimit="10" d="M27.8992,213.289"/>
		<polygon fill="#543E2F" points="24.0693,167.8592 24.0693,215.2863 27.0835,216.7934 27.0835,169.3663 		"/>
		<polygon fill="#6B5241" points="30.0977,167.8592 30.0977,215.2863 27.0835,216.7934 27.0835,169.3663 		"/>
		<path fill="#ADAAA6" d="M21.9524,211.5556l2.1169-1.5071l3.0142,1.5071v2.5656C27.0835,214.1212,24.349,216.4866,21.9524,211.5556
			z"/>
		<path fill="#C4C0BC" d="M21.9524,211.5556c0,0,2.5616,3.8114,5.1311,2.5656v3.5895l-4.0737-2.0368L21.9524,211.5556z"/>
		<path fill="#ADAAA6" d="M32.2146,211.5556l-2.1169-1.5071l-3.0142,1.5071v2.5656
			C27.0835,214.1212,29.818,216.4866,32.2146,211.5556z"/>
		<path fill="#C4C0BC" d="M32.2146,211.5556c0,0-2.5616,3.8114-5.1311,2.5656v3.5895l4.0737-2.0368L32.2146,211.5556z"/>
		<polygon fill="#96938F" points="24.0693,209.907 24.0693,210.0485 27.0835,211.5556 27.0835,211.4141 		"/>
		<polygon fill="#C4C0BC" points="24.0693,209.7656 24.0693,209.907 27.0835,211.4141 27.0835,211.2727 		"/>
		<polygon fill="#96938F" points="30.0977,209.907 30.0977,210.0485 27.0835,211.5556 27.0835,211.4141 		"/>
		<polygon fill="#C4C0BC" points="30.0977,209.7656 30.0977,209.907 27.0835,211.4141 27.0835,211.2727 		"/>
	</g>
	<g>
		<path fill="#918B8A" stroke="#0B5377" stroke-miterlimit="10" d="M67.7263,233.2277"/>
		<polygon fill="#543E2F" points="63.8964,187.7979 63.8964,235.2251 66.9106,236.7321 66.9106,189.305 		"/>
		<polygon fill="#6B5241" points="69.9248,187.7979 69.9248,235.2251 66.9106,236.7321 66.9106,189.305 		"/>
		<path fill="#ADAAA6" d="M61.7795,231.4944l2.1169-1.5071l3.0142,1.5071v2.5656
			C66.9106,234.0599,64.1762,236.4253,61.7795,231.4944z"/>
		<path fill="#C4C0BC" d="M61.7795,231.4944c0,0,2.5616,3.8114,5.1311,2.5656v3.5895l-4.0737-2.0368L61.7795,231.4944z"/>
		<path fill="#ADAAA6" d="M72.0417,231.4944l-2.1169-1.5071l-3.0142,1.5071v2.5656
			C66.9106,234.0599,69.6451,236.4253,72.0417,231.4944z"/>
		<path fill="#C4C0BC" d="M72.0417,231.4944c0,0-2.5616,3.8114-5.1311,2.5656v3.5895l4.0737-2.0368L72.0417,231.4944z"/>
		<polygon fill="#96938F" points="63.8964,229.8458 63.8964,229.9873 66.9106,231.4944 66.9106,231.3529 		"/>
		<polygon fill="#C4C0BC" points="63.8964,229.7043 63.8964,229.8458 66.9106,231.3529 66.9106,231.2114 		"/>
		<polygon fill="#96938F" points="69.9248,229.8458 69.9248,229.9873 66.9106,231.4944 66.9106,231.3529 		"/>
		<polygon fill="#C4C0BC" points="69.9248,229.7043 69.9248,229.8458 66.9106,231.3529 66.9106,231.2114 		"/>
	</g>
	<polygon fill="#BCB5B3" points="125.1941,73.5591 125.1941,75.4488 114.7769,80.6573 20.7189,125.7963 	"/>
	<polygon fill="#BCB5B3" points="125.1941,73.5591 229.6693,125.7963 135.6112,80.6573 125.1941,75.4488 	"/>
	<polygon fill="#A5A1A0" points="125.1941,85.866 125.1941,178.0343 229.6693,125.7963 135.6112,80.6573 	"/>
	<polygon fill="#362B2A" points="125.1941,75.4488 114.7769,80.6573 125.1941,85.866 135.6112,80.6573 	"/>
	<polygon fill="#918B8A" points="114.7769,80.6573 78.7657,97.9392 20.7189,125.7962 45.3691,138.1215 20.7189,167.7803 
		68.8009,191.8215 92.4694,161.6718 125.1941,178.0342 125.1941,119.9858 125.1941,85.8659 	"/>
	<polygon fill="#918F8E" points="125.1941,184.6582 125.1941,178.0342 218.0366,131.6759 225.8171,134.0766 	"/>
	<polygon fill="#565554" points="125.1941,178.9775 125.1941,178.0342 229.6693,125.7963 229.2897,126.6185 	"/>
	<polygon fill="#565554" points="125.1941,178.0342 92.4694,161.6718 92.4694,162.6165 125.1941,178.9775 	"/>
	<polygon fill="#565554" points="45.3691,138.1215 20.6133,125.7435 21.2676,127.0153 44.8151,138.7881 	"/>
	<polygon fill="#A8A1A0" points="225.8171,134.0766 220.0715,131.2552 218.7793,131.9051 	"/>
	<polygon fill="#918F8E" points="22.8854,134.5967 29.6387,131.2005 31.259,132.0074 	"/>
	<polyline fill="#A5A1A0" points="92.4694,161.6718 68.8009,191.8215 68.8009,193.9961 92.4694,162.6165 92.4694,161.6718 	"/>
	<polygon fill="#565554" points="68.8009,193.0388 20.7189,169.1092 20.7189,167.7803 68.8009,191.8215 	"/>
	<g>
		<polygon fill="#362B2A" points="125.1941,72.5008 114.376,77.9097 125.1941,83.3188 136.0121,77.9097 		"/>
		<polygon fill="#433637" points="114.7769,78.1102 114.7769,80.6573 125.1941,85.8659 125.1941,83.3188 		"/>
		<polygon fill="#362B2A" points="114.7769,78.7277 114.7769,78.9734 125.1941,84.182 125.1941,83.9363 		"/>
		<polygon fill="#433637" points="114.3945,77.9213 114.3945,78.5388 125.1941,83.9363 125.1941,83.3188 		"/>
		<polygon fill="#524946" points="135.6112,78.1102 135.6112,80.6573 125.1941,85.8659 125.1941,83.3188 		"/>
		<polygon fill="#524946" points="136.0121,77.9098 136.0121,78.5273 125.1941,83.9363 125.1941,83.3188 		"/>
		<polygon fill="#362B2A" points="135.6112,78.7277 135.6112,78.9734 125.1941,84.182 125.1941,83.9363 		"/>
	</g>
	<g>
		<polygon fill="#362B2A" points="125.1941,69.4102 114.376,74.8192 125.1941,80.2282 136.0121,74.8192 		"/>
		<polygon fill="#433637" points="114.7769,75.0196 114.7769,77.5668 125.1941,82.7754 125.1941,80.2282 		"/>
		<polygon fill="#362B2A" points="114.7769,75.6372 114.7769,75.8828 125.1941,81.0915 125.1941,80.8458 		"/>
		<polygon fill="#433637" points="114.3945,74.8308 114.3945,75.4483 125.1941,80.8458 125.1941,80.2282 		"/>
		<polygon fill="#524946" points="135.6112,75.0196 135.6112,77.5668 125.1941,82.7754 125.1941,80.2282 		"/>
		<polygon fill="#524946" points="136.0121,74.8192 136.0121,75.4367 125.1941,80.8458 125.1941,80.2282 		"/>
		<polygon fill="#362B2A" points="135.6112,75.6372 135.6112,75.8828 125.1941,81.0915 125.1941,80.8458 		"/>
	</g>
	<path fill="#918B8A" d="M129.8648,72.5891c-1.0934-0.7451-2.7682-1.2324-4.6707-1.2324s-3.5773,0.4873-4.6707,1.2324h-1.3003
		v1.9774c0,1.7727,2.6733,3.2097,5.971,3.2097c3.2978,0,5.971-1.437,5.971-3.2097v-1.9774H129.8648z"/>
	<ellipse fill="#A5A1A0" cx="125.1941" cy="72.5891" rx="5.9711" ry="3.2097"/>
	<path fill="#918B8A" d="M128.5502,71.2924c-0.7857-0.5354-1.9892-0.8856-3.3562-0.8856s-2.5705,0.3501-3.3562,0.8856h-0.9343
		v1.4209c0,1.2738,1.9209,2.3064,4.2905,2.3064s4.2906-1.0326,4.2906-2.3064v-1.4209H128.5502z"/>
	<ellipse fill="#A5A1A0" cx="125.1941" cy="71.1843" rx="4.1146" ry="2.2118"/>
	<circle fill="#A5A1A0" cx="125.1941" cy="63.0192" r="3.4796"/>
	<path fill="#A5A1A0" d="M122.3905,65.0716l2.8035-2.0524v8.165h-4.1146C121.0795,71.1843,123.9449,68.7134,122.3905,65.0716z"/>
	<path fill="#A5A1A0" d="M127.9976,65.0716l-2.8035-2.0524v8.165h4.1146C129.3086,71.1843,126.4432,68.7134,127.9976,65.0716z"/>
	<path fill="#918B8A" d="M124.5382,59.6049c0,0-1.6684,0.8088-1.6684,3.4144s2.3243,2.9111,2.3243,2.9111
		c-1.6377,1.9057-0.6236,4.7358-0.6522,7.4362c0,0-2.7017,0-3.6383-2.0741c0,0,2.7668-1.7386,1.487-6.2208
		c0,0-0.6761-0.7839-0.6761-2.0524C121.7145,61.7508,122.4198,60.1189,124.5382,59.6049z"/>
	<g>
		<defs>
			<polygon id="SVGID_3_" points="114.7769,80.6573 78.7657,97.9392 20.7189,125.7962 45.3691,138.1215 20.7189,167.7803 
				68.8009,191.8215 92.4694,161.6718 125.1941,178.0342 125.1941,119.9858 125.1941,85.8659 			"/>
		</defs>
		<clipPath id="SVGID_4_">
			<use xlink:href="#SVGID_3_"  overflow="visible"/>
		</clipPath>
		<g opacity="0.2" clip-path="url(#SVGID_4_)">
			<g>
				<polygon fill="#D1D1D1" points="125.0724,202.882 1.8787,141.2846 2.1216,140.7968 125.3152,202.3942 				"/>
			</g>
			<g>
				<polygon fill="#D1D1D1" points="125.0724,208.2557 1.8787,146.6583 2.1216,146.1705 125.3152,207.7679 				"/>
			</g>
			<g>
				<polygon fill="#D1D1D1" points="125.0724,213.6294 1.8787,152.032 2.1216,151.5443 125.3152,213.1416 				"/>
			</g>
			<g>
				<polygon fill="#D1D1D1" points="125.0724,197.8214 1.8787,136.224 2.1216,135.7362 125.3152,197.3336 				"/>
			</g>
			<g>
				<polygon fill="#D1D1D1" points="125.0724,192.7607 1.8787,131.1634 2.1216,130.6756 125.3152,192.273 				"/>
			</g>
			<g>
				<polygon fill="#D1D1D1" points="125.0724,187.7001 1.8787,126.1028 2.1216,125.615 125.3152,187.2124 				"/>
			</g>
			<g>
				<polygon fill="#D1D1D1" points="125.0724,182.6395 1.8787,121.0422 2.1216,120.5544 125.3152,182.1518 				"/>
			</g>
			<g>
				<polygon fill="#D1D1D1" points="125.0724,177.5789 1.8787,115.9815 2.1216,115.4938 125.3152,177.0912 				"/>
			</g>
			<g>
				<polygon fill="#D1D1D1" points="125.0724,172.5183 1.8787,110.9199 2.1216,110.4321 125.3152,172.0305 				"/>
			</g>
			<g>
				<polygon fill="#D1D1D1" points="125.0724,167.4566 1.8787,105.8593 2.1216,105.3715 125.3152,166.9689 				"/>
			</g>
			<g>
				<polygon fill="#D1D1D1" points="125.0724,162.396 1.8787,100.7986 2.1216,100.3109 125.3152,161.9083 				"/>
			</g>
			<g>
				<polygon fill="#D1D1D1" points="125.0724,157.3354 1.8787,95.738 2.1216,95.2503 125.3152,156.8477 				"/>
			</g>
			<g>
				<polygon fill="#D1D1D1" points="125.0724,152.2748 1.8787,90.6774 2.1216,90.1897 125.3152,151.787 				"/>
			</g>
			<g>
				<polygon fill="#D1D1D1" points="125.0724,147.2142 1.8787,85.6168 2.1216,85.1291 125.3152,146.7264 				"/>
			</g>
			<g>
				<polygon fill="#D1D1D1" points="125.0724,142.1536 1.8787,80.5562 2.1216,80.0685 125.3152,141.6658 				"/>
			</g>
			<g>
				<polygon fill="#D1D1D1" points="125.0724,137.093 1.8787,75.4956 2.1216,75.0079 125.3152,136.6052 				"/>
			</g>
			<g>
				<polygon fill="#D1D1D1" points="125.0724,132.0324 1.8787,70.435 2.1216,69.9473 125.3152,131.5446 				"/>
			</g>
			<g>
				<polygon fill="#D1D1D1" points="125.0724,126.9718 1.8787,65.3733 2.1216,64.8856 125.3152,126.484 				"/>
			</g>
			<g>
				<polygon fill="#D1D1D1" points="125.0724,121.9101 1.8787,60.3127 2.1216,59.825 125.3152,121.4223 				"/>
			</g>
			<g>
				<polygon fill="#D1D1D1" points="125.0724,116.8495 1.8787,55.2521 2.1216,54.7644 125.3152,116.3617 				"/>
			</g>
			<g>
				<polygon fill="#D1D1D1" points="125.0724,111.7889 1.8787,50.1915 2.1216,49.7038 125.3152,111.3011 				"/>
			</g>
			<g>
				<polygon fill="#D1D1D1" points="125.0724,106.7282 1.8787,45.1309 2.1216,44.6431 125.3152,106.2405 				"/>
			</g>
			<g>
				<polygon fill="#D1D1D1" points="125.0724,101.6676 1.8787,40.0703 2.1216,39.5825 125.3152,101.1799 				"/>
			</g>
			<g>
				<polygon fill="#D1D1D1" points="125.0724,96.607 1.8787,35.0097 2.1216,34.5219 125.3152,96.1193 				"/>
			</g>
			<g>
				<polygon fill="#D1D1D1" points="125.0724,91.5464 1.8787,29.9491 2.1216,29.4613 125.3152,91.0587 				"/>
			</g>
		</g>
	</g>
	<g>
		<defs>
			<polygon id="SVGID_5_" points="217.9583,131.6518 229.6692,125.7962 135.6112,80.6573 125.1941,85.8659 125.1941,103.0294 
				125.1941,178.0342 125.1941,202.6384 248.3881,141.0409 			"/>
		</defs>
		<clipPath id="SVGID_6_">
			<use xlink:href="#SVGID_5_"  overflow="visible"/>
		</clipPath>
		<g opacity="0.3" clip-path="url(#SVGID_6_)">
			<g>
				<polygon fill="#D1D1D1" points="125.3152,202.882 125.0724,202.3942 248.2672,140.7968 248.51,141.2846 				"/>
			</g>
			<g>
				<polygon fill="#D1D1D1" points="125.3152,208.2557 125.0724,207.7679 248.2672,146.1705 248.51,146.6583 				"/>
			</g>
			<g>
				<polygon fill="#D1D1D1" points="125.3152,213.6294 125.0724,213.1416 248.2672,151.5443 248.51,152.032 				"/>
			</g>
			<g>
				<polygon fill="#D1D1D1" points="125.3152,197.8214 125.0724,197.3336 248.2672,135.7362 248.51,136.224 				"/>
			</g>
			<g>
				<polygon fill="#D1D1D1" points="125.3152,192.7607 125.0724,192.273 248.2672,130.6756 248.51,131.1634 				"/>
			</g>
			<g>
				<polygon fill="#D1D1D1" points="125.3152,187.7001 125.0724,187.2124 248.2672,125.615 248.51,126.1028 				"/>
			</g>
			<g>
				<polygon fill="#D1D1D1" points="125.3152,182.6395 125.0724,182.1518 248.2672,120.5544 248.51,121.0422 				"/>
			</g>
			<g>
				<polygon fill="#D1D1D1" points="125.3152,177.5789 125.0724,177.0912 248.2672,115.4938 248.51,115.9815 				"/>
			</g>
			<g>
				<polygon fill="#D1D1D1" points="125.3152,172.5183 125.0724,172.0305 248.2672,110.4321 248.51,110.9199 				"/>
			</g>
			<g>
				<polygon fill="#D1D1D1" points="125.3152,167.4566 125.0724,166.9689 248.2672,105.3715 248.51,105.8593 				"/>
			</g>
			<g>
				<polygon fill="#D1D1D1" points="125.3152,162.396 125.0724,161.9083 248.2672,100.3109 248.51,100.7986 				"/>
			</g>
			<g>
				<polygon fill="#D1D1D1" points="125.3152,157.3354 125.0724,156.8477 248.2672,95.2503 248.51,95.738 				"/>
			</g>
			<g>
				<polygon fill="#D1D1D1" points="125.3152,152.2748 125.0724,151.787 248.2672,90.1897 248.51,90.6774 				"/>
			</g>
			<g>
				<polygon fill="#D1D1D1" points="125.3152,147.2142 125.0724,146.7264 248.2672,85.1291 248.51,85.6168 				"/>
			</g>
			<g>
				<polygon fill="#D1D1D1" points="125.3152,142.1536 125.0724,141.6658 248.2672,80.0685 248.51,80.5562 				"/>
			</g>
			<g>
				<polygon fill="#D1D1D1" points="125.3152,137.093 125.0724,136.6052 248.2672,75.0079 248.51,75.4956 				"/>
			</g>
			<g>
				<polygon fill="#D1D1D1" points="125.3152,132.0324 125.0724,131.5446 248.2672,69.9473 248.51,70.435 				"/>
			</g>
			<g>
				<polygon fill="#D1D1D1" points="125.3152,126.9718 125.0724,126.484 248.2672,64.8856 248.51,65.3733 				"/>
			</g>
			<g>
				<polygon fill="#D1D1D1" points="125.3152,121.9101 125.0724,121.4223 248.2672,59.825 248.51,60.3127 				"/>
			</g>
			<g>
				<polygon fill="#D1D1D1" points="125.3152,116.8495 125.0724,116.3617 248.2672,54.7644 248.51,55.2521 				"/>
			</g>
			<g>
				<polygon fill="#D1D1D1" points="125.3152,111.7889 125.0724,111.3011 248.2672,49.7038 248.51,50.1915 				"/>
			</g>
			<g>
				<polygon fill="#D1D1D1" points="125.3152,106.7282 125.0724,106.2405 248.2672,44.6431 248.51,45.1309 				"/>
			</g>
			<g>
				<polygon fill="#D1D1D1" points="125.3152,101.6676 125.0724,101.1799 248.2672,39.5825 248.51,40.0703 				"/>
			</g>
			<g>
				<polygon fill="#D1D1D1" points="125.3152,96.607 125.0724,96.1193 248.2672,34.5219 248.51,35.0097 				"/>
			</g>
			<g>
				<polygon fill="#D1D1D1" points="125.3152,91.5464 125.0724,91.0587 248.2672,29.4613 248.51,29.9491 				"/>
			</g>
		</g>
	</g>
</g>
</svg>
