<?xml version="1.0" encoding="iso-8859-1"?>
<!-- Generator: Adobe Illustrator 24.0.3, SVG Export Plug-In . SVG Version: 6.00 Build 0)  -->
<svg version="1.1" id="&#x5716;&#x5C64;_1" xmlns="http://www.w3.org/2000/svg" xmlns:xlink="http://www.w3.org/1999/xlink" x="0px"
	 y="0px" viewBox="0 0 250 250" enable-background="new 0 0 250 250" xml:space="preserve">
<path fill="#77B75F" d="M124.4758,195.7926"/>
<g>
	<g>
		<path fill="#DDD0C0" d="M148.8267,144.1539c-0.7325-1.4388-1.9117-2.6933-3.5721-3.5066l-0.3016-0.1477
			c-9.6189-4.711-20.8752-4.7119-30.4948-0.0024l-90.3048,44.2111c-1.4849,0.727-2.6023,1.7951-3.366,3.0334l-1.219,0.415
			l0.0529,3.0874c-0.0646,0.6617-0.0588,1.3282,0.0341,1.9869l0.0004,0.0265l0.0045-0.0015c0.36,2.4967,1.8463,4.8496,4.4736,6.1445
			h0.0001c9.5754,4.7193,20.7982,4.7306,30.3831,0.0307l90.7407-44.4944c2.6037-1.2767,4.0646-3.6208,4.3851-6.0963l0.0684-0.0234
			v-4.9643L148.8267,144.1539z"/>
		<path fill="#FFFAF3" d="M114.4583,136.5613l-90.3048,44.211c-6.1053,2.989-6.1168,11.6871-0.0194,14.6922l0,0
			c9.5754,4.7193,20.7982,4.7306,30.3831,0.0307l90.7407-44.4944c5.9396-2.9124,5.9376-11.3797-0.0033-14.2894l-0.3016-0.1477
			C135.3341,131.8527,124.0779,131.8518,114.4583,136.5613z"/>
		<path fill="#DBE36C" d="M27.5908,182.3031l89.8949-44.0103c7.6961-3.7678,16.7009-3.7699,24.3987-0.0056l0,0
			c4.6381,2.268,4.6415,8.8772,0.0058,11.15L51.0585,193.972c-7.4087,3.6325-16.0833,3.6229-23.484-0.0259l0,0
			C22.7431,191.564,22.7527,184.6717,27.5908,182.3031z"/>
	</g>
	<path fill="#DDD0C0" d="M25.8734,192.7422c0,0-3.5305-5.1621,2.72-8.3186s94.1942-45.9498,94.1942-45.9498
		s11.4633-3.7694,19.0968-0.1867c0,0-9.1328-4.8698-19.8663-1.739l-4.5324,1.7446L29.3068,181.463
		C29.3068,181.463,20.1055,184.8953,25.8734,192.7422z"/>
</g>
<g>
	<g>
		<path fill="#DDD0C0" d="M226.9122,181.8966c-0.7325-1.4388-1.9117-2.6933-3.5721-3.5066l-0.3016-0.1477
			c-9.6189-4.711-20.8752-4.7119-30.4948-0.0024L102.239,222.451c-1.4849,0.7269-2.6023,1.7951-3.366,3.0334l-1.219,0.415
			l0.0529,3.0874c-0.0646,0.6617-0.0588,1.3282,0.0341,1.9869l0.0004,0.0265l0.0045-0.0015c0.36,2.4967,1.8464,4.8496,4.4736,6.1445
			h0.0001c9.5754,4.7193,20.7982,4.7306,30.3831,0.0307l90.7407-44.4944c2.6037-1.2767,4.0646-3.6208,4.3851-6.0963l0.0684-0.0234
			v-4.9643L226.9122,181.8966z"/>
		<path fill="#FFFAF3" d="M192.5438,174.304l-90.3048,44.211c-6.1053,2.989-6.1168,11.6871-0.0194,14.6922l0,0
			c9.5754,4.7193,20.7982,4.7306,30.3831,0.0307l90.7407-44.4944c5.9396-2.9124,5.9376-11.3797-0.0033-14.2894l-0.3016-0.1477
			C213.4196,169.5954,202.1634,169.5945,192.5438,174.304z"/>
		<path fill="#DBE36C" d="M105.6763,220.0458l89.8949-44.0103c7.6961-3.7678,16.7009-3.7699,24.3987-0.0056l0,0
			c4.638,2.268,4.6415,8.8772,0.0058,11.15l-90.8317,44.5347c-7.4087,3.6325-16.0833,3.6229-23.484-0.0259l0,0
			C100.8287,229.3067,100.8383,222.4144,105.6763,220.0458z"/>
	</g>
	<path fill="#DDD0C0" d="M103.819,230.4695c0,0-3.5305-5.1621,2.72-8.3186c6.2505-3.1565,94.1942-45.9498,94.1942-45.9498
		s11.4633-3.7694,19.0968-0.1867c0,0-9.1328-4.8698-19.8663-1.7391l-4.5324,1.7446l-88.1789,43.1702
		C107.2525,219.1902,98.0512,222.6226,103.819,230.4695z"/>
</g>
<g>
	<g>
		<polygon fill="#4D4D4D" points="84.6643,159.4967 66.7319,168.276 84.6573,177.1106 102.5897,168.276 		"/>
		<polygon fill="#4D4D4D" points="84.6643,156.6242 66.7319,165.4034 84.6573,174.238 102.5897,165.4034 		"/>
		<polygon fill="#4D4D4D" points="84.664,157.2479 68.0642,165.3747 84.6575,173.5528 101.2574,165.3747 		"/>
		<polygon fill="#3A3938" points="66.7319,165.4003 66.7319,170.5279 82.7334,178.4418 84.6573,177.4986 84.6573,174.2657 		"/>
		<polygon fill="#424241" points="102.5897,165.4034 84.6573,174.2657 84.6573,177.4701 102.5897,168.6355 		"/>
		<polygon fill="#4D4D4D" points="84.664,155.2948 68.0642,163.4216 84.6575,171.5997 101.2574,163.4216 		"/>
		<polygon fill="#4D4D4D" points="84.6638,155.8564 69.2076,163.4234 84.6578,171.038 100.1139,163.4234 		"/>
		<polygon fill="#4D4D4D" points="84.6638,150.2495 69.2076,157.8165 84.6578,165.4311 100.1139,157.8165 		"/>
		<polygon fill="#3A3938" points="68.0642,163.4216 68.0642,165.3747 84.6575,173.5528 84.6575,171.5997 		"/>
		<polygon fill="#424241" points="101.2574,163.4216 84.6575,171.5997 84.6575,173.5528 101.2574,165.3747 		"/>
		<g>
			<polygon fill="#4D4D4D" points="84.664,148.1496 68.0642,156.2765 84.6575,164.4545 101.2574,156.2765 			"/>
			<polygon fill="#3A3938" points="68.0642,156.2765 68.0642,157.253 84.6575,165.4311 84.6575,164.4545 			"/>
			<polygon fill="#424241" points="101.2574,156.2765 84.6575,164.4545 84.6575,165.4311 101.2574,157.253 			"/>
		</g>
		<g>
			<polygon fill="#4D4D4D" points="84.6643,146.0499 66.9038,154.7449 84.6573,163.4948 102.4178,154.7449 			"/>
			<polygon fill="#3A3938" points="66.9038,154.7449 66.9038,155.7898 84.6573,164.5396 84.6573,163.4948 			"/>
			<polygon fill="#424241" points="102.4178,154.7449 84.6573,163.4948 84.6573,164.5396 102.4178,155.7898 			"/>
		</g>
		<polygon fill="#4D4D4D" points="84.6643,142.8932 66.7319,151.6724 84.6573,160.507 102.5897,151.6724 		"/>
		<polygon fill="#3A3938" points="66.7319,151.7001 66.7319,154.6354 84.6573,163.47 84.6573,160.5347 		"/>
		<polygon fill="#424241" points="102.5897,151.7001 84.6573,160.5347 84.6573,163.4126 102.5897,154.578 		"/>
		<path fill="#3A3938" d="M69.2076,157.8165c0,0,1.3687,4.4765,0,5.6069l15.4501,7.6146v-5.6069L69.2076,157.8165z"/>
		<path fill="#424241" d="M100.1139,157.8165c0,0-1.3748,4.4765-0.006,5.6069l-15.4501,7.6146v-5.6069L100.1139,157.8165z"/>
	</g>
	<g>
		<polygon fill="#4D4D4D" points="162.7498,197.3009 144.8174,206.0802 162.7428,214.9147 180.6752,206.0802 		"/>
		<polygon fill="#4D4D4D" points="162.7498,194.4283 144.8174,203.2076 162.7428,212.0422 180.6752,203.2076 		"/>
		<polygon fill="#4D4D4D" points="162.7495,195.052 146.1497,203.1789 162.7431,211.357 179.3429,203.1789 		"/>
		<polygon fill="#3A3938" points="144.8174,203.2045 144.8174,208.3321 160.7565,216.2151 162.7428,215.228 162.7428,212.0699 		"/>
		<polygon fill="#424241" points="180.6752,203.2076 162.7428,212.0699 162.7428,215.228 180.6752,206.3934 		"/>
		<polygon fill="#4D4D4D" points="162.7495,193.0989 146.1497,201.2258 162.7431,209.4039 179.3429,201.2258 		"/>
		<polygon fill="#4D4D4D" points="162.7493,193.6606 147.2932,201.2276 162.7433,208.8422 178.1994,201.2276 		"/>
		<polygon fill="#4D4D4D" points="162.7493,188.0537 147.2932,195.6207 162.7433,203.2353 178.1994,195.6207 		"/>
		<polygon fill="#3A3938" points="146.1497,201.2258 146.1497,203.1789 162.7431,211.357 162.7431,209.4039 		"/>
		<polygon fill="#424241" points="179.3429,201.2258 162.7431,209.4039 162.7431,211.357 179.3429,203.1789 		"/>
		<g>
			<polygon fill="#4D4D4D" points="162.7495,185.9538 146.1497,194.0806 162.7431,202.2587 179.3429,194.0806 			"/>
			<polygon fill="#3A3938" points="146.1497,194.0806 146.1497,195.0572 162.7431,203.2353 162.7431,202.2587 			"/>
			<polygon fill="#424241" points="179.3429,194.0806 162.7431,202.2587 162.7431,203.2353 179.3429,195.0572 			"/>
		</g>
		<g>
			<polygon fill="#4D4D4D" points="162.7498,183.854 144.9893,192.5491 162.7428,201.299 180.5033,192.5491 			"/>
			<polygon fill="#3A3938" points="144.9893,192.5491 144.9893,193.594 162.7428,202.3438 162.7428,201.299 			"/>
			<polygon fill="#424241" points="180.5033,192.5491 162.7428,201.299 162.7428,202.3438 180.5033,193.594 			"/>
		</g>
		<polygon fill="#4D4D4D" points="162.7498,180.6973 144.8174,189.4766 162.7428,198.3112 180.6752,189.4766 		"/>
		<polygon fill="#3A3938" points="144.8174,189.5043 144.8174,192.4396 162.7428,201.2742 162.7428,198.3389 		"/>
		<polygon fill="#424241" points="180.6752,189.5043 162.7428,198.3389 162.7428,201.2167 180.6752,192.3822 		"/>
		<path fill="#3A3938" d="M147.2932,195.6207c0,0,1.3687,4.4765,0,5.6069l15.4501,7.6146v-5.6069L147.2932,195.6207z"/>
		<path fill="#424241" d="M178.1994,195.6207c0,0-1.3748,4.4765-0.006,5.6069l-15.4501,7.6146v-5.6069L178.1994,195.6207z"/>
	</g>
	<polygon fill="#FFFAF3" points="84.664,80.0184 68.0642,88.1452 84.6575,96.3233 101.2574,88.1452 	"/>
	<polygon fill="#E8DFD6" points="68.0642,88.1452 68.0642,151.6458 84.6575,159.8239 84.6575,96.3233 	"/>
	<polygon fill="#EDE7E2" points="101.2574,88.1452 84.6575,96.3233 84.6575,159.8239 101.2574,151.6458 	"/>
	<g>
		<polygon fill="#FFFAF3" points="94.519,91.1445 90.0044,93.3098 156.3598,125.4478 160.8744,123.2466 		"/>
		<polygon fill="#D6D1CC" points="90.0044,93.3098 90.0044,107.0929 156.3598,139.2309 156.3598,125.4478 		"/>
		<polygon fill="#EDE7E2" points="160.8744,123.2466 156.3598,125.4653 156.3598,139.2484 160.8744,137.0297 		"/>
	</g>
	<polygon fill="#FFFAF3" points="162.7495,117.7611 146.1497,125.8879 162.7431,134.066 179.3429,125.8879 	"/>
	<polygon fill="#E8DFD6" points="146.1497,125.8879 146.1497,189.3885 162.7431,197.5666 162.7431,134.066 	"/>
	<polygon fill="#EDE7E2" points="179.3429,125.8879 162.7431,134.066 162.7431,197.5666 179.3429,189.3885 	"/>
	<polygon fill="#FFFAF3" points="84.664,59 68.0642,67.1269 162.7251,112.9741 179.325,104.796 	"/>
	<polygon fill="#E8DFD6" points="68.0642,67.1269 68.0642,86.7895 162.7251,132.6368 162.7251,112.9741 	"/>
	<polygon fill="#EDE7E2" points="179.325,104.8211 162.7251,112.9992 162.7251,132.6618 179.325,124.4838 	"/>
</g>
</svg>
