<?xml version="1.0" encoding="iso-8859-1"?>
<!-- Generator: Adobe Illustrator 24.0.3, SVG Export Plug-In . SVG Version: 6.00 Build 0)  -->
<svg version="1.1" id="&#x5716;&#x5C64;_1" xmlns="http://www.w3.org/2000/svg" xmlns:xlink="http://www.w3.org/1999/xlink" x="0px"
	 y="0px" viewBox="0 0 250 250" enable-background="new 0 0 250 250" xml:space="preserve">
<g>
	<polygon fill="#BC9684" points="82.4765,183.2461 82.4765,184.563 133.3279,210 133.3279,208.6831 	"/>
	<g>
		<path fill="#52CEC8" d="M147.1576,102.9848c0.017-0.0181,0.0366-0.0321,0.0547-0.0486c-1.1218,0.0998-2.4213-0.9755-2.4213-0.9755
			l-0.9374,0.4687C143.8535,102.4294,146.0012,104.2148,147.1576,102.9848z"/>
		<path fill="#52CEC8" d="M150.7398,103.1536l-1.5276-0.7733c-0.4072-0.2061-0.8045-0.1968-1.1172,0.1358
			c-0.0608,0.0647-0.1257,0.1166-0.1915,0.1652c0.1651,0.0029,0.3315,0.0431,0.4836,0.1201l1.5276,0.7733v5.3977l0.825,0.8906
			V103.1536z"/>
	</g>
	<polygon fill="#E9D6C7" points="82.4765,183.2461 133.3279,208.6831 159.5235,195.5852 108.6721,170.1484 	"/>
	<polygon fill="#E9D6C7" points="85.6705,168.0039 108.6721,156.5028 156.3295,180.343 133.3279,191.8439 	"/>
	<polygon fill="#E9D6C7" points="88.0658,162.5058 108.6721,152.2025 153.9342,174.8449 133.3279,185.1479 	"/>
	<polygon fill="#E9D6C7" points="89.6626,159.5669 108.6721,150.0622 152.337,171.906 133.3279,181.4104 	"/>
	<polygon fill="#215370" points="106.2429,167.0615 123.6556,158.3553 135.7567,164.4113 118.3444,173.1175 	"/>
	<polygon fill="#D6B6A1" points="133.3279,210 133.3279,208.6831 159.5235,195.5852 159.5235,196.9021 	"/>
	<polygon fill="#D6B6A1" points="157.1281,195.5853 156.3295,180.343 133.3279,191.8439 133.3279,207.4851 	"/>
	<polygon fill="#BC9684" points="133.3279,191.8439 85.6705,168.0039 84.8719,183.2462 133.3279,207.4851 	"/>
	<polygon fill="#D6B6A1" points="153.9342,180.343 153.9342,174.8449 133.3279,185.1479 133.3279,190.646 	"/>
	<polygon fill="#BC9684" points="133.3279,185.1327 133.3279,190.646 88.0658,168.0039 88.0658,162.4907 	"/>
	<polygon fill="#D6B6A1" points="152.337,174.8448 152.337,171.906 133.3279,181.4104 133.3279,184.3492 	"/>
	<polygon fill="#BC9684" points="133.3279,181.4104 133.3279,184.3492 89.6626,162.5056 89.6626,159.5669 	"/>
	<polygon fill="#3DB7B3" points="150.7402,171.9058 150.7402,110.0418 133.3278,118.748 133.3278,180.612 	"/>
	<polygon fill="#33A0A0" points="118.3444,117.4234 133.3278,124.9179 133.3278,180.612 118.3444,173.1175 	"/>
	<polygon fill="#33A0A0" points="106.2429,167.0615 106.2429,111.368 91.2594,103.8724 91.2594,159.567 	"/>
	<polygon fill="#147C77" points="106.2429,167.0615 118.3444,161.0108 118.3444,129.8965 106.2429,123.8416 	"/>
	<g opacity="0.5">
		<polygon fill="#C0EAE8" points="116.6216,124.4707 116.6216,123.4816 111.8307,125.9282 111.8307,126.9165 		"/>
		<polygon fill="#94DDD8" points="116.6216,126.3391 116.6216,125.3501 114.8772,126.2414 114.8772,127.2298 		"/>
		<polygon fill="#C0EAE8" points="114.1087,129.4871 114.1087,128.498 109.3178,130.9445 109.3178,131.9329 		"/>
		<polygon fill="#269696" points="116.6216,130.076 116.6216,129.0869 113.3682,130.7503 113.3682,131.7386 		"/>
		<polygon fill="#C0EAE8" points="116.6216,131.9445 116.6216,130.9554 111.8307,133.4019 111.8307,134.3903 		"/>
		<polygon fill="#94DDD8" points="116.6216,133.8129 116.6216,132.8238 114.6138,133.8415 114.6138,134.8299 		"/>
		<polygon fill="#269696" points="113.4511,135.3882 113.4511,134.3992 111.4434,135.4169 111.4434,136.4052 		"/>
		<polygon fill="#269696" points="111.1852,127.258 111.1852,126.269 108.6799,127.5509 108.6799,128.5393 		"/>
	</g>
	<g opacity="0.5">
		<polygon fill="#C0EAE8" points="116.6216,135.9705 116.6216,134.9814 111.8307,137.4279 111.8307,138.4163 		"/>
		<polygon fill="#94DDD8" points="116.6216,137.8389 116.6216,136.8499 114.8772,137.7412 114.8772,138.7295 		"/>
		<polygon fill="#C0EAE8" points="114.1087,140.9869 114.1087,139.9978 109.3178,142.4443 109.3178,143.4327 		"/>
		<polygon fill="#C0EAE8" points="114.1087,148.4638 114.1087,147.4747 109.3178,149.9212 109.3178,150.9096 		"/>
		<polygon fill="#269696" points="116.6216,141.5758 116.6216,140.5867 113.3682,142.2501 113.3682,143.2384 		"/>
		<polygon fill="#269696" points="116.6216,149.3061 116.6216,148.3171 113.3682,149.9804 113.3682,150.9688 		"/>
		<polygon fill="#C0EAE8" points="116.6216,143.4442 116.6216,142.4552 111.8307,144.9017 111.8307,145.89 		"/>
		<polygon fill="#94DDD8" points="116.6216,145.3127 116.6216,144.3236 114.6138,145.3413 114.6138,146.3297 		"/>
		<polygon fill="#269696" points="113.4511,146.888 113.4511,145.899 111.4434,146.9167 111.4434,147.905 		"/>
		<polygon fill="#269696" points="111.1852,138.7578 111.1852,137.7687 108.6799,139.0507 108.6799,140.039 		"/>
		<polygon fill="#269696" points="111.1852,152.0564 111.1852,151.0673 108.6799,152.3493 108.6799,153.3376 		"/>
	</g>
	<polygon fill="#33A0A0" points="91.2594,97.703 91.2594,116.3376 133.3278,137.3826 133.3278,118.748 	"/>
	<polygon fill="#52CEC8" points="91.2594,97.703 108.6721,88.9968 150.7402,110.0418 133.3278,118.748 	"/>
	<polygon fill="#52CEC8" points="148.0379,110.5946 108.6721,90.9012 93.9617,98.2561 133.3278,117.9495 	"/>
	<path fill="#33A0A0" d="M149.9148,103.5761v6.8783l-6.0612-3.0683v-4.9552c0,0,2.1477,1.7854,3.304,0.5554
		c0.3126-0.3325,0.8224-0.3896,1.2296-0.1834L149.9148,103.5761z"/>
	<polygon fill="#3DB7B3" points="92.8562,97.7031 93.9617,98.2561 108.6721,90.9012 108.6721,89.7955 	"/>
	<polygon fill="#33A0A0" points="108.6721,89.7955 108.6721,90.9012 148.0379,110.5946 149.1434,110.0419 	"/>
	<g>
		<polygon fill="#C0EAE8" points="94.0927,104.8615 94.0927,103.8724 96.4882,105.0957 96.4882,106.084 		"/>
		<polygon fill="#C0EAE8" points="101.0128,108.3934 101.0128,107.4043 103.4082,108.6276 103.4082,109.6159 		"/>
		<polygon fill="#C0EAE8" points="97.5528,106.6208 97.5528,105.6318 99.9482,106.855 99.9482,107.8434 		"/>
		<polygon fill="#C0EAE8" points="94.0927,112.688 94.0927,111.6989 96.4882,112.9222 96.4882,113.9105 		"/>
		<polygon fill="#269696" points="101.0128,116.2199 101.0128,115.2308 103.4082,116.4541 103.4082,117.4424 		"/>
		<polygon fill="#94DDD8" points="97.5528,114.4474 97.5528,113.4583 99.9482,114.6816 99.9482,115.6699 		"/>
		<polygon fill="#94DDD8" points="94.0927,107.8682 94.0927,105.8078 96.4882,107.0311 96.4882,109.0907 		"/>
		<polygon fill="#94DDD8" points="101.0128,111.4 101.0128,109.3397 103.4082,110.563 103.4082,112.6226 		"/>
		<polygon fill="#94DDD8" points="97.5528,109.6275 97.5528,107.5672 99.9482,108.7904 99.9482,110.85 		"/>
		<polygon fill="#94DDD8" points="94.0927,110.8573 94.0927,108.797 96.4882,110.0202 96.4882,112.0798 		"/>
		<polygon fill="#94DDD8" points="101.0128,114.3892 101.0128,112.3288 103.4082,113.5521 103.4082,115.6117 		"/>
		<polygon fill="#269696" points="97.5528,112.6167 97.5528,110.5563 99.9482,111.7796 99.9482,113.8392 		"/>
	</g>
	<g>
		<polygon fill="#C0EAE8" points="121.5851,118.8758 121.5851,117.8868 123.9805,119.11 123.9805,120.0984 		"/>
		<polygon fill="#C0EAE8" points="128.5052,122.4077 128.5052,121.4186 130.9006,122.6419 130.9006,123.6302 		"/>
		<polygon fill="#C0EAE8" points="125.0452,120.6352 125.0452,119.6461 127.4406,120.8694 127.4406,121.8577 		"/>
		<polygon fill="#C0EAE8" points="121.5851,126.7024 121.5851,125.7133 123.9805,126.9366 123.9805,127.9249 		"/>
		<polygon fill="#269696" points="128.5052,130.2342 128.5052,129.2452 130.9006,130.4684 130.9006,131.4568 		"/>
		<polygon fill="#94DDD8" points="125.0452,128.4617 125.0452,127.4726 127.4406,128.6959 127.4406,129.6842 		"/>
		<polygon fill="#94DDD8" points="121.5851,121.8825 121.5851,119.8222 123.9805,121.0454 123.9805,123.105 		"/>
		<polygon fill="#94DDD8" points="128.5052,125.4144 128.5052,123.354 130.9006,124.5773 130.9006,126.6369 		"/>
		<polygon fill="#94DDD8" points="125.0452,123.6419 125.0452,121.5815 127.4406,122.8048 127.4406,124.8644 		"/>
		<polygon fill="#94DDD8" points="121.5851,124.8717 121.5851,122.8113 123.9805,124.0346 123.9805,126.0942 		"/>
		<polygon fill="#94DDD8" points="128.5052,128.4035 128.5052,126.3432 130.9006,127.5665 130.9006,129.6261 		"/>
		<polygon fill="#269696" points="125.0452,126.631 125.0452,124.5707 127.4406,125.7939 127.4406,127.8535 		"/>
	</g>
	<g>
		<polygon fill="#C0EAE8" points="147.3506,117.7541 147.3506,116.7651 144.9552,117.9883 144.9552,118.9767 		"/>
		<polygon fill="#C0EAE8" points="140.4306,121.286 140.4306,120.297 138.0352,121.5202 138.0352,122.5086 		"/>
		<polygon fill="#C0EAE8" points="143.8906,119.5135 143.8906,118.5244 141.4952,119.7477 141.4952,120.736 		"/>
		<polygon fill="#C0EAE8" points="147.3506,125.5807 147.3506,124.5916 144.9552,125.8149 144.9552,126.8032 		"/>
		<polygon fill="#269696" points="140.4306,129.1125 140.4306,128.1235 138.0352,129.3467 138.0352,130.3351 		"/>
		<polygon fill="#94DDD8" points="143.8906,127.34 143.8906,126.3509 141.4952,127.5742 141.4952,128.5625 		"/>
		<polygon fill="#94DDD8" points="147.3506,120.7608 147.3506,118.7005 144.9552,119.9237 144.9552,121.9833 		"/>
		<polygon fill="#94DDD8" points="140.4306,124.2927 140.4306,122.2324 138.0352,123.4556 138.0352,125.5152 		"/>
		<polygon fill="#94DDD8" points="143.8906,122.5202 143.8906,120.4598 141.4952,121.6831 141.4952,123.7427 		"/>
		<polygon fill="#94DDD8" points="147.3506,123.75 147.3506,121.6896 144.9552,122.9129 144.9552,124.9725 		"/>
		<polygon fill="#94DDD8" points="140.4306,127.2818 140.4306,125.2215 138.0352,126.4448 138.0352,128.5044 		"/>
		<polygon fill="#269696" points="143.8906,125.5093 143.8906,123.449 141.4952,124.6722 141.4952,126.7318 		"/>
	</g>
	<path fill="#33A0A0" d="M128.204,110.2738"/>
	<path fill="#52CEC8" d="M134.2652,118.2974v-6.8783l-1.5276-0.7733c-0.4072-0.2061-0.9169-0.1491-1.2296,0.1834
		c-1.1564,1.23-3.304-0.5554-3.304-0.5554l-0.9374,0.4687"/>
	<polygon fill="#215370" points="103.5898,33.4169 121,24.712 138.4098,33.4256 121,42.1305 	"/>
	<g>
		<path fill="#52CEC8" d="M92.1547,91.2675l1.3159-0.659c0.6342-0.3176,1.1209-0.2687,1.4255,0.0669
			c1.1525,1.2698,3.3199-0.5202,3.3199-0.5202V94.02l1.3877-2.7113c0,0,0.7138-1.2776,1.899-1.3829c0,0,0.3819-0.0482,0.8538,0.3284
			l1.1494,1.0963v-3.8338c0,0,2.1477-0.389,3.304-2.7898c0.3126-0.6491,0.8224-1.2221,1.2296-1.4283l1.5276-0.7733l-0.8953-0.4428
			l-1.5276,0.7733c-0.4072,0.2062-0.9169,0.7792-1.2296,1.4283c-1.1564,2.4008-3.3041,2.7898-3.3041,2.7898v3.2617l-0.6499-0.4756
			c-0.4719-0.3766-1.3532-0.377-1.3532-0.377c-1.1852,0.1054-1.899,1.3829-1.899,1.3829l-1.3877,2.7113l0.8953-3.422l-0.8953-0.4428
			c0,0-1.777,1.7885-2.9294,0.5187c-0.3046-0.3355-1.1817-0.383-1.8159-0.0654l-1.3159,0.659L92.1547,91.2675z"/>
		<path fill="#3DB7B3" d="M109.5674,89.4397l-0.0004-6.9145l-1.5276,0.7733c-0.4072,0.2061-0.9169,0.7792-1.2296,1.4283
			c-1.1564,2.4008-3.304,2.7898-3.304,2.7898v3.8338l-1.1494-1.0963c-0.4719-0.3766-0.8538-0.3284-0.8538-0.3284
			c-1.1852,0.1054-1.899,1.3829-1.899,1.3829L98.216,94.02v-3.8648c0,0-2.1674,1.79-3.3199,0.5202
			c-0.3046-0.3356-0.7912-0.3845-1.4255-0.0669l-1.3159,0.659v6.8783l5.3107-2.6596l-0.0119,0.0233l6.8317-3.4159l-0.0081-0.0077
			L109.5674,89.4397z"/>
	</g>
	<g>
		<path fill="#52CEC8" d="M133.3275,111.8959l1.3159-0.659c0.6342-0.3176,1.1209-0.2687,1.4255,0.0669
			c1.1525,1.2698,3.3199-0.5202,3.3199-0.5202v3.8648l1.3877-2.7113c0,0,0.7138-1.2776,1.899-1.3829
			c0,0,0.3819-0.0482,0.8538,0.3284l1.1494,1.0963v-3.8338c0,0,2.1477-0.389,3.304-2.7898
			c0.3126-0.6491,0.8223-1.2221,1.2296-1.4283l1.5276-0.7733l-0.8953-0.4428l-1.5276,0.7733
			c-0.4072,0.2062-0.9169,0.7792-1.2296,1.4283c-1.1564,2.4008-3.304,2.7898-3.304,2.7898v3.2617l-0.6499-0.4756
			c-0.4719-0.3766-1.3532-0.377-1.3532-0.377c-1.1852,0.1054-1.899,1.3829-1.899,1.3829l-1.3877,2.7113l0.8953-3.422l-0.8953-0.4428
			c0,0-1.777,1.7885-2.9294,0.5187c-0.3046-0.3355-1.1817-0.383-1.8159-0.0654l-1.3159,0.659L133.3275,111.8959z"/>
		<path fill="#3DB7B3" d="M150.7402,110.0681l-0.0004-6.9145l-1.5276,0.7733c-0.4072,0.2061-0.9169,0.7792-1.2296,1.4283
			c-1.1564,2.4008-3.304,2.7898-3.304,2.7898v3.8338l-1.1494-1.0963c-0.4719-0.3766-0.8538-0.3284-0.8538-0.3284
			c-1.1852,0.1054-1.899,1.3829-1.899,1.3829l-1.3877,2.7113v-3.8648c0,0-2.1674,1.79-3.3199,0.5202
			c-0.3046-0.3356-0.7912-0.3845-1.4255-0.0669l-1.3159,0.659v6.8783l5.3107-2.6596l-0.0119,0.0233l6.8317-3.4159l-0.0081-0.0077
			L150.7402,110.0681z"/>
	</g>
	<path fill="#33A0A0" d="M91.2594,90.8247v6.8783l6.0612,3.0322v-4.9552c0,0-2.1674-0.3797-3.3199-2.8031
		c-0.3046-0.6404-0.7912-1.1766-1.4255-1.4938L91.2594,90.8247z"/>
	<path fill="#52CEC8" d="M114.733,92.0109v-4.9552c0,0-2.1674-0.3797-3.3199-2.8031c-0.3046-0.6404-0.7912-1.1766-1.4255-1.4938
		l-0.4206-0.2104l-0.8953,0.4181l0.434,0.2171c0.6342,0.3173,1.1209,0.8534,1.4255,1.4938
		c1.1525,2.4234,3.3199,2.8031,3.3199,2.8031v4.9552L114.733,92.0109z"/>
	<path fill="#33A0A0" d="M113.8502,87.4804c0,0-2.1674-0.3797-3.3199-2.8031c-0.3046-0.6404-0.7912-1.1765-1.4255-1.4938
		l-0.4206-0.2104v6.8936l5.166,2.569V87.4804z"/>
	<polygon fill="#5F93BD" points="113.8502,87.4804 114.733,87.0557 114.733,92.0109 113.8502,92.4357 	"/>
	<path fill="#52CEC8" d="M98.2014,100.3104v-4.9552c0,0-2.1674-0.3797-3.3199-2.8031c-0.3046-0.6404-0.7912-1.1766-1.4255-1.4938
		l-0.4206-0.2104l-0.8953,0.4181l0.434,0.2171c0.6342,0.3173,1.1209,0.8534,1.4255,1.4938
		c1.1525,2.4234,3.3199,2.8031,3.3199,2.8031v4.9552L98.2014,100.3104z"/>
	<polygon fill="#3DB7B3" points="97.3186,95.7799 98.2014,95.3552 98.2014,100.3104 97.3186,100.7352 	"/>
	<path fill="#33A0A0" d="M133.3278,111.8878v6.8783l-6.0612-3.0503v-4.9733c0,0,2.1477,1.7854,3.304,0.5554
		c0.3126-0.3325,0.8224-0.3895,1.2296-0.1834L133.3278,111.8878z"/>
	<polygon fill="#BC9684" points="106.2429,167.0615 106.2429,156.0114 108.6721,157.2271 109.9811,159.2898 109.9811,168.9326 	"/>
	<polygon fill="#E9D6C7" points="106.2429,156.0114 118.3444,149.9608 118.3444,152.3952 108.6721,157.2271 	"/>
	<polygon fill="#DBBEAD" points="118.3444,152.3952 118.3444,155.1003 109.9811,159.2898 108.6721,157.2271 	"/>
	<polygon fill="#DBBEAD" points="109.9811,168.9326 118.3444,164.558 118.3444,163.4671 118.3444,155.1003 109.9811,159.2898 	"/>
	<polygon fill="#AA8171" points="109.9811,159.9606 114.6061,162.2743 114.6061,171.2463 109.9811,168.9326 	"/>
	<polygon fill="#C9A999" points="109.9811,159.9527 118.3444,155.7632 118.3444,160.2298 114.6061,162.2664 	"/>
	<polygon fill="#BC9684" points="118.3444,173.1175 118.3444,162.0674 115.9151,160.8512 114.6061,161.6035 114.6061,171.2463 	"/>
	<polygon fill="#E9D6C7" points="115.9151,160.8512 118.3444,159.5669 118.3444,162.0674 	"/>
	<g>
		<g>
			<path fill="#52CEC8" d="M104.4851,26.9986l1.3159-0.659c0.6342-0.3176,1.1209-0.2687,1.4255,0.0669
				c1.1525,1.2698,3.3199-0.5202,3.3199-0.5202v3.8648l1.3877-2.7113c0,0,0.7138-1.2776,1.899-1.3829
				c0,0,0.3819-0.0482,0.8538,0.3284l1.1494,1.0963v-3.8338c0,0,2.1477-0.389,3.304-2.7898
				c0.3126-0.6491,0.8223-1.2221,1.2296-1.4283l1.5276-0.7733l-0.8953-0.4428l-1.5276,0.7733
				c-0.4072,0.2062-0.9169,0.7792-1.2296,1.4283c-1.1564,2.4008-3.304,2.7898-3.304,2.7898v3.2617l-0.6499-0.4756
				c-0.4719-0.3766-1.3532-0.377-1.3532-0.377c-1.1852,0.1054-1.899,1.3829-1.899,1.3829l-1.3877,2.7114l0.8953-3.422
				l-0.8953-0.4428c0,0-1.777,1.7885-2.9294,0.5187c-0.3046-0.3355-1.1817-0.383-1.8159-0.0654l-1.3159,0.659L104.4851,26.9986z"/>
			<path fill="#1E7C77" d="M121.8978,25.1708l-0.0004-6.9145l-1.5276,0.7733c-0.4072,0.2061-0.9169,0.7792-1.2296,1.4283
				c-1.1564,2.4008-3.304,2.7898-3.304,2.7898v3.8338l-1.1494-1.0963c-0.4719-0.3766-0.8538-0.3284-0.8538-0.3284
				c-1.1852,0.1054-1.899,1.3829-1.899,1.3829l-1.3877,2.7113v-3.8648c0,0-2.1674,1.79-3.3199,0.5202
				c-0.3046-0.3356-0.7912-0.3845-1.4255-0.0669l-1.3159,0.659v6.8783l5.3107-2.6596l-0.0119,0.0233l6.8317-3.4159l-0.0081-0.0077
				L121.8978,25.1708z"/>
		</g>
		<polygon fill="#33A0A0" points="103.5898,26.5558 103.5898,33.4276 104.4876,33.8769 104.4851,26.9986 		"/>
	</g>
	<g>
		<g>
			<path fill="#52CEC8" d="M137.5149,26.9986l-1.3159-0.659c-0.6342-0.3176-1.1209-0.2687-1.4255,0.0669
				c-1.1525,1.2698-3.3199-0.5202-3.3199-0.5202v3.8648l-1.3877-2.7113c0,0-0.7138-1.2776-1.899-1.3829
				c0,0-0.3819-0.0482-0.8538,0.3284l-1.1494,1.0963v-3.8338c0,0-2.1477-0.389-3.304-2.7898
				c-0.3126-0.6491-0.8224-1.2221-1.2296-1.4283l-1.5276-0.7733l0.8953-0.4428l1.5276,0.7733
				c0.4072,0.2062,0.9169,0.7792,1.2296,1.4283c1.1564,2.4008,3.3041,2.7898,3.3041,2.7898v3.2617l0.6499-0.4756
				c0.4719-0.3766,1.3532-0.377,1.3532-0.377c1.1852,0.1054,1.899,1.3829,1.899,1.3829l1.3877,2.7114l-0.8953-3.422l0.8953-0.4428
				c0,0,1.7769,1.7885,2.9294,0.5187c0.3046-0.3355,1.1817-0.383,1.8159-0.0654l1.3159,0.659L137.5149,26.9986z"/>
			<path fill="#1E7C77" d="M121.0022,25.6189l0.0004-6.9145l0.6276,0.3252c0.4072,0.2061,0.9169,0.7792,1.2296,1.4283
				c1.1564,2.4008,3.304,2.7898,3.304,2.7898v3.8338l1.1494-1.0963c0.4719-0.3766,0.8538-0.3284,0.8538-0.3284
				c1.1852,0.1054,1.899,1.3829,1.899,1.3829l1.3877,2.7113v-3.8648c0,0,2.1674,1.79,3.3199,0.5202
				c0.3046-0.3356,0.7912-0.3845,1.4255-0.0669l1.3159,0.659v6.8783l-5.3107-2.6596l0.0119,0.0233l-6.8317-3.4159l0.0081-0.0077
				L121.0022,25.6189z"/>
		</g>
		<polygon fill="#5F93BD" points="138.4102,26.5558 138.4102,33.4276 137.5124,33.8769 137.5149,26.9986 		"/>
	</g>
	<g>
		<g>
			<path fill="#52CEC8" d="M108.2277,24.3521l1.0179-0.5098c0.4906-0.2457,0.8671-0.2078,1.1026,0.0517
				c0.8915,0.9822,2.568-0.4024,2.568-0.4024v2.9895l1.0735-2.0973c0,0,0.5521-0.9882,1.4689-1.0697c0,0,0.2954-0.0373,0.6604,0.254
				l0.8891,0.848v-2.9655c0,0,1.6613-0.3009,2.5558-2.158c0.2418-0.5021,0.6361-0.9454,0.9511-1.1048l1.1817-0.5982l-0.6925-0.3425
				l-1.1817,0.5982c-0.315,0.1595-0.7093,0.6027-0.9511,1.1048c-0.8945,1.8571-2.5558,2.158-2.5558,2.158v2.523l-0.5027-0.3679
				c-0.365-0.2913-1.0468-0.2916-1.0468-0.2916c-0.9168,0.0815-1.4689,1.0697-1.4689,1.0697l-1.0735,2.0973l0.6925-2.647
				l-0.6925-0.3425c0,0-1.3745,1.3834-2.266,0.4012c-0.2356-0.2595-0.9141-0.2962-1.4047-0.0506l-1.0179,0.5097L108.2277,24.3521z"
				/>
			<path fill="#1E7C77" d="M121.6969,30.0412l-0.0003-12.4515l-1.1817,0.5982c-0.315,0.1595-0.7093,0.6027-0.9511,1.1048
				c-0.8945,1.8571-2.5558,2.158-2.5558,2.158v2.9655l-0.8891-0.848c-0.365-0.2913-0.6604-0.254-0.6604-0.254
				c-0.9168,0.0815-1.4689,1.0697-1.4689,1.0697l-1.0735,2.0973v-2.9895c0,0-1.6765,1.3846-2.568,0.4024
				c-0.2356-0.2596-0.612-0.2974-1.1026-0.0517l-1.0179,0.5098v12.4235l4.108-2.0573l-0.0092,0.018l5.2845-2.6423l-0.0063-0.006
				L121.6969,30.0412z"/>
		</g>
		<polygon fill="#33A0A0" points="107.5352,24.0096 107.5352,36.4281 108.2296,36.7756 108.2277,24.3521 		"/>
	</g>
	<g>
		<g>
			<path fill="#52CEC8" d="M133.7772,24.3521l-1.0179-0.5098c-0.4906-0.2457-0.8671-0.2078-1.1026,0.0517
				c-0.8915,0.9822-2.568-0.4024-2.568-0.4024v2.9895l-1.0734-2.0973c0,0-0.5521-0.9882-1.4689-1.0697
				c0,0-0.2954-0.0373-0.6604,0.254l-0.8891,0.848v-2.9655c0,0-1.6613-0.3009-2.5558-2.158
				c-0.2418-0.5021-0.6361-0.9454-0.9511-1.1048l-1.1817-0.5982l0.6925-0.3425l1.1817,0.5982
				c0.315,0.1595,0.7093,0.6027,0.9511,1.1048c0.8945,1.8571,2.5558,2.158,2.5558,2.158v2.523l0.5028-0.3679
				c0.365-0.2913,1.0468-0.2916,1.0468-0.2916c0.9168,0.0815,1.4689,1.0697,1.4689,1.0697l1.0735,2.0973l-0.6925-2.647
				l0.6925-0.3425c0,0,1.3745,1.3834,2.266,0.4012c0.2356-0.2595,0.914-0.2962,1.4046-0.0506l1.0179,0.5097L133.7772,24.3521z"/>
			<path fill="#1E7C77" d="M121.0041,30.3878l0.0003-12.4515l0.4855,0.2516c0.315,0.1595,0.7093,0.6027,0.9511,1.1048
				c0.8945,1.8571,2.5558,2.158,2.5558,2.158v2.9655l0.8891-0.848c0.365-0.2913,0.6604-0.254,0.6604-0.254
				c0.9168,0.0815,1.4689,1.0697,1.4689,1.0697l1.0734,2.0973v-2.9895c0,0,1.6765,1.3846,2.568,0.4024
				c0.2356-0.2596,0.612-0.2974,1.1026-0.0517l1.0179,0.5098v12.4235l-4.108-2.0573l0.0092,0.018l-5.2845-2.6423l0.0063-0.006
				L121.0041,30.3878z"/>
		</g>
		<polygon fill="#5F93BD" points="134.4697,24.0096 134.4697,36.4281 133.7752,36.7756 133.7772,24.3521 		"/>
	</g>
	<polygon fill="#215370" points="110.4743,24.7094 120.9999,19.4467 131.5253,24.7147 120.9999,29.9774 	"/>
	<polygon fill="#52CEC8" points="116.4569,14.9753 120.9998,12.7039 125.5427,14.9776 120.9998,17.249 	"/>
	<polygon fill="#33A0A0" points="110.4743,29.2267 110.4743,24.712 120.9999,24.2536 131.5253,24.7147 131.5253,30.4196 
		120.9999,36.1792 	"/>
	<g>
		<g>
			<path fill="#52CEC8" d="M121.0042,30.7621l-1.0179-0.5098c-0.4906-0.2457-0.8671-0.2078-1.1026,0.0517
				c-0.8915,0.9822-2.568-0.4024-2.568-0.4024v2.9895l-1.0735-2.0973c0,0-0.5521-0.9882-1.4689-1.0697
				c0,0-0.2954-0.0373-0.6604,0.254l-0.8891,0.848v-2.9655c0,0-1.6613-0.3009-2.5558-2.158
				c-0.2418-0.5021-0.6361-0.9454-0.9511-1.1048l-1.1817-0.5982l0.6925-0.3425l1.1817,0.5982
				c0.315,0.1595,0.7093,0.6027,0.9511,1.1048c0.8945,1.8571,2.5558,2.158,2.5558,2.158v2.523l0.5027-0.3679
				c0.365-0.2913,1.0468-0.2916,1.0468-0.2916c0.9168,0.0815,1.4689,1.0697,1.4689,1.0697l1.0734,2.0973l-0.6925-2.647
				l0.6925-0.3425c0,0,1.3745,1.3834,2.266,0.4012c0.2356-0.2595,0.9141-0.2962,1.4047-0.0506l1.0179,0.5097L121.0042,30.7621z"/>
			<path fill="#2B9390" d="M107.535,36.4511l0.0003-12.4515l1.1817,0.5982c0.315,0.1595,0.7093,0.6027,0.9511,1.1048
				c0.8945,1.8571,2.5558,2.158,2.5558,2.158v2.9655l0.8891-0.848c0.365-0.2913,0.6604-0.254,0.6604-0.254
				c0.9168,0.0815,1.4689,1.0697,1.4689,1.0697l1.0735,2.0973v-2.9895c0,0,1.6765,1.3846,2.568,0.4024
				c0.2356-0.2596,0.612-0.2974,1.1026-0.0517l1.0179,0.5098v12.4235l-4.108-2.0573l0.0092,0.018l-5.2845-2.6423l0.0063-0.006
				L107.535,36.4511z"/>
		</g>
		<polygon fill="#5F93BD" points="121.6968,30.4196 121.6968,42.838 121.0023,43.1856 121.0042,30.7621 		"/>
	</g>
	<g>
		<g>
			<path fill="#52CEC8" d="M121.0005,30.7365l1.0179-0.5098c0.4906-0.2457,0.8671-0.2078,1.1026,0.0517
				c0.8915,0.9822,2.568-0.4024,2.568-0.4024v2.9895l1.0735-2.0973c0,0,0.5521-0.9882,1.4689-1.0697c0,0,0.2954-0.0373,0.6604,0.254
				l0.8891,0.848V27.835c0,0,1.6613-0.3009,2.5558-2.158c0.2418-0.5021,0.6361-0.9454,0.9511-1.1048l1.1817-0.5982l-0.6925-0.3425
				l-1.1817,0.5982c-0.315,0.1595-0.7093,0.6027-0.9511,1.1048c-0.8945,1.8571-2.5558,2.158-2.5558,2.158v2.523l-0.5027-0.3679
				c-0.365-0.2913-1.0468-0.2916-1.0468-0.2916c-0.9168,0.0815-1.4689,1.0697-1.4689,1.0697l-1.0735,2.0973l0.6925-2.647
				l-0.6925-0.3425c0,0-1.3745,1.3834-2.266,0.4012c-0.2356-0.2595-0.9141-0.2962-1.4047-0.0506l-1.0179,0.5097L121.0005,30.7365z"
				/>
			<path fill="#27AFA8" d="M134.4697,36.4255l-0.0003-12.4515l-1.1817,0.5982c-0.315,0.1595-0.7093,0.6027-0.9511,1.1048
				c-0.8945,1.8571-2.5558,2.158-2.5558,2.158v2.9655l-0.8891-0.848c-0.365-0.2913-0.6604-0.254-0.6604-0.254
				c-0.9168,0.0815-1.4689,1.0697-1.4689,1.0697l-1.0735,2.0973v-2.9895c0,0-1.6765,1.3846-2.568,0.4024
				c-0.2356-0.2596-0.612-0.2974-1.1026-0.0517l-1.0179,0.5098V43.16l4.108-2.0573l-0.0092,0.018l5.2845-2.6423l-0.0063-0.006
				L134.4697,36.4255z"/>
		</g>
	</g>
	<polygon fill="#3DB7B3" points="138.4102,33.4169 138.4102,103.8681 137.6064,104.2704 137.5954,105.3654 122.8691,112.7174 
		121.7987,112.1819 121,112.5816 121,42.1305 	"/>
	<polygon fill="#33A0A0" points="103.5898,33.4169 103.5898,103.8681 121,112.5816 121,42.1305 	"/>
	<polygon fill="#CCB4B2" points="106.8097,48.0577 106.8097,115.5521 117.7802,121.0427 117.7802,53.5482 	"/>
	<g>
		<g>
			<path fill="#52CEC8" d="M120.9975,35.2522l1.3159-0.659c0.6342-0.3176,1.1209-0.2687,1.4255,0.0669
				c1.1525,1.2698,3.3199-0.5202,3.3199-0.5202v3.8648l1.3877-2.7113c0,0,0.7138-1.2776,1.899-1.3829
				c0,0,0.3819-0.0482,0.8538,0.3284l1.1494,1.0963v-3.8338c0,0,2.1477-0.389,3.304-2.7898
				c0.3126-0.6491,0.8224-1.2221,1.2296-1.4283l1.5276-0.7733l-0.8953-0.4428l-1.5276,0.7733
				c-0.4072,0.2062-0.9169,0.7792-1.2296,1.4283c-1.1564,2.4008-3.304,2.7898-3.304,2.7898v3.2617l-0.6499-0.4756
				c-0.4719-0.3766-1.3532-0.377-1.3532-0.377c-1.1852,0.1054-1.899,1.3829-1.899,1.3829l-1.3877,2.7113l0.8953-3.422
				l-0.8953-0.4428c0,0-1.777,1.7885-2.9294,0.5187c-0.3046-0.3355-1.1817-0.383-1.8159-0.0654l-1.3159,0.659L120.9975,35.2522z"/>
			<path fill="#3DB7B3" d="M138.4102,33.4243l-0.0004-6.9145l-1.5276,0.7733c-0.4072,0.2061-0.9169,0.7792-1.2296,1.4283
				c-1.1564,2.4008-3.304,2.7898-3.304,2.7898v3.8338l-1.1494-1.0963c-0.4719-0.3766-0.8538-0.3284-0.8538-0.3284
				c-1.1852,0.1054-1.899,1.3829-1.899,1.3829l-1.3877,2.7113v-3.8648c0,0-2.1674,1.79-3.3199,0.5202
				c-0.3046-0.3356-0.7912-0.3845-1.4255-0.0669l-1.3159,0.659v6.8783l5.3107-2.6596l-0.0119,0.0233l6.8317-3.4159l-0.0081-0.0077
				L138.4102,33.4243z"/>
		</g>
		<polygon fill="#3DB7B3" points="120.1022,34.8093 120.1022,41.6811 121,42.1305 120.9975,35.2522 		"/>
	</g>
	<g>
		<g>
			<path fill="#52CEC8" d="M121.0024,35.2853l-1.3159-0.659c-0.6342-0.3176-1.1209-0.2687-1.4255,0.0669
				c-1.1525,1.2698-3.3199-0.5202-3.3199-0.5202v3.8648l-1.3877-2.7113c0,0-0.7138-1.2776-1.899-1.3829
				c0,0-0.3819-0.0482-0.8538,0.3284l-1.1494,1.0963v-3.8338c0,0-2.1477-0.389-3.304-2.7898
				c-0.3126-0.6491-0.8223-1.2221-1.2296-1.4283L103.59,26.543l0.8953-0.4428l1.5276,0.7733
				c0.4072,0.2062,0.9169,0.7792,1.2296,1.4283c1.1564,2.4008,3.3041,2.7898,3.3041,2.7898v3.2617l0.6499-0.4756
				c0.4719-0.3766,1.3532-0.377,1.3532-0.377c1.1852,0.1054,1.899,1.3829,1.899,1.3829l1.3877,2.7114l-0.8953-3.422l0.8953-0.4428
				c0,0,1.7769,1.7885,2.9294,0.5187c0.3046-0.3355,1.1817-0.383,1.8159-0.0654l1.3159,0.659L121.0024,35.2853z"/>
			<path fill="#33A0A0" d="M103.5897,33.4574l0.0004-6.9145l1.5276,0.7733c0.4072,0.2061,0.9169,0.7792,1.2296,1.4283
				c1.1564,2.4008,3.304,2.7898,3.304,2.7898v3.8338l1.1494-1.0963c0.4719-0.3766,0.8538-0.3284,0.8538-0.3284
				c1.1852,0.1054,1.899,1.3829,1.899,1.3829l1.3877,2.7113V34.173c0,0,2.1674,1.79,3.3199,0.5202
				c0.3046-0.3356,0.7912-0.3845,1.4255-0.0669l1.3159,0.659v6.8783l-5.3107-2.6596l0.0119,0.0233l-6.8317-3.4159l0.0081-0.0077
				L103.5897,33.4574z"/>
		</g>
		<polygon fill="#3DB7B3" points="121.8976,34.8425 121.8976,41.7143 120.9998,42.1636 121.0024,35.2853 		"/>
	</g>
	<polygon fill="#3DB7B3" points="131.5253,24.7147 125.5427,14.9776 121.0041,17.2471 121.0004,29.9774 	"/>
	<polygon fill="#33A0A0" points="121.0004,29.9774 121.0041,17.2471 116.4569,14.9753 110.4743,24.712 	"/>
	<ellipse fill="#3DB7B3" cx="121.0042" cy="14.9753" rx="2.1963" ry="1.1706"/>
	<ellipse fill="#E6E6E6" cx="121.0042" cy="14.9753" rx="0.5443" ry="0.2901"/>
	<ellipse fill="#E6E6E6" cx="121.0042" cy="0.1828" rx="0.343" ry="0.1828"/>
	<polygon fill="#E6E6E6" points="120.6613,0.1828 120.4599,14.9753 121.5486,14.9753 121.3472,0.1828 	"/>
	<g>
		<polygon fill="#CCB3B2" points="102.5475,158.179 102.5475,120.5999 93.2334,115.8446 93.2334,153.4244 		"/>
		<polygon fill="#3BACB2" points="93.5903,153.1486 93.5903,116.4845 102.1905,120.8756 102.1905,157.5389 		"/>
		<polygon fill="#C0EAE8" points="93.9603,118.1425 93.9603,117.1535 98.7512,119.6 98.7512,120.5883 		"/>
		<polygon fill="#94DDD8" points="93.9603,120.011 93.9603,119.0219 95.7047,119.9133 95.7047,120.9016 		"/>
		<polygon fill="#94DDD8" points="93.9603,146.2466 93.9603,145.2576 95.7047,146.1489 95.7047,147.1372 		"/>
		<polygon fill="#C0EAE8" points="96.4732,123.1589 96.4732,122.1698 101.264,124.6164 101.264,125.6047 		"/>
		<polygon fill="#269696" points="93.9603,123.7478 93.9603,122.7588 97.2137,124.4221 97.2137,125.4105 		"/>
		<polygon fill="#C0EAE8" points="93.9603,125.6163 93.9603,124.6272 98.7512,127.0738 98.7512,128.0621 		"/>
		<polygon fill="#94DDD8" points="93.9603,127.4847 93.9603,126.4957 95.968,127.5134 95.968,128.5017 		"/>
		<polygon fill="#94DDD8" points="99.6455,132.2651 99.6455,131.276 101.6532,132.2937 101.6532,133.2821 		"/>
		<polygon fill="#269696" points="97.1308,129.0601 97.1308,128.071 99.1385,129.0887 99.1385,130.077 		"/>
		<polygon fill="#269696" points="97.1308,132.8902 97.1308,131.9011 99.1385,132.9188 99.1385,133.9072 		"/>
		<polygon fill="#C0EAE8" points="93.9603,129.3532 93.9603,128.3641 98.7512,130.8106 98.7512,131.799 		"/>
		<polygon fill="#269696" points="99.3966,120.9299 99.3966,119.9408 101.902,121.2228 101.902,122.2111 		"/>
		<polygon fill="#C0EAE8" points="93.9603,133.0901 93.9603,132.101 98.7512,134.5475 98.7512,135.5359 		"/>
		<polygon fill="#94DDD8" points="93.9603,134.9585 93.9603,133.9694 95.7047,134.8608 95.7047,135.8491 		"/>
		<polygon fill="#C0EAE8" points="96.4732,138.1064 96.4732,137.1174 101.264,139.5639 101.264,140.5522 		"/>
		<polygon fill="#C0EAE8" points="96.4732,150.4723 96.4732,149.4832 101.264,151.9298 101.264,152.9181 		"/>
		<polygon fill="#269696" points="93.9603,138.6954 93.9603,137.7063 97.2137,139.3697 97.2137,140.358 		"/>
		<polygon fill="#C0EAE8" points="93.9603,140.5638 93.9603,139.5748 98.7512,142.0213 98.7512,143.0096 		"/>
		<polygon fill="#C0EAE8" points="93.9603,152.8158 93.9603,151.8268 98.7512,154.2733 98.7512,155.2616 		"/>
		<polygon fill="#94DDD8" points="93.9603,142.4323 93.9603,141.4432 95.968,142.4609 95.968,143.4492 		"/>
		<polygon fill="#94DDD8" points="99.6455,147.2126 99.6455,146.2235 101.6532,147.2412 101.6532,148.2296 		"/>
		<polygon fill="#94DDD8" points="99.6455,154.0092 99.6455,153.0201 101.6532,154.0378 101.6532,155.0262 		"/>
		<polygon fill="#269696" points="97.1308,144.0076 97.1308,143.0185 99.1385,144.0362 99.1385,145.0246 		"/>
		<polygon fill="#269696" points="97.1308,149.1782 97.1308,148.1891 99.1385,149.2068 99.1385,150.1951 		"/>
		<polygon fill="#C0EAE8" points="93.9603,144.3007 93.9603,143.3116 98.7512,145.7582 98.7512,146.7465 		"/>
		<polygon fill="#269696" points="99.3966,135.8774 99.3966,134.8883 101.902,136.1703 101.902,137.1586 		"/>
		<polygon fill="#CCB4B2" points="93.2334,115.8446 94.0941,115.3791 103.4082,120.1345 102.5475,120.5999 		"/>
		<polygon fill="#C1A39F" points="102.5475,120.5999 103.4082,120.1345 103.4082,159.8306 102.5475,158.179 		"/>
		<polygon fill="#B39690" points="93.2334,153.4244 94.0941,155.076 103.4082,159.8306 102.5475,158.179 		"/>
	</g>
	<g>
		<polygon fill="#CCB3B2" points="130.0392,171.9728 130.0392,134.3937 120.7251,129.6384 120.7251,167.2182 		"/>
		<polygon fill="#3BACB2" points="121.082,166.9424 121.082,130.2783 129.6822,134.6694 129.6822,171.3327 		"/>
		<polygon fill="#C0EAE8" points="121.452,131.9363 121.452,130.9473 126.2429,133.3938 126.2429,134.3821 		"/>
		<polygon fill="#94DDD8" points="121.452,133.8048 121.452,132.8157 123.1964,133.707 123.1964,134.6954 		"/>
		<polygon fill="#94DDD8" points="121.452,160.0404 121.452,159.0513 123.1964,159.9427 123.1964,160.931 		"/>
		<polygon fill="#C0EAE8" points="123.9649,136.9527 123.9649,135.9637 128.7557,138.4102 128.7557,139.3985 		"/>
		<polygon fill="#269696" points="121.452,137.5417 121.452,136.5526 124.7054,138.2159 124.7054,139.2043 		"/>
		<polygon fill="#C0EAE8" points="121.452,139.4101 121.452,138.421 126.2429,140.8676 126.2429,141.8559 		"/>
		<polygon fill="#94DDD8" points="121.452,141.2785 121.452,140.2895 123.4597,141.3072 123.4597,142.2955 		"/>
		<polygon fill="#94DDD8" points="127.1372,146.0589 127.1372,145.0698 129.1449,146.0875 129.1449,147.0759 		"/>
		<polygon fill="#269696" points="124.6225,142.8539 124.6225,141.8648 126.6302,142.8825 126.6302,143.8708 		"/>
		<polygon fill="#269696" points="124.6225,146.684 124.6225,145.6949 126.6302,146.7126 126.6302,147.701 		"/>
		<polygon fill="#C0EAE8" points="121.452,143.147 121.452,142.1579 126.2429,144.6044 126.2429,145.5928 		"/>
		<polygon fill="#269696" points="126.8884,134.7237 126.8884,133.7346 129.3937,135.0166 129.3937,136.0049 		"/>
		<polygon fill="#C0EAE8" points="121.452,146.8839 121.452,145.8948 126.2429,148.3413 126.2429,149.3297 		"/>
		<polygon fill="#94DDD8" points="121.452,148.7523 121.452,147.7632 123.1964,148.6546 123.1964,149.6429 		"/>
		<polygon fill="#C0EAE8" points="123.9649,151.9002 123.9649,150.9112 128.7557,153.3577 128.7557,154.346 		"/>
		<polygon fill="#C0EAE8" points="123.9649,164.2661 123.9649,163.277 128.7557,165.7236 128.7557,166.7119 		"/>
		<polygon fill="#269696" points="121.452,152.4892 121.452,151.5001 124.7054,153.1635 124.7054,154.1518 		"/>
		<polygon fill="#C0EAE8" points="121.452,154.3576 121.452,153.3686 126.2429,155.8151 126.2429,156.8034 		"/>
		<polygon fill="#C0EAE8" points="121.452,166.6096 121.452,165.6206 126.2429,168.0671 126.2429,169.0554 		"/>
		<polygon fill="#94DDD8" points="121.452,156.2261 121.452,155.237 123.4597,156.2547 123.4597,157.243 		"/>
		<polygon fill="#94DDD8" points="127.1372,161.0064 127.1372,160.0173 129.1449,161.035 129.1449,162.0234 		"/>
		<polygon fill="#94DDD8" points="127.1372,167.803 127.1372,166.8139 129.1449,167.8316 129.1449,168.82 		"/>
		<polygon fill="#269696" points="124.6225,157.8014 124.6225,156.8123 126.6302,157.83 126.6302,158.8184 		"/>
		<polygon fill="#269696" points="124.6225,162.972 124.6225,161.9829 126.6302,163.0006 126.6302,163.989 		"/>
		<polygon fill="#C0EAE8" points="121.452,158.0945 121.452,157.1054 126.2429,159.552 126.2429,160.5403 		"/>
		<polygon fill="#269696" points="126.8884,149.6712 126.8884,148.6821 129.3937,149.9641 129.3937,150.9524 		"/>
		<polygon fill="#CCB4B2" points="120.7251,129.6384 121.5858,129.1729 130.8999,133.9283 130.0392,134.3937 		"/>
		<polygon fill="#C1A39F" points="130.0392,134.3937 130.8999,133.9283 130.8999,173.6244 130.0392,171.9728 		"/>
		<polygon fill="#B39690" points="120.7251,167.2182 121.5858,168.8698 130.8999,173.6244 130.0392,171.9728 		"/>
	</g>
	<g>
		<polygon fill="#CCB3B2" points="138.8966,170.7845 138.8966,133.2054 148.2107,128.45 148.2107,166.0298 		"/>
		<polygon fill="#3BACB2" points="147.8538,165.754 147.8538,129.09 139.2536,133.4811 139.2536,170.1444 		"/>
		<polygon fill="#C0EAE8" points="147.4837,130.748 147.4837,129.759 142.6929,132.2055 142.6929,133.1938 		"/>
		<polygon fill="#94DDD8" points="147.4837,132.6165 147.4837,131.6274 145.7393,132.5187 145.7393,133.5071 		"/>
		<polygon fill="#94DDD8" points="147.4837,158.8521 147.4837,157.863 145.7393,158.7544 145.7393,159.7427 		"/>
		<polygon fill="#C0EAE8" points="144.9709,135.7644 144.9709,134.7753 140.18,137.2219 140.18,138.2102 		"/>
		<polygon fill="#269696" points="147.4837,136.3533 147.4837,135.3643 144.2304,137.0276 144.2304,138.016 		"/>
		<polygon fill="#C0EAE8" points="147.4837,138.2218 147.4837,137.2327 142.6929,139.6792 142.6929,140.6676 		"/>
		<polygon fill="#94DDD8" points="147.4837,140.0902 147.4837,139.1012 145.476,140.1189 145.476,141.1072 		"/>
		<polygon fill="#94DDD8" points="141.7986,144.8706 141.7986,143.8815 139.7909,144.8992 139.7909,145.8875 		"/>
		<polygon fill="#269696" points="144.3133,141.6656 144.3133,140.6765 142.3056,141.6942 142.3056,142.6825 		"/>
		<polygon fill="#269696" points="144.3133,145.4957 144.3133,144.5066 142.3056,145.5243 142.3056,146.5126 		"/>
		<polygon fill="#C0EAE8" points="147.4837,141.9587 147.4837,140.9696 142.6929,143.4161 142.6929,144.4045 		"/>
		<polygon fill="#269696" points="142.0474,133.5354 142.0474,132.5463 139.5421,133.8283 139.5421,134.8166 		"/>
		<polygon fill="#C0EAE8" points="147.4837,145.6955 147.4837,144.7065 142.6929,147.153 142.6929,148.1413 		"/>
		<polygon fill="#94DDD8" points="147.4837,147.564 147.4837,146.5749 145.7393,147.4663 145.7393,148.4546 		"/>
		<polygon fill="#C0EAE8" points="144.9709,150.7119 144.9709,149.7229 140.18,152.1694 140.18,153.1577 		"/>
		<polygon fill="#C0EAE8" points="144.9709,163.0778 144.9709,162.0887 140.18,164.5353 140.18,165.5236 		"/>
		<polygon fill="#269696" points="147.4837,151.3009 147.4837,150.3118 144.2304,151.9752 144.2304,152.9635 		"/>
		<polygon fill="#C0EAE8" points="147.4837,153.1693 147.4837,152.1803 142.6929,154.6268 142.6929,155.6151 		"/>
		<polygon fill="#C0EAE8" points="147.4837,165.4213 147.4837,164.4323 142.6929,166.8788 142.6929,167.8671 		"/>
		<polygon fill="#94DDD8" points="147.4837,155.0378 147.4837,154.0487 145.476,155.0664 145.476,156.0547 		"/>
		<polygon fill="#94DDD8" points="141.7986,159.8181 141.7986,158.829 139.7909,159.8467 139.7909,160.8351 		"/>
		<polygon fill="#94DDD8" points="141.7986,166.6147 141.7986,165.6256 139.7909,166.6433 139.7909,167.6317 		"/>
		<polygon fill="#269696" points="144.3133,156.6131 144.3133,155.624 142.3056,156.6417 142.3056,157.6301 		"/>
		<polygon fill="#269696" points="144.3133,161.7837 144.3133,160.7946 142.3056,161.8123 142.3056,162.8006 		"/>
		<polygon fill="#C0EAE8" points="147.4837,156.9062 147.4837,155.9171 142.6929,158.3637 142.6929,159.352 		"/>
		<polygon fill="#269696" points="142.0474,148.4829 142.0474,147.4938 139.5421,148.7758 139.5421,149.7641 		"/>
		<polygon fill="#CCB4B2" points="148.2107,128.45 147.35,127.9846 138.0358,132.74 138.8966,133.2054 		"/>
		<polygon fill="#C1A39F" points="138.8966,133.2054 138.0358,132.74 138.0358,172.4361 138.8966,170.7845 		"/>
		<polygon fill="#B39690" points="148.2107,166.0298 147.35,167.6815 138.0358,172.4361 138.8966,170.7845 		"/>
	</g>
	<polygon opacity="0.6" fill="#DAF7E8" points="147.35,127.9846 138.0358,132.74 138.0358,172.4361 147.35,167.6815 
		148.2107,166.0298 148.2107,128.45 	"/>
	<polygon fill="#BC9E9C" points="103.5898,71.3847 121,80.2756 121,83.1047 103.5898,74.2138 	"/>
	<polygon fill="#BC9E9C" points="103.5898,70.4107 121,79.3016 121,79.631 103.5898,70.7402 	"/>
	<g>
		<polygon fill="#BC9E9C" points="103.5898,43.4584 121,52.3492 121,53.3929 103.5898,44.502 		"/>
		<polygon fill="#BC9E9C" points="103.5898,41.1301 121,50.021 121,51.0646 103.5898,42.1738 		"/>
		<polygon fill="#BC9E9C" points="103.5898,38.8019 121,47.6927 121,48.7364 103.5898,39.8456 		"/>
		<polygon fill="#BC9E9C" points="103.5898,36.4736 121,45.3645 121,46.4081 103.5898,37.5173 		"/>
		<polygon fill="#BC9E9C" points="103.5898,34.1454 121,43.0362 121,44.0799 103.5898,35.1891 		"/>
	</g>
	<g>
		<polygon fill="#D3C1C1" points="138.4102,43.4584 121,52.3492 121,53.3929 138.4102,44.502 		"/>
		<polygon fill="#D3C1C1" points="138.4102,41.1301 121,50.021 121,51.0646 138.4102,42.1738 		"/>
		<polygon fill="#D3C1C1" points="138.4102,38.8019 121,47.6927 121,48.7364 138.4102,39.8456 		"/>
		<polygon fill="#D3C1C1" points="138.4102,36.4736 121,45.3645 121,46.4081 138.4102,37.5173 		"/>
		<polygon fill="#D3C1C1" points="138.4102,34.1454 121,43.0362 121,44.0799 138.4102,35.1891 		"/>
	</g>
	<polygon fill="#BC9E9C" points="103.5898,74.8314 121,83.7223 121,84.0518 103.5898,75.1609 	"/>
	<polygon fill="#D3C1C1" points="138.4102,71.3847 121,80.2756 121,83.1047 138.4102,74.2138 	"/>
	<polygon fill="#D3C1C1" points="138.4102,70.4107 121,79.3016 121,79.631 138.4102,70.7402 	"/>
	<polygon fill="#D3C1C1" points="138.4102,74.8314 121,83.7223 121,84.0518 138.4102,75.1609 	"/>
	<g>
		<polygon fill="#CCB4B2" points="106.274,48.2706 106.274,115.765 117.2445,121.2556 117.2445,53.7612 		"/>
		<polygon fill="#CCB4B2" points="106.274,48.2706 106.8097,48.0577 117.7802,53.5482 117.2445,53.7612 		"/>
		<polygon fill="#A07F7A" points="117.2445,53.7612 117.7802,53.5482 117.7802,121.0427 117.2445,121.2556 		"/>
		<polygon fill="#3BACB2" points="106.7126,114.3133 106.7126,49.0986 116.6346,54.1646 116.6346,119.217 		"/>
		<polygon fill="#C0EAE8" points="107.1395,51.0115 107.1395,49.8704 112.6667,52.693 112.6667,53.8332 		"/>
		<polygon fill="#94DDD8" points="107.1395,53.1671 107.1395,52.026 109.152,53.0544 109.152,54.1946 		"/>
		<polygon fill="#94DDD8" points="107.1395,86.7818 107.1395,85.6408 109.152,86.6691 109.152,87.8094 		"/>
		<polygon fill="#C0EAE8" points="110.0386,56.7989 110.0386,55.6578 115.5658,58.4804 115.5658,59.6206 		"/>
		<polygon fill="#269696" points="107.1395,57.4783 107.1395,56.3373 110.8929,58.2563 110.8929,59.3965 		"/>
		<polygon fill="#C0EAE8" points="107.1395,59.634 107.1395,58.4929 112.6667,61.3154 112.6667,62.4557 		"/>
		<polygon fill="#94DDD8" points="107.1395,61.7896 107.1395,60.6485 109.4558,61.8226 109.4558,62.9629 		"/>
		<polygon fill="#94DDD8" points="113.6985,67.3047 113.6985,66.1636 116.0147,67.3377 116.0147,68.478 		"/>
		<polygon fill="#269696" points="110.7973,63.6071 110.7973,62.466 113.1136,63.6401 113.1136,64.7803 		"/>
		<polygon fill="#269696" points="110.7973,68.0259 110.7973,66.8848 113.1136,68.0589 113.1136,69.1992 		"/>
		<polygon fill="#C0EAE8" points="107.1395,63.9452 107.1395,62.8041 112.6667,65.6267 112.6667,66.7669 		"/>
		<polygon fill="#269696" points="113.4114,54.2272 113.4114,53.0861 116.3018,54.5652 116.3018,55.7054 		"/>
		<polygon fill="#C0EAE8" points="107.1395,68.2565 107.1395,67.1154 112.6667,69.9379 112.6667,71.0782 		"/>
		<polygon fill="#94DDD8" points="107.1395,70.4121 107.1395,69.271 109.152,70.2993 109.152,71.4396 		"/>
		<polygon fill="#C0EAE8" points="110.0386,74.0439 110.0386,72.9028 115.5658,75.7253 115.5658,76.8656 		"/>
		<polygon fill="#C0EAE8" points="110.0386,91.657 110.0386,90.5159 115.5658,93.3385 115.5658,94.4787 		"/>
		<polygon fill="#269696" points="107.1395,78.07 107.1395,76.9289 110.8929,78.8479 110.8929,79.9881 		"/>
		<polygon fill="#C0EAE8" points="107.1395,80.2256 107.1395,79.0845 112.6667,81.9071 112.6667,83.0473 		"/>
		<polygon fill="#C0EAE8" points="107.1395,94.3608 107.1395,93.2197 112.6667,96.0422 112.6667,97.1825 		"/>
		<polygon fill="#94DDD8" points="107.1395,82.3812 107.1395,81.2401 109.4558,82.4143 109.4558,83.5545 		"/>
		<polygon fill="#94DDD8" points="113.6985,87.8963 113.6985,86.7552 116.0147,87.9293 116.0147,89.0696 		"/>
		<polygon fill="#94DDD8" points="113.6985,95.7375 113.6985,94.5965 116.0147,95.7706 116.0147,96.9108 		"/>
		<polygon fill="#269696" points="110.7973,84.1987 110.7973,83.0576 113.1136,84.2317 113.1136,85.372 		"/>
		<polygon fill="#269696" points="110.7973,90.164 110.7973,89.0229 113.1136,90.197 113.1136,91.3373 		"/>
		<polygon fill="#C0EAE8" points="107.1395,84.5368 107.1395,83.3958 112.6667,86.2183 112.6667,87.3586 		"/>
		<polygon fill="#94DDD8" points="107.1395,100.86 107.1395,99.7189 109.152,100.7472 109.152,101.8875 		"/>
		<polygon fill="#C0EAE8" points="110.0386,105.7351 110.0386,104.594 115.5658,107.4166 115.5658,108.5569 		"/>
		<polygon fill="#94DDD8" points="107.1395,96.4593 107.1395,95.3182 109.4558,96.4924 109.4558,97.6326 		"/>
		<polygon fill="#94DDD8" points="113.6985,101.9744 113.6985,100.8333 116.0147,102.0075 116.0147,103.1477 		"/>
		<polygon fill="#94DDD8" points="113.6985,109.8157 113.6985,108.6746 116.0147,109.8487 116.0147,110.9889 		"/>
		<polygon fill="#269696" points="110.7973,98.2768 110.7973,97.1357 113.1136,98.3098 113.1136,99.4501 		"/>
		<polygon fill="#269696" points="110.7973,104.2421 110.7973,103.101 113.1136,104.2751 113.1136,105.4154 		"/>
		<polygon fill="#C0EAE8" points="107.1395,98.615 107.1395,97.4739 112.6667,100.2964 112.6667,101.4367 		"/>
		<polygon fill="#94DDD8" points="107.1395,113.1828 107.1395,112.0417 109.152,113.07 109.152,114.2103 		"/>
		<polygon fill="#94DDD8" points="113.6985,114.2972 113.6985,113.1561 116.0147,114.3303 116.0147,115.4705 		"/>
		<polygon fill="#269696" points="110.7973,110.5996 110.7973,109.4585 113.1136,110.6327 113.1136,111.7729 		"/>
		<polygon fill="#C0EAE8" points="107.1395,110.9378 107.1395,109.7967 112.6667,112.6192 112.6667,113.7595 		"/>
		<polygon fill="#269696" points="113.4114,71.4722 113.4114,70.3311 116.3018,71.8101 116.3018,72.9504 		"/>
		<polygon fill="#CCB4B2" points="106.7126,72.7911 106.7126,76.3344 116.6346,81.4049 116.6346,77.8616 		"/>
		<polygon fill="#6D4D4B" points="106.7843,73.372 106.7843,75.899 107.758,76.3964 107.758,73.8694 		"/>
		<polygon fill="#6D4D4B" points="108.5294,74.2199 108.5294,76.7469 109.503,77.2443 109.503,74.7173 		"/>
		<polygon fill="#6D4D4B" points="110.2744,75.0678 110.2744,77.5948 111.2481,78.0922 111.2481,75.5652 		"/>
		<polygon fill="#6D4D4B" points="112.0194,75.9158 112.0194,78.4428 112.9931,78.9401 112.9931,76.4131 		"/>
		<polygon fill="#6D4D4B" points="113.7645,76.7637 113.7645,79.2907 114.7382,79.788 114.7382,77.261 		"/>
		<polygon fill="#6D4D4B" points="115.5095,77.6116 115.5095,80.1386 116.4832,80.6359 116.4832,78.1089 		"/>
	</g>
	<g>
		<polygon fill="#CCB4B2" points="135.726,48.2706 135.726,103.0663 124.7555,108.5569 124.7555,53.7612 		"/>
		<polygon fill="#CCB4B2" points="135.726,48.2706 135.1903,48.0577 124.2198,53.5482 124.7555,53.7612 		"/>
		<polygon fill="#B39690" points="124.7555,53.7612 124.2198,53.5482 124.2198,108.3439 124.7555,108.5569 		"/>
		<polygon fill="#3BACB2" points="135.2874,101.6146 135.2874,49.0986 125.3654,54.1646 125.3654,106.5183 		"/>
		<polygon fill="#C0EAE8" points="134.8605,51.0115 134.8605,49.8704 129.3333,52.693 129.3333,53.8332 		"/>
		<polygon fill="#94DDD8" points="134.8605,53.1671 134.8605,52.026 132.848,53.0544 132.848,54.1946 		"/>
		<polygon fill="#94DDD8" points="134.8605,86.7818 134.8605,85.6408 132.848,86.6691 132.848,87.8094 		"/>
		<polygon fill="#C0EAE8" points="131.9614,56.7989 131.9614,55.6578 126.4342,58.4804 126.4342,59.6206 		"/>
		<polygon fill="#269696" points="134.8605,57.4783 134.8605,56.3373 131.1071,58.2563 131.1071,59.3965 		"/>
		<polygon fill="#C0EAE8" points="134.8605,59.634 134.8605,58.4929 129.3333,61.3154 129.3333,62.4557 		"/>
		<polygon fill="#94DDD8" points="134.8605,61.7896 134.8605,60.6485 132.5442,61.8226 132.5442,62.9629 		"/>
		<polygon fill="#94DDD8" points="128.3015,67.3047 128.3015,66.1636 125.9852,67.3377 125.9852,68.478 		"/>
		<polygon fill="#269696" points="131.2027,63.6071 131.2027,62.466 128.8864,63.6401 128.8864,64.7803 		"/>
		<polygon fill="#269696" points="131.2027,68.0259 131.2027,66.8848 128.8864,68.0589 128.8864,69.1992 		"/>
		<polygon fill="#C0EAE8" points="134.8605,63.9452 134.8605,62.8041 129.3333,65.6267 129.3333,66.7669 		"/>
		<polygon fill="#269696" points="128.5886,54.2272 128.5886,53.0861 125.6982,54.5652 125.6982,55.7054 		"/>
		<polygon fill="#C0EAE8" points="134.8605,68.2565 134.8605,67.1154 129.3333,69.9379 129.3333,71.0782 		"/>
		<polygon fill="#94DDD8" points="134.8605,70.4121 134.8605,69.271 132.848,70.2993 132.848,71.4396 		"/>
		<polygon fill="#C0EAE8" points="131.9614,74.0439 131.9614,72.9028 126.4342,75.7253 126.4342,76.8656 		"/>
		<polygon fill="#C0EAE8" points="131.9614,91.657 131.9614,90.5159 126.4342,93.3385 126.4342,94.4787 		"/>
		<polygon fill="#269696" points="134.8605,78.07 134.8605,76.9289 131.1071,78.8479 131.1071,79.9881 		"/>
		<polygon fill="#C0EAE8" points="134.8605,80.2256 134.8605,79.0845 129.3333,81.9071 129.3333,83.0473 		"/>
		<polygon fill="#C0EAE8" points="134.8605,94.3608 134.8605,93.2197 129.3333,96.0422 129.3333,97.1825 		"/>
		<polygon fill="#94DDD8" points="134.8605,82.3812 134.8605,81.2401 132.5442,82.4143 132.5442,83.5545 		"/>
		<polygon fill="#94DDD8" points="128.3015,87.8963 128.3015,86.7552 125.9852,87.9293 125.9852,89.0696 		"/>
		<polygon fill="#94DDD8" points="128.3015,95.7375 128.3015,94.5965 125.9852,95.7706 125.9852,96.9108 		"/>
		<polygon fill="#269696" points="131.2027,84.1987 131.2027,83.0576 128.8864,84.2317 128.8864,85.372 		"/>
		<polygon fill="#269696" points="131.2027,90.164 131.2027,89.0229 128.8864,90.197 128.8864,91.3373 		"/>
		<polygon fill="#C0EAE8" points="134.8605,84.5368 134.8605,83.3958 129.3333,86.2183 129.3333,87.3586 		"/>
		<polygon fill="#94DDD8" points="134.8605,100.86 134.8605,99.7189 132.848,100.7472 132.848,101.8875 		"/>
		<polygon fill="#94DDD8" points="134.8605,96.4593 134.8605,95.3182 132.5442,96.4924 132.5442,97.6326 		"/>
		<polygon fill="#94DDD8" points="128.3015,101.9744 128.3015,100.8333 125.9852,102.0075 125.9852,103.1477 		"/>
		<polygon fill="#269696" points="131.2027,98.2768 131.2027,97.1357 128.8864,98.3098 128.8864,99.4501 		"/>
		<polygon fill="#C0EAE8" points="134.8605,98.615 134.8605,97.4739 129.3333,100.2964 129.3333,101.4367 		"/>
		<polygon fill="#269696" points="128.5886,71.4722 128.5886,70.3311 125.6982,71.8101 125.6982,72.9504 		"/>
		<polygon fill="#CCB4B2" points="135.2874,72.7911 135.2874,76.3344 125.3654,81.4049 125.3654,77.8616 		"/>
		<polygon fill="#6D4D4B" points="135.2157,73.372 135.2157,75.899 134.242,76.3964 134.242,73.8694 		"/>
		<polygon fill="#6D4D4B" points="133.4706,74.2199 133.4706,76.7469 132.497,77.2443 132.497,74.7173 		"/>
		<polygon fill="#6D4D4B" points="131.7256,75.0678 131.7256,77.5948 130.7519,78.0922 130.7519,75.5652 		"/>
		<polygon fill="#6D4D4B" points="129.9805,75.9158 129.9805,78.4428 129.0069,78.9401 129.0069,76.4131 		"/>
		<polygon fill="#6D4D4B" points="128.2355,76.7637 128.2355,79.2907 127.2618,79.788 127.2618,77.261 		"/>
		<polygon fill="#6D4D4B" points="126.4905,77.6116 126.4905,80.1386 125.5168,80.6359 125.5168,78.1089 		"/>
	</g>
	<polygon opacity="0.6" fill="#DAF7E8" points="135.1903,48.0577 124.2198,53.5482 124.2198,108.3439 124.7555,108.5568 
		135.726,103.0663 135.726,48.2706 	"/>
	<polygon fill="#52CEC8" points="98.2014,100.3104 103.5898,103.0031 103.5898,103.8681 97.3186,100.7352 	"/>
	<g>
		<polygon fill="#BC9684" points="92.0298,163.806 92.0298,182.5557 100.3581,186.6966 100.3581,167.9468 		"/>
		<polygon fill="#E9D6C7" points="95.1014,162.2664 92.0298,163.806 100.3581,167.9468 103.4082,166.4219 		"/>
		<polygon fill="#898684" points="92.0513,182.6411 88.9796,184.1806 97.308,188.3215 100.3581,186.7966 		"/>
		<polygon fill="#D6B6A1" points="103.4082,166.4219 103.4082,169.3607 102.6243,169.7522 102.6175,175.2621 101.4182,175.8603 
			101.4182,186.2407 100.3581,186.7708 100.3581,167.9468 		"/>
		<polygon fill="#726C68" points="97.308,188.3215 97.308,188.7329 101.4182,188.5272 101.4182,186.2407 		"/>
		<polygon fill="#4C4642" points="88.9796,184.1806 97.308,188.3215 97.308,188.7329 88.9796,184.5316 		"/>
		<polygon fill="#2D2926" points="100.9144,188.5524 100.9144,191.2498 92.2154,186.9014 92.2154,186.1587 97.308,188.7329 		"/>
		<polygon fill="#AA8475" points="92.0298,171.1638 92.0513,182.6411 91.885,182.7244 91.885,171.0924 		"/>
	</g>
	<g>
		<polygon fill="#BC9684" points="119.5215,177.5807 119.5215,196.3305 127.8498,200.4714 127.8498,181.7216 		"/>
		<polygon fill="#E9D6C7" points="122.5931,176.0412 119.5215,177.5807 127.8498,181.7216 130.8999,180.1967 		"/>
		<polygon fill="#898684" points="119.543,196.4159 116.4714,197.9554 124.7997,202.0963 127.8498,200.5714 		"/>
		<polygon fill="#D6B6A1" points="130.8999,180.1967 130.8999,183.1355 130.116,183.527 130.1092,189.0369 128.9099,189.6351 
			128.9099,200.0155 127.8498,200.5456 127.8498,181.7216 		"/>
		<polygon fill="#726C68" points="124.7997,202.0963 124.7997,202.5077 128.9099,202.302 128.9099,200.0155 		"/>
		<polygon fill="#4C4642" points="116.4714,197.9554 124.7997,202.0963 124.7997,202.5077 116.4714,198.3064 		"/>
		<polygon fill="#2D2926" points="128.4061,202.3272 128.4061,205.0246 119.7071,200.6762 119.7071,199.9335 124.7997,202.5077 		
			"/>
		<polygon fill="#AA8475" points="119.5215,184.9387 119.543,196.4159 119.3767,196.4992 119.3767,184.8672 		"/>
	</g>
	<g>
		<polygon fill="#BC9684" points="105.5795,173.5162 105.5795,189.3447 113.9079,193.4856 113.9079,177.6571 		"/>
		<polygon fill="#E9D6C7" points="108.6512,172.0047 105.5795,173.5442 113.9079,177.6851 116.958,176.1602 		"/>
		<polygon fill="#898684" points="105.601,189.4301 102.5294,190.9696 110.8577,195.1105 113.9079,193.5856 		"/>
		<polygon fill="#D6B6A1" points="116.958,176.1459 116.958,176.1497 116.1741,176.5412 116.1673,182.0511 114.968,182.6493 
			114.968,193.0297 113.9079,193.5598 113.9079,177.6709 		"/>
		<polygon fill="#726C68" points="110.8577,195.1105 110.8577,195.5219 114.968,195.3162 114.968,193.0297 		"/>
		<polygon fill="#4C4642" points="102.5294,190.9696 110.8577,195.1105 110.8577,195.5219 102.5294,191.3206 		"/>
		<polygon fill="#2D2926" points="114.4641,195.3414 114.4641,198.0388 105.7652,193.6904 105.7652,192.9477 110.8577,195.5219 		
			"/>
		<polygon fill="#AA8475" points="105.5795,177.9529 105.601,189.4301 105.4347,189.5134 105.4347,177.8814 		"/>
	</g>
	<g>
		<polygon fill="#775245" points="93.0508,165.326 99.1529,168.4702 99.1529,168.7969 93.0508,165.6535 		"/>
		<polygon fill="#775245" points="93.0508,166.9397 99.1529,170.0839 99.1529,170.4106 93.0508,167.2672 		"/>
		<polygon fill="#775245" points="93.0508,168.5534 99.1529,171.6976 99.1529,172.0243 93.0508,168.8809 		"/>
		<polygon fill="#775245" points="93.0508,170.1671 99.1529,173.3112 99.1529,173.638 93.0508,170.4946 		"/>
		<polygon fill="#775245" points="93.0508,171.7808 99.1529,174.9249 99.1529,175.2517 93.0508,172.1083 		"/>
		<polygon fill="#775245" points="93.0508,173.3945 99.1529,176.5386 99.1529,176.8654 93.0508,173.722 		"/>
		<polygon fill="#775245" points="93.0508,175.0082 99.1529,178.1523 99.1529,178.4791 93.0508,175.3356 		"/>
		<polygon fill="#775245" points="93.0508,176.6219 99.1529,179.766 99.1529,180.0928 93.0508,176.9493 		"/>
		<polygon fill="#775245" points="93.0508,178.2355 99.1529,181.3797 99.1529,181.7065 93.0508,178.563 		"/>
		<polygon fill="#775245" points="93.0508,179.8492 99.1529,182.9934 99.1529,183.3201 93.0508,180.1767 		"/>
		<polygon fill="#775245" points="93.0508,181.4629 99.1529,184.6071 99.1529,184.9338 93.0508,181.7904 		"/>
	</g>
	<g>
		<polygon fill="#775245" points="120.7658,179.2222 126.8679,182.3663 126.8679,182.6931 120.7658,179.5497 		"/>
		<polygon fill="#775245" points="120.7658,180.8359 126.8679,183.98 126.8679,184.3068 120.7658,181.1634 		"/>
		<polygon fill="#775245" points="120.7658,182.4496 126.8679,185.5937 126.8679,185.9205 120.7658,182.7771 		"/>
		<polygon fill="#775245" points="120.7658,184.0633 126.8679,187.2074 126.8679,187.5342 120.7658,184.3907 		"/>
		<polygon fill="#775245" points="120.7658,185.677 126.8679,188.8211 126.8679,189.1479 120.7658,186.0044 		"/>
		<polygon fill="#775245" points="120.7658,187.2906 126.8679,190.4348 126.8679,190.7616 120.7658,187.6181 		"/>
		<polygon fill="#775245" points="120.7658,188.9043 126.8679,192.0485 126.8679,192.3752 120.7658,189.2318 		"/>
		<polygon fill="#775245" points="120.7658,190.518 126.8679,193.6622 126.8679,193.9889 120.7658,190.8455 		"/>
		<polygon fill="#775245" points="120.7658,192.1317 126.8679,195.2759 126.8679,195.6026 120.7658,192.4592 		"/>
		<polygon fill="#775245" points="120.7658,193.7454 126.8679,196.8896 126.8679,197.2163 120.7658,194.0729 		"/>
		<polygon fill="#775245" points="120.7658,195.3591 126.8679,198.5033 126.8679,198.83 120.7658,195.6866 		"/>
	</g>
	<g>
		<polygon fill="#775245" points="106.6926,175.3804 112.7947,178.5246 112.7947,178.8513 106.6926,175.7079 		"/>
		<polygon fill="#775245" points="106.6926,176.9941 112.7947,180.1383 112.7947,180.465 106.6926,177.3216 		"/>
		<polygon fill="#775245" points="106.6926,178.6078 112.7947,181.752 112.7947,182.0787 106.6926,178.9353 		"/>
		<polygon fill="#775245" points="106.6926,180.2215 112.7947,183.3657 112.7947,183.6924 106.6926,180.549 		"/>
		<polygon fill="#775245" points="106.6926,181.8352 112.7947,184.9794 112.7947,185.3061 106.6926,182.1627 		"/>
		<polygon fill="#775245" points="106.6926,183.4489 112.7947,186.593 112.7947,186.9198 106.6926,183.7764 		"/>
		<polygon fill="#775245" points="106.6926,185.0626 112.7947,188.2067 112.7947,188.5335 106.6926,185.3901 		"/>
		<polygon fill="#775245" points="106.6926,186.6763 112.7947,189.8204 112.7947,190.1472 106.6926,187.0038 		"/>
		<polygon fill="#775245" points="106.6926,188.29 112.7947,191.4341 112.7947,191.7609 106.6926,188.6175 		"/>
	</g>
	<g opacity="0.35">
		<polygon fill="#775245" points="155.4466,182.7455 135.6069,192.9444 135.6069,193.2711 155.4466,183.0729 		"/>
		<polygon fill="#775245" points="155.4466,184.4171 135.5854,194.6272 135.5854,194.954 155.4466,184.7446 		"/>
		<polygon fill="#775245" points="155.4466,186.0887 135.5854,196.2989 135.5854,196.6256 155.4466,186.4162 		"/>
		<polygon fill="#775245" points="155.4466,187.7603 135.5854,197.9705 135.5854,198.2972 155.4466,188.0878 		"/>
		<polygon fill="#775245" points="155.4466,189.4319 135.5854,199.6421 135.5854,199.9688 155.4466,189.7594 		"/>
		<polygon fill="#775245" points="155.4466,191.1035 135.5854,201.3137 135.5854,201.6405 155.4466,191.431 		"/>
	</g>
	<g opacity="0.35">
		<polygon fill="#775245" points="152.8714,176.9454 134.7179,186.2804 134.7179,186.6071 152.8714,177.2729 		"/>
		<polygon fill="#775245" points="152.8714,178.617 134.6964,187.9632 134.6964,188.29 152.8714,178.9445 		"/>
	</g>
	<polygon fill="#6D4D4B" points="111.4776,161.8703 111.4776,166.1061 113.1096,166.9397 113.1096,162.7039 	"/>
	<polygon fill="#6D4D4B" points="115.439,163.628 115.439,166.099 116.3911,166.5853 116.3911,164.1143 	"/>
	<polygon fill="#6D4D4B" points="108.6238,160.5887 108.6238,163.0597 109.5759,163.546 109.5759,161.075 	"/>
</g>
</svg>
