<?xml version="1.0" encoding="iso-8859-1"?>
<!-- Generator: Adobe Illustrator 24.0.3, SVG Export Plug-In . SVG Version: 6.00 Build 0)  -->
<svg version="1.1" id="&#x5716;&#x5C64;_1" xmlns="http://www.w3.org/2000/svg" xmlns:xlink="http://www.w3.org/1999/xlink" x="0px"
	 y="0px" viewBox="0 0 250 250" enable-background="new 0 0 250 250" xml:space="preserve">
<g>
	<polygon fill="#E4D5CC" points="3.8193,182.8884 124.7432,122.5272 245.4665,182.8884 124.6429,243.3006 	"/>
	<polygon fill="#B39691" points="3.8193,182.8884 3.8193,186.5877 124.6429,247 124.6429,243.3006 	"/>
	<polygon fill="#D8C7BF" points="124.6429,243.3006 245.4665,182.8884 245.4665,186.5877 124.6429,247 	"/>
	<g>
		<g>
			<polygon fill="#7F5E65" points="154.3579,126.6879 163.4645,131.281 163.4645,167.0473 153.3545,161.9923 			"/>
			<polygon fill="#CEAEA1" points="172.3799,126.7842 163.4645,131.281 163.4645,167.0473 173.5745,161.9923 			"/>
			<polygon fill="#DDCFBF" points="163.4645,122.2875 154.3579,126.6879 163.4645,131.281 172.3799,126.7842 			"/>
		</g>
		<g>
			<polygon fill="#7F5E65" points="166.7792,132.8839 175.8857,137.4771 175.8857,173.2433 165.7757,168.1883 			"/>
			<polygon fill="#CEAEA1" points="183.0719,133.8671 175.8857,137.4771 175.8857,173.2433 184.2664,169.0752 			"/>
			<polygon fill="#DDCFBF" points="175.8857,128.4835 166.7792,132.8839 175.8857,137.477 184.8011,132.9803 			"/>
		</g>
		<g>
			<polygon fill="#EEE2D2" points="159.782,113 185.0547,125.6777 177.257,129.6092 151.9843,116.9312 			"/>
			<polygon fill="#8F6B71" points="151.9843,116.9312 151.9843,126.7608 177.3195,139.4073 177.3195,129.6092 			"/>
			<polygon fill="#DCBFB1" points="185.0547,125.6777 185.0547,135.5513 177.3195,139.4073 177.3195,129.6092 			"/>
		</g>
	</g>
	<g>
		<polygon fill="#CEAEA1" points="96.9898,128.9248 87.8832,133.5179 87.8832,169.2842 97.9932,164.2292 		"/>
		<polygon fill="#7F5E65" points="78.9678,129.0211 87.8832,133.5179 87.8832,169.2842 77.7732,164.2292 		"/>
		<polygon fill="#DDCFBF" points="87.8832,124.5244 96.9898,128.9248 87.8832,133.5179 78.9678,129.0211 		"/>
		<g>
			<polygon fill="#CEAEA1" points="84.5685,135.1208 75.462,139.7139 75.462,175.4802 85.572,170.4252 			"/>
			<polygon fill="#7F5E65" points="68.2759,136.104 75.462,139.7139 75.462,175.4802 67.0813,171.3121 			"/>
			<polygon fill="#DDCFBF" points="75.462,130.7204 84.5685,135.1208 75.462,139.7139 66.5466,135.2172 			"/>
		</g>
		<polygon fill="#EEE2D2" points="91.5658,115.2369 66.293,127.9146 74.0907,131.8461 99.3635,119.1681 		"/>
		<polygon fill="#DCBFB1" points="99.3635,119.1681 99.3635,128.9977 74.0282,141.6442 74.0282,131.8461 		"/>
		<polygon fill="#8F6B71" points="66.293,127.9146 66.293,137.7882 74.0282,141.6442 74.0282,131.8461 		"/>
	</g>
	<g>
		<polygon fill="#EEE2D2" points="63.6037,143.4548 61.0894,149.5888 69.2006,149.5888 70.3245,144.7042 		"/>
		<polygon fill="#CEAEA1" points="61.0894,149.5888 61.0894,179.3119 70.8184,179.3119 69.2006,149.5888 		"/>
		<polygon fill="#DCBFB1" points="70.3245,144.7042 72.2905,171.7824 70.8184,179.3119 69.2006,149.5888 		"/>
	</g>
	<g>
		<polygon fill="#EEE2D2" points="62.7479,155.8022 68.1154,166.4967 75.5044,164.9209 71.0796,155.1252 		"/>
		<polygon fill="#7F656C" points="62.7479,155.8022 62.7479,182.944 68.1244,196.5463 68.1154,166.4967 		"/>
		<polygon fill="#CEAEA1" points="68.1244,196.5463 76.4413,194.0339 75.5044,164.9209 68.1154,166.4967 		"/>
	</g>
	<g>
		<polygon fill="#EEE2D2" points="185.051,141.2438 187.5654,147.3778 179.4541,147.3778 178.3303,142.4932 		"/>
		<polygon fill="#A38380" points="187.5654,147.3778 187.5654,177.1008 177.8363,177.1008 179.4541,147.3778 		"/>
		<polygon fill="#7F5E65" points="178.3303,142.4932 176.3642,169.5714 177.8363,177.1008 179.4541,147.3778 		"/>
	</g>
	<g>
		<polygon fill="#EEE2D2" points="187.5654,152.1067 182.1979,162.8012 174.8088,159.1024 179.2336,151.4297 		"/>
		<polygon fill="#D6BBB2" points="187.5654,152.1067 188.2274,182.4723 183.5145,193.2513 182.1979,162.8012 		"/>
		<polygon fill="#CEAEA1" points="183.5145,193.2513 174.8088,190.6215 174.8088,159.1024 182.1979,162.8012 		"/>
	</g>
	<g>
		<g>
			<polygon fill="#7F5E65" points="71.4104,170.3927 80.517,174.9859 80.517,210.7522 70.407,205.6971 			"/>
			<polygon fill="#CEAEA1" points="89.4324,170.4891 80.517,174.9859 80.517,210.7522 90.627,205.6971 			"/>
			<polygon fill="#DDCFBF" points="80.517,165.9923 71.4104,170.3927 80.517,174.9859 89.4324,170.4891 			"/>
		</g>
		<g>
			<polygon fill="#7F5E65" points="83.8317,176.5888 92.9382,181.1819 92.9382,216.9482 82.8282,211.8932 			"/>
			<polygon fill="#CEAEA1" points="100.1243,177.572 92.9382,181.1819 92.9382,216.9482 101.3189,212.78 			"/>
			<polygon fill="#DDCFBF" points="92.9382,172.1884 83.8317,176.5888 92.9382,181.1819 101.8536,176.6851 			"/>
		</g>
		<g>
			<polygon fill="#EEE2D2" points="76.8344,156.7048 102.1072,169.3826 94.3095,173.3141 69.0368,160.6361 			"/>
			<polygon fill="#8F6B71" points="69.0368,160.6361 69.0368,170.4656 94.372,183.1122 94.372,173.3141 			"/>
			<polygon fill="#DCBFB1" points="102.1072,169.3826 102.1072,179.2562 94.372,183.1122 94.372,173.3141 			"/>
		</g>
	</g>
	<g>
		<polygon fill="#EEE2D2" points="106.3394,123.4432 119.6588,122.5329 121.6216,126.6669 108.4073,127.5488 		"/>
		<polygon fill="#C0A097" points="108.4073,127.4904 106.9224,159.1994 122.2047,157.8558 121.6216,126.6669 		"/>
		<polygon fill="#7F5E65" points="106.3394,123.4432 104.8652,153.6538 106.9224,159.1994 108.4073,127.5488 		"/>
	</g>
	<g>
		<polygon fill="#EEE2D2" points="133.5808,123.3264 147.4597,124.7345 144.7265,128.4495 130.218,127.0588 		"/>
		<polygon fill="#A38380" points="130.218,127.0588 130.218,157.3835 145.3195,159.1994 144.7278,128.4498 		"/>
		<polygon fill="#CEAEA1" points="147.4597,124.7345 148.7471,155.768 145.3195,159.1994 144.7265,128.4495 		"/>
	</g>
	<g>
		<polygon fill="#CEAEA1" points="179.9373,168.318 170.8307,172.9111 170.8307,208.6774 180.9407,203.6224 		"/>
		<polygon fill="#7F5E65" points="161.9153,168.4144 170.8307,172.9111 170.8307,208.6774 160.7207,203.6224 		"/>
		<polygon fill="#DDCFBF" points="170.8307,163.9176 179.9373,168.318 170.8307,172.9111 161.9153,168.4144 		"/>
		<g>
			<polygon fill="#CEAEA1" points="167.5161,174.514 158.4095,179.1072 158.4095,214.8735 168.5195,209.8185 			"/>
			<polygon fill="#7F5E65" points="151.2234,175.4973 158.4095,179.1072 158.4095,214.8735 150.0288,210.7053 			"/>
			<polygon fill="#DDCFBF" points="158.4095,170.1136 167.5161,174.514 158.4095,179.1072 149.4941,174.6104 			"/>
		</g>
		<polygon fill="#EEE2D2" points="174.5133,154.6301 149.2405,167.3079 157.0382,171.2393 182.311,158.5614 		"/>
		<polygon fill="#DCBFB1" points="182.311,158.5614 182.311,168.3909 156.9757,181.0375 156.9757,171.2393 		"/>
		<polygon fill="#8F6B71" points="149.2405,167.3079 149.2405,177.1815 156.9757,181.0375 156.9757,171.2393 		"/>
	</g>
	<g>
		<polygon fill="#A38380" points="106.4831,183.3866 119.8123,183.9556 120.6087,219.6697 105.2826,218.2849 		"/>
		<polygon fill="#EEE2D2" points="106.4831,183.3866 108.6436,179.9463 120.6087,180.2536 119.8123,183.9556 		"/>
		<polygon fill="#DCBFB1" points="120.6087,180.2536 121.8049,211.6941 120.6087,219.6697 119.8123,183.9556 		"/>
	</g>
	<g>
		<polygon fill="#EEE2D2" points="127.8931,180.3091 126.9143,184.2776 142.9048,182.4723 139.7244,178.9767 		"/>
		<polygon fill="#C0A097" points="126.9143,184.2776 127.7632,219.599 144.0168,217.1826 142.9048,182.4723 		"/>
	</g>
</g>
</svg>
