<?xml version="1.0" encoding="iso-8859-1"?>
<!-- Generator: Adobe Illustrator 24.0.3, SVG Export Plug-In . SVG Version: 6.00 Build 0)  -->
<svg version="1.1" id="&#x5716;&#x5C64;_1" xmlns="http://www.w3.org/2000/svg" xmlns:xlink="http://www.w3.org/1999/xlink" x="0px"
	 y="0px" viewBox="0 0 250 250" enable-background="new 0 0 250 250" xml:space="preserve">
<g>
	<path fill="#94C93D" d="M163.0415,147.7789L130,131.2583l-32.9449,16.4723c10.3354-1.6664,21.3698-2.5809,32.8473-2.5809
		C141.4881,145.1497,152.622,146.0822,163.0415,147.7789z"/>
	<g opacity="0.2">
		<polygon fill="#313D30" points="229.1309,194.2374 229.1309,194.2374 229.131,194.2373 		"/>
		<path opacity="0.48" fill="#313D30" d="M177.3136,220.2733c0-0.0268-0.0067-0.0525-0.0074-0.0792
			c3.7051-0.3457,6.6596-1.8654,7.5124-3.8279l0.8354-0.3623c0.4343,0.0334,0.8747,0.0565,1.326,0.0565
			c0.6621,0,1.3073-0.0382,1.9305-0.1088c0.6232,0.0706,1.2685,0.1088,1.9306,0.1088c5.1753,0,9.3708-2.27,9.3708-5.07
			c0-0.0557-0.0122-0.1099-0.0154-0.1652c1.4317,0.4798,3.1141,0.7616,4.922,0.7616c5.1753,0,9.3708-2.2699,9.3708-5.07
			c0-0.8116-0.3613-1.5758-0.9879-2.256c4.5421-0.3511,8.0374-2.4584,8.0374-5.0129c0-0.4276-0.1086-0.8406-0.2928-1.2373
			c0.1095-0.5674,0.1815-1.1391,0.2296-1.7135c2.5721-0.9039,4.2771-2.469,4.2771-4.2521c0-1.0805-0.6297-2.08-1.6943-2.9026
			c1.0646-0.8226,1.6943-1.8221,1.6943-2.9025c0-2.8001-4.1955-5.0701-9.3708-5.0701c-0.3623,0-0.7184,0.0137-1.0699,0.0354
			c-1.5658-1.6171-4.6926-2.722-8.3009-2.722c-0.6453,0-1.2752,0.0354-1.8838,0.1026l-43.6855-18.9434
			c-8.7352-1.2336-18.0694-1.9116-27.7823-1.9116c-9.6221,0-18.873,0.6648-27.5377,1.8764L61.5681,178.927
			c-0.9111-0.1599-1.8815-0.2486-2.8911-0.2486c-5.1504,0-9.327,2.2486-9.3671,5.0301c-0.7263-0.0977-1.482-0.1552-2.2642-0.1552
			c-3.7916,0-7.0494,1.2208-8.5246,2.9734c-0.9669-0.1825-2.0017-0.2867-3.0837-0.2867c-5.1754,0-9.3708,2.2699-9.3708,5.07
			c0,2.4983,3.3428,4.5697,7.7384,4.9882c1.4845,1.7399,4.7292,2.9499,8.5038,2.9499c0.0328,0,0.0644-0.0025,0.0971-0.0027
			c1.0362,1.0051,2.6851,1.798,4.6746,2.2337c-0.0166,0.1232-0.0347,0.2461-0.0347,0.3714c0,0.842,0.3853,1.6343,1.0566,2.3331
			c-0.6714,0.6989-1.0566,1.4912-1.0566,2.3332c0,2.8001,4.1955,5.07,9.3708,5.07c0.1318,0,0.26-0.0077,0.3905-0.0106
			c1.1494,2.0966,4.7323,3.6271,8.9803,3.6271c1.4491,0,2.8158-0.1832,4.0406-0.5009c0.3419,0.0887,0.6931,0.1678,1.0565,0.2338
			c-0.0086,0.089-0.0249,0.1769-0.0249,0.2671c0,2.8001,4.1955,5.07,9.3708,5.07c0.7128,0,1.4044-0.0469,2.0717-0.1285
			c0.9777,0.9361,2.4882,1.6853,4.3103,2.1305c-0.2205,0.4313-0.3476,0.8835-0.3476,1.3527c0,2.8001,4.1954,5.07,9.3708,5.07
			c1.6824,0,3.2575-0.243,4.6224-0.6631c1.1909,2.06,4.7448,3.5549,8.9444,3.5549c0.7927,0,1.5582-0.0591,2.2934-0.1593
			c1.6663,1.4045,4.5715,2.3376,7.8851,2.3376c2.4438,0,4.6619-0.5104,6.3302-1.3395c1.6683,0.8291,3.8864,1.3395,6.3302,1.3395
			c2.6888,0,5.1064-0.6161,6.8153-1.5976c0.7386-0.019,1.4761-0.0395,2.2096-0.0662c1.7141,1.0197,4.1782,1.6638,6.9265,1.6638
			c4.5538,0,8.3458-1.7581,9.1916-4.0879c0.4541,0.0366,0.9149,0.0616,1.3878,0.0616c4.7551,0,8.6733-1.9179,9.2799-4.4009
			c0.0306,0.0002,0.0603,0.0025,0.0909,0.0025C173.1181,225.3434,177.3136,223.0734,177.3136,220.2733z"/>
	</g>
	<path opacity="0.2" fill="#313D30" d="M156.3195,239.0476l2.9691-1.434l-15.2596-3.3138l-3.3168,1.3153l2.0014,0.4402
		l-19.528,9.1014l0.1898,0.0908l-1.3731-0.2982l-3.3168,1.3153l15.6073,3.4324l2.9691-1.4339l-4.6093-1.0009l19.3112-9.1727
		L156.3195,239.0476z M146.619,236.9143l0.3574,0.0785l-19.5836,9.1272l-0.1065-0.0231L146.619,236.9143z M130.0262,246.6919
		l-0.0123-0.0026l19.3217-9.1776l0.2635,0.058L130.0262,246.6919z"/>
	<g>
		<g>
			<polygon fill="#8E6B26" points="137.2877,227.9277 137.2877,248.4017 134.2097,249.9209 134.2097,229.4469 			"/>
			<polygon fill="#705318" points="133.2084,228.9325 133.2084,249.4065 134.2097,249.9209 134.2097,229.4469 			"/>
			<polygon fill="#99772A" points="133.2084,228.9325 136.2603,227.4199 137.2877,227.9277 134.2097,229.4469 			"/>
		</g>
		<g>
			<polygon fill="#8E6B26" points="160.1966,216.6772 160.1966,237.1512 157.1185,238.6704 157.1185,218.1964 			"/>
			<polygon fill="#705318" points="156.1172,217.682 156.1172,238.156 157.1185,238.6704 157.1185,218.1964 			"/>
			<polygon fill="#99772A" points="156.1172,217.682 159.1691,216.1694 160.1966,216.6772 157.1185,218.1964 			"/>
		</g>
		<g>
			<polygon fill="#8E6B26" points="162.4977,229.4469 162.4977,232.7596 131.746,248.1415 131.746,244.8288 			"/>
			<polygon fill="#705318" points="130.7446,244.3144 130.7446,247.6271 131.746,248.1415 131.746,244.8288 			"/>
			<polygon fill="#99772A" points="130.7446,244.3144 161.4807,229.0793 162.4977,229.4469 131.746,244.8288 			"/>
		</g>
		<g>
			<polygon fill="#8E6B26" points="163.9601,225.1421 163.9601,228.4548 133.2084,243.8367 133.2084,240.524 			"/>
			<polygon fill="#705318" points="132.207,240.0096 132.207,243.3223 133.2084,243.8367 133.2084,240.524 			"/>
			<polygon fill="#99772A" points="132.207,240.0096 162.9431,224.7745 163.9601,225.1421 133.2084,240.524 			"/>
		</g>
		<g>
			<polygon fill="#8E6B26" points="162.0055,222.6136 162.0055,225.9263 131.2538,241.3082 131.2538,237.9955 			"/>
			<polygon fill="#705318" points="130.2525,237.4811 130.2525,240.7938 131.2538,241.3082 131.2538,237.9955 			"/>
			<polygon fill="#99772A" points="130.2525,237.4811 160.9885,222.246 162.0055,222.6136 131.2538,237.9955 			"/>
		</g>
		<g>
			<polygon fill="#8E6B26" points="162.9673,218.7865 162.9673,222.0992 132.2155,237.4811 132.2155,234.1684 			"/>
			<polygon fill="#705318" points="131.2142,233.654 131.2142,236.9667 132.2155,237.4811 132.2155,234.1684 			"/>
			<polygon fill="#99772A" points="131.2142,233.654 161.9502,218.4189 162.9673,218.7865 132.2155,234.1684 			"/>
		</g>
		<g>
			<path fill="#EFE6C5" d="M140.6593,237.9298c-0.1154-0.2209-0.3181-0.5326-0.5399-0.8251v4.6682l-1.032,0.5245v-3.6362
				c-0.2411,0.8749-0.5211,1.6926-0.8297,2.3223c-0.106-0.2642-0.3664-0.6628-0.5497-0.8688
				c0.5596-1.0462,1.061-2.6511,1.3021-3.9312l-1.0704,0.544v-1.061l1.1478-0.5833v-1.7938l1.032-0.5245v1.7938l0.8969-0.4558v1.061
				l-0.8969,0.4558v0.1351c0.2988,0.1953,1.0418,0.8496,1.2154,1.0222L140.6593,237.9298z M144.7393,234.0822
				c-0.0675,0.1498-0.1445,0.3043-0.2219,0.4599c0.6562,0.2351,1.6014,0.3147,2.45,0.1819
				c-0.1736,0.3584-0.3664,0.9488-0.4532,1.2819c-0.1736,0.0018-0.3569-0.0016-0.5403-0.005v2.7967l-1.0995,0.5588v-0.3369
				l-1.8711,0.9509v0.3471l-1.0512,0.5342v-2.6718c-0.1641,0.18-0.3279,0.3591-0.4822,0.5247
				c-0.1641-0.138-0.5113-0.348-0.743-0.4133c1.2252-1.2305,2.3439-2.7729,2.9227-4.0512L144.7393,234.0822z M143.6107,233.6622
				c-0.4433,0.8811-1.1282,1.943-1.707,2.6613c-0.1736-0.0948-0.5403-0.2948-0.7716-0.3508
				c0.5498-0.6359,1.1286-1.4508,1.4757-2.1479L143.6107,233.6622z M142.1833,234.5228l-1.0127,0.5147v-1.8134l2.3149-1.1765
				c-0.0962-0.2213-0.2313-0.4424-0.3471-0.6341l1.0029-0.8183c0.1834,0.2539,0.3954,0.5805,0.5113,0.8593l2.1028-1.0687v1.8134
				l-1.061,0.5392v-0.849l-3.511,1.7843V234.5228z M145.1638,235.9108c-0.4532-0.0681-0.8682-0.1855-1.2346-0.337
				c-0.3086,0.504-0.675,1.009-1.0512,1.4987L145.1638,235.9108z M144.8744,238.0833v-1.0995l-1.8711,0.9509v1.0995
				L144.8744,238.0833z M145.1347,232.5013c0.492,0.2133,1.1671,0.5355,1.4855,0.8173l-0.849,0.9812
				c-0.2796-0.2914-0.9354-0.6626-1.4274-0.9238L145.1347,232.5013z"/>
			<path fill="#EFE6C5" d="M156.0973,225.0106v8.6524l-1.1188,0.5686v-0.3471l-6.0285,3.0638v0.3471l-1.0803,0.549v-8.6524
				L156.0973,225.0106z M154.9785,232.8524v-6.2405l-6.0285,3.0638v6.2405L154.9785,232.8524z M152.3742,232.8738
				c-0.0291,0.2268-0.0192,0.5399,0,0.6943c-1.6398,1.2386-1.9194,1.4765-2.0836,1.6566c-0.0385-0.154-0.1637-0.3896-0.2603-0.4559
				c0.1445-0.141,0.3185-0.3354,0.3185-0.7022v-0.3471c-0.2607,0.2291-0.5211,0.4486-0.7622,0.6481
				c-0.1158-0.0958-0.3856-0.2862-0.5498-0.3575c0.6271-0.4436,1.2927-0.9845,1.8326-1.5102l-1.0995,0.5588v-1.3791l4.4464-2.2597
				v1.3791l-2.0738,1.0539c-0.2698,0.3594-0.6075,0.7336-0.9742,1.0936v0.8199L152.3742,232.8738z M154.6408,228.9339
				l-5.3629,2.7255v-0.6362l2.1511-1.0932v-0.3762l-1.6976,0.8627v-0.6173l1.6976-0.8627v-0.4053l1.0414-0.5293v0.4053
				l1.7749-0.9021v0.6173l-1.7749,0.9021v0.3762l2.1703-1.103V228.9339z M150.725,232.0816l2.4884-1.2646v-0.3958l-2.4884,1.2647
				V232.0816z M154.7468,231.079c-0.2509,0.3207-0.5305,0.627-0.8101,0.923c0.3377,0.0695,0.6365,0.1399,0.8486,0.2245
				l-0.7328,0.8067c-0.4826-0.2079-1.4953-0.4267-2.3054-0.5067l0.6947-0.7386c0.2698,0.027,0.5784,0.0728,0.8969,0.1136
				c0.2702-0.3211,0.5498-0.6658,0.7331-0.9231L154.7468,231.079z"/>
		</g>
	</g>
	<path fill="#585335" d="M154.2137,200.3206c-2.3205-4.1855-3.5064-12.8424-3.5064-12.8424l-23.5489-1.354l-15.1925,0.8735
		C118.8743,196.8636,131.431,204.2407,154.2137,200.3206z"/>
	<path fill="#443F28" d="M111.9659,184.3466l-8.3565,0.4804c0,0-1.4424,13.8187-4.5818,16.9582c0,0,9.4186,8.775,28.1171,8.775
		c18.6984,0,28.1171-8.775,28.1171-8.775c-0.3769-0.3769-0.7308-0.8831-1.0618-1.4799
		C131.4173,204.2254,118.8743,194.2123,111.9659,184.3466z"/>
	<g>
		<path fill="#227251" d="M237.7573,150.0818c-0.0013-6.1912-2.823-11.58-6.9966-14.4322c1.6048-2.714,2.558-6.0253,2.5573-9.6109
			c-0.0002-1.1716-0.104-2.3135-0.296-3.4164c1.1101-3.0407,1.7304-6.3992,1.7296-9.9339
			c-0.0023-11.5116-6.5438-21.1826-15.394-23.9213c-1.3238-1.6061-2.7702-3.0636-4.3163-4.3615
			c0.0726-0.6907,0.1225-1.3898,0.1224-2.1043c-0.0016-7.8348-4.5167-14.384-10.5803-16.1257
			c0.7325-1.8713,1.1537-3.9538,1.1533-6.1598c-0.0016-7.9959-5.386-14.4767-12.0263-14.4754
			c-1.8828,0.0004-3.6573,0.5366-5.2437,1.466c-2.3496-2.2379-5.3123-3.5838-8.5407-3.5831
			c-1.4087,0.0003-2.767,0.2579-4.0468,0.731c-0.5226-0.8508-1.0777-1.6701-1.657-2.4635
			c-0.7218-8.3515-6.5849-14.8628-13.7112-14.8613c-2.5278,0.0005-4.8888,0.8342-6.9253,2.2648
			c-0.9047-0.0951-1.8183-0.153-2.7435-0.1528c-5.6698,0.0012-10.9801,1.8373-15.5574,5.0284
			c-4.5786-3.1892-9.8898-5.0232-15.5595-5.022c-7.4945,0.0015-14.3685,3.1947-19.7388,8.5102
			c-7.1772,0.7858-13.6458,4.5061-18.5801,10.1564c-11.2806,2.9309-20.4747,12.5906-24.5511,25.3193
			c-1.5943-1.3969-3.5507-2.2307-5.6732-2.2303c-3.8507,0.0008-7.1646,2.7213-8.7155,6.6469
			c-0.675-0.4473-1.45-0.7029-2.2749-0.7027c-0.542,0.0001-1.0605,0.1156-1.5453,0.3179c-0.5065-0.7799-1.2863-1.2903-2.1722-1.2901
			c-1.5279,0.0003-2.7662,1.492-2.7658,3.3318c0.0003,1.4148,0.736,2.6158,1.7693,3.0986
			c-0.0026,0.0777-0.0097,0.1539-0.0097,0.2323c0.0002,0.7938,0.1361,1.5491,0.3801,2.2354
			c-2.4093,2.1155-3.981,5.5311-3.9802,9.3967c0.0009,4.5123,2.1397,8.4155,5.259,10.3436
			c-2.7343,4.912-4.5277,10.6456-5.0734,16.8288c-0.1655,0.2833-0.3304,0.567-0.4895,0.856
			c-0.9648-0.3891-1.994-0.6085-3.0676-0.6083c-0.009,0-0.0176,0.0016-0.0266,0.0016c-1.6863-1.7287-3.8682-2.7771-6.2562-2.7766
			c-5.3348,0.0011-9.6584,5.2095-9.6571,11.6334c-2.6095,0.0005-4.7245,2.5483-4.7238,5.6906
			c0.0004,1.9945,0.8547,3.7463,2.1449,4.7619c-0.1908,0.6178-0.3001,1.2834-0.2999,1.9812
			c0.0006,3.1423,2.1166,5.6891,4.7261,5.6886c0.3066-0.0001,0.6055-0.0382,0.8958-0.1054c1.5321,3.9884,4.876,6.7612,8.7651,6.7604
			c0.6045-0.0001,1.1936-0.0757,1.7673-0.2037c-0.001,0.0684-0.0085,0.1347-0.0085,0.2034
			c0.0009,4.3723,2.0076,8.1764,4.9698,10.1626c0.9712,5.1893,4.8158,9.0684,9.4186,9.0674c0.1788,0,0.3532-0.0207,0.5296-0.0323
			c4.1045,3.1708,8.8649,5.2126,13.9849,5.761c1.6692,1.6552,3.8073,2.6494,6.1383,2.6489
			c2.0185-0.0004,3.8908-0.7484,5.4403-2.0236c1.55,1.2745,3.4227,2.0217,5.4411,2.0213c1.3218-0.0003,2.5808-0.322,3.7281-0.9009
			c1.6493,2.4939,4.1878,4.0969,7.0409,4.0963c1.1529-0.0002,2.2513-0.2713,3.2643-0.7472
			c1.7949,0.4368,3.6478,0.6775,5.5402,0.7253c2.124,2.1107,4.8471,3.3786,7.816,3.378c3.0166-0.0006,5.7752-1.3157,7.9128-3.4887
			c0.3069,0.0756,0.621,0.1275,0.9466,0.1274c1.1152-0.0002,2.1305-0.4781,2.9373-1.257c2.0888,4.5785,6.1296,7.6831,10.7739,7.6821
			c1.6533-0.0004,3.2279-0.3997,4.6675-1.1132c0.2443,2.6308,2.096,4.6767,4.3459,4.6762c1.9063-0.0004,3.523-1.4718,4.1217-3.5207
			c0.7965,1.3036,2.0757,2.153,3.5227,2.1528c1.817-0.0004,3.3743-1.3351,4.0347-3.2342c2.2536,3.1774,5.5992,5.198,9.3411,5.1973
			c3.6275-0.0007,6.8771-1.9062,9.125-4.9176c0.9742,0.4815,2.0392,0.751,3.1574,0.7507c2.8663-0.0006,5.3931-1.7467,6.8892-4.4029
			c1.4869,1.6695,3.4762,2.6986,5.6695,2.6982c2.1331-0.0004,4.0722-0.9755,5.5446-2.5649
			c0.7554,0.7479,1.7224,1.1971,2.7767,1.1969c2.0104-0.0004,3.6993-1.6361,4.2106-3.8609
			c4.6158-0.9084,8.8905-3.0341,12.5863-6.1035c0.5342,0.2797,1.1229,0.4368,1.7426,0.4367
			c1.334-0.0003,2.5264-0.7219,3.3285-1.8559c1.6135,1.4575,3.6128,2.3293,5.7851,2.3288c4.2261-0.0009,7.8084-3.2749,9.118-7.827
			c1.5285,1.2204,3.36,1.9346,5.3313,1.9342c5.3348-0.0011,9.6585-5.2095,9.6572-11.6335c-0.0003-1.5307-0.2525-2.9885-0.699-4.327
			C237.1002,155.8421,237.7579,153.0567,237.7573,150.0818z"/>
		<path fill="#65AE3C" d="M47.7483,158.376c7.0007-1.2767,0.3952-13.1455,7.5908-7.7511c7.1955,5.3943,4.9608,4.8997,7.694-5.495
			s-9.3031-14.7687-13.6814-23.9908s-17.2984,0.0035-17.2984,0.0035c-0.1655,0.2833-0.3304,0.567-0.4895,0.856
			c-0.9648-0.389-1.994-0.6085-3.0676-0.6083c-0.009,0-0.0176,0.0016-0.0266,0.0017c-1.6863-1.7287-3.8682-2.7771-6.2562-2.7766
			c-5.3348,0.0011-9.6584,5.2096-9.6571,11.6334c-2.6095,0.0005-4.7245,2.5483-4.7238,5.6906
			c0.0002,0.9446,0.1971,1.8311,0.536,2.6143c2.2949,1.0265,5.4375,1.6555,9.745,1.4217c0,0,3.1497,9.7908,15.2206,11.3358
			C36.6976,157.359,40.7476,159.6526,47.7483,158.376z"/>
		<path fill="#65AE3C" d="M48.3647,106.638c10.1187,12.2217,23.1839,4.9963,23.1839,4.9963
			c7.1662,2.4705,6.3198-13.854,6.3198-13.854c8.0083-1.6877-2.9534-13.9091-2.9534-13.9091
			c2.1061-6.7446-6.7129-6.6529-6.7129-6.6529c-1.4561-11.6289-11.3469-4.2845-11.3469-4.2845
			c-1.5943-1.3969-3.5507-2.2307-5.6732-2.2303c-3.8507,0.0008-7.1646,2.7213-8.7155,6.6469
			c-0.675-0.4473-1.45-0.7029-2.2749-0.7027c-0.542,0.0001-1.0605,0.1155-1.5453,0.318c-0.5065-0.78-1.2863-1.2903-2.1722-1.2901
			c-1.5279,0.0003-2.7662,1.4919-2.7658,3.3318c0.0003,1.4148,0.736,2.6158,1.7693,3.0986
			c-0.0026,0.0777-0.0097,0.1539-0.0097,0.2323c0.0002,0.7938,0.1361,1.5491,0.3801,2.2355
			c-2.4093,2.1155-3.981,5.5311-3.9802,9.3967c0.0009,4.5123,2.1397,8.4155,5.259,10.3436
			C41.3578,109.4542,48.3647,106.638,48.3647,106.638z"/>
		<path fill="#75B93C" d="M90.0179,50.056c0,0,0.4588,7.3165,14.6343,5.4844c0,0,3.7863,20.1326,18.1278,15.0931
			c0,0,16.174,11.2236,27.1467,0.8032c0,0,26.1733,3.6917,26.0629-11.7954c0,0,12.3468,0.1411,8.2287-12.0479
			c0,0,3.0883-0.6231,0.8624-2.9484c-1.5931-0.7789-3.3287-1.222-5.1547-1.2217c-1.4087,0.0003-2.767,0.2579-4.0468,0.731
			c-0.5226-0.8508-1.0777-1.6701-1.657-2.4635c-0.7218-8.3515-6.5849-14.8628-13.7112-14.8613
			c-2.5278,0.0005-4.8889,0.8342-6.9254,2.2648c-0.9047-0.095-1.8183-0.153-2.7435-0.1528
			c-5.6698,0.0012-10.9801,1.8373-15.5574,5.0284c-4.5786-3.1892-9.8898-5.0232-15.5595-5.022
			c-7.4945,0.0015-14.3685,3.1947-19.7388,8.5102c-7.1772,0.7858-13.6458,4.5061-18.5801,10.1564
			C81.4063,47.6145,78.5863,52.802,90.0179,50.056z"/>
		<path fill="#5AA237" d="M162.4915,165.8891c0,0,9.4127,2.3634,16.7754-2.7859c0,0,5.0978-1.1837,4.5303-6.2816
			c0,0,7.9315,6.0383,12.7455,1.8645c0,0,4.9152,2.0429,10.4827-0.5095c-8.0045-2.4865-10.3174-12.3524-10.3174-12.3524
			c-20.4324,0.0042-19.068-19.7942-19.068-19.7942c-10.0031,7.6057-16.8081-0.7969-14.8088-9.0133
			c1.9993-8.2163,12.0045-5.4036,12.0045-5.4036c-0.0008-4.0126,5.6942-6.0921,5.6942-6.0921
			c-7.0257-7.6081,5.3668-11.1227,5.3668-11.1227c15.3167-16.3929,33.4607-5.6311,33.4607-5.6311
			c-1.3238-1.6061-2.7702-3.0636-4.3163-4.3615c0.0726-0.6907,0.1225-1.3898,0.1224-2.1043
			c-0.0016-7.8348-4.5167-14.384-10.5803-16.1256c0.7325-1.8713,1.1537-3.9538,1.1533-6.1598
			c-0.0016-7.9959-5.386-14.4767-12.0263-14.4754c-1.8828,0.0004-3.6573,0.5367-5.2437,1.466
			c-1.0207-0.9722-2.1624-1.7632-3.386-2.3614c2.2259,2.3252-0.8624,2.9484-0.8624,2.9484
			c4.1181,12.189-8.2287,12.0479-8.2287,12.0479c0.1105,15.4871-26.0629,11.7954-26.0629,11.7954
			C138.954,81.8572,122.78,70.6335,122.78,70.6335c-14.3416,5.0395-18.1278-15.0931-18.1278-15.0931
			c-14.1755,1.832-14.6343-5.4844-14.6343-5.4844c-11.4316,2.746-8.6116-2.4415-8.6116-2.4415
			C70.1257,50.5453,60.9316,60.205,56.8552,72.9337c0,0,9.8909-7.3445,11.3469,4.2845c0,0,8.8191-0.0916,6.7129,6.6529
			c0,0,10.9617,12.2215,2.9534,13.9091c0,0,0.8464,16.3246-6.3198,13.854c0,0-13.0652,7.2253-23.1839-4.9963
			c0,0-7.0069,2.8162-11.238-2.3241c-2.7343,4.912-4.5277,10.6456-5.0734,16.8288c0,0,12.92-9.2256,17.2984-0.0035
			s16.4146,13.5961,13.6814,23.9908c-1.0404,3.9569-1.3613,6.4756-1.7561,7.7846c0.0002,0.0001,7.8643,5.2856,10.8226-2.5562
			c0,0,0.5126,5.1924,9.0197-0.0018c0,0,1.7084,9.5381,16.8076,8.3499c-1.6338-5.4759,1.2988-10.6159,1.2988-10.6159
			c9.1035-16.1379,23.5686-7.7199,23.5686-7.7199c10.1253-6.9406,19.553,5.4488,19.553,5.4488
			c10.1634-3.6561,13.689,9.7224,13.689,9.7224s3.9046,8.2386,0.0026,12.576c0,0-0.5017,6.1209-5.6275,8.91
			c0.3307-0.0761,0.6688-0.1593,1.0114-0.2471C154.4766,175.9582,163.3788,172.9415,162.4915,165.8891z"/>
		<path fill="none" d="M232.1643,150.3255c-2.5166,1.7292-4.527,2.5549-4.527,2.5549S229.3337,152.3937,232.1643,150.3255z"/>
		<path fill="#75B93C" d="M230.7608,135.6496c1.6048-2.714,2.558-6.0252,2.5573-9.6109c-0.0002-1.1716-0.104-2.3135-0.296-3.4165
			c1.1101-3.0407,1.7304-6.3992,1.7296-9.9339c-0.0024-11.5116-6.5438-21.1826-15.3941-23.9213c0,0-18.144-10.7618-33.4607,5.6311
			c0,0-12.3926,3.5147-5.3668,11.1227c0,0-5.695,2.0796-5.6942,6.0921c0,0-10.0053-2.8127-12.0045,5.4036
			c-1.9993,8.2163,4.8057,16.6189,14.8088,9.0133c0,0-1.3644,19.7984,19.068,19.7942c0,0,3.2637,13.9334,15.465,12.8587
			c0,0,8.5092,5.4927,15.4642-5.8026c0,0,2.0104-0.8257,4.527-2.5549c1.4391-1.0516,3.1661-2.5045,5.1234-4.5256
			C236.3237,141.4583,233.9353,137.8191,230.7608,135.6496z"/>
		<path fill="#5AA237" d="M232.1643,150.3255c1.6307-1.1205,3.472-2.6169,5.1234-4.5256
			C235.3304,147.8209,233.6035,149.2739,232.1643,150.3255z"/>
		<path fill="#75B93C" d="M99.7789,102.1253c0,0-10.8843,0.9789-11.0103,7.2867c0,0-0.7754,6.6603,7.4382,5.5907
			c0,0,4.1933,10.8186,15.0183,7.2529c0,0,4.7993,10.2586,16.9803,5.1094c0,0,8.0239-4.2789,4.9303-10.9958
			c0,0,9.1555,4.5814,13.7564-2.23c0,0,1.626-8.3546-2.2589-10.7904c0,0,2.0398-20.1972-13.6509-15.6914
			c0,0-0.9005-6.6047-5.3617-7.187c0,0-10.324-3.2538-13.8411,5.2801c0,0-7.2645-4.7607-8.6183,0.2879
			c0,0-8.8155,3.952-6.1286,8.726C97.0327,94.7645,93.3558,103.6865,99.7789,102.1253z"/>
		<path fill="none" d="M138.574,177.4842c5.4844,1.5129,9.2486,0.9522,11.8373-0.4564
			C144.5537,178.3764,140.5896,177.9387,138.574,177.4842z"/>
		<path fill="#5AA237" d="M138.574,177.4842c-0.5059-0.1395-1.0245-0.2945-1.56-0.4702
			C137.014,177.014,137.539,177.2509,138.574,177.4842z"/>
		<path fill="#65AE3C" d="M156.0388,168.1178c3.902-4.3374-0.0026-12.576-0.0026-12.576s-3.5256-13.3784-13.689-9.7224
			c0,0-9.4277-12.3894-19.553-5.4488c0,0-14.4651-8.418-23.5686,7.7199c0,0-6.5025,11.3671,5.2076,18.3032
			c0,0-1.5063,9.1237,8.1378,9.3303c0,0,14.7663,11.7689,24.4429,1.2901c0.5355,0.1757,1.0541,0.3307,1.56,0.4702
			c2.0156,0.4545,5.9797,0.8922,11.8373-0.4564C155.5371,174.2387,156.0388,168.1178,156.0388,168.1178z"/>
		<path fill="#90CF41" d="M107.7971,40.4946c0,0,4.1793-10.2509,22.099-5.1296c0,0,6.4058-1.721,8.4636,1.8433
			c0,0,1.3827-8.394,14.4987-5.5494c0,0,18.6549,3.0156,8.7179,15.7347c0,0-8.8951,14.9232-19.8311,9.1943
			c0,0-14.5192,5.2933-14.0299-3.0831c0,0-16.1416,1.2644-14.0907-8.8451C113.6245,44.6596,101.625,45.8747,107.7971,40.4946z"/>
		<path fill="#90CF41" d="M123.4394,142.6762c0,0-8.5189-5.5575-12.0451,2.889s4.813,10.5829,9.5165,8.1231
			c0,0-4.0612,6.4153,3.7436,8.6588c0,0,14.6863,1.475,11.2971-7.3349c0,0,1.2099,1.1129,2.3856-0.0005
			c1.1758-1.1134,4.9171-3.3593,1.6023-6.4589S130.4599,139.8952,123.4394,142.6762z"/>
		<path fill="#90CF41" d="M193.3312,94.1783c0,0,10.2066-7.7558,19.3222-2.0086c0,0,10.3901-1.9292,12.9429,2.002
			c0,0,10.018,13.301,2.1151,19.5496c0,0-2.2857,3.1535-2.7975-2.1184s-2.5551-7.2873-2.5551-7.2873s-0.5084,11.2486-12.511,7.2904
			c0,0-16.5965,8.1604-18.8963,0.0039c0,0-7.995-6.3194-3.8715-11.3034C187.0801,100.3064,185.5004,95.3966,193.3312,94.1783z"/>
		<path fill="#90CF41" d="M45.2128,78.5147c0,0,2.8204-5.7397,11.1152-2.6292c0,0,3.1178-2.1423,4.7357-0.001
			c0,0,6.7937,0.8463,5.1773,6.3461c0,0,3.4524,6.4475-2.8192,8.4115c0,0-14.4852,5.3407-14.4866-1.6145
			c0,0-7.2785,1.1337-6.9559-3.2336c0,0-1.7803-5.1756-3.7201,0.486C38.2591,86.2801,35.5077,78.0314,45.2128,78.5147z"/>
		<path fill="#90CF41" d="M76.1475,54.4458c0,0-8.6039,2.6907-8.9631,8.9553c0,0,2.5126,5.9133,5.6357-1.1838
			C72.8201,62.2172,79.2079,55.5365,76.1475,54.4458z"/>
		<path fill="#2A835A" d="M87.8947,64.669c0,0-8.568,2.8029-8.8453,9.0716c0,0,2.5896,5.88,5.6197-1.2574
			C84.6691,72.4833,90.9691,65.7197,87.8947,64.669z"/>
		<path fill="#2A835A" d="M94.7453,71.7472c0,0-8.1359,3.8825-7.604,10.1347c0,0,3.325,5.4977,5.4111-1.9703
			C92.5524,79.9117,97.9294,72.3934,94.7453,71.7472z"/>
		<path fill="#2A835A" d="M172.3054,79.2644c0,0,8.1375,3.8791,7.6082,10.1316c0,0-3.3227,5.4991-5.4119-1.9681
			C174.5016,87.4279,169.1216,79.9118,172.3054,79.2644z"/>
		<path fill="#2A835A" d="M66.7866,116.0125c0,0-7.4815,5.0293-6.0419,11.1368c0,0,4.0924,4.953,5.0653-2.7396
			C65.8099,124.4097,70.0309,116.1866,66.7866,116.0125z"/>
		<path fill="#2A835A" d="M73.0965,122.2271c0,0-5.9453,6.7765-2.9907,12.3122c0,0,5.2237,3.7408,4.1955-3.9446
			C74.3013,130.5946,76.2773,121.5651,73.0965,122.2271z"/>
		<path fill="#ABEC56" d="M183.2584,130.1882c0,0-8.1359,3.8825-7.604,10.1347c0,0,3.325,5.4977,5.4111-1.9703
			C181.0655,138.3527,186.4424,130.8344,183.2584,130.1882z"/>
		<path fill="#90CF41" d="M112.2335,107.7032c0,0-8.1359,3.8825-7.604,10.1347c0,0,3.325,5.4977,5.4111-1.9703
			C110.0406,115.8677,115.4175,108.3494,112.2335,107.7032z"/>
		<path fill="#90CF41" d="M113.3579,162.3666c0,0-5.4408,3.8721-4.2541,8.3663c0,0,3.1283,3.5869,3.6968-2.1288
			C112.8006,168.6041,115.7638,162.4314,113.3579,162.3666z"/>
		<path fill="#459B3F" d="M18.9199,137.5669c0,0-5.4408,3.8721-4.2541,8.3663c0,0,3.1283,3.5869,3.6968-2.1288
			C18.3626,143.8044,21.3258,137.6317,18.9199,137.5669z"/>
		<path fill="#AAE543" d="M136.9481,38.9306c0,0-5.6898-3.9679-10.1872,0.0021c0,0-4.6308-1.3221-6.6151,0.0014
			c0,0-3.1743,4.5695,10.3207,5.7221c0,0,3.9702,5.3883,13.0981,1.1527c0,0,9.5254-1.7219,7.9368-6.2198
			c0,0-3.7054-4.4975-9.2615-1.8503C142.24,37.7388,139.4954,40.1632,136.9481,38.9306z"/>
		<path fill="#90CF41" d="M202.4303,140.8646c0,0,2.8528-10.3591,17.1277-8.0425c0,0,5.2657-1.9638,8.0756,1.9611
			c0,0,5.574,3.7651,3.1218,6.0756c0,0,0.0458,2.1507-7.2703,0.0015c0,0-5.5307,2.9931-7.6723,0.9575
			c-2.1416-2.0356,0.1801,8.1345-5.8867,7.2436C203.8592,148.1704,201.1823,146.0489,202.4303,140.8646z"/>
		<path fill="#90CF41" d="M113.9262,89.0855c0,0,5.2785-7.9751,11.9735-3.7699c6.695,4.2053,3.9363,6.8711,3.9363,6.8711
			s5.1368-3.9841,5.9256,2.385c0.7888,6.3691,1.6413,14.4952-5.9228,11.2023c0,0-3.9365-7.3886-19.3002-3.1139
			c0,0-8.9089-0.1747-8.0312-3.9086C103.3852,95.0176,99.8696,87.3313,113.9262,89.0855z"/>
		<path fill="#AAE543" d="M121.252,144.5581c0,0-2.895,5.1474,4.3809,5.1061c0,0,5.3276,3.0271,7.9256-0.0016
			c0,0,3.377-5.2376-2.5996-5.1065C130.9589,144.5561,124.5372,141.1793,121.252,144.5581z"/>
		<path fill="#AAE543" d="M202.3979,96.2017c0,0-2.3253,6.9272,6.5081,5.1903c0,0,7.1768,2.4441,9.6322-1.8392
			c0,0,2.8903-7.1485-4.3432-5.6037C214.195,93.9492,205.6074,91.3337,202.3979,96.2017z"/>
		<path fill="#90CF41" d="M27.4766,123.7134c0,0-7.7207-7.5144-12.3911,0.8151c0,0-3.0453,8.3291,4.6739,8.7338
			c0,0,3.0481,5.484,10.3602,1.623s1.7563-0.8129,1.7563-0.8129s1.6962-2.8442,7.7904-2.2361c0,0,1.5113,4.3329,3.7273,1.2423
			c4.569-6.3724,0.4464-11.9417-5.4872-12.3901C37.9064,120.6885,31.6088,126.3162,27.4766,123.7134z"/>
		<path fill="#2E8849" d="M81.1193,150.3564c-8.5071,5.1943-9.0197,0.0018-9.0197,0.0018
			c-2.9583,7.8418-10.8224,2.5563-10.8226,2.5562c-0.6424,2.1297-1.4814,1.0513-5.9378-2.2896
			c-7.1956-5.3944-0.5901,6.4745-7.5908,7.7511s-11.0507-1.017-14.4145-7.0647c0,0,6.5024,14.2357,25.0722,12.6844
			c0,0,7.7398,11.1405,29.7133,5.565c0,0,4.9536,7.7365,13.3097,5.8778c0,0,5.5717,3.3599,11.1421,0.2855
			c-9.6441-0.2065-8.1378-9.3303-8.1378-9.3303c-3.8362-2.2722-5.7104-5.0194-6.5064-7.6873l0,0
			C82.8277,159.8945,81.1193,150.3564,81.1193,150.3564z"/>
		<path fill="none" d="M151.4227,176.7807c-0.3426,0.0878-0.6807,0.1709-1.0114,0.2471
			C150.4113,177.0278,150.7973,176.9492,151.4227,176.7807z"/>
		<path fill="#2E8849" d="M212.1731,158.6829c-1.9332,0.1703-3.6405-0.0381-5.1476-0.5063
			c-5.5675,2.5524-10.4827,0.5095-10.4827,0.5095c-4.814,4.1738-12.7455-1.8645-12.7455-1.8645
			c0.5675,5.0979-4.5303,6.2816-4.5303,6.2816c-7.3628,5.1493-16.7754,2.7859-16.7754,2.7859
			c0.8872,7.0524-8.0149,10.069-11.0689,10.8916c2.6196-0.671,5.5876-1.6907,8.9076-3.2092c0,0,28.5979,7.9131,35.634-6.6064
			c0,0,22.8776,2.635,31.673-14.0847C220.6822,164.1756,212.1731,158.6829,212.1731,158.6829z"/>
		<path fill="#90CF41" d="M182.1427,70.3253c0,0,4.7252,0.9384,8.1596,6.3708c0,0,0.619,3.6261-1.4764,2.6173
			c0,0-3.9564-4.918-5.0383-6.353C183.7876,72.9604,179.7818,70.2424,182.1427,70.3253z"/>
		<path fill="#90CF41" d="M158.7709,135.542c0,0-2.4335-4.1847-0.3415-3.0875c0,0,3.8527,2.8922,4.5957,9.2762
			c0,0-1.0124,3.5365-2.4642,1.7197"/>
		<path fill="#90CF41" d="M151.6112,132.5023c0,0,3.8527,2.8922,4.5957,9.2762c0,0-1.0124,3.5365-2.4642,1.7197
			c0,0-1.4362-6.1463-1.7899-7.9083C151.9527,135.5899,149.5192,131.4051,151.6112,132.5023z"/>
		<path fill="#90CF41" d="M184.842,64.9664c0,0,4.7977-0.4364,9.6284,3.8028c0,0,1.6194,3.3029-0.6759,2.928
			c0,0-5.1859-3.5982-6.6294-4.6686C187.1651,67.0286,182.5541,65.5546,184.842,64.9664z"/>
		<path fill="#90CF41" d="M168.3032,47.4391c0,0,4.7977-0.4364,9.6284,3.8028c0,0,1.6194,3.303-0.6759,2.928
			c0,0-5.1859-3.5982-6.6294-4.6686C170.6263,49.5013,166.0153,48.0273,168.3032,47.4391z"/>
		<path fill="#AAE543" d="M20.9252,123.105c0,0-1.4084,2.5042,2.1313,2.4841c0,0,2.5919,1.4727,3.8558-0.0008
			c0,0,1.6429-2.5481-1.2647-2.4843C25.6477,123.1041,22.5235,121.4613,20.9252,123.105z"/>
		<path fill="#2A835A" d="M154.6568,87.4994c0,0,6.296,3.1868,4.9867,8.3292c0,0-1.3766,1.918-3.3231,1.0965
			C156.3204,96.9251,151.2393,89.2679,154.6568,87.4994z"/>
		<path fill="#2A835A" d="M162.5092,84.0827c0,0,6.296,3.1868,4.9867,8.3292c0,0-1.3766,1.918-3.3231,1.0965
			C164.1729,93.5084,159.0917,85.8512,162.5092,84.0827z"/>
		<path fill="#459B3F" d="M179.4241,155.2105c0,0,6.296,3.1868,4.9867,8.3292c0,0-1.3766,1.918-3.3231,1.0965
			C181.0877,164.6362,176.0065,156.979,179.4241,155.2105z"/>
		<path fill="#459B3F" d="M197.8983,154.6478c0,0,6.296,3.1868,4.9867,8.3292c0,0-1.3766,1.918-3.323,1.0965
			C199.562,164.0734,194.4808,156.4162,197.8983,154.6478z"/>
		<path fill="#459B3F" d="M234.2367,143.0507c0,0,6.5531,3.317,5.1904,8.6694c0,0-1.4328,1.9963-3.4588,1.1412
			C235.9683,152.8613,230.6796,144.8914,234.2367,143.0507z"/>
		<path fill="#459B3F" d="M167.1118,160.0332c0,0,6.8869,3.6934,5.3729,9.815c0,0-1.5427,2.2957-3.6741,1.3481
			C168.8106,171.1963,163.3242,162.1803,167.1118,160.0332z"/>
		<path fill="#459B3F" d="M87.4238,151.0179c0,0-6.8854,3.6962-5.3689,9.8171c0,0,1.5436,2.2951,3.6747,1.3466
			C85.7296,162.1816,91.2123,153.1634,87.4238,151.0179z"/>
		<path fill="#459B3F" d="M74.2266,148.0956c0,0-6.8854,3.6962-5.3689,9.8171c0,0,1.5436,2.2951,3.6747,1.3466
			C72.5324,159.2593,78.0151,150.241,74.2266,148.0956z"/>
		<path fill="#AAE543" d="M115.8879,88.6202c0,0,1.5162-1.9319,4.3801-1.2508c2.8639,0.6811,4.8529,2.5595,3.5747,3.68
			c-1.2782,1.1205-5.113,2.8547-7.2439,1.1362C114.4678,90.467,115.8879,88.6202,115.8879,88.6202z"/>
	</g>
</g>
</svg>
