<?xml version="1.0" encoding="iso-8859-1"?>
<!-- Generator: Adobe Illustrator 24.0.3, SVG Export Plug-In . SVG Version: 6.00 Build 0)  -->
<svg version="1.1" id="&#x5716;&#x5C64;_1" xmlns="http://www.w3.org/2000/svg" xmlns:xlink="http://www.w3.org/1999/xlink" x="0px"
	 y="0px" viewBox="0 0 25 50" enable-background="new 0 0 25 50" xml:space="preserve">
<polygon fill="#E0E0E0" points="12.5,50 24.6553,43.9224 12.5,37.8447 0.3447,43.9224 "/>
<polygon fill="#FBD786" points="12.5,47.2426 24.6553,41.165 12.5,35.0873 0.3447,41.165 "/>
<polygon fill="#FBD786" points="12.5,16.8009 18.2209,13.9405 12.5,11.08 6.7791,13.9405 "/>
<polygon fill="#D69A30" points="0.3447,41.165 0.3447,43.9224 12.5,50 12.5,47.2426 "/>
<polygon fill="#EAB959" points="12.5,47.2426 12.5,50 24.6553,43.9224 24.6553,41.165 "/>
<polygon fill="#E0E0E0" points="12.5,18.1502 21.2802,13.7601 12.5,9.37 3.7198,13.7601 "/>
<polygon fill="#FBD786" points="12.5,16.8009 21.2802,12.4109 12.5,8.0208 3.7198,12.4109 "/>
<polygon fill="#D69A30" points="3.7198,12.4109 3.7198,13.7601 12.5,18.1502 12.5,16.8009 "/>
<polygon fill="#EAB959" points="12.5,16.8009 12.5,18.1502 21.2802,13.7601 21.2802,12.4109 "/>
<polygon fill="#D69A30" points="6.7791,13.9405 4.0518,41.165 12.5,45.4435 12.5,16.8009 "/>
<polygon fill="#EAB959" points="12.5,16.8009 12.5,45.4435 20.9482,41.165 18.2209,13.9405 "/>
<polygon fill="#BF801B" points="6.6504,15.2253 6.5217,16.5102 12.5,19.4994 12.5,18.1501 "/>
<polygon fill="#D69A30" points="18.3496,15.2253 18.4783,16.5102 12.5,19.4994 12.5,18.1501 "/>
<path fill="#D69A30" d="M9.2162,8.6523C7.5287,1.3019,12.5,0,12.5,0C8.6505,0,5.5298,3.1207,5.5298,6.9702
	s3.1207,6.9703,6.9702,6.9703c2.3683,0,4.4573-1.1837,5.7169-2.989C12.2634,14.3493,9.2162,8.6523,9.2162,8.6523z"/>
<path fill="#EAB959" d="M12.5,0c0,0-4.9713,1.3019-3.2838,8.6523c0,0,3.0472,5.697,9.0007,2.2991
	c0.7878-1.1292,1.2533-2.5,1.2533-3.9813C19.4702,3.1207,16.3495,0,12.5,0z"/>
<ellipse transform="matrix(0.7071 -0.7071 0.7071 0.7071 2.4449 11.8189)" fill="#FBD786" cx="15.4892" cy="2.9582" rx="1.0001" ry="1.3517"/>
</svg>
