<?xml version="1.0" encoding="iso-8859-1"?>
<!-- Generator: Adobe Illustrator 24.0.3, SVG Export Plug-In . SVG Version: 6.00 Build 0)  -->
<svg version="1.1" id="&#x5716;&#x5C64;_1" xmlns="http://www.w3.org/2000/svg" xmlns:xlink="http://www.w3.org/1999/xlink" x="0px"
	 y="0px" viewBox="0 0 250 250" enable-background="new 0 0 250 250" xml:space="preserve">
<g>
	<polygon fill="#724C4A" points="89.004,224.4003 89.004,170.3626 88.7369,170.2349 88.7369,224.275 	"/>
	<polygon fill="#DDC8BC" points="124.374,242.1516 124.374,142.7161 66.5584,77.9146 9.6473,85.3523 9.6473,184.7878 	"/>
	<polygon fill="#8B5C57" points="105.011,232.3447 105.011,178.3771 72.9861,162.3473 72.9861,216.4575 	"/>
	<polygon fill="#7F4949" points="105.0165,178.3771 105.0165,163.7597 72.9916,147.73 72.9916,162.3924 	"/>
	<polygon fill="#7F4949" points="72.9916,184.9194 72.9916,165.8456 31.2031,144.9288 31.2031,164.0614 	"/>
	<polygon fill="#512626" points="43.9652,167.6859 43.9652,158.0838 33.4467,152.8188 33.4467,162.4506 	"/>
	<polygon fill="#5276D1" points="41.0906,122.3507 41.0906,107.7291 28.0116,101.189 28.0116,115.8557 	"/>
	<polygon fill="#5276D1" points="63.0372,133.3436 63.0372,118.722 49.9582,112.1818 49.9582,126.8486 	"/>
	<polygon fill="#5276D1" points="84.9838,144.3365 84.9838,129.7148 71.9047,123.1747 71.9047,137.8414 	"/>
	<polygon fill="#512626" points="43.9652,154.4594 43.9652,144.8573 33.4467,139.5923 33.4467,149.2241 	"/>
	<polygon fill="#512626" points="57.5863,174.0799 57.5863,164.4778 47.0677,159.2128 47.0677,168.8446 	"/>
	<polygon fill="#512626" points="57.5863,160.8534 57.5863,151.2513 47.0677,145.9863 47.0677,155.6181 	"/>
	<polygon fill="#512626" points="71.2074,180.4739 71.2074,170.8718 60.6888,165.6069 60.6888,175.2386 	"/>
	<polygon fill="#512626" points="71.2074,167.2474 71.2074,157.6453 60.6888,152.3803 60.6888,162.0121 	"/>
	<polygon fill="#724C4A" points="87.2908,182.4559 87.2908,175.3378 74.5871,168.9791 74.5871,176.1538 	"/>
	<polygon fill="#724C4A" points="87.2908,191.8539 87.2908,184.7358 74.5871,178.3771 74.5871,185.5517 	"/>
	<polygon fill="#724C4A" points="87.2908,201.2519 87.2908,194.1338 74.5871,187.775 74.5871,194.9497 	"/>
	<polygon fill="#724C4A" points="87.2908,210.6499 87.2908,203.5317 74.5871,197.173 74.5871,204.3477 	"/>
	<polygon fill="#724C4A" points="87.2908,220.0478 87.2908,212.9297 74.5871,206.571 74.5871,213.7456 	"/>
	<polygon fill="#724C4A" points="103.1221,190.2245 103.1221,183.1064 90.4183,176.7477 90.4183,183.9223 	"/>
	<polygon fill="#724C4A" points="103.1221,199.6225 103.1221,192.5043 90.4183,186.1456 90.4183,193.3203 	"/>
	<polygon fill="#724C4A" points="103.1221,209.0204 103.1221,201.9023 90.4183,195.5436 90.4183,202.7182 	"/>
	<polygon fill="#724C4A" points="103.1221,218.4184 103.1221,211.3003 90.4183,204.9416 90.4183,212.1162 	"/>
	<polygon fill="#724C4A" points="103.1221,227.8164 103.1221,220.6983 90.4183,214.3395 90.4183,221.5142 	"/>
	<polygon fill="#FFF5EE" points="124.374,142.7161 239.1008,84.932 239.1008,184.7878 124.374,242.1516 	"/>
	<polygon fill="#B3C2FF" points="239.1008,175.5583 122.1012,234.4774 124.5844,235.7818 241.5839,176.8619 	"/>
	<polygon fill="#8099E8" points="124.5844,235.7818 241.5839,176.852 241.5839,186.0281 124.5844,244.5376 	"/>
	<polygon fill="#B3C2FF" points="102.7382,224.7346 105.011,223.5327 124.374,233.3328 122.1012,234.4774 	"/>
	<polygon fill="#5276D1" points="4.6959,175.8285 70.7133,208.7073 70.7133,217.4631 4.6959,184.5842 	"/>
	<polygon fill="#B3C2FF" points="7.3842,177.1674 9.6571,175.9655 72.9861,207.5627 70.7133,208.7073 	"/>
	<polygon fill="#8099E8" points="70.7133,208.7073 72.9861,207.5627 72.9861,216.4575 70.7133,217.4631 	"/>
	<polygon fill="#B3C2FF" points="7.3842,177.1674 4.6959,175.8285 9.6473,172.908 9.6571,175.9655 	"/>
	<polygon fill="#832521" points="119.3595,149.0787 121.5994,150.1994 121.5994,234.1731 119.3595,233.0524 	"/>
	<polygon fill="#9B3A3A" points="123.8394,149.0787 121.5994,150.1994 121.5994,234.1731 123.8394,233.0524 	"/>
	<polygon fill="#603938" points="87.2908,181.5281 75.3676,175.613 75.3676,169.3698 74.5871,168.979 74.5871,175.2259 
		74.5871,176.1537 75.3676,176.541 75.3676,176.5408 87.2908,182.4559 	"/>
	<polygon fill="#603938" points="103.122,189.2967 91.1988,183.3816 91.1988,177.1384 90.4184,176.7476 90.4184,182.9945 
		90.4184,183.9223 91.1988,184.3096 91.1988,184.3094 103.122,190.2245 	"/>
	<polygon fill="#603938" points="103.122,198.6947 91.1988,192.7796 91.1988,186.5364 90.4184,186.1456 90.4184,192.3924 
		90.4184,193.3202 91.1988,193.7076 91.1988,193.7074 103.122,199.6225 	"/>
	<polygon fill="#603938" points="103.122,208.0926 91.1988,202.1775 91.1988,195.9343 90.4184,195.5436 90.4184,201.7904 
		90.4184,202.7182 91.1988,203.1055 91.1988,203.1053 103.122,209.0204 	"/>
	<polygon fill="#603938" points="103.122,217.4906 91.1988,211.5755 91.1988,205.3323 90.4184,204.9416 90.4184,211.1884 
		90.4184,212.1162 91.1988,212.5035 91.1988,212.5033 103.122,218.4184 	"/>
	<polygon fill="#603938" points="103.122,226.8886 91.1988,220.9735 91.1988,214.7303 90.4184,214.3395 90.4184,220.5863 
		90.4184,221.5141 91.1988,221.9015 91.1988,221.9013 103.122,227.8164 	"/>
	<polygon fill="#603938" points="87.2908,190.9261 75.3676,185.011 75.3676,178.7678 74.5871,178.3771 74.5871,184.6239 
		74.5871,185.5517 75.3676,185.939 75.3676,185.9388 87.2908,191.8539 	"/>
	<polygon fill="#603938" points="87.2908,200.3241 75.3676,194.409 75.3676,188.1658 74.5871,187.7751 74.5871,194.0219 
		74.5871,194.9497 75.3676,195.337 75.3676,195.3368 87.2908,201.2519 	"/>
	<polygon fill="#603938" points="87.2908,209.7221 75.3676,203.807 75.3676,197.5638 74.5871,197.1731 74.5871,203.4199 
		74.5871,204.3477 75.3676,204.735 75.3676,204.7348 87.2908,210.6499 	"/>
	<polygon fill="#603938" points="87.2908,219.1201 75.3676,213.205 75.3676,206.9618 74.5871,206.5711 74.5871,212.8179 
		74.5871,213.7457 75.3676,214.133 75.3676,214.1329 87.2908,220.048 	"/>
	<polygon fill="#5276D1" points="102.7382,224.7346 124.5844,235.7818 124.5844,244.5376 102.7382,233.4904 	"/>
	<polygon fill="#6B3838" points="32.3287,145.7727 32.3287,163.4268 72.9916,183.4861 72.9916,184.9194 31.2031,164.0614 
		31.2031,145.2122 	"/>
	<polygon fill="#8C5454" points="31.2031,164.0614 32.3287,163.4268 72.9916,183.4861 72.9916,184.9194 	"/>
	<polygon fill="#441D1D" points="33.4467,152.8188 34.842,153.5172 34.842,161.8066 43.9652,166.1562 43.9652,167.6859 
		33.4467,162.4506 	"/>
	<polygon fill="#441D1D" points="33.4467,139.5923 34.842,140.2907 34.842,148.5801 43.9652,152.9297 43.9652,154.4594 
		33.4467,149.2241 	"/>
	<polygon fill="#441D1D" points="47.0677,159.2128 48.463,159.9113 48.463,168.2006 57.5863,172.5502 57.5863,174.0799 
		47.0677,168.8446 	"/>
	<polygon fill="#7F4949" points="171.8991,190.4191 171.8991,150.2277 204.0632,134.2097 204.0632,174.4671 	"/>
	<polygon fill="#6B3838" points="202.8011,135.156 202.8011,173.7554 171.8991,188.8117 171.8991,190.4191 204.0632,174.4671 
		204.0632,134.5274 	"/>
	<polygon fill="#8C5454" points="204.0632,174.4671 202.8011,173.7554 171.8991,188.8776 171.8991,190.4849 	"/>
	<g>
		<polygon fill="#512626" points="172.9219,186.8301 172.9219,176.0624 178.8197,173.1104 178.8197,183.9113 		"/>
		<polygon fill="#441D1D" points="178.8197,173.1104 177.255,173.8936 177.255,183.1892 172.9219,185.356 172.9219,186.8301 
			178.8197,183.9113 		"/>
	</g>
	<g>
		<polygon fill="#512626" points="180.1252,183.291 180.1252,172.5232 186.0229,169.5712 186.0229,180.3721 		"/>
		<polygon fill="#441D1D" points="186.0229,169.5712 184.4583,170.3544 184.4583,179.65 180.1252,181.8168 180.1252,183.291 
			186.0229,180.3721 		"/>
	</g>
	<g>
		<polygon fill="#512626" points="188.5834,178.9275 188.5834,168.1598 194.4811,165.2077 194.4811,176.0087 		"/>
		<polygon fill="#441D1D" points="194.4811,165.2077 192.9164,165.9909 192.9164,175.2865 188.5834,177.4534 188.5834,178.9275 
			194.4811,176.0087 		"/>
	</g>
	<g>
		<polygon fill="#512626" points="195.7867,175.3883 195.7867,164.6206 201.6844,161.6686 201.6844,172.4695 		"/>
		<polygon fill="#441D1D" points="201.6844,161.6686 200.1197,162.4518 200.1197,171.7473 195.7867,173.9142 195.7867,175.3883 
			201.6844,172.4695 		"/>
	</g>
	<g>
		<polygon fill="#512626" points="172.9219,174.05 172.9219,163.2823 178.8197,160.3302 178.8197,171.1312 		"/>
		<polygon fill="#441D1D" points="178.8197,160.3302 177.255,161.1134 177.255,170.409 172.9219,172.5759 172.9219,174.05 
			178.8197,171.1312 		"/>
	</g>
	<g>
		<polygon fill="#512626" points="180.1252,170.5108 180.1252,159.7431 186.0229,156.791 186.0229,167.592 		"/>
		<polygon fill="#441D1D" points="186.0229,156.791 184.4583,157.5742 184.4583,166.8698 180.1252,169.0367 180.1252,170.5108 
			186.0229,167.592 		"/>
	</g>
	<g>
		<polygon fill="#512626" points="188.5834,166.1474 188.5834,155.3796 194.4811,152.4276 194.4811,163.2285 		"/>
		<polygon fill="#441D1D" points="194.4811,152.4276 192.9164,153.2108 192.9164,162.5064 188.5834,164.6732 188.5834,166.1474 
			194.4811,163.2285 		"/>
	</g>
	<g>
		<polygon fill="#512626" points="195.7867,162.6082 195.7867,151.8405 201.6844,148.8884 201.6844,159.6894 		"/>
		<polygon fill="#441D1D" points="201.6844,148.8884 200.1197,149.6716 200.1197,158.9672 195.7867,161.1341 195.7867,162.6082 
			201.6844,159.6894 		"/>
	</g>
	<polygon fill="#441D1D" points="47.0677,145.9863 48.463,146.6847 48.463,154.9741 57.5863,159.3237 57.5863,160.8534 
		47.0677,155.6181 	"/>
	<polygon fill="#441D1D" points="60.6888,165.6069 62.0841,166.3053 62.0841,174.5946 71.2074,178.9442 71.2074,180.4739 
		60.6888,175.2386 	"/>
	<polygon fill="#441D1D" points="60.6888,152.3803 62.0841,153.0788 62.0841,161.3681 71.2074,165.7177 71.2074,167.2474 
		60.6888,162.0121 	"/>
	<polygon fill="#9B3A3A" points="9.6473,90.8873 59.6776,84.6703 61.4763,86.6844 9.6473,93.1084 	"/>
	<polygon fill="#842D2D" points="9.6473,93.1084 61.4763,86.6844 61.9339,87.2065 9.6473,93.6147 	"/>
	<polygon fill="#EAD5C7" points="239.1008,98.5151 124.6211,156.9919 124.6211,164.9241 239.1008,106.9364 	"/>
	<polygon fill="#CCB1A3" points="9.6473,101.3914 60.3155,95.3356 119.3595,162.3473 119.3595,151.5035 61.9339,87.2065 
		9.6473,93.6147 	"/>
	<polygon fill="#5276D1" points="106.9304,155.3293 106.9304,140.7077 93.8513,134.1675 93.8513,148.8343 	"/>
	<path fill="#FFFFFF" d="M35.47,106.5516c-0.0915,0.1504-0.1829,0.3008-0.2744,0.4379c1.0646,2.0972,2.1707,3.5473,3.2937,4.7575
		c-0.2579,0.2363-0.5491,0.6652-0.6821,1.0826c-0.3993-0.5034-0.8067-1.0237-1.1976-1.5755v0.8515l-4.1588-2.1042v-0.6421
		c-0.3659,0.1689-0.7402,0.3069-1.1142,0.3925c-0.1583-0.5255-0.4492-1.2618-0.7237-1.7939
		c1.5304-0.1815,3.1023-0.9713,3.9755-2.5728L35.47,106.5516z M31.9104,110.8545l5.3645,2.7142v5.4097l-1.0562-0.5344v-0.5241
		l-3.2937-1.6665v0.5762l-1.0146-0.5134V110.8545z M32.925,112.743v2.0694l3.2937,1.6665v-2.0694L32.925,112.743z M36.0357,110.3876
		c-0.4742-0.7508-0.9566-1.5971-1.4473-2.6055c-0.4243,0.4796-0.8816,0.8637-1.3724,1.1788L36.0357,110.3876z"/>
	<path fill="#FFFFFF" d="M59.976,127.8998l-2.3371-1.1825c0.7986,0.9936,1.6468,2.117,2.1626,2.8755l-0.6572,0.8598
		c-0.5323-0.846-1.447-2.1599-2.2787-3.1963l0.4655-0.6947l-2.5366-1.2834l0.7402,1.3175c-0.7237,0.3807-1.7549,0.6839-2.57,0.7823
		c-0.133-0.3947-0.3824-1.0318-0.5573-1.4477c0.7486-0.0667,1.7299-0.3426,2.279-0.7068l-2.279-1.1531v-1.4278l0.5988,0.303
		l-0.1164-6.922c0.4658,0.0257,1.0065-0.0281,1.3808-0.1268l0.4158,1.4809v-0.7336l3.019,1.5275v7.1517l0.8401,0.4251
		c0.0165-0.3584,0.025-0.7337,0.0415-1.1314l-0.6987-0.3535v-1.2311l0.7321,0.3704c0.0081-0.3627,0.0165-0.7384,0.0165-1.118
		l-0.6821-0.3451v-1.2444l0.7071,0.3578c0-0.4194,0.0084-0.808,0.0084-1.2141l-0.7402-0.3745v-1.2572l1.605,0.8121
		c-0.0165,2.2837-0.0749,5.1619-0.1495,7.1542l0.5904,0.2987V127.8998z M53.8378,123.3664l0.8485,0.4293v-6.3523
		c-0.3162-0.016-0.6322-0.0318-0.9481-0.0741l0.025,1.1916l0.7234,0.366v1.2444l-0.7068-0.3576l0.0165,1.1215l0.6987,0.3535v1.2444
		l-0.6737-0.3409L53.8378,123.3664z M55.3767,118.1595v5.9855l1.6134,0.8163v-5.9855L55.3767,118.1595z M56.7906,120.4989
		l-1.2226-0.6186v-0.9563l1.2307,0.6227L56.7906,120.4989z M55.6011,120.5387l1.1976,0.6059v2.947l-1.1976-0.6059V120.5387z
		 M56.0089,122.8016l0.374,0.1892v-1.1657l-0.374-0.1892V122.8016z"/>
	<path fill="#FFFFFF" d="M82.0139,140.1878l-3.3184-1.679v1.768l-1.0146-0.5134v-1.768l-3.2188-1.6286v-1.4017l3.2188,1.6286v-0.707
		l-2.3955-1.212v-5.2524l2.3955,1.212v-0.6288l-3.0193-1.5276v-1.4145l3.0193,1.5276v-1.061l1.0146,0.5134v1.061l3.0773,1.557
		v1.4145l-3.0773-1.557v0.6288l2.4536,1.2414v5.2524l-2.4536-1.2414v0.707l3.3184,1.679V140.1878z M76.2336,131.9454l1.4473,0.7323
		v-0.799l-1.4473-0.7323V131.9454z M77.6809,134.6423v-0.799l-1.4473-0.7323v0.799L77.6809,134.6423z M78.6956,132.3921v0.799
		l1.4555,0.7364v-0.799L78.6956,132.3921z M80.151,135.0932l-1.4555-0.7364v0.799l1.4555,0.7364V135.0932z"/>
	<path fill="#FFFFFF" d="M99.6523,146.8107l0.0999,1.4916c-1.073-0.124-2.221-0.2854-3.0942-0.4131l-0.216-1.6551
		c0.4655,0.118,1.0646,0.2245,1.7215,0.3474c0.1914-1.239,0.3828-3.2121,0.4658-4.6632l0.9066,0.6947
		c-0.158,1.3479-0.3659,2.9453-0.5738,4.0845L99.6523,146.8107z M98.1553,139.8839l1.6799,0.85v1.4278l-3.3268-1.6832v-1.4278
		l1.4055,0.7111c-0.0915-0.5832-0.291-1.4305-0.4742-2.0866l0.8401,0.0455c0.2329,0.6941,0.4492,1.5892,0.5489,2.1504
		L98.1553,139.8839z M97.5397,141.4717c0.1748,1.4641,0.3244,3.2817,0.3743,4.4988l-0.8067-0.1461
		c-0.025-1.1916-0.1748-3.0748-0.3244-4.5256L97.5397,141.4717z M102.189,143.5231v2.2528l1.6468,0.8332v6.0381l-1.0146-0.5134
		v-0.5762l-1.9712-0.9974v0.6288l-0.9647-0.4881v-6.0907l1.2891,0.6522v-6.1433l1.0146,0.5134v2.4101l1.9297,0.9763v1.4804
		L102.189,143.5231z M102.8212,147.5497l-1.9712-0.9974v2.5542l1.9712,0.9974V147.5497z"/>
	<g>
		<polygon fill="#A5826A" points="178.1567,241.7222 165.2214,248.19 152.2861,241.7222 165.239,235.2546 		"/>
		<polygon fill="#A5826A" points="182.8182,212.6244 165.2214,221.4231 147.6246,212.6244 165.2453,203.826 		"/>
		<polygon fill="#A5826A" points="169.3059,242.3579 165.2214,244.4002 161.1369,242.3579 165.2269,240.3156 		"/>
		<polygon fill="#543E2F" points="165.2214,222.903 147.6246,214.1043 147.6246,212.6244 165.2214,221.4231 		"/>
		<polygon fill="#6B5241" points="165.2214,222.903 182.8182,214.1043 182.8182,212.6244 165.2214,221.4231 		"/>
		<polygon fill="#543E2F" points="165.2214,249.2779 152.2861,242.8101 152.2861,241.7222 165.2214,248.19 		"/>
		<polygon fill="#6B5241" points="165.2214,249.2779 178.1567,242.8101 178.1567,241.7222 165.2214,248.19 		"/>
		<polygon fill="#543E2F" points="169.3059,242.3579 165.2214,244.4002 165.2214,222.903 169.3059,220.8606 		"/>
		<polygon fill="#423024" points="161.1369,242.3579 165.2214,244.4002 165.2214,222.903 161.1369,220.8606 		"/>
	</g>
	<g>
		<polygon fill="#FFF5EE" points="167.3904,209.3164 174.1042,205.9559 174.1042,215.356 167.3904,218.6788 		"/>
		<polygon fill="#DDC8BC" points="167.3904,209.3164 155.8069,203.552 155.8069,212.9522 167.3904,218.6788 		"/>
		<polygon fill="#5276D1" points="167.3904,217.7091 155.8069,211.9447 155.8069,212.9522 167.3904,218.6788 		"/>
		<polygon fill="#8099E8" points="167.3904,217.7091 174.1042,214.3486 174.1042,215.356 167.3904,218.6788 		"/>
		<polygon fill="#CC4842" points="169.6029,211.346 172.4154,209.9383 172.4154,216.1854 169.6029,217.5774 		"/>
		<polygon fill="#FFF5EE" points="169.7484,211.5956 172.2698,210.3336 172.2698,215.9342 169.7484,217.1821 		"/>
		<polygon fill="#52627A" points="169.8161,211.7117 172.2021,210.5175 172.2021,210.9714 169.8161,212.1523 		"/>
		<polygon fill="#FFF5EE" points="174.1042,205.9559 170.7473,203.552 167.3904,209.3164 		"/>
		<polygon fill="#394659" points="162.5207,200.1914 159.1638,197.7876 155.8069,203.552 		"/>
		<polygon fill="#6F7D95" points="159.1638,197.7876 155.0425,204.815 166.6261,210.5794 170.7473,203.552 		"/>
		<polygon fill="#6F7D95" points="170.7473,203.552 175.4002,206.8501 175.1506,207.1621 170.5019,203.9704 		"/>
	</g>
	<polygon fill="#6F7D95" points="60.6888,81.3428 186.3148,17.1732 250,88.478 124.374,152.6484 	"/>
	<polygon fill="#535E70" points="0,88.9555 60.6888,81.3428 186.3148,17.1732 128.1822,24.8816 	"/>
	<polygon fill="#535E70" points="124.374,152.6484 250,88.478 250,92.9477 124.374,157.1181 	"/>
	<polygon fill="#394659" points="124.374,157.1181 57.1073,81.792 60.6888,81.3428 124.374,152.6484 	"/>
	<polygon fill="#394659" points="0,88.9555 0.4378,92.0261 62.5665,84.344 60.6888,81.3428 	"/>
	<path fill="#394659" d="M0,88.9555"/>
	<g>
		<polygon fill="#58677A" points="229.3699,99.016 169.8069,32.4168 170.2256,32.0423 229.8872,98.7517 		"/>
	</g>
	<g>
		<polygon fill="#58677A" points="217.6218,105.0169 158.0466,38.4044 158.4652,38.0298 218.1391,104.7527 		"/>
	</g>
	<g>
		<polygon fill="#58677A" points="205.8736,111.018 146.289,44.3947 146.7077,44.0202 206.3909,110.7538 		"/>
	</g>
	<g>
		<polygon fill="#58677A" points="194.1255,117.019 134.5287,50.3851 134.9473,50.0105 194.6428,116.7547 		"/>
	</g>
	<g>
		<polygon fill="#58677A" points="182.3756,123.0209 122.7711,56.3754 123.1897,56.0008 182.8929,122.7567 		"/>
	</g>
	<g>
		<polygon fill="#58677A" points="170.6275,129.0219 111.0108,62.363 111.4294,61.9884 171.1448,128.7576 		"/>
	</g>
	<g>
		<polygon fill="#58677A" points="158.8792,135.023 99.2532,68.3533 99.6718,67.9788 159.3965,134.7587 		"/>
	</g>
	<g>
		<polygon fill="#58677A" points="147.1312,141.0239 87.4929,74.3437 87.9115,73.9691 147.6485,140.7597 		"/>
	</g>
	<g>
		<polygon fill="#58677A" points="135.3812,147.0259 75.7353,80.334 76.1539,79.9594 135.8985,146.7616 		"/>
	</g>
	<g>
		
			<rect x="211.6305" y="14.933" transform="matrix(0.7454 -0.6667 0.6667 0.7454 14.2879 156.4238)" fill="#58677A" width="0.5617" height="89.1505"/>
	</g>
	<path fill="#58677A" d="M78.7881,83.226c-0.0064,0.0274-0.0181,0.0733-0.0184,0.0754l0.5365,0.0936l-0.3672-0.3284
		C78.9349,83.071,78.8647,83.1458,78.7881,83.226z"/>
	<path fill="#58677A" d="M90.5471,77.2364c-0.0064,0.0275-0.0181,0.0735-0.0184,0.0756l0.5367,0.0936L90.698,77.077
		C90.6939,77.0813,90.6237,77.1564,90.5471,77.2364z"/>
	<path fill="#58677A" d="M102.306,71.2469c-0.0064,0.0274-0.0181,0.0733-0.0184,0.0754l0.5366,0.0936l-0.3672-0.3284
		C102.4529,71.0918,102.3826,71.1667,102.306,71.2469z"/>
	<path fill="#58677A" d="M125.8241,59.2675c-0.0064,0.0275-0.0181,0.0735-0.0184,0.0756l0.5362,0.0936l-0.367-0.3284
		C125.9708,59.1125,125.9005,59.1876,125.8241,59.2675z"/>
	<path fill="#58677A" d="M137.5831,53.278c-0.0064,0.0275-0.0181,0.0735-0.0184,0.0756l0.5367,0.0936l-0.3673-0.3286
		C137.7299,53.1229,137.6597,53.1979,137.5831,53.278z"/>
	<path fill="#58677A" d="M149.342,47.2885c-0.0064,0.0274-0.0181,0.0733-0.0184,0.0754l0.5365,0.0936l-0.3672-0.3284
		C149.4888,47.1334,149.4186,47.2083,149.342,47.2885z"/>
	<path fill="#58677A" d="M161.101,41.2989c-0.0064,0.0274-0.0181,0.0733-0.0184,0.0754l0.5365,0.0936l-0.3672-0.3284
		C161.2478,41.1438,161.1776,41.2187,161.101,41.2989z"/>
	<path fill="#58677A" d="M172.8599,35.3092c-0.0064,0.0275-0.0181,0.0735-0.0184,0.0756l0.5367,0.0936l-0.3673-0.3286
		C173.0068,35.1541,172.9365,35.2292,172.8599,35.3092z"/>
	<path fill="#58677A" d="M184.6189,29.3198c-0.0064,0.0274-0.0181,0.0733-0.0184,0.0754l0.5366,0.0936l-0.3672-0.3284
		C184.7657,29.1647,184.6955,29.2395,184.6189,29.3198z"/>
	<path fill="#58677A" d="M98.6528,86.3987c-0.6966,0.7292-4.1929,4.2013-7.2607,3.6801c-3.6727-0.6472-4.4098,1.9303-4.4984,2.3097
		c0.0766-0.0802,0.1468-0.1551,0.151-0.1594l0.3672,0.3284l0.1575,0.0275c0.0193-0.0964,0.4324-2.3741,3.7016-1.8122
		c3.7567,0.6445,7.8852-3.8696,8.056-4.0652l-0.1563-0.1398l-0.5362-0.0936C98.6347,86.4722,98.6464,86.4262,98.6528,86.3987z"/>
	<path fill="#58677A" d="M86.8937,92.3885c-0.0064,0.0274-0.0181,0.0733-0.0184,0.0754l0.5366,0.0936l-0.3672-0.3284
		C87.0405,92.2334,86.9703,92.3083,86.8937,92.3885z"/>
	<path fill="#58677A" d="M110.4117,80.4092c-0.6972,0.7299-4.1931,4.2011-7.2605,3.6799c-3.6718-0.6471-4.4096,1.9291-4.4984,2.3095
		c0.0764-0.0799,0.1467-0.1549,0.1508-0.1592l0.367,0.3284l0.1578,0.0275c0.0193-0.0964,0.4324-2.3741,3.7016-1.8122
		c3.7567,0.6445,7.8852-3.8696,8.056-4.0652l-0.156-0.1396l-0.5367-0.0936C110.3937,80.4827,110.4054,80.4368,110.4117,80.4092z"/>
	<path fill="#58677A" d="M98.6528,86.3987c-0.0064,0.0275-0.0181,0.0735-0.0184,0.0756l0.5362,0.0936l-0.367-0.3284
		C98.7994,86.2438,98.7292,86.3188,98.6528,86.3987z"/>
	<path fill="#58677A" d="M122.1707,74.4197c-0.6975,0.7299-4.1932,4.2011-7.2605,3.6799c-3.6718-0.6471-4.4096,1.9291-4.4984,2.3095
		c0.0766-0.08,0.1468-0.1551,0.151-0.1594l0.3673,0.3286l0.1573,0.0275c0.0193-0.0964,0.4324-2.3741,3.7016-1.8122
		c3.7567,0.6445,7.8852-3.8696,8.056-4.0652l-0.1561-0.1398l-0.5366-0.0936C122.1526,74.4931,122.1643,74.4471,122.1707,74.4197z"/>
	<path fill="#58677A" d="M110.4117,80.4092c-0.0064,0.0275-0.0181,0.0735-0.0184,0.0756l0.5367,0.0936l-0.3673-0.3286
		C110.5586,80.2541,110.4883,80.3292,110.4117,80.4092z"/>
	<path fill="#58677A" d="M133.9297,68.4301c-0.6975,0.7299-4.1932,4.2012-7.2605,3.6799c-3.6727-0.6472-4.4098,1.9303-4.4984,2.3097
		c0.0766-0.0802,0.1468-0.1551,0.151-0.1594l0.3672,0.3284l0.1575,0.0275c0.0193-0.0964,0.4324-2.3741,3.7016-1.8122
		c3.7567,0.6445,7.8852-3.8696,8.056-4.0652l-0.1561-0.1398l-0.5365-0.0936C133.9116,68.5034,133.9233,68.4575,133.9297,68.4301z"/>
	<path fill="#58677A" d="M122.1707,74.4197c-0.0064,0.0274-0.0181,0.0733-0.0184,0.0754l0.5366,0.0936l-0.3672-0.3284
		C122.3175,74.2646,122.2473,74.3395,122.1707,74.4197z"/>
	<path fill="#58677A" d="M145.6886,62.4404c-0.6975,0.7299-4.1932,4.2012-7.2605,3.6799c-3.6727-0.6472-4.4098,1.9303-4.4984,2.3097
		c0.0766-0.0802,0.1468-0.1551,0.151-0.1594l0.3672,0.3284l0.1575,0.0275c0.0193-0.0964,0.4324-2.3741,3.7016-1.8122
		c3.7567,0.6445,7.8852-3.8696,8.056-4.0652l-0.1561-0.1398l-0.5366-0.0936C145.6705,62.5138,145.6822,62.4678,145.6886,62.4404z"/>
	<path fill="#58677A" d="M133.9297,68.4301c-0.0064,0.0274-0.0181,0.0733-0.0184,0.0754l0.5365,0.0936l-0.3672-0.3284
		C134.0765,68.275,134.0063,68.3499,133.9297,68.4301z"/>
	<path fill="#58677A" d="M157.4476,56.4508c-0.6971,0.7299-4.1931,4.2011-7.2605,3.6799c-3.6727-0.6472-4.4098,1.9303-4.4984,2.3097
		c0.0766-0.0802,0.1468-0.1551,0.151-0.1594l0.3672,0.3284l0.1575,0.0275c0.0193-0.0964,0.4324-2.3741,3.7016-1.8122
		c3.7567,0.6445,7.8852-3.8696,8.056-4.0652l-0.156-0.1396l-0.5367-0.0936C157.4295,56.5243,157.4412,56.4783,157.4476,56.4508z"/>
	<path fill="#58677A" d="M145.6886,62.4404c-0.0064,0.0274-0.0181,0.0733-0.0184,0.0754l0.5366,0.0936l-0.3672-0.3284
		C145.8354,62.2854,145.7652,62.3602,145.6886,62.4404z"/>
	<path fill="#58677A" d="M169.2067,50.4612c-0.6966,0.7292-4.1929,4.2013-7.2607,3.6801c-3.6718-0.6471-4.4096,1.9291-4.4984,2.3096
		c0.0766-0.08,0.1468-0.1551,0.151-0.1594l0.3673,0.3286l0.1573,0.0275c0.0193-0.0964,0.4324-2.3741,3.7016-1.8122
		c3.7567,0.6445,7.8852-3.8696,8.056-4.0652l-0.1563-0.1398l-0.5362-0.0936C169.1886,50.5347,169.2003,50.4887,169.2067,50.4612z"/>
	<path fill="#58677A" d="M157.4476,56.4508c-0.0064,0.0275-0.0181,0.0735-0.0184,0.0756l0.5367,0.0936l-0.3673-0.3286
		C157.5944,56.2957,157.5242,56.3708,157.4476,56.4508z"/>
	<path fill="#58677A" d="M180.9657,44.4717c-0.6975,0.7299-4.1932,4.2011-7.2605,3.6799c-3.6718-0.6471-4.4096,1.9291-4.4984,2.3095
		c0.0764-0.0799,0.1467-0.1549,0.1508-0.1592l0.367,0.3284l0.1579,0.0275c0.0193-0.0964,0.4324-2.3741,3.7016-1.8122
		c3.7567,0.6445,7.8852-3.8696,8.056-4.0652l-0.1561-0.1398l-0.5366-0.0936C180.9476,44.545,180.9593,44.4991,180.9657,44.4717z"/>
	<path fill="#58677A" d="M169.2067,50.4612c-0.0064,0.0275-0.0181,0.0735-0.0184,0.0756l0.5362,0.0936l-0.367-0.3284
		C169.3533,50.3062,169.2831,50.3813,169.2067,50.4612z"/>
	<path fill="#58677A" d="M192.7246,38.482c-0.6971,0.7299-4.1931,4.2012-7.2605,3.6799c-3.6727-0.6472-4.4098,1.9303-4.4984,2.3097
		c0.0766-0.0802,0.1468-0.1551,0.151-0.1594l0.3672,0.3284l0.1575,0.0275c0.0193-0.0964,0.4324-2.3741,3.7016-1.8122
		c3.7567,0.6445,7.8852-3.8696,8.056-4.0652l-0.156-0.1396l-0.5367-0.0936C192.7065,38.5555,192.7182,38.5096,192.7246,38.482z"/>
	<path fill="#58677A" d="M180.9657,44.4717c-0.0064,0.0274-0.0181,0.0733-0.0184,0.0754l0.5366,0.0936l-0.3672-0.3284
		C181.1125,44.3166,181.0423,44.3915,180.9657,44.4717z"/>
	<path fill="#58677A" d="M197.223,36.1725c-3.6718-0.6471-4.4096,1.9291-4.4984,2.3095c0.0766-0.08,0.1468-0.1551,0.151-0.1594
		l0.3673,0.3286l0.1573,0.0275c0.0193-0.0964,0.4324-2.3741,3.7016-1.8122c1.8553,0.3183,3.7978-0.6235,5.313-1.68l-0.4785-0.5359
		C200.5508,35.6084,198.8303,36.4455,197.223,36.1725z"/>
	<path fill="#58677A" d="M192.7246,38.482c-0.0064,0.0275-0.0181,0.0735-0.0184,0.0756l0.5367,0.0936l-0.3673-0.3286
		C192.8714,38.3269,192.8012,38.402,192.7246,38.482z"/>
	<path fill="#58677A" d="M106.7583,95.5613c-0.6975,0.7299-4.1932,4.2012-7.2605,3.6799c-3.6718-0.6471-4.4096,1.9291-4.4984,2.3095
		c0.0766-0.08,0.1468-0.1551,0.151-0.1594l0.3673,0.3286l0.1573,0.0275c0.0193-0.0964,0.4324-2.3741,3.7016-1.8122
		c3.7567,0.6445,7.8852-3.8696,8.056-4.0652l-0.1561-0.1398l-0.5365-0.0936C106.7402,95.6346,106.752,95.5887,106.7583,95.5613z"/>
	<path fill="#58677A" d="M94.9994,101.5508c-0.0064,0.0275-0.0181,0.0735-0.0184,0.0756l0.5367,0.0936l-0.3673-0.3286
		C95.1462,101.3957,95.076,101.4707,94.9994,101.5508z"/>
	<path fill="#58677A" d="M118.5173,89.5717c-0.6975,0.7299-4.1932,4.2011-7.2605,3.6799c-3.6727-0.6472-4.4098,1.9303-4.4984,2.3097
		c0.0766-0.0802,0.1468-0.1551,0.151-0.1594l0.3672,0.3284l0.1575,0.0275c0.0193-0.0964,0.4324-2.3741,3.7016-1.8122
		c3.7567,0.6445,7.8852-3.8696,8.056-4.0652l-0.1561-0.1398l-0.5365-0.0936C118.4992,89.645,118.5109,89.599,118.5173,89.5717z"/>
	<path fill="#58677A" d="M106.7583,95.5613c-0.0064,0.0274-0.0181,0.0733-0.0184,0.0754l0.5365,0.0936l-0.3672-0.3284
		C106.9052,95.4062,106.8349,95.4811,106.7583,95.5613z"/>
	<path fill="#58677A" d="M130.2766,83.5817c-0.6966,0.7288-4.1929,4.2015-7.2609,3.6803c-3.6727-0.6472-4.4098,1.9303-4.4984,2.3097
		c0.0766-0.0802,0.1468-0.1551,0.151-0.1594l0.3672,0.3284l0.1575,0.0275c0.0193-0.0964,0.4324-2.3741,3.7016-1.8122
		c3.7567,0.6445,7.8852-3.8696,8.056-4.0652l-0.156-0.1396l-0.5365-0.0936C130.2583,83.6555,130.27,83.6094,130.2766,83.5817z"/>
	<path fill="#58677A" d="M118.5173,89.5717c-0.0064,0.0274-0.0181,0.0733-0.0184,0.0754l0.5365,0.0936l-0.3672-0.3284
		C118.6641,89.4166,118.5939,89.4915,118.5173,89.5717z"/>
	<path fill="#58677A" d="M142.0354,77.5926c-0.6975,0.7299-4.1932,4.2011-7.2605,3.6799c-3.671-0.6469-4.4093,1.9279-4.4983,2.3092
		c0.0763-0.0799,0.1465-0.1548,0.1506-0.1591l0.3673,0.3286l0.1575,0.0275c0.0193-0.0964,0.4324-2.3741,3.7016-1.8122
		c3.7567,0.6445,7.8852-3.8696,8.056-4.0652l-0.1561-0.1398l-0.5365-0.0936C142.0173,77.6659,142.029,77.6199,142.0354,77.5926z"/>
	<path fill="#58677A" d="M130.2766,83.5817c-0.0065,0.0277-0.0182,0.0738-0.0186,0.0759l0.5365,0.0936l-0.3673-0.3286
		C130.4231,83.4269,130.3528,83.5018,130.2766,83.5817z"/>
	<path fill="#58677A" d="M153.7943,71.6029c-0.6975,0.7299-4.1932,4.2011-7.2605,3.6799c-3.6727-0.6472-4.4098,1.9303-4.4984,2.3097
		c0.0766-0.0802,0.1468-0.1551,0.151-0.1594l0.3672,0.3284l0.1575,0.0275c0.0193-0.0964,0.4324-2.3741,3.7016-1.8122
		c3.7567,0.6445,7.8852-3.8696,8.056-4.0652l-0.1561-0.1398l-0.5366-0.0936C153.7762,71.6762,153.7879,71.6303,153.7943,71.6029z"/>
	<path fill="#58677A" d="M142.0354,77.5926c-0.0064,0.0274-0.0181,0.0733-0.0184,0.0754l0.5365,0.0936l-0.3672-0.3284
		C142.1822,77.4375,142.112,77.5123,142.0354,77.5926z"/>
	<path fill="#58677A" d="M165.5533,65.6133c-0.6975,0.7299-4.1932,4.2012-7.2605,3.6799c-3.6727-0.6472-4.4098,1.9303-4.4984,2.3097
		c0.0766-0.0802,0.1468-0.1551,0.151-0.1594l0.3672,0.3284l0.1575,0.0275c0.0193-0.0964,0.4324-2.3741,3.7016-1.8122
		c3.7567,0.6445,7.8852-3.8696,8.056-4.0652l-0.1561-0.1398l-0.5366-0.0936C165.5352,65.6866,165.5469,65.6406,165.5533,65.6133z"/>
	<path fill="#58677A" d="M153.7943,71.6029c-0.0064,0.0274-0.0181,0.0733-0.0184,0.0754l0.5366,0.0936l-0.3672-0.3284
		C153.9411,71.4478,153.8709,71.5227,153.7943,71.6029z"/>
	<path fill="#58677A" d="M177.3122,59.6236c-0.6971,0.7299-4.1931,4.2012-7.2605,3.6799c-3.6727-0.6472-4.4098,1.9303-4.4984,2.3097
		c0.0766-0.0802,0.1468-0.1551,0.151-0.1594l0.3672,0.3284l0.1575,0.0275c0.0193-0.0964,0.4324-2.3741,3.7016-1.8122
		c3.7567,0.6445,7.8852-3.8696,8.056-4.0652l-0.1559-0.1396l-0.5367-0.0936C177.2942,59.6971,177.3059,59.6512,177.3122,59.6236z"/>
	<path fill="#58677A" d="M165.5533,65.6133c-0.0064,0.0274-0.0181,0.0733-0.0184,0.0754l0.5366,0.0936l-0.3672-0.3284
		C165.7001,65.4582,165.6299,65.533,165.5533,65.6133z"/>
	<path fill="#58677A" d="M189.0712,53.6341c-0.6975,0.7299-4.1932,4.2011-7.2605,3.6799c-3.6718-0.6471-4.4096,1.9291-4.4984,2.3095
		c0.0766-0.08,0.1468-0.1551,0.151-0.1594l0.3673,0.3286l0.1573,0.0275c0.0193-0.0964,0.4324-2.3741,3.7016-1.8122
		c3.7567,0.6445,7.8852-3.8696,8.056-4.0652l-0.1561-0.1398l-0.5365-0.0936C189.0531,53.7075,189.0648,53.6615,189.0712,53.6341z"/>
	<path fill="#58677A" d="M177.3122,59.6236c-0.0064,0.0275-0.0181,0.0735-0.0184,0.0756l0.5367,0.0936l-0.3673-0.3286
		C177.4591,59.4685,177.3888,59.5436,177.3122,59.6236z"/>
	<path fill="#58677A" d="M200.8303,47.6443c-0.6966,0.7292-4.1929,4.2013-7.2607,3.6801c-3.6727-0.6472-4.4098,1.9303-4.4984,2.3097
		c0.0766-0.0802,0.1468-0.1551,0.151-0.1594l0.3672,0.3284l0.1575,0.0275c0.0193-0.0964,0.4324-2.3741,3.7016-1.8122
		c3.7567,0.6445,7.8852-3.8696,8.056-4.0652l-0.1563-0.1398l-0.5362-0.0936C200.8122,47.7178,200.8239,47.6719,200.8303,47.6443z"/>
	<path fill="#58677A" d="M189.0712,53.6341c-0.0064,0.0274-0.0181,0.0733-0.0184,0.0754l0.5365,0.0936l-0.3672-0.3284
		C189.218,53.479,189.1478,53.5539,189.0712,53.6341z"/>
	<path fill="#58677A" d="M205.3288,45.3348c-3.6718-0.6471-4.4096,1.9291-4.4984,2.3095c0.0764-0.0799,0.1467-0.1549,0.1508-0.1592
		l0.367,0.3284l0.1579,0.0275c0.0193-0.0964,0.4324-2.3741,3.7016-1.8122c1.8739,0.3216,3.8397-0.6409,5.3613-1.7103l-0.479-0.5365
		C208.6968,44.7531,206.9539,45.6109,205.3288,45.3348z"/>
	<path fill="#58677A" d="M200.8303,47.6443c-0.0064,0.0275-0.0181,0.0735-0.0184,0.0756l0.5362,0.0936l-0.367-0.3284
		C200.977,47.4894,200.9067,47.5645,200.8303,47.6443z"/>
	<path fill="#58677A" d="M114.864,104.7236c-0.6972,0.7299-4.1931,4.2011-7.2605,3.6799c-3.6718-0.6471-4.4096,1.9291-4.4984,2.3095
		c0.0764-0.0799,0.1467-0.1549,0.1508-0.1592l0.367,0.3284l0.1579,0.0275c0.0193-0.0964,0.4324-2.3741,3.7016-1.8122
		c3.7567,0.6445,7.8852-3.8696,8.056-4.0652l-0.156-0.1396l-0.5367-0.0936C114.846,104.7971,114.8577,104.7511,114.864,104.7236z"/>
	<path fill="#58677A" d="M103.1051,110.7131c-0.0064,0.0275-0.0181,0.0735-0.0184,0.0756l0.5362,0.0936l-0.367-0.3284
		C103.2517,110.5581,103.1815,110.6332,103.1051,110.7131z"/>
	<path fill="#58677A" d="M126.623,98.7341c-0.6975,0.7299-4.1932,4.2011-7.2605,3.6799c-3.6718-0.6471-4.4096,1.9291-4.4984,2.3095
		c0.0766-0.08,0.1468-0.1551,0.151-0.1594l0.3673,0.3286l0.1573,0.0275c0.0193-0.0964,0.4324-2.3741,3.7016-1.8122
		c3.7567,0.6445,7.8852-3.8696,8.056-4.0652l-0.1561-0.1398l-0.5365-0.0936C126.6049,98.8074,126.6166,98.7615,126.623,98.7341z"/>
	<path fill="#58677A" d="M114.864,104.7236c-0.0064,0.0275-0.0181,0.0735-0.0184,0.0756l0.5367,0.0936l-0.3673-0.3286
		C115.0109,104.5685,114.9406,104.6436,114.864,104.7236z"/>
	<path fill="#58677A" d="M138.3819,92.7445c-0.6975,0.7299-4.1932,4.2012-7.2605,3.6799c-3.6727-0.6472-4.4098,1.9303-4.4984,2.3097
		c0.0766-0.0802,0.1468-0.1551,0.151-0.1594l0.3672,0.3284l0.1575,0.0275c0.0193-0.0964,0.4324-2.3741,3.7016-1.8122
		c3.7567,0.6445,7.8852-3.8696,8.056-4.0652l-0.1561-0.1398l-0.5366-0.0936C138.3639,92.8178,138.3756,92.7719,138.3819,92.7445z"/>
	<path fill="#58677A" d="M126.623,98.7341c-0.0064,0.0274-0.0181,0.0733-0.0184,0.0754l0.5365,0.0936l-0.3672-0.3284
		C126.7698,98.579,126.6996,98.6539,126.623,98.7341z"/>
	<path fill="#58677A" d="M150.1409,86.7548c-0.6971,0.7299-4.1931,4.2011-7.2605,3.6799c-3.6727-0.6472-4.4098,1.9303-4.4984,2.3097
		c0.0766-0.0802,0.1468-0.1551,0.151-0.1594l0.3672,0.3284l0.1575,0.0275c0.0193-0.0964,0.4324-2.3741,3.7016-1.8122
		c3.7567,0.6445,7.8852-3.8696,8.056-4.0652l-0.1559-0.1396l-0.5367-0.0936C150.1228,86.8283,150.1345,86.7824,150.1409,86.7548z"/>
	<path fill="#58677A" d="M138.3819,92.7445c-0.0064,0.0274-0.0181,0.0733-0.0184,0.0754l0.5366,0.0936l-0.3672-0.3284
		C138.5288,92.5894,138.4586,92.6643,138.3819,92.7445z"/>
	<path fill="#58677A" d="M161.8999,80.7654c-0.6975,0.7299-4.1932,4.2012-7.2605,3.6799c-3.6718-0.6471-4.4096,1.9291-4.4984,2.3096
		c0.0766-0.08,0.1468-0.1551,0.151-0.1594l0.3673,0.3286l0.1573,0.0275c0.0193-0.0964,0.4324-2.3741,3.7016-1.8122
		c3.7567,0.6445,7.8852-3.8696,8.056-4.0652l-0.1561-0.1398l-0.5365-0.0936C161.8818,80.8387,161.8935,80.7927,161.8999,80.7654z"/>
	<path fill="#58677A" d="M150.1409,86.7548c-0.0064,0.0275-0.0181,0.0735-0.0184,0.0756l0.5367,0.0936l-0.3673-0.3286
		C150.2877,86.5997,150.2175,86.6748,150.1409,86.7548z"/>
	<path fill="#58677A" d="M173.659,74.7755c-0.6966,0.7292-4.1929,4.2013-7.2607,3.6801c-3.6727-0.6472-4.4098,1.9303-4.4984,2.3097
		c0.0766-0.0802,0.1468-0.1551,0.151-0.1594l0.3672,0.3284l0.1575,0.0275c0.0193-0.0964,0.4324-2.3741,3.7016-1.8122
		c3.7567,0.6445,7.8852-3.8696,8.056-4.0652l-0.1563-0.1398l-0.5362-0.0936C173.6409,74.849,173.6526,74.8031,173.659,74.7755z"/>
	<path fill="#58677A" d="M161.8999,80.7654c-0.0064,0.0274-0.0181,0.0733-0.0184,0.0754l0.5365,0.0936l-0.3672-0.3284
		C162.0467,80.6103,161.9765,80.6851,161.8999,80.7654z"/>
	<path fill="#58677A" d="M185.4179,68.7861c-0.6975,0.7299-4.1932,4.2011-7.2605,3.6799c-3.6718-0.6471-4.4096,1.9291-4.4984,2.3095
		c0.0764-0.0799,0.1467-0.1549,0.1508-0.1592l0.367,0.3284l0.1579,0.0275c0.0193-0.0964,0.4324-2.3741,3.7016-1.8122
		c3.7567,0.6445,7.8852-3.8696,8.056-4.0652l-0.1561-0.1398l-0.5365-0.0936C185.3999,68.8594,185.4116,68.8134,185.4179,68.7861z"/>
	<path fill="#58677A" d="M173.659,74.7755c-0.0064,0.0275-0.0181,0.0735-0.0184,0.0756l0.5362,0.0936l-0.367-0.3284
		C173.8056,74.6206,173.7354,74.6957,173.659,74.7755z"/>
	<path fill="#58677A" d="M197.1769,62.7964c-0.6971,0.7299-4.1931,4.2012-7.2605,3.6799c-3.6727-0.6472-4.4098,1.9303-4.4984,2.3097
		c0.0766-0.0802,0.1468-0.1551,0.151-0.1594l0.3672,0.3284l0.1575,0.0275c0.0193-0.0964,0.4324-2.3741,3.7016-1.8122
		c3.7567,0.6445,7.8852-3.8696,8.056-4.0652l-0.1559-0.1396l-0.5367-0.0936C197.1588,62.8699,197.1705,62.824,197.1769,62.7964z"/>
	<path fill="#58677A" d="M185.4179,68.7861c-0.0064,0.0274-0.0181,0.0733-0.0184,0.0754l0.5365,0.0936l-0.3672-0.3284
		C185.5648,68.631,185.4945,68.7059,185.4179,68.7861z"/>
	<path fill="#58677A" d="M208.9359,56.807c-0.6975,0.7299-4.1932,4.2012-7.2605,3.6799c-3.6718-0.6471-4.4096,1.9291-4.4984,2.3095
		c0.0766-0.08,0.1468-0.1551,0.151-0.1594l0.3673,0.3286l0.1573,0.0275c0.0193-0.0964,0.4324-2.3741,3.7016-1.8122
		c3.7567,0.6445,7.8852-3.8696,8.056-4.0652l-0.1561-0.1398l-0.5365-0.0936C208.9178,56.8803,208.9295,56.8343,208.9359,56.807z"/>
	<path fill="#58677A" d="M197.1769,62.7964c-0.0064,0.0275-0.0181,0.0735-0.0184,0.0756l0.5367,0.0936l-0.3673-0.3286
		C197.3237,62.6413,197.2535,62.7164,197.1769,62.7964z"/>
	<path fill="#58677A" d="M213.4343,54.4972c-3.6727-0.6472-4.4098,1.9303-4.4984,2.3097c0.0766-0.0802,0.1468-0.1551,0.151-0.1594
		l0.3672,0.3284l0.1575,0.0275c0.0193-0.0964,0.4324-2.3741,3.7016-1.8122c1.8937,0.3248,3.8789-0.661,5.4072-1.7439l-0.4768-0.5341
		C216.8431,53.8977,215.0773,54.7764,213.4343,54.4972z"/>
	<path fill="#58677A" d="M208.9359,56.807c-0.0064,0.0274-0.0181,0.0733-0.0184,0.0754l0.5365,0.0936l-0.3672-0.3284
		C209.0827,56.6519,209.0125,56.7267,208.9359,56.807z"/>
	<path fill="#58677A" d="M122.9696,113.8861c-0.6975,0.7299-4.1932,4.2011-7.2605,3.6799
		c-3.6727-0.6472-4.4098,1.9303-4.4984,2.3097c0.0766-0.0802,0.1468-0.1551,0.151-0.1594l0.3672,0.3284l0.1575,0.0275
		c0.0193-0.0964,0.4324-2.3741,3.7016-1.8122c3.7567,0.6445,7.8852-3.8696,8.056-4.0652l-0.1561-0.1398l-0.5366-0.0936
		C122.9515,113.9594,122.9632,113.9134,122.9696,113.8861z"/>
	<path fill="#58677A" d="M111.2106,119.8757c-0.0064,0.0274-0.0181,0.0733-0.0184,0.0754l0.5365,0.0936l-0.3672-0.3284
		C111.3575,119.7206,111.2872,119.7955,111.2106,119.8757z"/>
	<path fill="#58677A" d="M134.7289,107.8961c-0.6966,0.7288-4.1929,4.2015-7.2609,3.6803
		c-3.6727-0.6472-4.4098,1.9303-4.4984,2.3097c0.0766-0.0802,0.1468-0.1551,0.151-0.1594l0.3672,0.3284l0.1575,0.0275
		c0.0193-0.0964,0.4324-2.3741,3.7016-1.8122c3.7567,0.6445,7.8852-3.8696,8.056-4.0652l-0.1559-0.1396l-0.5366-0.0936
		C134.7106,107.9699,134.7223,107.9238,134.7289,107.8961z"/>
	<path fill="#58677A" d="M122.9696,113.8861c-0.0064,0.0274-0.0181,0.0733-0.0184,0.0754l0.5366,0.0936l-0.3672-0.3284
		C123.1164,113.731,123.0462,113.8058,122.9696,113.8861z"/>
	<path fill="#58677A" d="M146.4877,101.9069c-0.6975,0.7299-4.1932,4.2011-7.2605,3.6799c-3.671-0.6469-4.4093,1.9279-4.4983,2.3092
		c0.0762-0.0799,0.1465-0.1548,0.1506-0.1591l0.3673,0.3286l0.1575,0.0275c0.0193-0.0964,0.4324-2.3741,3.7016-1.8122
		c3.7567,0.6445,7.8852-3.8696,8.056-4.0652l-0.1561-0.1398l-0.5366-0.0936C146.4696,101.9803,146.4813,101.9343,146.4877,101.9069z
		"/>
	<path fill="#58677A" d="M134.7289,107.8961c-0.0065,0.0277-0.0182,0.0738-0.0186,0.0759l0.5366,0.0936l-0.3673-0.3286
		C134.8754,107.7413,134.8051,107.8162,134.7289,107.8961z"/>
	<path fill="#58677A" d="M158.2466,95.9173c-0.6975,0.7299-4.1932,4.2011-7.2605,3.6799c-3.6727-0.6472-4.4098,1.9303-4.4984,2.3097
		c0.0766-0.0802,0.1468-0.1551,0.151-0.1594l0.3672,0.3284l0.1575,0.0275c0.0193-0.0964,0.4324-2.3741,3.7016-1.8122
		c3.7567,0.6445,7.8852-3.8696,8.056-4.0652l-0.1561-0.1398l-0.5365-0.0936C158.2285,95.9906,158.2402,95.9447,158.2466,95.9173z"/>
	<path fill="#58677A" d="M146.4877,101.9069c-0.0064,0.0274-0.0181,0.0733-0.0184,0.0754l0.5366,0.0936l-0.3672-0.3284
		C146.6345,101.7518,146.5643,101.8267,146.4877,101.9069z"/>
	<path fill="#58677A" d="M170.0056,89.9276c-0.6971,0.7299-4.1931,4.2012-7.2605,3.6799c-3.6727-0.6472-4.4098,1.9303-4.4984,2.3097
		c0.0766-0.0802,0.1468-0.1551,0.151-0.1594l0.3672,0.3284l0.1575,0.0275c0.0193-0.0964,0.4324-2.3741,3.7016-1.8122
		c3.7567,0.6445,7.8852-3.8696,8.056-4.0652l-0.1559-0.1396l-0.5367-0.0936C169.9875,90.0011,169.9992,89.9552,170.0056,89.9276z"/>
	<path fill="#58677A" d="M158.2466,95.9173c-0.0064,0.0274-0.0181,0.0733-0.0184,0.0754l0.5365,0.0936l-0.3672-0.3284
		C158.3934,95.7622,158.3232,95.8371,158.2466,95.9173z"/>
	<path fill="#58677A" d="M181.7645,83.9382c-0.6975,0.7299-4.1932,4.2011-7.2605,3.6799c-3.6718-0.6471-4.4096,1.9291-4.4984,2.3095
		c0.0766-0.08,0.1468-0.1551,0.151-0.1594l0.3673,0.3286l0.1573,0.0275c0.0193-0.0964,0.4324-2.3741,3.7016-1.8122
		c3.7567,0.6445,7.8852-3.8696,8.056-4.0652l-0.1561-0.1398l-0.5365-0.0936C181.7465,84.0115,181.7582,83.9655,181.7645,83.9382z"/>
	<path fill="#58677A" d="M170.0056,89.9276c-0.0064,0.0275-0.0181,0.0735-0.0184,0.0756l0.5367,0.0936l-0.3673-0.3286
		C170.1524,89.7726,170.0822,89.8476,170.0056,89.9276z"/>
	<path fill="#58677A" d="M193.5235,77.9485c-0.6975,0.7299-4.1932,4.2012-7.2605,3.6799c-3.6727-0.6472-4.4098,1.9303-4.4984,2.3097
		c0.0766-0.0802,0.1468-0.1551,0.151-0.1594l0.3672,0.3284l0.1575,0.0275c0.0193-0.0964,0.4324-2.3741,3.7016-1.8122
		c3.7567,0.6445,7.8852-3.8696,8.056-4.0652l-0.1561-0.1398l-0.5365-0.0936C193.5054,78.0219,193.5171,77.9759,193.5235,77.9485z"/>
	<path fill="#58677A" d="M181.7645,83.9382c-0.0064,0.0274-0.0181,0.0733-0.0184,0.0754l0.5365,0.0936l-0.3672-0.3284
		C181.9114,83.7831,181.8411,83.858,181.7645,83.9382z"/>
	<path fill="#58677A" d="M205.2826,71.9587c-0.6966,0.7292-4.1929,4.2013-7.2607,3.6801c-3.6727-0.6472-4.4098,1.9303-4.4984,2.3097
		c0.0766-0.0802,0.1468-0.1551,0.151-0.1594l0.3672,0.3284l0.1575,0.0275c0.0193-0.0964,0.4324-2.3741,3.7016-1.8122
		c3.7567,0.6445,7.8852-3.8696,8.056-4.0652l-0.1563-0.1398l-0.5362-0.0936C205.2645,72.0322,205.2762,71.9863,205.2826,71.9587z"/>
	<path fill="#58677A" d="M193.5235,77.9485c-0.0064,0.0274-0.0181,0.0733-0.0184,0.0754l0.5365,0.0936l-0.3672-0.3284
		C193.6703,77.7934,193.6001,77.8683,193.5235,77.9485z"/>
	<path fill="#58677A" d="M217.0416,65.9692c-0.6971,0.7299-4.1931,4.2011-7.2605,3.6799c-3.6718-0.6471-4.4096,1.9291-4.4984,2.3095
		c0.0764-0.0799,0.1467-0.1549,0.1508-0.1592l0.367,0.3284l0.1579,0.0275c0.0193-0.0964,0.4324-2.3741,3.7016-1.8122
		c3.7567,0.6445,7.8852-3.8696,8.056-4.0652l-0.1559-0.1396l-0.5367-0.0936C217.0235,66.0427,217.0352,65.9968,217.0416,65.9692z"/>
	<path fill="#58677A" d="M205.2826,71.9587c-0.0064,0.0275-0.0181,0.0735-0.0184,0.0756l0.5362,0.0936l-0.367-0.3284
		C205.4293,71.8038,205.359,71.8788,205.2826,71.9587z"/>
	<path fill="#58677A" d="M221.54,63.6597c-3.6718-0.6471-4.4096,1.9291-4.4984,2.3096c0.0766-0.08,0.1468-0.1551,0.151-0.1594
		l0.3673,0.3286l0.1573,0.0275c0.0193-0.0964,0.4324-2.3741,3.7016-1.8122c1.9138,0.3283,3.9176-0.6822,5.4521-1.7785
		l-0.4739-0.5305C224.9896,63.0422,223.2009,63.9418,221.54,63.6597z"/>
	<path fill="#58677A" d="M217.0416,65.9692c-0.0064,0.0275-0.0181,0.0735-0.0184,0.0756l0.5367,0.0936l-0.3673-0.3286
		C217.1884,65.8141,217.1182,65.8892,217.0416,65.9692z"/>
	<path fill="#58677A" d="M131.0753,123.0485c-0.6975,0.7299-4.1932,4.2011-7.2605,3.6799
		c-3.6727-0.6472-4.4098,1.9303-4.4984,2.3097c0.0766-0.0802,0.1468-0.1551,0.151-0.1594l0.3672,0.3284l0.1575,0.0275
		c0.0193-0.0964,0.4324-2.3741,3.7016-1.8122c3.7567,0.6445,7.8852-3.8696,8.056-4.0652l-0.1561-0.1398l-0.5365-0.0936
		C131.0572,123.1218,131.0689,123.0759,131.0753,123.0485z"/>
	<path fill="#58677A" d="M119.3163,129.0381c-0.0064,0.0274-0.0181,0.0733-0.0184,0.0754l0.5365,0.0936l-0.3672-0.3284
		C119.4632,128.8831,119.3929,128.9579,119.3163,129.0381z"/>
	<path fill="#58677A" d="M142.8342,117.0589c-0.6975,0.7299-4.1932,4.2012-7.2605,3.6799
		c-3.6727-0.6472-4.4098,1.9303-4.4984,2.3097c0.0766-0.0802,0.1468-0.1551,0.151-0.1594l0.3672,0.3284l0.1575,0.0275
		c0.0193-0.0964,0.4324-2.3741,3.7016-1.8122c3.7567,0.6445,7.8852-3.8696,8.056-4.0652l-0.1561-0.1398l-0.5365-0.0936
		C142.8162,117.1322,142.8279,117.0862,142.8342,117.0589z"/>
	<path fill="#58677A" d="M131.0753,123.0485c-0.0064,0.0274-0.0181,0.0733-0.0184,0.0754l0.5365,0.0936l-0.3672-0.3284
		C131.2221,122.8934,131.1519,122.9683,131.0753,123.0485z"/>
	<path fill="#58677A" d="M154.5932,111.0692c-0.6971,0.7299-4.1931,4.2011-7.2605,3.6799
		c-3.6727-0.6472-4.4098,1.9303-4.4984,2.3097c0.0766-0.0802,0.1468-0.1551,0.151-0.1594l0.3672,0.3284l0.1575,0.0275
		c0.0193-0.0964,0.4324-2.3741,3.7016-1.8122c3.7567,0.6445,7.8852-3.8696,8.056-4.0652l-0.1559-0.1396l-0.5367-0.0936
		C154.5751,111.1427,154.5868,111.0968,154.5932,111.0692z"/>
	<path fill="#58677A" d="M142.8342,117.0589c-0.0064,0.0274-0.0181,0.0733-0.0184,0.0754l0.5365,0.0936l-0.3672-0.3284
		C142.9811,116.9038,142.9108,116.9786,142.8342,117.0589z"/>
	<path fill="#58677A" d="M166.3523,105.0796c-0.6966,0.7292-4.1929,4.2013-7.2607,3.6801
		c-3.6718-0.6471-4.4096,1.9291-4.4984,2.3096c0.0766-0.08,0.1468-0.1551,0.151-0.1594l0.3673,0.3286l0.1573,0.0275
		c0.0193-0.0964,0.4324-2.3741,3.7016-1.8122c3.7567,0.6445,7.8852-3.8696,8.056-4.0652l-0.1563-0.1398l-0.5362-0.0936
		C166.3343,105.1531,166.346,105.1071,166.3523,105.0796z"/>
	<path fill="#58677A" d="M154.5932,111.0692c-0.0064,0.0275-0.0181,0.0735-0.0184,0.0756l0.5367,0.0936l-0.3673-0.3286
		C154.74,110.9141,154.6698,110.9892,154.5932,111.0692z"/>
	<path fill="#58677A" d="M178.1113,99.0901c-0.6975,0.7299-4.1932,4.2011-7.2605,3.6799c-3.6718-0.6471-4.4096,1.9291-4.4984,2.3095
		c0.0764-0.0799,0.1467-0.1549,0.1508-0.1592l0.367,0.3284l0.1579,0.0275c0.0193-0.0964,0.4324-2.3741,3.7016-1.8122
		c3.7567,0.6445,7.8852-3.8696,8.056-4.0652l-0.1561-0.1398l-0.5365-0.0936C178.0932,99.1634,178.1049,99.1175,178.1113,99.0901z"/>
	<path fill="#58677A" d="M166.3523,105.0796c-0.0064,0.0275-0.0181,0.0735-0.0184,0.0756l0.5362,0.0936l-0.367-0.3284
		C166.499,104.9247,166.4288,104.9997,166.3523,105.0796z"/>
	<path fill="#58677A" d="M189.8702,93.1005c-0.6971,0.7299-4.1931,4.2011-7.2605,3.6799c-3.6727-0.6472-4.4098,1.9303-4.4984,2.3097
		c0.0766-0.0802,0.1468-0.1551,0.151-0.1594l0.3672,0.3284l0.1575,0.0275c0.0193-0.0964,0.4324-2.3741,3.7016-1.8122
		c3.7567,0.6445,7.8852-3.8696,8.056-4.0652l-0.1559-0.1396l-0.5367-0.0936C189.8522,93.174,189.8639,93.128,189.8702,93.1005z"/>
	<path fill="#58677A" d="M178.1113,99.0901c-0.0064,0.0274-0.0181,0.0733-0.0184,0.0754l0.5365,0.0936l-0.3672-0.3284
		C178.2581,98.935,178.1879,99.0099,178.1113,99.0901z"/>
	<path fill="#58677A" d="M201.6292,87.111c-0.6975,0.7299-4.1932,4.2011-7.2605,3.6799c-3.6718-0.6471-4.4096,1.9291-4.4984,2.3095
		c0.0766-0.08,0.1468-0.1551,0.151-0.1594l0.3673,0.3286l0.1573,0.0275c0.0193-0.0964,0.4324-2.3741,3.7016-1.8122
		c3.7567,0.6445,7.8852-3.8696,8.056-4.0652l-0.1561-0.1398l-0.5365-0.0936C201.6111,87.1843,201.6228,87.1384,201.6292,87.111z"/>
	<path fill="#58677A" d="M189.8702,93.1005c-0.0064,0.0275-0.0181,0.0735-0.0184,0.0756l0.5367,0.0936l-0.3673-0.3286
		C190.0171,92.9454,189.9468,93.0204,189.8702,93.1005z"/>
	<path fill="#58677A" d="M213.3882,81.1213c-0.6975,0.7299-4.1932,4.2011-7.2605,3.6799c-3.6727-0.6472-4.4098,1.9303-4.4984,2.3097
		c0.0766-0.0802,0.1468-0.1551,0.151-0.1594l0.3672,0.3284l0.1575,0.0275c0.0193-0.0964,0.4324-2.3741,3.7016-1.8122
		c3.7567,0.6445,7.8852-3.8696,8.056-4.0652l-0.1561-0.1398l-0.5365-0.0936C213.3701,81.1947,213.3818,81.1487,213.3882,81.1213z"/>
	<path fill="#58677A" d="M201.6292,87.111c-0.0064,0.0274-0.0181,0.0733-0.0184,0.0754l0.5365,0.0936l-0.3672-0.3284
		C201.776,86.9559,201.7058,87.0308,201.6292,87.111z"/>
	<path fill="#58677A" d="M225.1471,75.1317c-0.6975,0.7299-4.1932,4.2012-7.2605,3.6799c-3.6727-0.6472-4.4098,1.9303-4.4984,2.3097
		c0.0766-0.0802,0.1468-0.1551,0.151-0.1594l0.3672,0.3284l0.1575,0.0275c0.0193-0.0964,0.4324-2.3741,3.7016-1.8122
		c3.7567,0.6445,7.8852-3.8696,8.056-4.0652l-0.1561-0.1398l-0.5365-0.0936C225.129,75.205,225.1407,75.1591,225.1471,75.1317z"/>
	<path fill="#58677A" d="M213.3882,81.1213c-0.0064,0.0274-0.0181,0.0733-0.0184,0.0754l0.5365,0.0936l-0.3672-0.3284
		C213.535,80.9662,213.4648,81.0411,213.3882,81.1213z"/>
	<path fill="#58677A" d="M229.6455,72.822c-3.6727-0.6472-4.4098,1.9303-4.4984,2.3097c0.0766-0.0802,0.1468-0.1551,0.151-0.1594
		l0.3672,0.3284l0.1575,0.0275c0.0193-0.0964,0.4324-2.3741,3.7016-1.8122c1.9339,0.3317,3.9565-0.7035,5.497-1.8129l-0.4708-0.5273
		C233.1366,72.1863,231.3244,73.1072,229.6455,72.822z"/>
	<path fill="#58677A" d="M225.1471,75.1317c-0.0064,0.0274-0.0181,0.0733-0.0184,0.0754l0.5365,0.0936l-0.3672-0.3284
		C225.2939,74.9766,225.2237,75.0515,225.1471,75.1317z"/>
	<path fill="#58677A" d="M139.181,132.2108c-0.6966,0.7292-4.1929,4.2013-7.2607,3.6801c-3.6718-0.647-4.4096,1.9291-4.4984,2.3096
		c0.0766-0.08,0.1468-0.1551,0.151-0.1594l0.3673,0.3286l0.1573,0.0275c0.0193-0.0964,0.4324-2.3741,3.7016-1.8122
		c3.7567,0.6445,7.8852-3.8696,8.056-4.0652l-0.1563-0.1398l-0.5362-0.0936C139.1629,132.2843,139.1746,132.2383,139.181,132.2108z"
		/>
	<path fill="#58677A" d="M127.4219,138.2004c-0.0064,0.0275-0.0181,0.0735-0.0184,0.0756l0.5367,0.0936l-0.3673-0.3286
		C127.5687,138.0453,127.4985,138.1204,127.4219,138.2004z"/>
	<path fill="#58677A" d="M150.94,126.2213c-0.6975,0.7299-4.1932,4.2011-7.2605,3.6799c-3.6718-0.6471-4.4096,1.9291-4.4984,2.3095
		c0.0764-0.0799,0.1467-0.1549,0.1508-0.1592l0.367,0.3284l0.1579,0.0275c0.0193-0.0964,0.4324-2.3741,3.7016-1.8123
		c3.7567,0.6445,7.8852-3.8696,8.056-4.0652l-0.1561-0.1398l-0.5365-0.0936C150.9219,126.2946,150.9336,126.2487,150.94,126.2213z"
		/>
	<path fill="#58677A" d="M139.181,132.2108c-0.0064,0.0275-0.0181,0.0735-0.0184,0.0756l0.5362,0.0936l-0.367-0.3284
		C139.3277,132.0559,139.2574,132.1309,139.181,132.2108z"/>
	<path fill="#58677A" d="M162.6989,120.2317c-0.6975,0.7299-4.1932,4.2011-7.2605,3.6799
		c-3.6727-0.6472-4.4098,1.9303-4.4984,2.3097c0.0766-0.0802,0.1468-0.1551,0.151-0.1594l0.3672,0.3284l0.1575,0.0275
		c0.0193-0.0964,0.4324-2.3741,3.7016-1.8122c3.7567,0.6445,7.8852-3.8696,8.056-4.0652l-0.1561-0.1398l-0.5365-0.0936
		C162.6808,120.305,162.6926,120.259,162.6989,120.2317z"/>
	<path fill="#58677A" d="M150.94,126.2213c-0.0064,0.0274-0.0181,0.0733-0.0184,0.0754l0.5365,0.0936l-0.3672-0.3284
		C151.0868,126.0662,151.0166,126.1411,150.94,126.2213z"/>
	<path fill="#58677A" d="M174.4579,114.242c-0.6971,0.7299-4.1931,4.2012-7.2605,3.6799c-3.6727-0.6472-4.4098,1.9303-4.4984,2.3097
		c0.0766-0.0802,0.1468-0.1551,0.151-0.1594l0.3672,0.3284l0.1575,0.0275c0.0193-0.0964,0.4324-2.3741,3.7016-1.8122
		c3.7567,0.6445,7.8852-3.8696,8.056-4.0652l-0.156-0.1396l-0.5367-0.0936C174.4398,114.3155,174.4515,114.2696,174.4579,114.242z"
		/>
	<path fill="#58677A" d="M162.6989,120.2317c-0.0064,0.0274-0.0181,0.0733-0.0184,0.0754l0.5365,0.0936l-0.3672-0.3284
		C162.8457,120.0766,162.7755,120.1515,162.6989,120.2317z"/>
	<path fill="#58677A" d="M186.2168,108.2526c-0.6975,0.7299-4.1932,4.2011-7.2605,3.6799
		c-3.6718-0.6471-4.4096,1.9291-4.4984,2.3095c0.0766-0.08,0.1468-0.1551,0.151-0.1594l0.3673,0.3286l0.1573,0.0275
		c0.0193-0.0964,0.4324-2.3741,3.7016-1.8122c3.7567,0.6445,7.8852-3.8696,8.056-4.0652l-0.1561-0.1398l-0.5365-0.0936
		C186.1987,108.3259,186.2105,108.2799,186.2168,108.2526z"/>
	<path fill="#58677A" d="M174.4579,114.242c-0.0064,0.0275-0.0181,0.0735-0.0184,0.0756l0.5367,0.0936l-0.3673-0.3286
		C174.6047,114.0869,174.5345,114.162,174.4579,114.242z"/>
	<path fill="#58677A" d="M197.9758,102.2629c-0.6975,0.7299-4.1932,4.2012-7.2605,3.6799
		c-3.6727-0.6472-4.4098,1.9303-4.4984,2.3097c0.0766-0.0802,0.1468-0.1551,0.151-0.1594l0.3672,0.3284l0.1575,0.0275
		c0.0193-0.0964,0.4324-2.3741,3.7016-1.8122c3.7567,0.6445,7.8852-3.8696,8.056-4.0652l-0.1561-0.1398l-0.5365-0.0936
		C197.9577,102.3362,197.9694,102.2903,197.9758,102.2629z"/>
	<path fill="#58677A" d="M186.2168,108.2526c-0.0064,0.0274-0.0181,0.0733-0.0184,0.0754l0.5365,0.0936l-0.3672-0.3284
		C186.3637,108.0975,186.2934,108.1723,186.2168,108.2526z"/>
	<path fill="#58677A" d="M209.7351,96.2729c-0.6966,0.7288-4.1929,4.2015-7.2609,3.6803c-3.6727-0.6472-4.4098,1.9303-4.4984,2.3097
		c0.0766-0.0802,0.1468-0.1551,0.151-0.1594l0.3672,0.3284l0.1575,0.0275c0.0193-0.0964,0.4324-2.3741,3.7016-1.8122
		c3.7567,0.6445,7.8852-3.8696,8.056-4.0652l-0.156-0.1396l-0.5365-0.0936C209.7168,96.3468,209.7285,96.3006,209.7351,96.2729z"/>
	<path fill="#58677A" d="M197.9758,102.2629c-0.0064,0.0274-0.0181,0.0733-0.0184,0.0754l0.5365,0.0936l-0.3672-0.3284
		C198.1226,102.1078,198.0524,102.1827,197.9758,102.2629z"/>
	<path fill="#58677A" d="M221.4939,90.2838c-0.6975,0.7299-4.1932,4.2012-7.2605,3.6799c-3.671-0.6469-4.4093,1.9279-4.4983,2.3092
		c0.0763-0.0799,0.1465-0.1547,0.1506-0.159l0.3673,0.3286l0.1575,0.0275c0.0193-0.0964,0.4324-2.3741,3.7016-1.8122
		c3.7567,0.6445,7.8852-3.8696,8.056-4.0652l-0.1561-0.1398l-0.5365-0.0936C221.4758,90.3571,221.4875,90.3112,221.4939,90.2838z"/>
	<path fill="#58677A" d="M209.7351,96.2729c-0.0065,0.0277-0.0182,0.0739-0.0186,0.0759l0.5365,0.0936l-0.3673-0.3286
		C209.8816,96.1182,209.8113,96.1931,209.7351,96.2729z"/>
	<path fill="#58677A" d="M233.2528,84.2942c-0.6975,0.7299-4.1932,4.2011-7.2605,3.6799c-3.6727-0.6472-4.4098,1.9303-4.4984,2.3097
		c0.0766-0.0802,0.1468-0.1551,0.151-0.1594l0.3672,0.3284l0.1575,0.0275c0.0193-0.0964,0.4324-2.3741,3.7016-1.8122
		c3.7567,0.6445,7.8852-3.8696,8.056-4.0652l-0.1561-0.1398l-0.5365-0.0936C233.2347,84.3675,233.2464,84.3215,233.2528,84.2942z"/>
	<path fill="#58677A" d="M221.4939,90.2838c-0.0064,0.0274-0.0181,0.0733-0.0184,0.0754l0.5365,0.0936l-0.3672-0.3284
		C221.6407,90.1287,221.5705,90.2036,221.4939,90.2838z"/>
	<path fill="#58677A" d="M242.7041,80.3073c-1.4205,1.023-3.256,1.9655-4.9529,1.6771c-3.6727-0.6472-4.4098,1.9303-4.4984,2.3097
		c0.0766-0.0802,0.1468-0.1551,0.151-0.1594l0.3672,0.3284l0.1575,0.0275c0.0193-0.0964,0.4324-2.3741,3.7016-1.8122
		c1.9541,0.3351,3.996-0.725,5.5419-1.8474L242.7041,80.3073z"/>
	<path fill="#58677A" d="M233.2528,84.2942c-0.0064,0.0274-0.0181,0.0733-0.0184,0.0754l0.5365,0.0936l-0.3672-0.3284
		C233.3997,84.1391,233.3294,84.2139,233.2528,84.2942z"/>
	<g>
		<path fill="#58677A" d="M184.6189,29.3198c-0.6975,0.7299-4.1932,4.2012-7.2605,3.6799
			c-3.6718-0.6471-4.4096,1.9291-4.4984,2.3095c0.0766-0.08,0.1468-0.1551,0.151-0.1594l0.3673,0.3286l0.1573,0.0275
			c0.0193-0.0964,0.4324-2.3741,3.7016-1.8122c3.7567,0.6445,7.8852-3.8696,8.056-4.0652l-0.1561-0.1398l-0.5366-0.0936
			C184.6008,29.3931,184.6125,29.3471,184.6189,29.3198z"/>
		<path fill="#58677A" d="M189.1173,27.01c-3.6727-0.6472-4.4098,1.9303-4.4984,2.3097c0.0766-0.0802,0.1468-0.1551,0.151-0.1594
			l0.3672,0.3284l0.1575,0.0275c0.0193-0.0964,0.4324-2.3741,3.7016-1.8122c1.8367,0.315,3.756-0.6061,5.2644-1.6496l-0.4779-0.5352
			C192.4051,26.4635,190.7065,27.2801,189.1173,27.01z"/>
		<g>
			<path fill="#58677A" d="M90.5471,77.2364c-0.6972,0.7299-4.1931,4.2012-7.2605,3.6799
				c-3.6727-0.6472-4.4098,1.9303-4.4984,2.3097c0.0766-0.0802,0.1468-0.1551,0.151-0.1594l0.3672,0.3284l0.1575,0.0275
				c0.0193-0.0964,0.4324-2.3741,3.7016-1.8122c3.7567,0.6445,7.8852-3.8696,8.056-4.0652l-0.156-0.1396l-0.5367-0.0936
				C90.529,77.3099,90.5407,77.2639,90.5471,77.2364z"/>
			<path fill="#58677A" d="M102.306,71.2469c-0.6975,0.7299-4.1932,4.2012-7.2605,3.6799
				c-3.6718-0.6471-4.4096,1.9291-4.4984,2.3095c0.0766-0.08,0.1468-0.1551,0.151-0.1594l0.3673,0.3286l0.1573,0.0275
				c0.0193-0.0964,0.4324-2.3741,3.7016-1.8122c3.7567,0.6445,7.8852-3.8696,8.056-4.0652l-0.1561-0.1398l-0.5366-0.0936
				C102.288,71.3203,102.2997,71.2743,102.306,71.2469z"/>
			<path fill="#58677A" d="M125.8241,59.2675c-0.6966,0.7292-4.1929,4.2013-7.2607,3.6801
				c-3.6727-0.6472-4.4098,1.9303-4.4984,2.3097c-0.6975,0.7299-4.1932,4.2011-7.2605,3.6799
				c-3.6727-0.6472-4.4098,1.9303-4.4984,2.3097c0.0766-0.0802,0.1468-0.1551,0.151-0.1594l0.3672,0.3284l0.1575,0.0275
				c0.0193-0.0964,0.4324-2.3741,3.7016-1.8122c3.7567,0.6445,7.8852-3.8696,8.056-4.0652l-0.1561-0.1398l0.1575,0.0275
				c0.0193-0.0964,0.4324-2.3741,3.7016-1.8123c3.7567,0.6445,7.8852-3.8696,8.056-4.0652l-0.1563-0.1398l-0.5362-0.0936
				C125.806,59.341,125.8177,59.295,125.8241,59.2675z"/>
			<path fill="#58677A" d="M137.5831,53.278c-0.6972,0.7299-4.1931,4.2012-7.2605,3.6799
				c-3.6718-0.6471-4.4096,1.9291-4.4984,2.3096c0.0764-0.0799,0.1467-0.1549,0.1508-0.1592l0.367,0.3284l0.1578,0.0275
				c0.0193-0.0964,0.4324-2.3741,3.7016-1.8122c3.7567,0.6445,7.8852-3.8696,8.056-4.0652l-0.156-0.1396l-0.5367-0.0936
				C137.565,53.3515,137.5767,53.3055,137.5831,53.278z"/>
			<path fill="#58677A" d="M149.342,47.2885c-0.6975,0.7299-4.1932,4.2012-7.2605,3.6799
				c-3.6718-0.6471-4.4096,1.9291-4.4984,2.3095c0.0766-0.08,0.1468-0.1551,0.151-0.1594l0.3673,0.3286l0.1573,0.0275
				c0.0193-0.0964,0.4324-2.3741,3.7016-1.8122c3.7567,0.6445,7.8852-3.8696,8.056-4.0652l-0.1561-0.1398l-0.5365-0.0936
				C149.3239,47.3619,149.3356,47.3159,149.342,47.2885z"/>
			<path fill="#58677A" d="M161.101,41.2989c-0.6975,0.7299-4.1932,4.2012-7.2605,3.6799
				c-3.6727-0.6472-4.4098,1.9303-4.4984,2.3097c0.0766-0.0802,0.1468-0.1551,0.151-0.1594l0.3672,0.3284l0.1575,0.0275
				c0.0193-0.0964,0.4324-2.3741,3.7016-1.8122c3.7567,0.6445,7.8852-3.8696,8.056-4.0652l-0.1561-0.1398l-0.5365-0.0936
				C161.0829,41.3722,161.0946,41.3262,161.101,41.2989z"/>
			<path fill="#58677A" d="M173.3782,35.4784l-0.5367-0.0936c0.0004-0.0021,0.0121-0.048,0.0184-0.0756
				c-0.6972,0.7299-4.1931,4.2012-7.2605,3.6799c-3.6727-0.6472-4.4098,1.9303-4.4984,2.3097
				c0.0766-0.0802,0.1468-0.1551,0.151-0.1594l0.3672,0.3284l0.1575,0.0275c0.0193-0.0964,0.4324-2.3741,3.7016-1.8122
				c3.7567,0.6445,7.8852-3.8696,8.056-4.0652L173.3782,35.4784z"/>
			<path fill="#58677A" d="M78.7881,83.226c-0.6975,0.7299-4.1932,4.2012-7.2605,3.6799c-2.7399-0.4828-3.8345,0.8352-4.2588,1.6988
				l0.5057,0.5672c0.193-0.5839,0.938-2.035,3.6319-1.5719c3.7567,0.6445,7.8852-3.8696,8.056-4.0652l-0.1561-0.1398l-0.5365-0.0936
				C78.77,83.2994,78.7817,83.2534,78.7881,83.226z"/>
		</g>
	</g>
	<path fill="#58677A" d="M79.5119,96.7625c3.7567,0.6445,7.8852-3.8696,8.056-4.0652l-0.1561-0.1398l-0.5366-0.0936
		c0.0003-0.0021,0.0121-0.048,0.0184-0.0754c-0.6975,0.7299-4.1932,4.2011-7.2605,3.6799
		c-2.6917-0.4744-3.7944,0.7891-4.2354,1.6528l0.5006,0.5613C76.1179,97.6688,76.895,96.3127,79.5119,96.7625z"/>
	<path fill="#58677A" d="M87.6177,105.9248c3.7567,0.6445,7.8852-3.8696,8.056-4.0652l-0.156-0.1396l-0.5367-0.0936
		c0.0003-0.0021,0.0121-0.048,0.0184-0.0756c-0.6972,0.7299-4.1931,4.2012-7.2605,3.6799c-2.6438-0.466-3.7551,0.7452-4.2122,1.6072
		l0.4954,0.5557C84.2686,106.7569,85.0773,105.4882,87.6177,105.9248z"/>
	<path fill="#58677A" d="M95.7232,115.0872c3.7567,0.6445,7.8852-3.8696,8.056-4.0652l-0.1563-0.1398l-0.5362-0.0936
		c0.0003-0.0021,0.0121-0.048,0.0184-0.0756c-0.6966,0.7292-4.1929,4.2013-7.2607,3.6801c-2.5955-0.4574-3.7157,0.703-4.1888,1.5614
		l0.4901,0.5496C92.4192,115.8512,93.2599,114.6639,95.7232,115.0872z"/>
	<path fill="#58677A" d="M103.8289,124.2497c3.7567,0.6445,7.8852-3.8696,8.056-4.0652l-0.1561-0.1398l-0.5365-0.0936
		c0.0003-0.0021,0.012-0.048,0.0184-0.0754c-0.6975,0.7299-4.1932,4.2012-7.2605,3.6799c-2.5474-0.4489-3.6767,0.6624-4.1653,1.5157
		l0.4897,0.5495C100.5673,124.9597,101.4206,123.8357,103.8289,124.2497z"/>
	<path fill="#58677A" d="M111.9346,133.4121c3.7567,0.6445,7.8852-3.8696,8.056-4.0652l-0.1561-0.1398l-0.5365-0.0936
		c0.0003-0.0021,0.012-0.048,0.0184-0.0754c-0.6975,0.7299-4.1932,4.2012-7.2605,3.6799c-2.4994-0.4405-3.6384,0.6238-4.1421,1.47
		l0.4904,0.5498C108.7147,134.0726,109.5774,133.0069,111.9346,133.4121z"/>
	<path fill="#58677A" d="M120.0402,142.5744c3.7567,0.6445,7.8852-3.8696,8.056-4.0652l-0.156-0.1396l-0.5367-0.0936
		c0.0003-0.0021,0.012-0.048,0.0184-0.0756c-0.6972,0.7299-4.1931,4.2011-7.2605,3.6799c-2.4536-0.4324-3.5995,0.5877-4.1173,1.4258
		l0.4894,0.5489C116.8613,143.1879,117.7339,142.178,120.0402,142.5744z"/>
	<path fill="#4A5566" d="M186.3148,17.1732"/>
	<g>
		<g>
			<polygon fill="#404C5E" points="8.1253,84.8939 9.6498,84.1318 69.4806,76.6269 69.5522,77.1887 			"/>
		</g>
		<polygon fill="#404C5E" points="20.581,78.6692 22.1055,77.9071 81.9362,70.4021 82.0079,70.964 		"/>
		<polygon fill="#404C5E" points="33.0367,72.4444 34.5612,71.6824 94.3919,64.1774 94.4635,64.7392 		"/>
		<polygon fill="#404C5E" points="45.4924,66.2197 47.0169,65.4576 106.8476,57.9526 106.9192,58.5145 		"/>
		<polygon fill="#404C5E" points="57.9481,59.9949 59.4726,59.2329 119.3033,51.7279 119.3749,52.2898 		"/>
		<polygon fill="#404C5E" points="70.4037,53.7702 71.9283,53.0081 131.759,45.5032 131.8306,46.065 		"/>
		<polygon fill="#404C5E" points="82.8594,47.5455 84.384,46.7834 144.2147,39.2784 144.2863,39.8403 		"/>
		<polygon fill="#404C5E" points="95.3151,41.3207 96.8397,40.5587 156.6704,33.0537 156.742,33.6155 		"/>
		<polygon fill="#404C5E" points="107.7708,35.096 109.2954,34.3339 169.1261,26.8289 169.1977,27.3908 		"/>
		<g>
			<polygon fill="#404C5E" points="120.2265,28.8712 121.7511,28.1092 181.5818,20.6042 181.6534,21.166 			"/>
		</g>
	</g>
	<g>
		<path fill="#6F7D95" d="M190.5278,15.1447c-1.6508-2.1016-4.1719-2.9354-5.9779-2.1059L58.1296,76.232l3.2136,4.6551
			l129.7696-64.8674C190.9425,15.721,190.7499,15.4273,190.5278,15.1447z"/>
		<path fill="#3D495B" d="M63.1649,83.5257l1.137,1.6468L190.566,22.0234l0.0034,0.004c0.0196-0.0146,0.043-0.0217,0.0623-0.0368
			c0.8421-0.6615,1.2638-1.6892,1.3019-2.832L63.1649,83.5257z"/>
		<path fill="#535E70" d="M191.1127,16.0197L61.3432,80.8871l1.8217,2.6387l128.7688-64.3672
			C191.9672,18.1492,191.7012,17.052,191.1127,16.0197z"/>
		<path fill="#3D495B" d="M64.4409,85.5439c0.0203-0.0151,0.0446-0.0225,0.0645-0.0382c1.868-1.4673,1.8198-4.646-0.1077-7.0999
			c-1.9274-2.4538-5.0043-3.2534-6.8724-1.7861c-1.4193,1.1148-1.726,3.2167-0.9492,5.239l4.1127-0.5159L64.4409,85.5439z"/>
	</g>
	<g>
		<g>
			<path fill="#4A5566" d="M161.0734,23.6035l-0.4517-0.336c0.0386-0.0551,1.0273-1.3551,4.1588-2.1069
				c2.6357-0.6335,2.823-1.2642,2.823-1.2724l0.5618,0.0165c0.011,0.2369-0.1928,1.0714-3.2527,1.8067
				C162.0071,22.4054,161.0817,23.5924,161.0734,23.6035z"/>
		</g>
		<g>
			<path fill="#4A5566" d="M154.0365,27.1205l-0.4517-0.336c0.0386-0.0551,1.0273-1.3551,4.1588-2.1069
				c2.6357-0.6307,2.823-1.2642,2.823-1.2697l0.5619,0.0165c0.011,0.2369-0.1983,1.0714-3.2527,1.804
				C154.9702,25.9225,154.0448,27.1095,154.0365,27.1205z"/>
		</g>
		<g>
			<path fill="#4A5566" d="M146.9996,30.6376l-0.4517-0.336c0.0386-0.0551,1.0273-1.3551,4.1588-2.1069
				c2.6358-0.6307,2.823-1.2642,2.823-1.2697l0.5619,0.0165c0.011,0.2369-0.1983,1.0714-3.2527,1.804
				C147.9333,29.4396,147.0079,30.6266,146.9996,30.6376z"/>
		</g>
		<g>
			<path fill="#4A5566" d="M139.9627,34.1547l-0.4517-0.336c0.0386-0.0551,1.0273-1.3523,4.1588-2.1069
				c2.6357-0.6307,2.823-1.2642,2.823-1.2697l0.5618,0.0165c0.011,0.2369-0.1983,1.0714-3.2527,1.804
				C140.8963,32.9594,139.9709,34.1437,139.9627,34.1547z"/>
		</g>
		<g>
			<path fill="#4A5566" d="M132.9258,37.6718l-0.4517-0.336c0.0386-0.0551,1.0273-1.3523,4.1588-2.1042
				c2.6357-0.6335,2.823-1.2669,2.823-1.2724l0.5619,0.0165c0.011,0.2369-0.1983,1.0714-3.2527,1.8067
				C133.8594,36.4765,132.934,37.6608,132.9258,37.6718z"/>
		</g>
		<g>
			<path fill="#4A5566" d="M125.8888,41.1916l-0.4544-0.336c0.0413-0.0551,1.0273-1.3551,4.1616-2.1069
				c2.6358-0.6307,2.823-1.2669,2.823-1.2724l0.5618,0.0165c0.011,0.2396-0.1983,1.0741-3.2527,1.8067
				C126.8197,39.9936,125.8971,41.1806,125.8888,41.1916z"/>
		</g>
		<g>
			<path fill="#4A5566" d="M118.8492,44.7087l-0.4517-0.336c0.0386-0.0551,1.0273-1.3551,4.1616-2.1069
				c2.6357-0.6307,2.823-1.2642,2.823-1.2697l0.5619,0.0165c0.011,0.2369-0.1983,1.0714-3.2527,1.804
				C119.7828,43.5107,118.8574,44.6977,118.8492,44.7087z"/>
		</g>
		<g>
			<path fill="#4A5566" d="M111.8122,48.2258l-0.4517-0.336c0.0386-0.0551,1.0273-1.3523,4.1588-2.1069
				c2.6357-0.6307,2.823-1.2614,2.823-1.2697l0.5619,0.0165c0.011,0.2369-0.1928,1.0714-3.2527,1.804
				C112.7459,47.0305,111.8205,48.2148,111.8122,48.2258z"/>
		</g>
		<g>
			<path fill="#4A5566" d="M104.7753,51.7429l-0.4517-0.336c0.0386-0.0551,1.0273-1.3523,4.1588-2.1042
				c2.6357-0.6335,2.823-1.2669,2.823-1.2724l0.5619,0.0165c0.011,0.2369-0.1983,1.0714-3.2527,1.8067
				C105.709,50.5476,104.7836,51.7319,104.7753,51.7429z"/>
		</g>
		<g>
			<path fill="#4A5566" d="M97.7384,55.2627l-0.4517-0.336c0.0386-0.0551,1.0273-1.3551,4.1588-2.1069
				c2.6357-0.6335,2.823-1.2669,2.823-1.2724l0.5619,0.0165c0.011,0.2369-0.1983,1.0714-3.2527,1.8067
				C98.6721,54.0647,97.7467,55.2517,97.7384,55.2627z"/>
		</g>
		<g>
			<path fill="#4A5566" d="M90.7015,58.7798l-0.4517-0.336c0.0386-0.0551,1.0273-1.3551,4.1588-2.1069
				c2.6357-0.6307,2.823-1.2642,2.823-1.2697l0.5619,0.0165c0.011,0.2369-0.1983,1.0714-3.2527,1.804
				C91.6351,57.5817,90.7097,58.7688,90.7015,58.7798z"/>
		</g>
		<g>
			<path fill="#4A5566" d="M83.6646,62.2969l-0.4517-0.336c0.0386-0.0551,1.0273-1.3551,4.1588-2.1069
				c2.6357-0.6307,2.823-1.2642,2.823-1.2697l0.5619,0.0165c0.011,0.2369-0.1983,1.0714-3.2527,1.804
				C84.5982,61.0988,83.6728,62.2859,83.6646,62.2969z"/>
		</g>
		<g>
			<path fill="#4A5566" d="M76.6276,65.814l-0.4517-0.336c0.0386-0.0551,1.0246-1.3523,4.1588-2.1069
				c2.6357-0.6307,2.823-1.2642,2.823-1.2697l0.5619,0.0165c0.011,0.2369-0.1983,1.0714-3.2527,1.804
				C77.5585,64.6187,76.6359,65.803,76.6276,65.814z"/>
		</g>
		<g>
			<path fill="#4A5566" d="M69.588,69.3338l-0.4517-0.336c0.0386-0.0551,1.0273-1.355,4.1588-2.1069
				c2.6385-0.6335,2.8258-1.2669,2.8258-1.2724l0.5619,0.0165c0.011,0.2369-0.1983,1.0714-3.2554,1.8067
				C70.5216,68.1357,69.5962,69.3228,69.588,69.3338z"/>
		</g>
		<g>
			<path fill="#4A5566" d="M62.551,72.8509l-0.4517-0.336c0.0386-0.0551,1.0273-1.3551,4.1588-2.1069
				c2.6357-0.6307,2.823-1.2614,2.823-1.2697l0.5619,0.0165c0.011,0.2369-0.1928,1.0714-3.2527,1.804
				C63.4847,71.6528,62.5593,72.8399,62.551,72.8509z"/>
		</g>
		<g>
			<path fill="#4A5566" d="M55.5141,76.368l-0.4517-0.336c0.0386-0.0551,1.0273-1.3551,4.1588-2.1069
				c2.6357-0.6307,2.823-1.2642,2.823-1.2697l0.5619,0.0165c0.011,0.2369-0.1983,1.0714-3.2527,1.804
				C56.4478,75.1699,55.5224,76.357,55.5141,76.368z"/>
		</g>
		<g>
			<path fill="#4A5566" d="M48.4772,79.8851l-0.4517-0.336c0.0386-0.0551,1.0273-1.3523,4.1588-2.1069
				c2.6357-0.6307,2.823-1.2642,2.823-1.2697l0.5619,0.0165c0.011,0.2369-0.1983,1.0714-3.2527,1.804
				C49.4109,78.6897,48.4855,79.874,48.4772,79.8851z"/>
		</g>
		<g>
			<path fill="#4A5566" d="M41.4403,83.4021l-0.4517-0.336c0.0386-0.0551,1.0273-1.3523,4.1588-2.1042
				c2.6357-0.6335,2.823-1.2669,2.823-1.2724l0.5619,0.0165c0.011,0.2369-0.1983,1.0714-3.2527,1.8067
				C42.3739,82.2068,41.4485,83.3911,41.4403,83.4021z"/>
		</g>
	</g>
	<g>
		<g>
			<path fill="#4A5566" d="M151.7455,24.8716l-0.4517-0.336c0.0386-0.0551,1.0273-1.3551,4.1588-2.1069
				c2.6358-0.6335,2.823-1.2642,2.823-1.2724l0.5619,0.0165c0.011,0.2369-0.1928,1.0714-3.2527,1.8067
				C152.6792,23.6735,151.7538,24.8606,151.7455,24.8716z"/>
		</g>
		<g>
			<path fill="#4A5566" d="M144.7086,28.3887l-0.4517-0.336c0.0386-0.0551,1.0273-1.3551,4.1588-2.1069
				c2.6357-0.6307,2.823-1.2642,2.823-1.2697l0.5618,0.0165c0.011,0.2369-0.1983,1.0714-3.2527,1.804
				C145.6423,27.1906,144.7169,28.3777,144.7086,28.3887z"/>
		</g>
		<g>
			<path fill="#4A5566" d="M137.6717,31.9058l-0.4517-0.336c0.0386-0.0551,1.0273-1.3551,4.1588-2.1069
				c2.6357-0.6307,2.823-1.2642,2.823-1.2697l0.5619,0.0165c0.011,0.2369-0.1983,1.0714-3.2527,1.804
				C138.6054,30.7077,137.68,31.8947,137.6717,31.9058z"/>
		</g>
		<g>
			<path fill="#4A5566" d="M130.6348,35.4228l-0.4517-0.336c0.0386-0.0551,1.0273-1.3523,4.1588-2.1069
				c2.6358-0.6307,2.823-1.2642,2.823-1.2697l0.5618,0.0165c0.011,0.2369-0.1983,1.0714-3.2527,1.804
				C131.5684,34.2275,130.643,35.4118,130.6348,35.4228z"/>
		</g>
		<g>
			<path fill="#4A5566" d="M123.5979,38.9399l-0.4517-0.336c0.0386-0.0551,1.0273-1.3523,4.1588-2.1042
				c2.6357-0.6335,2.823-1.2669,2.823-1.2724l0.5619,0.0165c0.011,0.2369-0.1983,1.0714-3.2527,1.8067
				C124.5315,37.7446,123.6061,38.9289,123.5979,38.9399z"/>
		</g>
		<g>
			<path fill="#4A5566" d="M116.5609,42.4598l-0.4544-0.336c0.0413-0.0551,1.0273-1.3551,4.1616-2.1069
				c2.6357-0.6307,2.823-1.2669,2.823-1.2724l0.5619,0.0165c0.011,0.2396-0.1983,1.0741-3.2527,1.8067
				C117.4918,41.2617,116.5692,42.4487,116.5609,42.4598z"/>
		</g>
		<g>
			<path fill="#4A5566" d="M109.5213,45.9768l-0.4517-0.336c0.0386-0.0551,1.0273-1.3551,4.1616-2.1069
				c2.6357-0.6307,2.823-1.2642,2.823-1.2697l0.5619,0.0165c0.011,0.2369-0.1983,1.0714-3.2527,1.804
				C110.4549,44.7788,109.5295,45.9658,109.5213,45.9768z"/>
		</g>
		<g>
			<path fill="#4A5566" d="M102.4843,49.4939l-0.4517-0.336c0.0386-0.0551,1.0273-1.3523,4.1588-2.1069
				c2.6357-0.6307,2.823-1.2614,2.823-1.2697l0.5619,0.0165c0.011,0.2369-0.1928,1.0714-3.2527,1.804
				C103.418,48.2986,102.4926,49.4829,102.4843,49.4939z"/>
		</g>
		<g>
			<path fill="#4A5566" d="M95.4474,53.011l-0.4517-0.336c0.0386-0.0551,1.0273-1.3523,4.1588-2.1042
				c2.6357-0.6335,2.823-1.2669,2.823-1.2724l0.5619,0.0165c0.011,0.2369-0.1983,1.0714-3.2527,1.8067
				C96.3811,51.8157,95.4557,53,95.4474,53.011z"/>
		</g>
		<g>
			<path fill="#4A5566" d="M88.4105,56.5308l-0.4517-0.336c0.0386-0.0551,1.0273-1.3551,4.1588-2.1069
				c2.6357-0.6335,2.823-1.2669,2.823-1.2724l0.5619,0.0165c0.011,0.2369-0.1983,1.0714-3.2527,1.8067
				C89.3442,55.3328,88.4188,56.5198,88.4105,56.5308z"/>
		</g>
		<g>
			<path fill="#4A5566" d="M81.3736,60.0479l-0.4517-0.336c0.0386-0.0551,1.0273-1.3551,4.1588-2.1069
				c2.6357-0.6307,2.823-1.2642,2.823-1.2697l0.5619,0.0165c0.011,0.2369-0.1983,1.0714-3.2527,1.804
				C82.3072,58.8499,81.3818,60.0369,81.3736,60.0479z"/>
		</g>
		<g>
			<path fill="#4A5566" d="M74.3367,63.565l-0.4517-0.336c0.0386-0.0551,1.0273-1.3551,4.1588-2.1069
				c2.6357-0.6307,2.823-1.2642,2.823-1.2697l0.5619,0.0165c0.011,0.2369-0.1983,1.0714-3.2527,1.804
				C75.2703,62.3669,74.3449,63.554,74.3367,63.565z"/>
		</g>
		<g>
			<path fill="#4A5566" d="M67.2997,67.0821l-0.4517-0.336c0.0386-0.0551,1.0246-1.3523,4.1588-2.1069
				c2.6357-0.6307,2.823-1.2642,2.823-1.2697l0.5619,0.0165c0.011,0.2369-0.1983,1.0714-3.2527,1.804
				C68.2307,65.8868,67.308,67.0711,67.2997,67.0821z"/>
		</g>
		<g>
			<path fill="#4A5566" d="M60.2601,70.6019l-0.4517-0.336c0.0386-0.0551,1.0273-1.3551,4.1588-2.1069
				c2.6385-0.6335,2.8258-1.2669,2.8258-1.2724l0.5619,0.0165c0.011,0.2369-0.1983,1.0714-3.2554,1.8067
				C61.1937,69.4039,60.2683,70.5909,60.2601,70.6019z"/>
		</g>
		<g>
			<path fill="#4A5566" d="M53.2231,74.119l-0.4517-0.336c0.0386-0.0551,1.0273-1.355,4.1588-2.1069
				c2.6357-0.6307,2.823-1.2614,2.823-1.2697l0.5619,0.0165c0.011,0.2369-0.1928,1.0714-3.2527,1.804
				C54.1568,72.921,53.2314,74.108,53.2231,74.119z"/>
		</g>
		<g>
			<path fill="#4A5566" d="M46.1862,77.6361l-0.4517-0.336c0.0386-0.0551,1.0273-1.355,4.1588-2.1069
				c2.6357-0.6307,2.823-1.2642,2.823-1.2697l0.5619,0.0165c0.011,0.2369-0.1983,1.0714-3.2527,1.804
				C47.1199,76.438,46.1945,77.6251,46.1862,77.6361z"/>
		</g>
		<g>
			<path fill="#4A5566" d="M39.1493,81.1532l-0.4517-0.336c0.0386-0.0551,1.0273-1.3523,4.1588-2.1069
				c2.6357-0.6307,2.823-1.2642,2.823-1.2697l0.5619,0.0165c0.011,0.2369-0.1983,1.0714-3.2527,1.804
				C40.083,79.9579,39.1576,81.1422,39.1493,81.1532z"/>
		</g>
		<g>
			<path fill="#4A5566" d="M32.1124,84.6703l-0.4517-0.336c0.0386-0.0551,1.0273-1.3523,4.1588-2.1042
				c2.6357-0.6335,2.823-1.2669,2.823-1.2724l0.5619,0.0165c0.011,0.2369-0.1983,1.0714-3.2527,1.8067
				C33.046,83.475,32.1206,84.6592,32.1124,84.6703z"/>
		</g>
	</g>
	<g>
		<g>
			<path fill="#4A5566" d="M142.4176,26.1397l-0.4517-0.336c0.0385-0.0551,1.0273-1.3551,4.1588-2.1069
				c2.6357-0.6335,2.823-1.2642,2.823-1.2724l0.5619,0.0165c0.011,0.2369-0.1928,1.0714-3.2527,1.8067
				C143.3513,24.9417,142.4259,26.1287,142.4176,26.1397z"/>
		</g>
		<g>
			<path fill="#4A5566" d="M135.3807,29.6568l-0.4517-0.336c0.0386-0.0551,1.0273-1.3551,4.1588-2.1069
				c2.6358-0.6307,2.823-1.2642,2.823-1.2697l0.5618,0.0165c0.011,0.2369-0.1983,1.0714-3.2527,1.804
				C136.3144,28.4587,135.389,29.6458,135.3807,29.6568z"/>
		</g>
		<g>
			<path fill="#4A5566" d="M128.3438,33.1739l-0.4517-0.336c0.0386-0.0551,1.0273-1.3551,4.1588-2.1069
				c2.6357-0.6307,2.823-1.2642,2.823-1.2697l0.5618,0.0165c0.011,0.2369-0.1983,1.0714-3.2527,1.804
				C129.2775,31.9758,128.3521,33.1629,128.3438,33.1739z"/>
		</g>
		<g>
			<path fill="#4A5566" d="M121.3069,36.691l-0.4517-0.336c0.0386-0.0551,1.0273-1.3523,4.1588-2.1069
				c2.6357-0.6307,2.823-1.2642,2.823-1.2697l0.5619,0.0165c0.011,0.2369-0.1983,1.0714-3.2527,1.804
				C122.2405,35.4957,121.3151,36.68,121.3069,36.691z"/>
		</g>
		<g>
			<path fill="#4A5566" d="M114.27,40.208l-0.4517-0.336c0.0386-0.0551,1.0273-1.3523,4.1588-2.1042
				c2.6357-0.6335,2.823-1.2669,2.823-1.2724l0.5619,0.0165c0.011,0.2369-0.1983,1.0714-3.2527,1.8067
				C115.2036,39.0127,114.2782,40.197,114.27,40.208z"/>
		</g>
		<g>
			<path fill="#4A5566" d="M107.233,43.7279l-0.4544-0.336c0.0413-0.0551,1.0273-1.3551,4.1616-2.1069
				c2.6357-0.6307,2.823-1.2669,2.823-1.2724l0.5619,0.0165c0.011,0.2396-0.1983,1.0741-3.2527,1.8067
				C108.1639,42.5298,107.2413,43.7169,107.233,43.7279z"/>
		</g>
		<g>
			<path fill="#4A5566" d="M100.1934,47.245l-0.4517-0.336c0.0386-0.0551,1.0273-1.3551,4.1616-2.1069
				c2.6357-0.6307,2.823-1.2642,2.823-1.2697l0.5619,0.0165c0.011,0.2369-0.1983,1.0714-3.2527,1.804
				C101.127,46.0469,100.2016,47.234,100.1934,47.245z"/>
		</g>
		<g>
			<path fill="#4A5566" d="M93.1564,50.7621l-0.4517-0.336c0.0386-0.0551,1.0273-1.3523,4.1588-2.1069
				c2.6357-0.6307,2.823-1.2614,2.823-1.2697l0.5619,0.0165c0.011,0.2369-0.1928,1.0714-3.2527,1.804
				C94.0901,49.5667,93.1647,50.751,93.1564,50.7621z"/>
		</g>
		<g>
			<path fill="#4A5566" d="M86.1195,54.2791l-0.4517-0.336c0.0386-0.0551,1.0273-1.3523,4.1588-2.1042
				c2.6357-0.6335,2.823-1.2669,2.823-1.2724l0.5619,0.0165c0.011,0.2369-0.1983,1.0714-3.2527,1.8067
				C87.0532,53.0838,86.1278,54.2681,86.1195,54.2791z"/>
		</g>
		<g>
			<path fill="#4A5566" d="M79.0826,57.799l-0.4517-0.336c0.0386-0.0551,1.0273-1.3551,4.1588-2.1069
				c2.6357-0.6335,2.823-1.2669,2.823-1.2724l0.5619,0.0165c0.011,0.2369-0.1983,1.0714-3.2527,1.8067
				C80.0163,56.6009,79.0909,57.788,79.0826,57.799z"/>
		</g>
		<g>
			<path fill="#4A5566" d="M72.0457,61.3161L71.594,60.98c0.0386-0.0551,1.0273-1.3551,4.1588-2.1069
				c2.6357-0.6307,2.823-1.2642,2.823-1.2697l0.5619,0.0165c0.011,0.2369-0.1983,1.0714-3.2527,1.804
				C72.9793,60.118,72.0539,61.305,72.0457,61.3161z"/>
		</g>
		<g>
			<path fill="#4A5566" d="M65.0088,64.8331l-0.4517-0.336c0.0386-0.0551,1.0273-1.3551,4.1588-2.1069
				c2.6357-0.6307,2.823-1.2642,2.823-1.2697l0.5619,0.0165c0.011,0.2369-0.1983,1.0714-3.2527,1.804
				C65.9424,63.6351,65.017,64.8221,65.0088,64.8331z"/>
		</g>
		<g>
			<path fill="#4A5566" d="M57.9718,68.3502l-0.4517-0.336c0.0386-0.0551,1.0246-1.3523,4.1588-2.1069
				c2.6357-0.6307,2.823-1.2642,2.823-1.2697l0.5619,0.0165c0.011,0.2369-0.1983,1.0714-3.2527,1.804
				C58.9027,67.1549,57.9801,68.3392,57.9718,68.3502z"/>
		</g>
		<g>
			<path fill="#4A5566" d="M50.9322,71.8701l-0.4517-0.336c0.0386-0.0551,1.0273-1.3551,4.1588-2.1069
				c2.6385-0.6335,2.8258-1.2669,2.8258-1.2724l0.5619,0.0165c0.011,0.2369-0.1983,1.0714-3.2554,1.8067
				C51.8658,70.672,50.9404,71.859,50.9322,71.8701z"/>
		</g>
		<g>
			<path fill="#4A5566" d="M43.8952,75.3871l-0.4517-0.336c0.0386-0.0551,1.0273-1.3551,4.1588-2.1069
				c2.6357-0.6307,2.823-1.2614,2.823-1.2697l0.5619,0.0165c0.011,0.2369-0.1928,1.0714-3.2527,1.804
				C44.8289,74.1891,43.9035,75.3761,43.8952,75.3871z"/>
		</g>
		<g>
			<path fill="#4A5566" d="M36.8583,78.9042l-0.4517-0.336c0.0386-0.0551,1.0273-1.355,4.1588-2.1069
				c2.6357-0.6307,2.823-1.2642,2.823-1.2697l0.5619,0.0165c0.011,0.2369-0.1983,1.0714-3.2527,1.804
				C37.792,77.7062,36.8666,78.8932,36.8583,78.9042z"/>
		</g>
		<g>
			<path fill="#4A5566" d="M29.8214,82.4213l-0.4517-0.336c0.0386-0.0551,1.0273-1.3523,4.1588-2.1069
				c2.6357-0.6307,2.823-1.2642,2.823-1.2697l0.5619,0.0165c0.011,0.2369-0.1983,1.0714-3.2527,1.804
				C30.7551,81.226,29.8297,82.4103,29.8214,82.4213z"/>
		</g>
		<g>
			<path fill="#4A5566" d="M22.7845,85.9384l-0.4517-0.336c0.0386-0.0551,1.0273-1.3523,4.1588-2.1042
				c2.6357-0.6335,2.823-1.2669,2.823-1.2724l0.5619,0.0165c0.011,0.2369-0.1983,1.0714-3.2527,1.8067
				C23.7181,84.7431,22.7927,85.9274,22.7845,85.9384z"/>
		</g>
	</g>
	<g>
		<g>
			<path fill="#4A5566" d="M133.0897,27.4078l-0.4517-0.336c0.0386-0.0551,1.0273-1.3551,4.1588-2.1069
				c2.6357-0.6335,2.823-1.2642,2.823-1.2724l0.5618,0.0165c0.011,0.2369-0.1928,1.0714-3.2527,1.8067
				C134.0234,26.2098,133.098,27.3968,133.0897,27.4078z"/>
		</g>
		<g>
			<path fill="#4A5566" d="M126.0528,30.9249l-0.4517-0.336c0.0386-0.0551,1.0273-1.3551,4.1588-2.1069
				c2.6357-0.6307,2.823-1.2642,2.823-1.2697l0.5619,0.0165c0.011,0.2369-0.1983,1.0714-3.2527,1.804
				C126.9865,29.7269,126.0611,30.9139,126.0528,30.9249z"/>
		</g>
		<g>
			<path fill="#4A5566" d="M119.0159,34.442l-0.4517-0.336c0.0386-0.0551,1.0273-1.3551,4.1588-2.1069
				c2.6357-0.6307,2.823-1.2642,2.823-1.2697l0.5619,0.0165c0.011,0.2369-0.1983,1.0714-3.2527,1.804
				C119.9496,33.2439,119.0242,34.431,119.0159,34.442z"/>
		</g>
		<g>
			<path fill="#4A5566" d="M111.979,37.9591l-0.4517-0.336c0.0386-0.0551,1.0273-1.3523,4.1588-2.1069
				c2.6357-0.6307,2.823-1.2642,2.823-1.2697l0.5619,0.0165c0.011,0.2369-0.1983,1.0714-3.2527,1.804
				C112.9126,36.7638,111.9872,37.9481,111.979,37.9591z"/>
		</g>
		<g>
			<path fill="#4A5566" d="M104.9421,41.4762l-0.4517-0.336c0.0386-0.0551,1.0273-1.3523,4.1588-2.1042
				c2.6357-0.6335,2.823-1.2669,2.823-1.2724l0.5619,0.0165c0.011,0.2369-0.1983,1.0714-3.2527,1.8067
				C105.8757,40.2809,104.9503,41.4652,104.9421,41.4762z"/>
		</g>
		<g>
			<path fill="#4A5566" d="M97.9051,44.996l-0.4544-0.336c0.0413-0.0551,1.0273-1.3551,4.1616-2.1069
				c2.6357-0.6307,2.823-1.2669,2.823-1.2724l0.5619,0.0165c0.011,0.2396-0.1983,1.0741-3.2527,1.8067
				C98.836,43.7979,97.9134,44.985,97.9051,44.996z"/>
		</g>
		<g>
			<path fill="#4A5566" d="M90.8655,48.5131l-0.4517-0.336c0.0386-0.0551,1.0273-1.3551,4.1616-2.1069
				c2.6357-0.6307,2.823-1.2642,2.823-1.2697l0.5619,0.0165c0.011,0.2369-0.1983,1.0714-3.2527,1.804
				C91.7991,47.315,90.8737,48.5021,90.8655,48.5131z"/>
		</g>
		<g>
			<path fill="#4A5566" d="M83.8285,52.0302l-0.4517-0.336c0.0386-0.0551,1.0273-1.3523,4.1588-2.1069
				c2.6357-0.6307,2.823-1.2614,2.823-1.2697l0.5619,0.0165c0.011,0.2369-0.1928,1.0714-3.2527,1.804
				C84.7622,50.8349,83.8368,52.0192,83.8285,52.0302z"/>
		</g>
		<g>
			<path fill="#4A5566" d="M76.7916,55.5473l-0.4517-0.336c0.0386-0.0551,1.0273-1.3523,4.1588-2.1042
				c2.6357-0.6335,2.823-1.2669,2.823-1.2724l0.5619,0.0165c0.011,0.2369-0.1983,1.0714-3.2527,1.8067
				C77.7253,54.3519,76.7999,55.5362,76.7916,55.5473z"/>
		</g>
		<g>
			<path fill="#4A5566" d="M69.7547,59.0671l-0.4517-0.336c0.0386-0.0551,1.0273-1.3551,4.1588-2.1069
				c2.6357-0.6335,2.823-1.2669,2.823-1.2724l0.5619,0.0165c0.011,0.2369-0.1983,1.0714-3.2527,1.8067
				C70.6884,57.869,69.763,59.0561,69.7547,59.0671z"/>
		</g>
		<g>
			<path fill="#4A5566" d="M62.7178,62.5842l-0.4517-0.336c0.0386-0.0551,1.0273-1.3551,4.1588-2.1069
				c2.6357-0.6307,2.823-1.2642,2.823-1.2697l0.5619,0.0165c0.011,0.2369-0.1983,1.0714-3.2527,1.804
				C63.6514,61.3861,62.726,62.5732,62.7178,62.5842z"/>
		</g>
		<g>
			<path fill="#4A5566" d="M55.6809,66.1013l-0.4517-0.336c0.0386-0.0551,1.0273-1.3551,4.1588-2.1069
				c2.6357-0.6307,2.823-1.2642,2.823-1.2697l0.5619,0.0165c0.011,0.2369-0.1983,1.0714-3.2527,1.804
				C56.6145,64.9032,55.6891,66.0902,55.6809,66.1013z"/>
		</g>
		<g>
			<path fill="#4A5566" d="M48.6439,69.6183l-0.4517-0.336c0.0386-0.0551,1.0246-1.3523,4.1588-2.1069
				c2.6357-0.6307,2.823-1.2642,2.823-1.2697l0.5619,0.0165c0.011,0.2369-0.1983,1.0714-3.2527,1.804
				C49.5748,68.423,48.6522,69.6073,48.6439,69.6183z"/>
		</g>
		<g>
			<path fill="#4A5566" d="M41.6043,73.1382l-0.4517-0.336c0.0386-0.0551,1.0273-1.3551,4.1588-2.1069
				c2.6385-0.6335,2.8258-1.2669,2.8258-1.2724l0.5619,0.0165c0.011,0.2369-0.1983,1.0714-3.2554,1.8067
				C42.5379,71.9401,41.6125,73.1272,41.6043,73.1382z"/>
		</g>
		<g>
			<path fill="#4A5566" d="M34.5673,76.6553l-0.4517-0.336c0.0386-0.0551,1.0273-1.3551,4.1588-2.1069
				c2.6357-0.6307,2.823-1.2614,2.823-1.2697l0.5619,0.0165c0.011,0.2369-0.1928,1.0714-3.2527,1.804
				C35.501,75.4572,34.5756,76.6442,34.5673,76.6553z"/>
		</g>
		<g>
			<path fill="#4A5566" d="M27.5304,80.1724l-0.4517-0.336c0.0386-0.0551,1.0273-1.3551,4.1588-2.1069
				c2.6357-0.6307,2.823-1.2642,2.823-1.2697l0.5619,0.0165c0.011,0.2369-0.1983,1.0714-3.2527,1.804
				C28.4641,78.9743,27.5387,80.1613,27.5304,80.1724z"/>
		</g>
		<g>
			<path fill="#4A5566" d="M20.4935,83.6894l-0.4517-0.336c0.0386-0.0551,1.0273-1.3523,4.1588-2.1069
				c2.6357-0.6307,2.823-1.2642,2.823-1.2697l0.5619,0.0165c0.011,0.2369-0.1983,1.0714-3.2527,1.804
				C21.4272,82.4941,20.5018,83.6784,20.4935,83.6894z"/>
		</g>
		<g>
			<path fill="#4A5566" d="M13.4566,87.2065l-0.4517-0.336c0.0386-0.0551,1.0273-1.3523,4.1588-2.1042
				c2.6357-0.6335,2.823-1.2669,2.823-1.2724l0.5619,0.0165c0.011,0.2369-0.1983,1.0714-3.2527,1.8067
				C14.3902,86.0112,13.4648,87.1955,13.4566,87.2065z"/>
		</g>
	</g>
	<g>
		<polygon fill="#3D495B" points="105.0165,163.7644 105.0165,158.0468 27.7328,119.5127 27.7328,125.2753 		"/>
		<polygon fill="#535E70" points="90.4394,171.8929 105.3023,158.3788 28.0186,119.8447 13.1557,133.4039 		"/>
		<polygon fill="#394659" points="90.4394,174.7132 13.1557,136.2242 13.1557,133.4039 90.4394,171.8929 		"/>
		<polygon fill="#455060" points="90.4394,174.7132 105.0165,161.459 105.011,158.6437 90.4394,171.8929 		"/>
		<g>
			<g>
				<polygon fill="#404C5E" points="23.1691,138.2378 22.789,137.8192 37.7304,124.3485 38.1105,124.7671 				"/>
			</g>
			<g>
				<polygon fill="#404C5E" points="32.8362,143.0631 32.4562,142.6445 47.4003,129.1738 47.7804,129.5924 				"/>
			</g>
			<g>
				<polygon fill="#404C5E" points="42.5061,147.8912 42.1261,147.4725 57.0702,134.0019 57.4503,134.4205 				"/>
			</g>
			<g>
				<polygon fill="#404C5E" points="52.1761,152.7165 51.796,152.2979 66.7401,138.8272 67.1202,139.2458 				"/>
			</g>
			<g>
				<polygon fill="#404C5E" points="61.846,157.5446 61.4659,157.1259 76.4073,143.6553 76.7874,144.0739 				"/>
			</g>
			<g>
				<polygon fill="#404C5E" points="71.5131,162.3699 71.1331,161.9512 86.0772,148.4806 86.4573,148.8992 				"/>
			</g>
			<g>
				<polygon fill="#404C5E" points="81.183,167.198 80.803,166.7793 95.7471,153.3086 96.1272,153.7273 				"/>
			</g>
		</g>
	</g>
	<g>
		<polygon fill="#3D495B" points="154.9788,158.0356 154.9788,152.3181 202.8778,128.6032 202.8778,134.3659 		"/>
		<polygon fill="#535E70" points="169.5558,166.1642 154.6929,152.6501 202.8778,128.6032 217.7407,142.1624 		"/>
		<polygon fill="#394659" points="169.5558,168.9844 217.7407,144.9827 217.7407,142.1624 169.5558,166.1642 		"/>
		<polygon fill="#455060" points="169.5558,168.9844 154.9788,155.7302 154.9842,152.9149 169.5558,166.1642 		"/>
		<g>
			<g>
				<polygon fill="#404C5E" points="207.8192,146.9877 208.1992,146.5691 193.2551,133.0984 192.875,133.5171 				"/>
			</g>
			<g>
				<polygon fill="#404C5E" points="198.1492,151.8158 198.5293,151.3972 183.5879,137.9265 183.2078,138.3451 				"/>
			</g>
			<g>
				<polygon fill="#404C5E" points="188.4821,156.6411 188.8622,156.2225 173.918,142.7518 173.5379,143.1704 				"/>
			</g>
			<g>
				<polygon fill="#404C5E" points="178.8122,161.4692 179.1923,161.0506 164.2481,147.5799 163.868,147.9985 				"/>
			</g>
		</g>
	</g>
</g>
</svg>
