<?xml version="1.0" encoding="iso-8859-1"?>
<!-- Generator: Adobe Illustrator 24.0.3, SVG Export Plug-In . SVG Version: 6.00 Build 0)  -->
<svg version="1.1" id="&#x5716;&#x5C64;_1" xmlns="http://www.w3.org/2000/svg" xmlns:xlink="http://www.w3.org/1999/xlink" x="0px"
	 y="0px" viewBox="0 0 250 250" enable-background="new 0 0 250 250" xml:space="preserve">
<g>
	<polygon fill="#FFFFFF" points="125.3409,128.7556 4.533,189.1594 125.3409,249.5635 246.1488,189.1594 	"/>
	<polygon fill="#B1B8C0" points="125.3409,118.6829 2.2304,180.238 125.3409,241.7934 248.4514,180.238 	"/>
	<polygon fill="#8E6B54" points="125.3409,116.768 2.2304,178.323 125.3409,239.8785 248.4514,178.323 	"/>
	<polygon fill="#AD917D" points="4.533,189.1594 4.533,181.3893 125.3409,241.7934 125.3409,249.5635 	"/>
	<polygon fill="#C4AB9B" points="246.1488,189.1594 246.1488,181.3893 125.3409,241.7934 125.3409,249.5635 	"/>
	<polygon fill="#BCA18B" points="2.2304,178.323 2.2304,180.238 125.3409,241.7934 125.3409,239.8785 	"/>
	<polygon fill="#E1CEBC" points="248.4514,178.323 248.4514,180.238 125.3409,241.7934 125.3409,239.8785 	"/>
	<polygon fill="#EADBCE" points="125.3409,114.0014 2.2304,175.5565 125.3409,237.1119 248.4514,175.5565 	"/>
	<polygon fill="#BCA18B" points="2.2304,175.5565 2.2304,177.4714 125.3409,239.0269 125.3409,237.1119 	"/>
	<polygon fill="#E1CEBC" points="248.4514,175.5565 248.4514,177.4714 125.3409,239.0269 125.3409,237.1119 	"/>
	<polygon fill="#A58E81" points="125.3409,116.033 125.3409,119.5264 9.7873,177.3033 6.2938,175.5565 	"/>
	<polygon fill="#AD917D" points="125.3409,116.033 125.3409,119.5264 240.8945,177.3033 244.388,175.5565 	"/>
	<polygon fill="#D1BCAC" points="104.1128,130.1521 9.7873,177.3033 125.3409,235.0804 219.6665,187.9289 	"/>
	<polygon fill="#876C59" points="4.533,182.1513 125.3409,242.5555 125.3409,241.5588 4.533,181.1546 	"/>
	<polygon fill="#A88876" points="246.1488,182.1513 125.3409,242.5555 125.3409,241.5588 246.1488,181.1546 	"/>
	<polygon fill="#D1BCAC" points="230.8136,178.8116 215.121,186.8229 213.5166,186.0646 228.8753,178.323 	"/>
	<polygon fill="#C94F3A" points="125.3409,105.0805 33.8836,150.809 125.3409,196.5377 216.7982,150.809 	"/>
	<polygon fill="#961D0E" points="33.8836,150.809 33.8836,178.3231 125.3409,224.0519 125.3409,196.5377 	"/>
	<polygon fill="#AA9796" points="65.0575,166.4421 65.0575,193.9562 88.9506,205.8655 88.9506,178.3513 	"/>
	<polygon fill="#AA9796" points="98.4321,183.0827 98.4321,210.5968 100.8224,211.7797 100.8224,184.2656 	"/>
	<polygon fill="#AA9796" points="55.1404,161.4196 55.1404,188.9337 57.5306,190.1166 57.5306,162.6025 	"/>
	<polygon fill="#AA9796" points="45.645,156.7164 45.645,184.2305 48.0353,185.4134 48.0353,157.8993 	"/>
	<polygon fill="#AA9796" points="36.1497,152.0131 36.1497,179.5272 38.5399,180.7101 38.5399,153.196 	"/>
	<polygon fill="#AA9796" points="109.6326,188.7279 109.6326,216.242 112.0229,217.4249 112.0229,189.9108 	"/>
	<polygon fill="#AA9796" points="120.833,194.3731 120.833,221.8873 123.2233,223.0701 123.2233,195.556 	"/>
	<polygon fill="#776F6F" points="66.308,188.0983 66.308,194.579 87.7001,205.2417 87.7001,198.761 	"/>
	<polygon fill="#776F6F" points="66.308,169.2543 66.308,186.7189 87.7001,197.3815 87.7001,179.9169 	"/>
	<polygon fill="#5B5151" points="66.308,194.579 81.7345,186.1538 81.7345,176.9434 66.308,169.2543 	"/>
	<polygon fill="#C63F20" points="216.7982,150.809 216.7982,178.3231 125.3409,224.0519 125.3409,196.5377 	"/>
	<polygon fill="#AA9796" points="86.0829,196.5755 86.0829,197.9549 66.308,188.0983 66.308,186.7189 	"/>
	<polygon fill="#961D0E" points="216.7982,150.809 208.7763,182.334 125.3409,224.0519 125.3409,196.5377 	"/>
	<path fill="#F7EDE7" d="M29.0192,182.8714c0,0.6254-2.2849,0.6254-2.2849,0l0-28.8016h2.2849V182.8714z"/>
	<path fill="#F7EDE7" d="M37.4991,187.12c0,0.6254-2.2849,0.6254-2.2849,0l0-28.8016h2.2849V187.12z"/>
	<path fill="#F7EDE7" d="M45.9789,191.3685c0,0.6254-2.2849,0.6254-2.2849,0l0-28.8016h2.2849V191.3685z"/>
	<path fill="#F7EDE7" d="M62.9385,199.8656c0,0.6254-2.2849,0.6254-2.2849,0l0-28.8016h2.2849V199.8656z"/>
	<polygon fill="#AA9796" points="71.4183,170.3097 71.4183,197.8239 72.512,198.4153 72.512,170.9012 	"/>
	<polygon fill="#AA9796" points="79.8587,174.541 79.8587,202.0552 80.9523,202.6466 80.9523,175.1325 	"/>
	<path fill="#F7EDE7" d="M71.4183,204.1142c0,0.6254-2.2849,0.6254-2.2849,0v-28.8016h2.2849V204.1142z"/>
	<path fill="#F7EDE7" d="M80.7784,208.0013c0.0001,1.4819-4.0453,1.4819-4.0454,0v-50.9922h4.0454L80.7784,208.0013z"/>
	<path fill="#F7EDE7" d="M88.378,212.6113c0,0.6254-2.285,0.6254-2.285,0l0-28.8016h2.2849V212.6113z"/>
	<path fill="#F7EDE7" d="M96.8578,216.8598c0,0.6254-2.2849,0.6254-2.2849,0v-28.8016h2.2849V216.8598z"/>
	<path fill="#F7EDE7" d="M105.3376,221.1083c0,0.6254-2.2849,0.6254-2.2849,0v-28.8016h2.2849V221.1083z"/>
	<path fill="#F7EDE7" d="M113.8175,225.3569c0,0.6254-2.2849,0.6254-2.2849,0l0-28.8016h2.2849V225.3569z"/>
	<path fill="#F7EDE7" d="M122.2973,229.6054c0,0.6254-2.2849,0.6254-2.2849,0l0-28.8016h2.2849V229.6054z"/>
	<g>
		<path fill="#E5D6CF" d="M19.5216,150.39v28.8016c0,0.2285,0.3061,0.3726,0.6934,0.4341V150.39H19.5216z"/>
		<path fill="#EFE3DC" d="M20.2149,150.39v29.2357c0.294,0.0467,0.6328,0.0448,0.9238-0.0048V150.39H20.2149z"/>
		<path fill="#F7EDE7" d="M21.1388,150.39v29.2309c0.3746-0.0638,0.6677-0.2059,0.6677-0.4293V150.39H21.1388z"/>
	</g>
	<g>
		<path fill="#E5D6CF" d="M26.7343,154.0704v28.8016c0,0.2285,0.3061,0.3726,0.6934,0.4341v-29.2357H26.7343z"/>
		<path fill="#EFE3DC" d="M27.4277,154.0704v29.2357c0.294,0.0467,0.6328,0.0448,0.9238-0.0048v-29.2309H27.4277z"/>
		<path fill="#F7EDE7" d="M28.3515,154.0704v29.2309c0.3746-0.0638,0.6677-0.2059,0.6677-0.4293v-28.8016H28.3515z"/>
	</g>
	<g>
		<path fill="#E5D6CF" d="M35.2141,158.319v28.8016c0,0.2285,0.3061,0.3726,0.6934,0.4341V158.319H35.2141z"/>
		<path fill="#EFE3DC" d="M35.9075,158.319v29.2357c0.294,0.0467,0.6328,0.0448,0.9238-0.0048V158.319H35.9075z"/>
		<path fill="#F7EDE7" d="M36.8313,158.319v29.2309c0.3746-0.0638,0.6677-0.2059,0.6677-0.4293V158.319H36.8313z"/>
	</g>
	<g>
		<path fill="#E5D6CF" d="M43.6939,162.5675v28.8016c0,0.2285,0.3061,0.3726,0.6934,0.4341v-29.2357H43.6939z"/>
		<path fill="#EFE3DC" d="M44.3873,162.5675v29.2357c0.294,0.0467,0.6328,0.0448,0.9238-0.0048v-29.2309H44.3873z"/>
		<path fill="#F7EDE7" d="M45.3111,162.5675v29.2309c0.3746-0.0638,0.6677-0.2059,0.6677-0.4293v-28.8016H45.3111z"/>
	</g>
	<g>
		<path fill="#E5D6CF" d="M60.6536,171.0646v28.8016c0,0.2285,0.3061,0.3726,0.6934,0.4341v-29.2357H60.6536z"/>
		<path fill="#EFE3DC" d="M61.347,171.0646v29.2357c0.294,0.0467,0.6328,0.0448,0.9238-0.0048v-29.2309H61.347z"/>
		<path fill="#F7EDE7" d="M62.2708,171.0646v29.2309c0.3746-0.0638,0.6677-0.2059,0.6677-0.4293v-28.8016H62.2708z"/>
	</g>
	<g>
		<path fill="#E5D6CF" d="M69.1334,175.2518v28.8016c0,0.2285,0.3061,0.3726,0.6934,0.4341v-29.2357H69.1334z"/>
		<path fill="#EFE3DC" d="M69.8268,175.2518v29.2357c0.294,0.0467,0.6328,0.0448,0.9238-0.0048v-29.2309H69.8268z"/>
		<path fill="#F7EDE7" d="M70.7506,175.2518v29.2309c0.3746-0.0638,0.6677-0.2059,0.6677-0.4293v-28.8016H70.7506z"/>
	</g>
	<g>
		<path fill="#E5D6CF" d="M86.0829,183.8102v28.8016c0,0.2285,0.3061,0.3726,0.6934,0.4341v-29.2357H86.0829z"/>
		<path fill="#EFE3DC" d="M86.7763,183.8102v29.2357c0.294,0.0467,0.6328,0.0448,0.9238-0.0048v-29.2309H86.7763z"/>
		<path fill="#F7EDE7" d="M87.7001,183.8102v29.2309c0.3746-0.0638,0.6677-0.2059,0.6677-0.4293v-28.8016H87.7001z"/>
	</g>
	<g>
		<path fill="#E5D6CF" d="M94.4984,188.0588v28.8016c0,0.2285,0.3061,0.3726,0.6934,0.4341v-29.2357H94.4984z"/>
		<path fill="#EFE3DC" d="M95.1918,188.0588v29.2357c0.294,0.0467,0.6328,0.0448,0.9238-0.0048v-29.2309H95.1918z"/>
		<path fill="#F7EDE7" d="M96.1156,188.0588v29.2309c0.3746-0.0638,0.6677-0.2059,0.6677-0.4293v-28.8016H96.1156z"/>
	</g>
	<g>
		<path fill="#E5D6CF" d="M102.9139,192.3073v28.8016c0,0.2285,0.3061,0.3726,0.6934,0.4341v-29.2357H102.9139z"/>
		<path fill="#EFE3DC" d="M103.6073,192.3073v29.2357c0.294,0.0467,0.6328,0.0448,0.9238-0.0048v-29.2309H103.6073z"/>
		<path fill="#F7EDE7" d="M104.5312,192.3073v29.2309c0.3746-0.0638,0.6677-0.2059,0.6677-0.4293v-28.8016H104.5312z"/>
	</g>
	<g>
		<path fill="#E5D6CF" d="M111.3295,196.5559v28.8016c0,0.2285,0.3061,0.3726,0.6934,0.4341v-29.2357H111.3295z"/>
		<path fill="#EFE3DC" d="M112.0229,196.5559v29.2357c0.294,0.0467,0.6328,0.0448,0.9238-0.0048v-29.2309H112.0229z"/>
		<path fill="#F7EDE7" d="M112.9467,196.5559v29.2309c0.3746-0.0638,0.6677-0.2059,0.6677-0.4293v-28.8016H112.9467z"/>
	</g>
	<g>
		<path fill="#E5D6CF" d="M120.0123,200.8044v28.8016c0,0.2285,0.3061,0.3726,0.6934,0.4341v-29.2357H120.0123z"/>
		<path fill="#EFE3DC" d="M120.7057,200.8044v29.2357c0.294,0.0467,0.6328,0.0448,0.9238-0.0048v-29.2309H120.7057z"/>
		<path fill="#F7EDE7" d="M121.6295,200.8044v29.2309c0.3746-0.0638,0.6677-0.2059,0.6677-0.4293v-28.8016H121.6295z"/>
	</g>
	<g>
		<path fill="#E5D6CF" d="M120.0123,200.8044v28.8016c0,0.2285,0.3061,0.3726,0.6934,0.4341v-29.2357H120.0123z"/>
		<path fill="#EFE3DC" d="M120.7057,200.8044v29.2357c0.294,0.0467,0.6328,0.0448,0.9238-0.0048v-29.2309H120.7057z"/>
		<path fill="#F7EDE7" d="M121.6295,200.8044v29.2309c0.3746-0.0638,0.6677-0.2059,0.6677-0.4293v-28.8016H121.6295z"/>
	</g>
	<g>
		<path fill="#E5D6CF" d="M231.1603,150.39v28.8016c0,0.2285-0.3061,0.3726-0.6934,0.4341V150.39H231.1603z"/>
		<path fill="#EFE3DC" d="M230.4669,150.39v29.2357c-0.294,0.0467-0.6328,0.0448-0.9238-0.0048V150.39H230.4669z"/>
		<path fill="#F7EDE7" d="M229.5431,150.39v29.2309c-0.3746-0.0638-0.6677-0.2059-0.6677-0.4293V150.39H229.5431z"/>
	</g>
	<g>
		<path fill="#E5D6CF" d="M223.9475,154.0704v28.8016c0,0.2285-0.3061,0.3726-0.6934,0.4341v-29.2357H223.9475z"/>
		<path fill="#EFE3DC" d="M223.2542,154.0704v29.2357c-0.294,0.0467-0.6328,0.0448-0.9238-0.0048v-29.2309H223.2542z"/>
		<path fill="#F7EDE7" d="M222.3303,154.0704v29.2309c-0.3746-0.0638-0.6677-0.2059-0.6677-0.4293v-28.8016H222.3303z"/>
	</g>
	<g>
		<path fill="#E5D6CF" d="M215.4677,158.319v28.8016c0,0.2285-0.3061,0.3726-0.6934,0.4341V158.319H215.4677z"/>
		<path fill="#EFE3DC" d="M214.7743,158.319v29.2357c-0.294,0.0467-0.6328,0.0448-0.9238-0.0048V158.319H214.7743z"/>
		<path fill="#F7EDE7" d="M213.8505,158.319v29.2309c-0.3746-0.0638-0.6677-0.2059-0.6677-0.4293V158.319H213.8505z"/>
	</g>
	<g>
		<path fill="#E5D6CF" d="M206.9879,162.5675v28.8016c0,0.2285-0.3061,0.3726-0.6934,0.4341v-29.2357H206.9879z"/>
		<path fill="#EFE3DC" d="M206.2945,162.5675v29.2357c-0.294,0.0467-0.6328,0.0448-0.9238-0.0048v-29.2309H206.2945z"/>
		<path fill="#F7EDE7" d="M205.3707,162.5675v29.2309c-0.3746-0.0638-0.6677-0.2059-0.6677-0.4293v-28.8016H205.3707z"/>
	</g>
	<g>
		<path fill="#E5D6CF" d="M190.0282,171.0646v28.8016c0,0.2285-0.3061,0.3726-0.6934,0.4341v-29.2357H190.0282z"/>
		<path fill="#EFE3DC" d="M189.3349,171.0646v29.2357c-0.294,0.0467-0.6328,0.0448-0.9238-0.0048v-29.2309H189.3349z"/>
		<path fill="#F7EDE7" d="M188.411,171.0646v29.2309c-0.3746-0.0638-0.6677-0.2059-0.6677-0.4293v-28.8016H188.411z"/>
	</g>
	<g>
		<path fill="#E5D6CF" d="M181.5484,175.2518v28.8016c0,0.2285-0.3061,0.3726-0.6934,0.4341v-29.2357H181.5484z"/>
		<path fill="#EFE3DC" d="M180.855,175.2518v29.2357c-0.294,0.0467-0.6328,0.0448-0.9238-0.0048v-29.2309H180.855z"/>
		<path fill="#F7EDE7" d="M179.9312,175.2518v29.2309c-0.3746-0.0638-0.6677-0.2059-0.6677-0.4293v-28.8016H179.9312z"/>
	</g>
	<g>
		<path fill="#E5D6CF" d="M164.5989,183.8102v28.8016c0,0.2285-0.3061,0.3726-0.6934,0.4341v-29.2357H164.5989z"/>
		<path fill="#EFE3DC" d="M163.9056,183.8102v29.2357c-0.294,0.0467-0.6328,0.0448-0.9238-0.0048v-29.2309H163.9056z"/>
		<path fill="#F7EDE7" d="M162.9817,183.8102v29.2309c-0.3746-0.0638-0.6677-0.2059-0.6677-0.4293v-28.8016H162.9817z"/>
	</g>
	<g>
		<path fill="#E5D6CF" d="M173.0737,179.5016v28.8016c0,0.2285-0.3061,0.3726-0.6934,0.4341v-29.2357H173.0737z"/>
		<path fill="#EFE3DC" d="M172.3803,179.5016v29.2357c-0.294,0.0467-0.6328,0.0448-0.9238-0.0048v-29.2309H172.3803z"/>
		<path fill="#F7EDE7" d="M171.4565,179.5016v29.2309c-0.3746-0.0638-0.6677-0.2059-0.6677-0.4293v-28.8016H171.4565z"/>
	</g>
	<g>
		<path fill="#E5D6CF" d="M198.9002,166.7413v28.8016c0,0.2285-0.3061,0.3726-0.6934,0.4341v-29.2357H198.9002z"/>
		<path fill="#EFE3DC" d="M198.2068,166.7413v29.2357c-0.294,0.0467-0.6328,0.0448-0.9238-0.0048v-29.2309H198.2068z"/>
		<path fill="#F7EDE7" d="M197.283,166.7413v29.2309c-0.3746-0.0638-0.6677-0.2059-0.6677-0.4293v-28.8016H197.283z"/>
	</g>
	<g>
		<path fill="#E5D6CF" d="M156.1834,188.0588v28.8016c0,0.2285-0.3061,0.3726-0.6934,0.4341v-29.2357H156.1834z"/>
		<path fill="#EFE3DC" d="M155.49,188.0588v29.2357c-0.294,0.0467-0.6328,0.0448-0.9238-0.0048v-29.2309H155.49z"/>
		<path fill="#F7EDE7" d="M154.5662,188.0588v29.2309c-0.3746-0.0638-0.6677-0.2059-0.6677-0.4293v-28.8016H154.5662z"/>
	</g>
	<g>
		<path fill="#E5D6CF" d="M147.7679,192.3073v28.8016c0,0.2285-0.3061,0.3726-0.6934,0.4341v-29.2357H147.7679z"/>
		<path fill="#EFE3DC" d="M147.0745,192.3073v29.2357c-0.294,0.0467-0.6328,0.0448-0.9238-0.0048v-29.2309H147.0745z"/>
		<path fill="#F7EDE7" d="M146.1507,192.3073v29.2309c-0.3746-0.0638-0.6677-0.2059-0.6677-0.4293v-28.8016H146.1507z"/>
	</g>
	<g>
		<path fill="#E5D6CF" d="M139.3523,196.5559v28.8016c0,0.2285-0.3061,0.3726-0.6934,0.4341v-29.2357H139.3523z"/>
		<path fill="#EFE3DC" d="M138.659,196.5559v29.2357c-0.294,0.0467-0.6328,0.0448-0.9238-0.0048v-29.2309H138.659z"/>
		<path fill="#F7EDE7" d="M137.7351,196.5559v29.2309c-0.3746-0.0638-0.6677-0.2059-0.6677-0.4293v-28.8016H137.7351z"/>
	</g>
	<g>
		<path fill="#E5D6CF" d="M130.9368,200.8044v28.8016c0,0.2285-0.3061,0.3726-0.6934,0.4341v-29.2357H130.9368z"/>
		<path fill="#EFE3DC" d="M130.2434,200.8044v29.2357c-0.294,0.0467-0.6328,0.0448-0.9238-0.0048v-29.2309H130.2434z"/>
		<path fill="#F7EDE7" d="M129.3196,200.8044v29.2309c-0.3746-0.0638-0.6677-0.2059-0.6677-0.4293v-28.8016H129.3196z"/>
	</g>
	<g>
		<path fill="#E5D6CF" d="M52.0129,139.9822v56.2525c0.3807,0.1536,0.8393,0.2351,1.3033,0.2351v-56.4876H52.0129z"/>
		<path fill="#F7EDE7" d="M54.4363,139.9822v56.3218c0.6146-0.1962,1.0697-0.5668,1.0697-1.1169l0.0001-55.2049H54.4363z"/>
		<path fill="#D8C9C3" d="M51.1265,139.9822v55.2049c0,0.4928,0.3688,0.8388,0.8865,1.0476v-56.2525H51.1265z"/>
		<path fill="#EFE3DC" d="M53.3163,139.9822v56.4876c0.3906,0,0.7791-0.057,1.12-0.1658v-56.3218H53.3163z"/>
	</g>
	<g>
		<path fill="#E5D6CF" d="M77.4473,152.7213v56.2525c0.3807,0.1535,0.8393,0.2351,1.3034,0.2351v-56.4876H77.4473z"/>
		<path fill="#F7EDE7" d="M79.8706,152.7213v56.3218c0.6146-0.1962,1.0697-0.5668,1.0697-1.1169l0.0001-55.2049H79.8706z"/>
		<path fill="#D8C9C3" d="M76.5608,152.7213v55.2049c0,0.4928,0.3688,0.8388,0.8865,1.0476v-56.2525H76.5608z"/>
		<path fill="#EFE3DC" d="M78.7506,152.7213v56.4876c0.3906,0,0.7791-0.057,1.12-0.1658v-56.3218H78.7506z"/>
	</g>
	<polygon fill="#E26334" points="125.3409,96.9397 58.8643,130.1779 125.3409,163.4164 191.8175,130.1779 	"/>
	<path fill="#F19200" d="M125.3409,163.4164l0,42.7105c0,0-0.6758,2.4513-2.7658,1.4014L16.4801,154.4804
		c-12.6549-6.2781-14.4783-12.9761-14.4783-12.9761c23.984,5.1178,56.8625-11.3264,56.8625-11.3264L125.3409,163.4164z"/>
	<path fill="#FFBC00" d="M125.3409,163.4164v42.7105c0,0,0.6758,2.4513,2.7658,1.4014l106.0951-53.0478
		c12.6549-6.2781,14.4783-12.9761,14.4783-12.9761c-23.984,5.1178-56.8625-11.3264-56.8625-11.3264L125.3409,163.4164z"/>
	<path fill="#F19200" d="M125.3409,96.9397V80c0,0-5.8231,8.4969-20.1946,15.5471s-78.0926,39.1253-78.0926,39.1253
		s-13.6189,5.7787-25.0519,6.8318c23.984,5.1178,56.8625-11.3264,56.8625-11.3264L125.3409,96.9397z"/>
	<path fill="#FFBC00" d="M125.3409,96.9397V80c0,0,5.8231,8.4969,20.1946,15.5471s78.0926,39.1253,78.0926,39.1253
		s13.6189,5.7787,25.0519,6.8318c-23.984,5.1178-56.8625-11.3264-56.8625-11.3264L125.3409,96.9397z"/>
	<polygon fill="#F9F1E4" points="125.3409,92.577 58.8643,125.8152 125.3409,159.0536 191.8175,125.8152 	"/>
	<polygon fill="#F4E2C1" points="125.3409,94.1252 125.3409,98.488 66.3318,127.9962 61.961,125.8152 	"/>
	<polygon fill="#C9AE7F" points="125.3409,94.1252 125.3409,98.488 184.35,127.9962 188.7208,125.8152 	"/>
	<polygon fill="#9C554F" points="125.3409,98.488 66.3318,127.9962 125.3409,157.5053 184.35,127.9962 	"/>
	<g>
		<g>
			<path fill="#632A2F" d="M125.3409,105.9431l-7.5698-3.7856l7.5698-3.7852l7.5698,3.7852L125.3409,105.9431z M118.1579,102.1575
				l7.183,3.5922l7.183-3.5922l-7.183-3.5918L118.1579,102.1575z"/>
		</g>
		<g>
			<path fill="#632A2F" d="M125.3409,113.3201l-7.5698-3.7852l7.5698-3.7852l7.5698,3.7852L125.3409,113.3201z M118.1579,109.5349
				l7.183,3.5918l7.183-3.5918l-7.183-3.5918L118.1579,109.5349z"/>
		</g>
		<g>
			<path fill="#632A2F" d="M140.093,113.3201l-7.5691-3.7852l7.5691-3.7852l7.5698,3.7852L140.093,113.3201z M132.9107,109.5349
				l7.1823,3.5918l7.183-3.5918l-7.183-3.5918L132.9107,109.5349z"/>
		</g>
		<g>
			<path fill="#632A2F" d="M125.3409,120.6972l-7.5698-3.7852l7.5698-3.7852l7.5698,3.7852L125.3409,120.6972z M118.1579,116.9119
				l7.183,3.5918l7.183-3.5918l-7.183-3.5918L118.1579,116.9119z"/>
		</g>
		<g>
			<path fill="#632A2F" d="M140.093,120.6972l-7.5691-3.7852l7.5691-3.7852l7.5698,3.7852L140.093,120.6972z M132.9107,116.9119
				l7.1823,3.5918l7.183-3.5918l-7.183-3.5918L132.9107,116.9119z"/>
		</g>
		<g>
			<path fill="#632A2F" d="M154.8457,120.6972l-7.5698-3.7852l7.5698-3.7852l7.5691,3.7852L154.8457,120.6972z M147.6628,116.9119
				l7.183,3.5918l7.1823-3.5918l-7.1823-3.5918L147.6628,116.9119z"/>
		</g>
		<g>
			<path fill="#632A2F" d="M125.3409,128.0746l-7.5698-3.7856l7.5698-3.7852l7.5698,3.7852L125.3409,128.0746z M118.1579,124.289
				l7.183,3.5922l7.183-3.5922l-7.183-3.5918L118.1579,124.289z"/>
		</g>
		<g>
			<path fill="#632A2F" d="M140.093,128.0746l-7.5691-3.7856l7.5691-3.7852l7.5698,3.7852L140.093,128.0746z M132.9107,124.289
				l7.1823,3.5922l7.183-3.5922l-7.183-3.5918L132.9107,124.289z"/>
		</g>
		<g>
			<path fill="#632A2F" d="M154.8457,128.0746l-7.5698-3.7856l7.5698-3.7852l7.5691,3.7852L154.8457,128.0746z M147.6628,124.289
				l7.183,3.5922l7.1823-3.5922l-7.1823-3.5918L147.6628,124.289z"/>
		</g>
		<g>
			<path fill="#632A2F" d="M169.5978,128.0746l-7.5698-3.7856l7.5698-3.7852l7.5698,3.7852L169.5978,128.0746z M162.4148,124.289
				l7.183,3.5922l7.183-3.5922l-7.183-3.5918L162.4148,124.289z"/>
		</g>
		<g>
			<path fill="#632A2F" d="M125.3409,135.4516l-7.5698-3.7852l7.5698-3.7852l7.5698,3.7852L125.3409,135.4516z M118.1579,131.6664
				l7.183,3.5918l7.183-3.5918l-7.183-3.5918L118.1579,131.6664z"/>
		</g>
		<g>
			<path fill="#632A2F" d="M140.093,135.4516l-7.5691-3.7852l7.5691-3.7852l7.5698,3.7852L140.093,135.4516z M132.9107,131.6664
				l7.1823,3.5918l7.183-3.5918l-7.183-3.5918L132.9107,131.6664z"/>
		</g>
		<g>
			<path fill="#632A2F" d="M154.8457,135.4516l-7.5698-3.7852l7.5698-3.7852l7.5691,3.7852L154.8457,135.4516z M147.6628,131.6664
				l7.183,3.5918l7.1823-3.5918l-7.1823-3.5918L147.6628,131.6664z"/>
		</g>
		<g>
			<path fill="#632A2F" d="M169.5978,135.4516l-7.5698-3.7852l7.5698-3.7852l7.5698,3.7852L169.5978,135.4516z M162.4148,131.6664
				l7.183,3.5918l7.183-3.5918l-7.183-3.5918L162.4148,131.6664z"/>
		</g>
		<g>
			<path fill="#632A2F" d="M125.3409,142.829l-7.5698-3.7856l7.5698-3.7852l7.5698,3.7852L125.3409,142.829z M118.1579,139.0434
				l7.183,3.5921l7.183-3.5921l-7.183-3.5918L118.1579,139.0434z"/>
		</g>
		<g>
			<path fill="#632A2F" d="M140.093,142.829l-7.5691-3.7856l7.5691-3.7852l7.5698,3.7852L140.093,142.829z M132.9107,139.0434
				l7.1823,3.5921l7.183-3.5921l-7.183-3.5918L132.9107,139.0434z"/>
		</g>
		<g>
			<path fill="#632A2F" d="M154.8457,142.829l-7.5698-3.7856l7.5698-3.7852l7.5691,3.7852L154.8457,142.829z M147.6628,139.0434
				l7.183,3.5921l7.1823-3.5921l-7.1823-3.5918L147.6628,139.0434z"/>
		</g>
		<g>
			<path fill="#632A2F" d="M125.3409,150.206l-7.5698-3.7852l7.5698-3.7852l7.5698,3.7852L125.3409,150.206z M118.1579,146.4208
				l7.183,3.5918l7.183-3.5918l-7.183-3.5918L118.1579,146.4208z"/>
		</g>
		<g>
			<path fill="#632A2F" d="M140.093,150.206l-7.5691-3.7852l7.5691-3.7852l7.5698,3.7852L140.093,150.206z M132.9107,146.4208
				l7.1823,3.5918l7.183-3.5918l-7.183-3.5918L132.9107,146.4208z"/>
		</g>
		<g>
			<path fill="#632A2F" d="M110.5888,113.3201l-7.5698-3.7852l7.5698-3.7852l7.5691,3.7852L110.5888,113.3201z M103.4059,109.5349
				l7.183,3.5918l7.1823-3.5918l-7.1823-3.5918L103.4059,109.5349z"/>
		</g>
		<g>
			<path fill="#632A2F" d="M110.5888,120.6972l-7.5698-3.7852l7.5698-3.7852l7.5691,3.7852L110.5888,120.6972z M103.4059,116.9119
				l7.183,3.5918l7.1823-3.5918l-7.1823-3.5918L103.4059,116.9119z"/>
		</g>
		<g>
			<path fill="#632A2F" d="M95.8361,120.6972l-7.5691-3.7852l7.5691-3.7852l7.5698,3.7852L95.8361,120.6972z M88.6538,116.9119
				l7.1823,3.5918l7.183-3.5918l-7.183-3.5918L88.6538,116.9119z"/>
		</g>
		<g>
			<path fill="#632A2F" d="M110.5888,128.0746l-7.5698-3.7856l7.5698-3.7852l7.5691,3.7852L110.5888,128.0746z M103.4059,124.289
				l7.183,3.5922l7.1823-3.5922l-7.1823-3.5918L103.4059,124.289z"/>
		</g>
		<g>
			<path fill="#632A2F" d="M95.8361,128.0746l-7.5691-3.7856l7.5691-3.7852l7.5698,3.7852L95.8361,128.0746z M88.6538,124.289
				l7.1823,3.5922l7.183-3.5922l-7.183-3.5918L88.6538,124.289z"/>
		</g>
		<g>
			<path fill="#632A2F" d="M81.084,128.0746l-7.5698-3.7856l7.5698-3.7852l7.5698,3.7852L81.084,128.0746z M73.9011,124.289
				l7.183,3.5922l7.183-3.5922l-7.183-3.5918L73.9011,124.289z"/>
		</g>
		<g>
			<path fill="#632A2F" d="M110.5888,135.4516l-7.5698-3.7852l7.5698-3.7852l7.5691,3.7852L110.5888,135.4516z M103.4059,131.6664
				l7.183,3.5918l7.1823-3.5918l-7.1823-3.5918L103.4059,131.6664z"/>
		</g>
		<g>
			<path fill="#632A2F" d="M95.8361,135.4516l-7.5691-3.7852l7.5691-3.7852l7.5698,3.7852L95.8361,135.4516z M88.6538,131.6664
				l7.1823,3.5918l7.183-3.5918l-7.183-3.5918L88.6538,131.6664z"/>
		</g>
		<g>
			<path fill="#632A2F" d="M81.084,135.4516l-7.5698-3.7852l7.5698-3.7852l7.5698,3.7852L81.084,135.4516z M73.9011,131.6664
				l7.183,3.5918l7.183-3.5918l-7.183-3.5918L73.9011,131.6664z"/>
		</g>
		<g>
			<path fill="#632A2F" d="M110.5888,142.829l-7.5698-3.7856l7.5698-3.7852l7.5691,3.7852L110.5888,142.829z M103.4059,139.0434
				l7.183,3.5921l7.1823-3.5921l-7.1823-3.5918L103.4059,139.0434z"/>
		</g>
		<g>
			<path fill="#632A2F" d="M95.8361,142.829l-7.5691-3.7856l7.5691-3.7852l7.5698,3.7852L95.8361,142.829z M88.6538,139.0434
				l7.1823,3.5921l7.183-3.5921l-7.183-3.5918L88.6538,139.0434z"/>
		</g>
		<g>
			<path fill="#632A2F" d="M110.5888,150.206l-7.5698-3.7852l7.5698-3.7852l7.5691,3.7852L110.5888,150.206z M103.4059,146.4208
				l7.183,3.5918l7.1823-3.5918l-7.1823-3.5918L103.4059,146.4208z"/>
		</g>
		<g>
			<path fill="#632A2F" d="M125.3409,157.5831l-7.5698-3.7852l7.5698-3.7852l7.5698,3.7852L125.3409,157.5831z M118.1579,153.7979
				l7.183,3.5918l7.183-3.5918l-7.183-3.5918L118.1579,153.7979z"/>
		</g>
	</g>
	<g>
		<polygon fill="#F9F1E4" points="120.8771,96.3558 119.4752,97.0569 121.1115,97.876 122.5134,97.1749 		"/>
		<polygon fill="#C9AE7F" points="119.4752,97.0569 119.4752,101.408 121.1115,102.2271 121.1115,97.876 		"/>
		<polygon fill="#F4E2C1" points="121.1115,97.876 122.5134,97.1749 122.5134,101.526 121.1115,102.2271 		"/>
	</g>
	<g>
		<polygon fill="#F9F1E4" points="114.6816,99.4536 113.2797,100.1546 114.916,100.9738 116.3179,100.2726 		"/>
		<polygon fill="#C9AE7F" points="113.2797,100.1546 113.2797,104.5058 114.916,105.3249 114.916,100.9738 		"/>
		<polygon fill="#F4E2C1" points="114.916,100.9738 116.3179,100.2726 116.3179,104.6238 114.916,105.3249 		"/>
	</g>
	<g>
		<polygon fill="#F9F1E4" points="108.4862,102.5513 107.0842,103.2524 108.7205,104.0715 110.1224,103.3704 		"/>
		<polygon fill="#C9AE7F" points="107.0842,103.2524 107.0842,107.6035 108.7205,108.4226 108.7205,104.0715 		"/>
		<polygon fill="#F4E2C1" points="108.7205,104.0715 110.1224,103.3704 110.1224,107.7215 108.7205,108.4226 		"/>
	</g>
	<g>
		<polygon fill="#F9F1E4" points="102.2907,105.649 100.8888,106.3501 102.525,107.1692 103.927,106.4681 		"/>
		<polygon fill="#C9AE7F" points="100.8888,106.3501 100.8888,110.7012 102.525,111.5204 102.525,107.1692 		"/>
		<polygon fill="#F4E2C1" points="102.525,107.1692 103.927,106.4681 103.927,110.8192 102.525,111.5204 		"/>
	</g>
	<g>
		<polygon fill="#F9F1E4" points="96.0952,108.7468 94.6933,109.4478 96.3296,110.267 97.7315,109.5658 		"/>
		<polygon fill="#C9AE7F" points="94.6933,109.4478 94.6933,113.799 96.3296,114.6181 96.3296,110.267 		"/>
		<polygon fill="#F4E2C1" points="96.3296,110.267 97.7315,109.5658 97.7315,113.917 96.3296,114.6181 		"/>
	</g>
	<g>
		<polygon fill="#F9F1E4" points="89.8997,111.8445 88.4978,112.5456 90.1341,113.3647 91.536,112.6636 		"/>
		<polygon fill="#C9AE7F" points="88.4978,112.5456 88.4978,116.8967 90.1341,117.7158 90.1341,113.3647 		"/>
		<polygon fill="#F4E2C1" points="90.1341,113.3647 91.536,112.6636 91.536,117.0147 90.1341,117.7158 		"/>
	</g>
	<g>
		<polygon fill="#F9F1E4" points="83.7043,114.9422 82.3024,115.6433 83.9386,116.4624 85.3406,115.7613 		"/>
		<polygon fill="#C9AE7F" points="82.3024,115.6433 82.3024,119.9944 83.9386,120.8136 83.9386,116.4624 		"/>
		<polygon fill="#F4E2C1" points="83.9386,116.4624 85.3406,115.7613 85.3406,120.1124 83.9386,120.8136 		"/>
	</g>
	<g>
		<polygon fill="#F9F1E4" points="77.5088,118.04 76.1069,118.741 77.7432,119.5602 79.1451,118.859 		"/>
		<polygon fill="#C9AE7F" points="76.1069,118.741 76.1069,123.0922 77.7432,123.9113 77.7432,119.5602 		"/>
		<polygon fill="#F4E2C1" points="77.7432,119.5602 79.1451,118.859 79.1451,123.2102 77.7432,123.9113 		"/>
	</g>
	<g>
		<polygon fill="#F9F1E4" points="71.3133,121.1377 69.9114,121.8388 71.5477,122.6579 72.9496,121.9568 		"/>
		<polygon fill="#C9AE7F" points="69.9114,121.8388 69.9114,126.1899 71.5477,127.009 71.5477,122.6579 		"/>
		<polygon fill="#F4E2C1" points="71.5477,122.6579 72.9496,121.9568 72.9496,126.3079 71.5477,127.009 		"/>
	</g>
	<polygon fill="#F9F1E4" points="129.8047,96.3558 131.2066,97.0569 129.5704,97.876 128.1684,97.1749 	"/>
	<polygon fill="#632A2F" points="124.581,98.8479 129.0448,101.0785 127.4086,101.8976 128.8105,102.5987 130.4468,101.7796 
		135.2403,104.1763 133.604,104.9953 135.006,105.6965 136.6422,104.8773 141.4358,107.274 139.7995,108.0931 141.2014,108.7942 
		142.8377,107.9751 147.6313,110.3717 145.995,111.1908 147.3969,111.8919 149.0332,111.0728 153.8267,113.4695 152.1904,114.2885 
		153.5924,114.9897 155.2287,114.1705 160.0222,116.5672 158.3859,117.3863 159.7878,118.0874 161.4241,117.2683 166.2177,119.6649 
		164.5814,120.484 165.9833,121.1851 167.6196,120.366 172.4131,122.7627 170.7769,123.5817 172.1788,124.2829 173.8151,123.4637 
		178.6086,125.8604 176.9723,126.6795 178.3742,127.3806 180.0105,126.5615 187.961,130.5379 189.3668,130.366 125.8977,98.6315 	
		"/>
	<polygon fill="#F4E2C1" points="131.2066,97.0569 131.2066,101.408 129.5704,102.2271 129.5704,97.876 	"/>
	<polygon fill="#C9AE7F" points="129.5704,97.876 128.1684,97.1749 128.1684,101.526 129.5704,102.2271 	"/>
	<polygon fill="#F9F1E4" points="136.0002,99.4536 137.4021,100.1546 135.7658,100.9738 134.3639,100.2726 	"/>
	<polygon fill="#F4E2C1" points="137.4021,100.1546 137.4021,104.5058 135.7658,105.3249 135.7658,100.9738 	"/>
	<polygon fill="#C9AE7F" points="135.7658,100.9738 134.3639,100.2726 134.3639,104.6238 135.7658,105.3249 	"/>
	<polygon fill="#F9F1E4" points="142.1957,102.5513 143.5976,103.2524 141.9613,104.0715 140.5594,103.3704 	"/>
	<polygon fill="#F4E2C1" points="143.5976,103.2524 143.5976,107.6035 141.9613,108.4226 141.9613,104.0715 	"/>
	<polygon fill="#C9AE7F" points="141.9613,104.0715 140.5594,103.3704 140.5594,107.7215 141.9613,108.4226 	"/>
	<polygon fill="#F9F1E4" points="148.3911,105.649 149.7931,106.3501 148.1568,107.1692 146.7549,106.4681 	"/>
	<polygon fill="#F4E2C1" points="149.7931,106.3501 149.7931,110.7012 148.1568,111.5204 148.1568,107.1692 	"/>
	<polygon fill="#C9AE7F" points="148.1568,107.1692 146.7549,106.4681 146.7549,110.8192 148.1568,111.5204 	"/>
	<polygon fill="#F9F1E4" points="154.5866,108.7468 155.9885,109.4478 154.3522,110.267 152.9503,109.5658 	"/>
	<polygon fill="#F4E2C1" points="155.9885,109.4478 155.9885,113.799 154.3522,114.6181 154.3522,110.267 	"/>
	<polygon fill="#C9AE7F" points="154.3522,110.267 152.9503,109.5658 152.9503,113.917 154.3522,114.6181 	"/>
	<polygon fill="#F9F1E4" points="160.7821,111.8445 162.184,112.5456 160.5477,113.3647 159.1458,112.6636 	"/>
	<polygon fill="#F4E2C1" points="162.184,112.5456 162.184,116.8967 160.5477,117.7158 160.5477,113.3647 	"/>
	<polygon fill="#C9AE7F" points="160.5477,113.3647 159.1458,112.6636 159.1458,117.0147 160.5477,117.7158 	"/>
	<polygon fill="#F9F1E4" points="166.9775,114.9422 168.3795,115.6433 166.7432,116.4624 165.3412,115.7613 	"/>
	<polygon fill="#F4E2C1" points="168.3795,115.6433 168.3795,119.9944 166.7432,120.8136 166.7432,116.4624 	"/>
	<polygon fill="#C9AE7F" points="166.7432,116.4624 165.3412,115.7613 165.3412,120.1124 166.7432,120.8136 	"/>
	<polygon fill="#F9F1E4" points="173.173,118.04 174.5749,118.741 172.9386,119.5602 171.5367,118.859 	"/>
	<polygon fill="#F4E2C1" points="174.5749,118.741 174.5749,123.0922 172.9386,123.9113 172.9386,119.5602 	"/>
	<polygon fill="#C9AE7F" points="172.9386,119.5602 171.5367,118.859 171.5367,123.2102 172.9386,123.9113 	"/>
	<polygon fill="#F9F1E4" points="179.3685,121.1377 180.7704,121.8388 179.1341,122.6579 177.7322,121.9568 	"/>
	<polygon fill="#F4E2C1" points="180.7704,121.8388 180.7704,126.1899 179.1341,127.009 179.1341,122.6579 	"/>
	<polygon fill="#C9AE7F" points="179.1341,122.6579 177.7322,121.9568 177.7322,126.3079 179.1341,127.009 	"/>
	<g>
		<g>
			<polygon fill="#F9F1E4" points="180.4066,128.3317 179.0047,129.0328 180.641,129.8519 182.0429,129.1508 			"/>
			<polygon fill="#C9AE7F" points="179.0047,129.0328 179.0047,133.3839 180.641,134.203 180.641,129.8519 			"/>
			<polygon fill="#F4E2C1" points="180.641,129.8519 182.0429,129.1508 182.0429,133.5019 180.641,134.203 			"/>
		</g>
		<g>
			<polygon fill="#F9F1E4" points="174.2111,131.4294 172.8092,132.1305 174.4455,132.9496 175.8474,132.2485 			"/>
			<polygon fill="#C9AE7F" points="172.8092,132.1305 172.8092,136.4816 174.4455,137.3008 174.4455,132.9496 			"/>
			<polygon fill="#F4E2C1" points="174.4455,132.9496 175.8474,132.2485 175.8474,136.5996 174.4455,137.3008 			"/>
		</g>
		<g>
			<polygon fill="#F9F1E4" points="168.0157,134.5272 166.6137,135.2282 168.25,136.0474 169.6519,135.3463 			"/>
			<polygon fill="#C9AE7F" points="166.6137,135.2282 166.6137,139.5794 168.25,140.3985 168.25,136.0474 			"/>
			<polygon fill="#F4E2C1" points="168.25,136.0474 169.6519,135.3463 169.6519,139.6974 168.25,140.3985 			"/>
		</g>
		<g>
			<polygon fill="#F9F1E4" points="161.8202,137.6249 160.4183,138.326 162.0546,139.1451 163.4565,138.444 			"/>
			<polygon fill="#C9AE7F" points="160.4183,138.326 160.4183,142.6771 162.0546,143.4962 162.0546,139.1451 			"/>
			<polygon fill="#F4E2C1" points="162.0546,139.1451 163.4565,138.444 163.4565,142.7951 162.0546,143.4962 			"/>
		</g>
		<g>
			<polygon fill="#F9F1E4" points="155.6247,140.7226 154.2228,141.4237 155.8591,142.2428 157.261,141.5417 			"/>
			<polygon fill="#C9AE7F" points="154.2228,141.4237 154.2228,145.7748 155.8591,146.594 155.8591,142.2428 			"/>
			<polygon fill="#F4E2C1" points="155.8591,142.2428 157.261,141.5417 157.261,145.8929 155.8591,146.594 			"/>
		</g>
		<g>
			<polygon fill="#F9F1E4" points="149.4293,143.8204 148.0273,144.5214 149.6636,145.3406 151.0655,144.6395 			"/>
			<polygon fill="#C9AE7F" points="148.0273,144.5214 148.0273,148.8726 149.6636,149.6917 149.6636,145.3406 			"/>
			<polygon fill="#F4E2C1" points="149.6636,145.3406 151.0655,144.6395 151.0655,148.9906 149.6636,149.6917 			"/>
		</g>
		<g>
			<polygon fill="#F9F1E4" points="143.2338,146.9181 141.8319,147.6192 143.4681,148.4383 144.8701,147.7372 			"/>
			<polygon fill="#C9AE7F" points="141.8319,147.6192 141.8319,151.9703 143.4681,152.7894 143.4681,148.4383 			"/>
			<polygon fill="#F4E2C1" points="143.4681,148.4383 144.8701,147.7372 144.8701,152.0883 143.4681,152.7894 			"/>
		</g>
		<g>
			<polygon fill="#F9F1E4" points="137.0383,150.0158 135.6364,150.7169 137.2727,151.536 138.6746,150.8349 			"/>
			<polygon fill="#C9AE7F" points="135.6364,150.7169 135.6364,155.068 137.2727,155.8872 137.2727,151.536 			"/>
			<polygon fill="#F4E2C1" points="137.2727,151.536 138.6746,150.8349 138.6746,155.1861 137.2727,155.8872 			"/>
		</g>
		<g>
			<polygon fill="#F9F1E4" points="130.8428,153.1136 129.4409,153.8146 131.0772,154.6338 132.4791,153.9326 			"/>
			<polygon fill="#C9AE7F" points="129.4409,153.8146 129.4409,158.1658 131.0772,158.9849 131.0772,154.6338 			"/>
			<polygon fill="#F4E2C1" points="131.0772,154.6338 132.4791,153.9326 132.4791,158.2838 131.0772,158.9849 			"/>
		</g>
	</g>
	<polygon fill="#F9F1E4" points="70.2752,128.3317 71.6771,129.0328 70.0409,129.8519 68.6389,129.1508 	"/>
	<polygon fill="#F4E2C1" points="71.6771,129.0328 71.6771,133.3839 70.0409,134.203 70.0409,129.8519 	"/>
	<polygon fill="#F4E2C1" points="70.0409,129.8519 68.6389,129.1508 68.6389,133.5019 70.0409,134.203 	"/>
	<polygon fill="#F9F1E4" points="76.4707,131.4294 77.8726,132.1305 76.2363,132.9496 74.8344,132.2485 	"/>
	<polygon fill="#F4E2C1" points="77.8726,132.1305 77.8726,136.4816 76.2363,137.3008 76.2363,132.9496 	"/>
	<polygon fill="#F4E2C1" points="76.2363,132.9496 74.8344,132.2485 74.8344,136.5996 76.2363,137.3008 	"/>
	<polygon fill="#F9F1E4" points="82.6662,134.5272 84.0681,135.2282 82.4318,136.0474 81.0299,135.3463 	"/>
	<polygon fill="#F4E2C1" points="84.0681,135.2282 84.0681,139.5794 82.4318,140.3985 82.4318,136.0474 	"/>
	<polygon fill="#F4E2C1" points="82.4318,136.0474 81.0299,135.3463 81.0299,139.6974 82.4318,140.3985 	"/>
	<polygon fill="#F9F1E4" points="88.8616,137.6249 90.2635,138.326 88.6273,139.1451 87.2253,138.444 	"/>
	<polygon fill="#F4E2C1" points="90.2635,138.326 90.2635,142.6771 88.6273,143.4962 88.6273,139.1451 	"/>
	<polygon fill="#F4E2C1" points="88.6273,139.1451 87.2253,138.444 87.2253,142.7951 88.6273,143.4962 	"/>
	<g>
		<polygon fill="#F9F1E4" points="95.0571,140.7226 96.459,141.4237 94.8227,142.2428 93.4208,141.5417 		"/>
		<polygon fill="#F4E2C1" points="96.459,141.4237 96.459,145.7748 94.8227,146.594 94.8227,142.2428 		"/>
		<polygon fill="#F4E2C1" points="94.8227,142.2428 93.4208,141.5417 93.4208,145.8929 94.8227,146.594 		"/>
	</g>
	<g>
		<polygon fill="#F9F1E4" points="101.2526,143.8204 102.6545,144.5214 101.0182,145.3406 99.6163,144.6395 		"/>
		<polygon fill="#F4E2C1" points="102.6545,144.5214 102.6545,148.8726 101.0182,149.6917 101.0182,145.3406 		"/>
		<polygon fill="#F4E2C1" points="101.0182,145.3406 99.6163,144.6395 99.6163,148.9906 101.0182,149.6917 		"/>
	</g>
	<polygon fill="#F9F1E4" points="107.448,146.9181 108.85,147.6192 107.2137,148.4383 105.8118,147.7372 	"/>
	<polygon fill="#F4E2C1" points="108.85,147.6192 108.85,151.9703 107.2137,152.7894 107.2137,148.4383 	"/>
	<polygon fill="#F4E2C1" points="107.2137,148.4383 105.8118,147.7372 105.8118,152.0883 107.2137,152.7894 	"/>
	<g>
		<polygon fill="#F9F1E4" points="113.6435,150.0158 115.0454,150.7169 113.4091,151.536 112.0072,150.8349 		"/>
		<polygon fill="#F4E2C1" points="115.0454,150.7169 115.0454,155.068 113.4091,155.8872 113.4091,151.536 		"/>
		<polygon fill="#F4E2C1" points="113.4091,151.536 112.0072,150.8349 112.0072,155.1861 113.4091,155.8872 		"/>
	</g>
	<g>
		<polygon fill="#F9F1E4" points="119.839,153.1136 121.2409,153.8146 119.6046,154.6338 118.2027,153.9326 		"/>
		<polygon fill="#F4E2C1" points="121.2409,153.8146 121.2409,158.1658 119.6046,158.9849 119.6046,154.6338 		"/>
		<polygon fill="#F4E2C1" points="119.6046,154.6338 118.2027,153.9326 118.2027,158.2838 119.6046,158.9849 		"/>
	</g>
	<polygon fill="#F4E2C1" points="191.8175,125.8152 191.8175,130.1779 125.3409,163.4164 125.3409,159.0536 	"/>
	<polygon fill="#F9F1E4" points="125.3409,157.5053 125.3409,159.0536 191.8175,125.8152 188.7208,125.8152 	"/>
	<polygon fill="#C9AE7F" points="58.8643,125.8152 58.8643,130.1779 125.3409,163.4164 125.3409,159.0536 	"/>
	<polygon fill="#F9F1E4" points="58.8643,125.8152 61.961,125.8152 125.3409,157.5053 125.3409,159.0536 	"/>
	<g>
		<path fill="#D67C07" d="M122.8079,207.3461c-0.3834,0-0.7359-0.5267-1.1585-0.7387L15.5555,153.5602
			c-12.7166-6.3086-13.6726-12.9799-13.7497-13.2625l1.493,0.3779c0.0176,0.0632,1.1515,5.8735,12.7193,11.9548l106.0965,53.0483
			c0.449,0.2245,0.8182,0.2661,1.1347,0.1261c0.4882-0.2171,0.7865-0.8575,0.8798-1.1398l-0.0038-41.8592l0.5107,0.2521
			l0.5332,0.2699l-0.0014,42.5902l-0.0189,0.0676c-0.0155,0.0568-0.1968,0.9713-1.2802,1.4528
			C123.6104,207.553,123.0899,207.3461,122.8079,207.3461z"/>
	</g>
	<g>
		<path fill="#F9F1E4" d="M123.5529,208.3105c-0.3834,0-0.7885-0.1062-1.2111-0.3182L16.248,154.9451
			C3.5314,148.6365,0.8759,140.4626,0.7988,140.18l1.704,1.188c0.0176,0.0632,1.9624,6.5723,14.2077,12.6473l106.0965,53.0483
			c0.449,0.2245,0.8182,0.2661,1.1347,0.1261c0.4882-0.2171,0.7865-0.8575,0.8798-1.1398l-0.0052-42.8958l0.5246,0.2622
			l0.5193-0.2596v43.0406l-0.0189,0.0676c-0.0156,0.0568-0.3942,1.3924-1.4776,1.8738
			C124.1054,208.2534,123.8349,208.3105,123.5529,208.3105z"/>
	</g>
	<path fill="#F9F1E4" d="M58.8643,129.4769c0,0-32.8785,16.4441-56.8625,11.3264l-1.203-0.6233v-0.701
		c24.2426,5.6124,58.0655-11.1472,58.0655-11.1472V129.4769z"/>
	<path fill="#DDC29B" d="M58.8643,130.1779c0,0-32.8785,16.4441-56.8625,11.3264l-1.203-1.3243
		c24.2426,5.6124,58.0655-11.1472,58.0655-11.1472V130.1779z"/>
	<g>
		<path fill="#F9F1E4" d="M127.1289,208.3105c0.3834,0,0.7885-0.1062,1.2111-0.3182l106.0938-53.0473
			c12.7166-6.3086,15.372-14.4825,15.4491-14.7651l-1.704,1.188c-0.0176,0.0632-1.9624,6.5723-14.2077,12.6473l-106.0965,53.0483
			c-0.449,0.2245-0.8182,0.2661-1.1347,0.1261c-0.4882-0.2171-0.7865-0.8575-0.8798-1.1398l0.0052-42.8958l-0.5246,0.2622
			l-0.5193-0.2596v43.0406l0.0189,0.0676c0.0156,0.0568,0.3942,1.3924,1.4776,1.8738
			C126.5764,208.2534,126.8469,208.3105,127.1289,208.3105z"/>
	</g>
	<path fill="#F9F1E4" d="M191.8175,129.4769c0,0,32.8785,16.4441,56.8625,11.3264l1.203-0.6233v-0.701
		c-24.2426,5.6124-58.0655-11.1472-58.0655-11.1472V129.4769z"/>
	<path fill="#DDC29B" d="M191.8175,130.1779c0,0,32.8785,16.4441,56.8625,11.3264l1.203-1.3243
		c-24.2426,5.6124-58.0655-11.1472-58.0655-11.1472V130.1779z"/>
	<path fill="#D67C07" d="M124.1252,173.1386c0,0-0.6152-3.8367-3.9716-5.7013c-3.3564-1.8646-67.9839-34.1158-67.9839-34.1158
		l6.6947-3.1436l65.2596,32.6299L124.1252,173.1386z"/>
	<g>
		<polygon fill="#F9F1E4" points="125.8603,92.8366 125.3409,92.577 124.8216,92.8366 124.8216,80 125.8603,80 		"/>
	</g>
	<path fill="#D67C07" d="M124.2141,81.4288c0,0,0.6556,10.7076-1.9697,12.6964l2.5771-1.2886V80.6886L124.2141,81.4288z"/>
	<path fill="#E2881B" d="M247.6865,142.4916c0,0-8.9416,2.1241-24.7763-0.701c-15.3898-2.7458-29.4551-9.601-29.4551-9.601
		s-64.0144,32.3468-67.5906,39.4626l0.001-8.498l65.952-32.9761c0,0,32.0069,15.968,56.2693,11.4482
		C248.0869,141.6261,247.9562,142.0038,247.6865,142.4916z"/>
	<g>
		<path fill="#C9B59B" d="M49.7553,171.1299c0,0-13.0959-2.7408-16.9289-10.0837l1.2088,0.611
			c3.833,7.3429,16.9244,10.093,16.9244,10.093"/>
		<path fill="#DDC29B" d="M50.9641,171.7409c0,0-13.2381-2.7644-16.9289-10.0837c0,0,27.8201-5.0555,43.9536-21.8987
			L50.9641,171.7409z"/>
		<path fill="#F19200" d="M78.7058,140.3985l30.6178,15.0706c0,0-11.794,17.2409-41.0841,22.9688l-32.5391-16.3195
			C35.7003,162.1184,59.1578,159.0536,78.7058,140.3985z"/>
		<polygon fill="#D67C07" points="77.9888,139.7586 75.808,141.7923 108.2513,158.2752 110.5279,156.078 		"/>
		<path fill="#F9F1E4" d="M66.5743,177.9767c28.3165-4.9642,43.9536-21.8987,43.9536-21.8987l-1.2043-0.6089
			c0,0-15.6371,16.9345-43.9536,21.8987L66.5743,177.9767z"/>
		<path fill="#F9F1E4" d="M34.0307,161.6527c28.3165-4.9642,44.6751-22.5076,44.6751-22.5076l-1.2043-0.6089
			c0,0-16.3587,17.5434-44.6751,22.5076L34.0307,161.6527z"/>
		<path fill="#C9B59B" d="M82.2989,187.4401c0,0-13.0959-2.7408-16.9289-10.0837l1.2043,0.6203
			c3.833,7.3429,16.9289,10.0837,16.9289,10.0837"/>
		<path fill="#DB830E" d="M83.5032,188.0604c0,0-13.2381-2.7644-16.9289-10.0837c0,0,25.0799-3.2681,43.9536-21.8987
			L83.5032,188.0604z"/>
	</g>
	<path fill="#DDC29B" d="M34.0307,161.6527l1.6697,0.4657c0,0,23.0865-2.8533,43.0055-21.7199v-1.2534
		C78.7058,139.1451,60.765,157.5053,34.0307,161.6527z"/>
	<polygon fill="#F9F1E4" points="35.7003,162.1184 38.8511,161.5472 68.6389,176.7311 65.37,177.3564 	"/>
	<path fill="#C9B59B" d="M35.7003,162.1184l2.7627,2.9745l28.2405,14.244c0,0-1.1463-1.4284-1.3335-1.9805L35.7003,162.1184z"/>
	<polygon fill="#EAE2D6" points="58.9072,154.3115 60.4173,153.5183 91.2557,168.9376 89.8066,169.7613 	"/>
	<path fill="#F9F1E4" d="M66.5743,177.9767c0,0,2.1636,6.5103,16.9289,10.0837l0.3854-0.4561c0,0-13.4811-2.9373-16.6014-9.7838
		L66.5743,177.9767z"/>
</g>
</svg>
