<?xml version="1.0" encoding="iso-8859-1"?>
<!-- Generator: Adobe Illustrator 24.0.3, SVG Export Plug-In . SVG Version: 6.00 Build 0)  -->
<svg version="1.1" id="&#x5716;&#x5C64;_1" xmlns="http://www.w3.org/2000/svg" xmlns:xlink="http://www.w3.org/1999/xlink" x="0px"
	 y="0px" viewBox="0 0 250 250" enable-background="new 0 0 250 250" xml:space="preserve">
<g>
	<polygon fill="#D6C4A5" points="34.3077,118.643 34.3077,172.1019 138.8951,223.386 138.8951,169.9271 	"/>
	<polygon fill="#C4BFAE" points="34.3077,166.9405 34.3077,172.1019 138.8951,223.386 138.8951,218.2246 	"/>
	<polygon fill="#C4BFAE" points="33.0888,167.506 33.0888,172.6673 137.6762,223.9514 137.6762,218.7901 	"/>
	<polygon fill="#EAD9C3" points="197.2808,141.3404 197.2808,194.743 138.8951,223.386 138.8951,169.9834 	"/>
	<polygon fill="#878577" points="197.2808,189.5816 197.2808,194.743 138.8951,223.386 138.8951,218.2246 	"/>
	<polygon fill="#DDD9CC" points="198.1661,190.1471 198.1661,195.3084 138.8951,224.4961 138.8951,219.3348 	"/>
	<polygon fill="#EAD9C3" points="138.8951,169.9834 168.1661,106.6774 197.2808,141.3404 	"/>
	<polygon fill="#F2EFE9" points="33.0888,167.506 34.3077,166.9405 138.8951,218.2246 137.6762,218.7901 	"/>
	<polygon fill="#C4BFAE" points="137.6762,218.7901 138.8951,218.2246 138.8951,224.4961 137.6762,223.9514 	"/>
	<polygon fill="#F2EFE9" points="137.6762,218.7901 138.8951,219.3348 198.1661,190.1471 197.2808,189.5816 	"/>
	<polygon fill="#1C4063" points="63.5006,55.4366 32.338,122.9336 32.2702,125.7231 135.8629,176.5752 168.0879,106.6773 	"/>
	<line fill="none" x1="31.2755" y1="125.2348" x2="63.5006" y2="55.4366"/>
	<polygon fill="#183A56" points="135.8629,176.5752 135.8629,173.8609 156.2771,129.5821 157.336,130.1016 	"/>
	<polygon fill="#133149" points="135.8629,173.8609 32.338,122.9336 32.2702,125.7231 135.8629,176.5752 	"/>
	<polygon fill="#EAD9C3" points="178.8399,75.7045 178.8399,119.5522 157.336,130.1016 157.336,86.2539 	"/>
	<polygon fill="#D6C4A5" points="135.8322,75.7045 135.8322,119.5522 157.336,130.1016 157.336,86.2539 	"/>
	<polygon fill="#1C4063" points="135.8322,75.7045 157.5019,47.5337 157.336,86.2539 	"/>
	<polygon fill="#265882" points="157.336,86.2539 178.8399,75.7045 157.5019,47.5337 	"/>
	<polygon fill="#D1C9BA" points="133.6026,75.527 157.4355,87.219 157.4355,91.8754 133.6026,80.1694 	"/>
	<polygon fill="#FDEEDF" points="181.2684,75.527 157.4355,87.219 157.4355,91.8754 181.2684,80.1694 	"/>
	<polygon fill="#FFF4EB" points="133.6026,75.527 137.3862,73.6842 135.8322,75.7045 157.336,86.2539 157.4355,87.219 	"/>
	<polygon fill="#FFF4EB" points="181.2684,75.527 176.9033,73.1477 178.8399,75.7045 157.336,86.2539 157.4355,87.219 	"/>
	<polygon fill="#133149" points="178.8399,119.3853 200.4089,145.0621 200.4089,143.2431 178.8399,117.7227 	"/>
	<polygon fill="#0B2333" points="200.4089,145.0621 197.2808,143.5351 197.2808,141.3404 	"/>
	<g>
		<polygon fill="#EAD9C3" points="164.2103,27.7584 158.7915,30.4129 158.7915,24.4125 156.691,25.4545 156.691,31.4418 
			151.2722,34.0963 151.2722,36.5653 156.691,33.9108 156.691,51.4742 158.7915,50.4322 158.7915,32.8819 164.2103,30.2274 		"/>
		<polygon fill="#F9EFE5" points="156.691,31.4418 156.0794,31.1048 150.6606,33.7593 151.2722,34.0963 		"/>
		<polygon fill="#C4AD94" points="156.691,31.4418 156.691,25.4545 156.0794,25.1175 156.0794,31.1048 		"/>
		<polygon fill="#F9EFE5" points="164.2103,27.7584 163.5987,27.4214 158.7915,29.7763 158.7915,30.4129 		"/>
		<polygon fill="#C4AD94" points="150.6606,33.7593 151.2722,34.0963 151.2722,36.5653 150.6606,36.2283 		"/>
		<polygon fill="#C4AD94" points="156.0794,34.2104 156.691,33.9108 156.691,51.4742 156.0794,51.1372 		"/>
		<polygon fill="#F9EFE5" points="158.7915,24.4125 158.1799,24.0755 156.0794,25.1175 156.691,25.4545 		"/>
	</g>
	<path fill="#D3C0B4" d="M161.337,213.4485l1.1046-0.5477l1.5544,0.7732l18.3014-10.5473l2.659-29.0447
		c0,0-1.522-3.6718-2.9196-6.5585c-1.3977-2.8866-2.6647-4.8256-8.6145-4.679c-9.0655,0.2234-12.0853,12.0777-12.0853,16.6956
		C161.337,184.1579,161.337,213.4485,161.337,213.4485z"/>
	<path fill="#B57641" d="M176.524,167.0231c-0.1464-0.0228-0.2923-0.0477-0.4447-0.0477c-5.3276,0-8.7366,9.0991-8.9949,13.7735
		c-0.1731,3.1357-0.1015,20.7238-0.0434,29.868l13.194-6.4975v-29.6853C179.8569,172.5912,178.6244,168.7002,176.524,167.0231z"/>
	<polygon fill="#F2EFE9" points="161.337,207.1954 161.337,208.2834 162.4417,207.7394 	"/>
	<polygon fill="#DDD9CC" points="162.4417,207.7394 162.4417,212.9007 161.337,213.4447 161.337,208.2834 	"/>
	
		<line fill="none" stroke="#75512D" stroke-width="0.2" stroke-miterlimit="10" x1="173.9026" y1="167.506" x2="173.9026" y2="207.1954"/>
	<polygon fill="none" stroke="#75512D" stroke-width="0.15" stroke-miterlimit="10" points="171.8375,177.5119 171.8375,193.8169 
		166.9757,196.2151 166.9757,179.9102 	"/>
	<polygon fill="none" stroke="#75512D" stroke-width="0.15" stroke-miterlimit="10" points="171.8375,195.226 171.8375,202.3289 
		166.9757,204.7272 166.9757,197.6242 	"/>
	<polygon fill="none" stroke="#75512D" stroke-width="0.15" stroke-miterlimit="10" points="180.5728,173.5736 180.5728,189.8785 
		175.6521,192.3865 175.6521,176.0815 	"/>
	<polygon fill="none" stroke="#75512D" stroke-width="0.15" stroke-miterlimit="10" points="180.5728,191.2042 180.5728,198.5388 
		175.6521,201.0467 175.6521,193.7121 	"/>
	<path fill="#FDEDE2" d="M176.0814,163.0699c-7.9934-0.0021-11.7948,11.4357-12.0854,16.6956c-0.2546,4.611,0,33.9085,0,33.9085
		l20.9604-10.3218v-29.2703C184.9565,174.0819,183.0105,163.0717,176.0814,163.0699z M180.2351,204.1194l-13.194,6.4975
		c-0.0581-9.1441-0.1297-26.7323,0.0434-29.868c0.2582-4.6745,3.6673-13.7735,8.9949-13.7735c0.1524,0,0.2983,0.0248,0.4447,0.0477
		c2.1003,1.677,3.3329,5.5681,3.711,7.4111V204.1194z"/>
	<path fill="#C4B19B" d="M176.524,167.0231c2.1003,1.677,3.3329,5.5681,3.711,7.4111v29.6853l-13.194,6.4975
		c0.0035,0.5483,0.0069,1.0706,0.0102,1.5531l14.8125-7.2945v-29.6853C181.3965,172.9133,179.6279,167.5074,176.524,167.0231z"/>
	<polygon fill="#DBE36C" points="167.041,210.6358 167.0512,212.1701 181.8637,204.8756 180.2881,204.1124 	"/>
	<g>
		
			<ellipse transform="matrix(0.5398 -0.8418 0.8418 0.5398 -5.6768 188.2029)" fill="#FDEDE2" cx="169.2907" cy="99.2934" rx="7.8389" ry="5.613"/>
		
			<ellipse transform="matrix(0.5398 -0.8418 0.8418 0.5398 -5.7384 189.0829)" fill="#FDEDE2" cx="170.0648" cy="99.7898" rx="7.8389" ry="5.613"/>
		<path fill="#918781" d="M168.3463,105.5026c-0.6389,0.0286-1.2037-0.1109-1.6783-0.4154
			c-1.1205-0.7185-1.3529-2.0958-1.3921-2.8528c-0.0759-1.4772,0.4221-3.1683,1.366-4.639
			c1.3183-2.0566,3.3357-3.4377,5.1407-3.5185c0.6389-0.0286,1.2037,0.1117,1.6783,0.4162
			c1.1213,0.7185,1.3537,2.0957,1.3928,2.8521c0.0759,1.4772-0.4221,3.1683-1.366,4.6405
			C172.1695,104.0414,170.1505,105.4218,168.3463,105.5026z"/>
	</g>
	<g>
		
			<ellipse transform="matrix(0.8168 -0.5769 0.5769 0.8168 -30.3939 102.3004)" fill="#FDEDE2" cx="145.8946" cy="99.0111" rx="5.613" ry="7.8389"/>
		
			<ellipse transform="matrix(0.8168 -0.5769 0.5769 0.8168 -30.8375 101.9643)" fill="#FDEDE2" cx="145.1435" cy="99.5416" rx="5.613" ry="7.8389"/>
		<path fill="#6D6E72" d="M147.1156,105.1719c0.6395,0,1.1975-0.1646,1.6581-0.49c1.0873-0.7679,1.2579-2.1541,1.2632-2.9122
			c0.0098-1.4791-0.5633-3.1463-1.572-4.5733c-1.4089-1.9956-3.486-3.2852-5.2929-3.2852c-0.6395,0-1.1975,0.1654-1.6581,0.4908
			c-1.088,0.7679-1.2587,2.1541-1.2639,2.9115c-0.0098,1.4791,0.5633,3.1463,1.572,4.5748
			C143.2309,103.883,145.3095,105.1719,147.1156,105.1719z"/>
	</g>
	<g>
		<g>
			<path fill="#6D6E72" d="M115.0007,200.2645l7.8036,3.8444v-23.0443c0-2.7339-1.5542-5.2301-4.0075-6.4365h0
				c-1.7502-0.8606-3.7961,0.4132-3.7961,2.3635V200.2645z"/>
			<g>
				<polygon fill="#FFFBEF" points="114.4246,200.8543 122.7444,204.9529 122.7444,203.2729 114.4246,199.1818 				"/>
				<polygon fill="#E2DFD9" points="122.7444,204.9529 123.0624,204.7897 123.0624,203.1515 122.7444,203.2729 				"/>
				<polygon fill="#E2DFD9" points="114.4246,199.1818 114.6827,199.0795 123.0624,203.1515 122.7444,203.2729 				"/>
			</g>
			<polygon fill="#53555B" points="122.8043,203.0261 122.8043,202.6817 115.0007,198.8743 115.0007,199.2341 			"/>
		</g>
		<path fill="#53555B" d="M117.7702,174.3545c0,0-2.0889,0.523-2.0889,2.4205v22.7898l-0.6806-0.3307v-22.2424
			C115.0007,176.9916,114.9365,174.3545,117.7702,174.3545z"/>
	</g>
	<g>
		<g>
			<path fill="#6D6E72" d="M101.6563,193.7355l7.8036,3.8444v-23.0443c0-2.7339-1.5542-5.2301-4.0075-6.4365l0,0
				c-1.7502-0.8606-3.7961,0.4132-3.7961,2.3635V193.7355z"/>
			<g>
				<polygon fill="#FFFBEF" points="101.0802,194.3253 109.4,198.4239 109.4,196.7439 101.0802,192.6528 				"/>
				<polygon fill="#E2DFD9" points="109.4,198.4239 109.718,198.2607 109.718,196.6225 109.4,196.7439 				"/>
				<polygon fill="#E2DFD9" points="101.0802,192.6528 101.3383,192.5505 109.718,196.6225 109.4,196.7439 				"/>
			</g>
			<polygon fill="#53555B" points="109.4599,196.4971 109.4599,196.1527 101.6563,192.3453 101.6563,192.7051 			"/>
		</g>
		<path fill="#53555B" d="M104.4258,167.8255c0,0-2.0889,0.523-2.0889,2.4205v22.7898l-0.6806-0.3307v-22.2425
			C101.6563,170.4626,101.5921,167.8255,104.4258,167.8255z"/>
	</g>
	<g>
		<g>
			<path fill="#6D6E72" d="M88.3119,187.2065l7.8036,3.8444v-23.0443c0-2.7339-1.5542-5.2301-4.0075-6.4365h0
				c-1.7502-0.8606-3.7961,0.4132-3.7961,2.3635V187.2065z"/>
			<g>
				<polygon fill="#FFFBEF" points="87.7358,187.7963 96.0556,191.8949 96.0556,190.2149 87.7358,186.1238 				"/>
				<polygon fill="#E2DFD9" points="96.0556,191.8949 96.3736,191.7317 96.3736,190.0935 96.0556,190.2149 				"/>
				<polygon fill="#E2DFD9" points="87.7358,186.1238 87.9939,186.0215 96.3736,190.0935 96.0556,190.2149 				"/>
			</g>
			<polygon fill="#53555B" points="96.1155,189.9681 96.1155,189.6237 88.3119,185.8163 88.3119,186.1761 			"/>
		</g>
		<path fill="#53555B" d="M91.0814,161.2964c0,0-2.0889,0.523-2.0889,2.4205v22.7898l-0.6806-0.3307v-22.2424
			C88.3119,163.9336,88.2477,161.2964,91.0814,161.2964z"/>
	</g>
	<g>
		<g>
			<path fill="#6D6E72" d="M74.9675,180.6775l7.8036,3.8444v-23.0443c0-2.7339-1.5542-5.2301-4.0075-6.4365h0
				c-1.7502-0.8606-3.7961,0.4132-3.7961,2.3635V180.6775z"/>
			<g>
				<polygon fill="#FFFBEF" points="74.3914,181.2673 82.7112,185.3659 82.7112,183.6859 74.3914,179.5947 				"/>
				<polygon fill="#E2DFD9" points="82.7112,185.3659 83.0292,185.2027 83.0292,183.5645 82.7112,183.6859 				"/>
				<polygon fill="#E2DFD9" points="74.3914,179.5947 74.6495,179.4925 83.0292,183.5645 82.7112,183.6859 				"/>
			</g>
			<polygon fill="#53555B" points="82.7711,183.4391 82.7711,183.0947 74.9675,179.2873 74.9675,179.647 			"/>
		</g>
		<path fill="#53555B" d="M77.737,154.7674c0,0-2.0889,0.523-2.0889,2.4205v22.7898l-0.6806-0.3307v-22.2424
			C74.9675,157.4046,74.9033,154.7674,77.737,154.7674z"/>
	</g>
	<g>
		<g>
			<path fill="#6D6E72" d="M61.6231,174.1485l7.8036,3.8444v-23.0443c0-2.7339-1.5542-5.2301-4.0075-6.4365h0
				c-1.7502-0.8606-3.7961,0.4132-3.7961,2.3635V174.1485z"/>
			<g>
				<polygon fill="#FFFBEF" points="61.0471,174.7382 69.3668,178.8369 69.3668,177.1569 61.0471,173.0657 				"/>
				<polygon fill="#E2DFD9" points="69.3668,178.8369 69.6848,178.6737 69.6848,177.0355 69.3668,177.1569 				"/>
				<polygon fill="#E2DFD9" points="61.0471,173.0657 61.3051,172.9635 69.6848,177.0355 69.3668,177.1569 				"/>
			</g>
			<polygon fill="#53555B" points="69.4267,176.91 69.4267,176.5656 61.6231,172.7583 61.6231,173.118 			"/>
		</g>
		<path fill="#53555B" d="M64.3926,148.2384c0,0-2.0889,0.523-2.0889,2.4205v22.7898l-0.6806-0.3307v-22.2424
			C61.6231,150.8756,61.5589,148.2384,64.3926,148.2384z"/>
	</g>
	<g>
		<g>
			<path fill="#6D6E72" d="M48.2787,167.6194l7.8036,3.8444v-23.0443c0-2.7339-1.5542-5.2301-4.0075-6.4365l0,0
				c-1.7502-0.8606-3.7961,0.4132-3.7961,2.3635V167.6194z"/>
			<g>
				<polygon fill="#FFFBEF" points="47.7027,168.2092 56.0224,172.3078 56.0224,170.6279 47.7027,166.5367 				"/>
				<polygon fill="#E2DFD9" points="56.0224,172.3078 56.3404,172.1446 56.3404,170.5064 56.0224,170.6279 				"/>
				<polygon fill="#E2DFD9" points="47.7027,166.5367 47.9607,166.4345 56.3404,170.5064 56.0224,170.6279 				"/>
			</g>
			<polygon fill="#53555B" points="56.0823,170.381 56.0823,170.0366 48.2787,166.2292 48.2787,166.589 			"/>
		</g>
		<path fill="#53555B" d="M51.0482,141.7094c0,0-2.0889,0.523-2.0889,2.4205v22.7898l-0.6806-0.3307v-22.2424
			C48.2787,144.3465,48.2145,141.7094,51.0482,141.7094z"/>
	</g>
	<g>
		<polygon fill="#265882" points="177.8679,133.3534 172.4492,136.0079 172.4492,130.0074 170.3486,131.0495 170.3486,137.0368 
			164.9299,139.6913 164.9299,142.1602 170.3486,139.5058 170.3486,157.0692 172.4492,156.0271 172.4492,138.4769 
			177.8679,135.8224 		"/>
		<polygon fill="#34719B" points="170.3486,137.0368 169.737,136.6998 164.3182,139.3542 164.9299,139.6913 		"/>
		<polygon fill="#1C4063" points="170.3486,137.0368 170.3486,131.0495 169.737,130.7125 169.737,136.6998 		"/>
		<polygon fill="#34719B" points="177.8679,133.3534 177.2563,133.0164 172.4492,135.3712 172.4492,136.0079 		"/>
		<polygon fill="#1C4063" points="164.3182,139.3542 164.9299,139.6913 164.9299,142.1602 164.3182,141.8232 		"/>
		<polygon fill="#1C4063" points="169.737,139.8054 170.3486,139.5058 170.3486,157.0692 169.737,156.7322 		"/>
		<polygon fill="#34719B" points="172.4492,130.0074 171.8375,129.6704 169.737,130.7125 170.3486,131.0495 		"/>
	</g>
</g>
<g>
	<g>
		<g>
			<path fill="#493919" d="M122.9305,226.0164l-0.3952,13.9118c0,0.3673,0.4131,0.551,0.8264,0.551v-14.4627H122.9305z"/>
			<path fill="#725928" d="M123.8187,226.0164h-0.457v14.4627c0.4132,0,0.8265-0.1837,0.8265-0.551L123.8187,226.0164z"/>
		</g>
		<polygon fill="#385E32" points="122.5998,200.9502 122.7043,219.706 115.2627,223.1847 		"/>
		<polygon fill="#9FB651" points="122.7043,219.706 130.8621,224.9127 128.7309,213.8841 		"/>
		<polygon fill="#2A4F25" points="115.2627,223.1847 123.1221,227.3545 122.7043,219.706 		"/>
		<polygon fill="#83A93F" points="123.1221,227.3545 130.8621,224.9127 122.7043,219.706 		"/>
		<polygon fill="#233D1F" points="123.1221,227.3545 123.3617,229.9503 115.2627,223.1847 		"/>
		<polygon fill="#B4BF65" points="122.5998,200.9502 122.7043,219.706 128.7309,213.8841 		"/>
		<polygon fill="#69923E" points="123.3617,229.9503 130.8621,224.9127 123.1334,227.2505 		"/>
	</g>
</g>
<g>
	<g>
		<g>
			<path fill="#493919" d="M89.5647,210.0289l-0.3952,13.9118c0,0.3673,0.4131,0.551,0.8264,0.551v-14.4627H89.5647z"/>
			<path fill="#725928" d="M90.4529,210.0289h-0.457v14.4627c0.4132,0,0.8265-0.1837,0.8265-0.551L90.4529,210.0289z"/>
		</g>
		<polygon fill="#385E32" points="89.234,184.9627 89.3385,203.7185 81.897,207.1972 		"/>
		<polygon fill="#9FB651" points="89.3385,203.7185 97.4963,208.9252 95.3651,197.8966 		"/>
		<polygon fill="#2A4F25" points="81.897,207.1972 89.7564,211.367 89.3385,203.7185 		"/>
		<polygon fill="#83A93F" points="89.7564,211.367 97.4963,208.9252 89.3385,203.7185 		"/>
		<polygon fill="#233D1F" points="89.7564,211.367 89.9959,213.9628 81.897,207.1972 		"/>
		<polygon fill="#B4BF65" points="89.234,184.9627 89.3385,203.7185 95.3651,197.8966 		"/>
		<polygon fill="#69923E" points="89.9959,213.9628 97.4963,208.9252 89.7676,211.263 		"/>
	</g>
</g>
<g>
	<g>
		<g>
			<path fill="#493919" d="M59.7703,196.5059l-0.3952,13.9118c0,0.3673,0.4131,0.551,0.8264,0.551v-14.4627H59.7703z"/>
			<path fill="#725928" d="M60.6585,196.5059h-0.457v14.4627c0.4132,0,0.8265-0.1837,0.8265-0.551L60.6585,196.5059z"/>
		</g>
		<polygon fill="#385E32" points="59.4396,171.4398 59.5441,190.1955 52.1025,193.6742 		"/>
		<polygon fill="#9FB651" points="59.5441,190.1955 67.7018,195.4023 65.5706,184.3737 		"/>
		<polygon fill="#2A4F25" points="52.1025,193.6742 59.9619,197.844 59.5441,190.1955 		"/>
		<polygon fill="#83A93F" points="59.9619,197.844 67.7018,195.4023 59.5441,190.1955 		"/>
		<polygon fill="#233D1F" points="59.9619,197.844 60.2015,200.4398 52.1025,193.6742 		"/>
		<polygon fill="#B4BF65" points="59.4396,171.4398 59.5441,190.1955 65.5706,184.3737 		"/>
		<polygon fill="#69923E" points="60.2015,200.4398 67.7018,195.4023 59.9732,197.74 		"/>
	</g>
</g>
<g>
	<g>
		<g>
			<path fill="#493919" d="M222.4121,176.2966l-0.3952,13.9118c0,0.3673,0.4131,0.551,0.8264,0.551v-14.4627H222.4121z"/>
			<path fill="#725928" d="M223.3003,176.2966h-0.457v14.4627c0.4132,0,0.8265-0.1837,0.8265-0.551L223.3003,176.2966z"/>
		</g>
		<polygon fill="#385E32" points="222.0814,151.2304 222.1859,169.9862 214.7443,173.4649 		"/>
		<polygon fill="#9FB651" points="222.1859,169.9862 230.3437,175.1929 228.2125,164.1643 		"/>
		<polygon fill="#2A4F25" points="214.7443,173.4649 222.6037,177.6347 222.1859,169.9862 		"/>
		<polygon fill="#83A93F" points="222.6037,177.6347 230.3437,175.1929 222.1859,169.9862 		"/>
		<polygon fill="#233D1F" points="222.6037,177.6347 222.8433,180.2305 214.7443,173.4649 		"/>
		<polygon fill="#B4BF65" points="222.0814,151.2304 222.1859,169.9862 228.2125,164.1643 		"/>
		<polygon fill="#69923E" points="222.8433,180.2305 230.3437,175.1929 222.615,177.5307 		"/>
	</g>
</g>
</svg>
